<?xml version="1.0" encoding="utf-8"?><svg xmlns="http://www.w3.org/2000/svg" xmlns:xlink="http://www.w3.org/1999/xlink" width="48" height="48"><rect x="7" y="7" width="1" height="9" /><rect x="15" y="7" width="1" height="8" /><rect x="7" y="7" width="8" height="1" /><rect x="7" y="15" width="9" height="1" /><rect x="9" y="9" width="1" height="1" /><rect x="11" y="9" width="1" height="1" /><rect x="13" y="9" width="1" height="1" /><rect x="9" y="11" width="1" height="1" /><rect x="11" y="11" width="1" height="1" /><rect x="13" y="11" width="1" height="1" /><rect x="9" y="13" width="1" height="1" /><rect x="11" y="13" width="1" height="1" /><rect x="13" y="13" width="1" height="1" /><rect x="23" y="7" width="1" height="9" /><rect x="31" y="7" width="1" height="8" /><rect x="23" y="7" width="8" height="1" /><rect x="23" y="15" width="9" height="1" /><rect x="25" y="9" width="1" height="1" /><rect x="27" y="9" width="1" height="1" /><rect x="29" y="9" width="1" height="1" /><rect x="25" y="11" width="1" height="1" /><rect x="27" y="11" width="1" height="1" /><rect x="29" y="11" width="1" height="1" /><rect x="25" y="13" width="1" height="1" /><rect x="27" y="13" width="1" height="1" /><rect x="29" y="13" width="1" height="1" /><rect x="39" y="7" width="1" height="9" /><rect x="47" y="7" width="1" height="8" /><rect x="39" y="7" width="8" height="1" /><rect x="39" y="15" width="9" height="1" /><rect x="41" y="9" width="1" height="1" /><rect x="43" y="9" width="1" height="1" /><rect x="45" y="9" width="1" height="1" /><rect x="41" y="11" width="1" height="1" /><rect x="43" y="11" width="1" height="1" /><rect x="45" y="11" width="1" height="1" /><rect x="41" y="13" width="1" height="1" /><rect x="43" y="13" width="1" height="1" /><rect x="45" y="13" width="1" height="1" /><rect x="7" y="23" width="1" height="9" /><rect x="15" y="23" width="1" height="8" /><rect x="7" y="23" width="8" height="1" /><rect x="7" y="31" width="9" height="1" /><rect x="9" y="25" width="1" height="1" /><rect x="11" y="25" width="1" height="1" /><rect x="13" y="25" width="1" height="1" /><rect x="9" y="27" width="1" height="1" /><rect x="11" y="27" width="1" height="1" /><rect x="13" y="27" width="1" height="1" /><rect x="9" y="29" width="1" height="1" /><rect x="11" y="29" width="1" height="1" /><rect x="13" y="29" width="1" height="1" /><rect x="23" y="23" width="1" height="9" /><rect x="31" y="23" width="1" height="8" /><rect x="23" y="23" width="8" height="1" /><rect x="23" y="31" width="9" height="1" /><rect x="25" y="25" width="1" height="1" /><rect x="27" y="25" width="1" height="1" /><rect x="29" y="25" width="1" height="1" /><rect x="25" y="27" width="1" height="1" /><rect x="27" y="27" width="1" height="1" /><rect x="29" y="27" width="1" height="1" /><rect x="25" y="29" width="1" height="1" /><rect x="27" y="29" width="1" height="1" /><rect x="29" y="29" width="1" height="1" /><rect x="39" y="23" width="1" height="9" /><rect x="47" y="23" width="1" height="8" /><rect x="39" y="23" width="8" height="1" /><rect x="39" y="31" width="9" height="1" /><rect x="41" y="25" width="1" height="1" /><rect x="43" y="25" width="1" height="1" /><rect x="45" y="25" width="1" height="1" /><rect x="41" y="27" width="1" height="1" /><rect x="43" y="27" width="1" height="1" /><rect x="45" y="27" width="1" height="1" /><rect x="41" y="29" width="1" height="1" /><rect x="43" y="29" width="1" height="1" /><rect x="45" y="29" width="1" height="1" /><rect x="7" y="39" width="1" height="9" /><rect x="15" y="39" width="1" height="8" /><rect x="7" y="39" width="8" height="1" /><rect x="7" y="47" width="9" height="1" /><rect x="9" y="41" width="1" height="1" /><rect x="11" y="41" width="1" height="1" /><rect x="13" y="41" width="1" height="1" /><rect x="9" y="43" width="1" height="1" /><rect x="11" y="43" width="1" height="1" /><rect x="13" y="43" width="1" height="1" /><rect x="9" y="45" width="1" height="1" /><rect x="11" y="45" width="1" height="1" /><rect x="13" y="45" width="1" height="1" /><rect x="23" y="39" width="1" height="9" /><rect x="31" y="39" width="1" height="8" /><rect x="23" y="39" width="8" height="1" /><rect x="23" y="47" width="9" height="1" /><rect x="25" y="41" width="1" height="1" /><rect x="27" y="41" width="1" height="1" /><rect x="29" y="41" width="1" height="1" /><rect x="25" y="43" width="1" height="1" /><rect x="27" y="43" width="1" height="1" /><rect x="29" y="43" width="1" height="1" /><rect x="25" y="45" width="1" height="1" /><rect x="27" y="45" width="1" height="1" /><rect x="29" y="45" width="1" height="1" /><rect x="39" y="39" width="1" height="9" /><rect x="47" y="39" width="1" height="8" /><rect x="39" y="39" width="8" height="1" /><rect x="39" y="47" width="9" height="1" /><rect x="41" y="41" width="1" height="1" /><rect x="43" y="41" width="1" height="1" /><rect x="45" y="41" width="1" height="1" /><rect x="41" y="43" width="1" height="1" /><rect x="43" y="43" width="1" height="1" /><rect x="45" y="43" width="1" height="1" /><rect x="41" y="45" width="1" height="1" /><rect x="43" y="45" width="1" height="1" /><rect x="45" y="45" width="1" height="1" /></svg>