<?xml version="1.0" encoding="utf-8"?><svg xmlns="http://www.w3.org/2000/svg" xmlns:xlink="http://www.w3.org/1999/xlink" width="48" height="48"><symbol id="n1"><rect x="9" y="9" width="1" height="1" /><rect x="13" y="9" width="1" height="1" /><rect x="9" y="10" width="1" height="1" /><rect x="10" y="10" width="1" height="1" /><rect x="12" y="10" width="1" height="1" /><rect x="13" y="10" width="1" height="1" /><rect x="9" y="11" width="1" height="1" /><rect x="11" y="11" width="1" height="1" /><rect x="13" y="11" width="1" height="1" /><rect x="9" y="12" width="1" height="1" /><rect x="13" y="12" width="1" height="1" /><rect x="9" y="13" width="1" height="1" /><rect x="13" y="13" width="1" height="1" /></symbol><g id="n2" transform="translate(-9,-9)"><rect x="16" y="16" width="1" height="9" /><rect x="24" y="16" width="1" height="8" /><rect x="16" y="16" width="8" height="1" /><use href="#n1" x="9" y="9" /><rect x="48" y="16" width="1" height="9" /><rect x="56" y="16" width="1" height="8" /><rect x="48" y="16" width="8" height="1" /><use href="#n1" x="41" y="9" /><rect x="16" y="24" width="1" height="9" /><use href="#n1" x="9" y="17" /><rect x="32" y="24" width="1" height="8" /><rect x="24" y="24" width="8" height="1" /><rect x="24" y="32" width="9" height="1" /><use href="#n1" x="17" y="17" /><rect x="40" y="24" width="1" height="9" /><rect x="40" y="24" width="8" height="1" /><rect x="40" y="32" width="9" height="1" /><use href="#n1" x="33" y="17" /><rect x="56" y="24" width="1" height="8" /><use href="#n1" x="41" y="17" /><rect x="16" y="32" width="1" height="9" /><rect x="24" y="32" width="1" height="8" /><use href="#n1" x="9" y="25" /><rect x="32" y="32" width="1" height="9" /><rect x="40" y="32" width="1" height="8" /><rect x="32" y="32" width="8" height="1" /><rect x="32" y="40" width="9" height="1" /><use href="#n1" x="25" y="25" /><rect x="48" y="32" width="1" height="9" /><rect x="56" y="32" width="1" height="8" /><use href="#n1" x="41" y="25" /><rect x="16" y="40" width="1" height="9" /><rect x="24" y="40" width="1" height="8" /><use href="#n1" x="9" y="33" /><rect x="48" y="40" width="1" height="9" /><rect x="56" y="40" width="1" height="8" /><use href="#n1" x="41" y="33" /><rect x="16" y="48" width="1" height="9" /><rect x="24" y="48" width="1" height="8" /><rect x="16" y="56" width="9" height="1" /><use href="#n1" x="9" y="41" /><rect x="48" y="48" width="1" height="9" /><rect x="56" y="48" width="1" height="8" /><rect x="48" y="56" width="9" height="1" /><use href="#n1" x="41" y="41" /></g></svg>