<?xml version="1.0" encoding="utf-8"?><svg xmlns="http://www.w3.org/2000/svg" xmlns:xlink="http://www.w3.org/1999/xlink" width="208" height="208"><rect x="0" y="0" width="100%" height="100%" fill="#ffffff" /><symbol id="n1"><rect x="10" y="10" width="1" height="1" /><rect x="12" y="10" width="1" height="1" /><rect x="9" y="11" width="1" height="1" /><rect x="13" y="11" width="1" height="1" /><rect x="10" y="12" width="1" height="1" /><rect x="12" y="12" width="1" height="1" /></symbol><symbol id="n2"><rect x="24" y="24" width="1" height="9" /><rect x="32" y="24" width="1" height="8" /><rect x="24" y="24" width="8" height="1" /><rect x="24" y="32" width="9" height="1" /><use href="#n1" x="17" y="17" /><rect x="40" y="24" width="1" height="9" /><rect x="48" y="24" width="1" height="8" /><rect x="40" y="24" width="8" height="1" /><rect x="40" y="32" width="9" height="1" /><use href="#n1" x="33" y="17" /><rect x="16" y="32" width="1" height="9" /><rect x="24" y="32" width="1" height="8" /><rect x="16" y="32" width="8" height="1" /><rect x="16" y="40" width="9" height="1" /><use href="#n1" x="9" y="25" /><rect x="48" y="32" width="1" height="9" /><rect x="56" y="32" width="1" height="8" /><rect x="48" y="32" width="8" height="1" /><rect x="48" y="40" width="9" height="1" /><use href="#n1" x="41" y="25" /><rect x="24" y="40" width="1" height="9" /><rect x="32" y="40" width="1" height="8" /><rect x="24" y="40" width="8" height="1" /><rect x="24" y="48" width="9" height="1" /><use href="#n1" x="17" y="33" /><rect x="40" y="40" width="1" height="9" /><rect x="48" y="40" width="1" height="8" /><rect x="40" y="40" width="8" height="1" /><rect x="40" y="48" width="9" height="1" /><use href="#n1" x="33" y="33" /></symbol><g id="n3" transform="translate(-18,-18)"><rect x="65" y="65" width="1" height="41" /><rect x="105" y="65" width="1" height="40" /><rect x="65" y="65" width="40" height="1" /><rect x="65" y="105" width="41" height="1" /><use href="#n2" x="49" y="49" /><rect x="145" y="65" width="1" height="41" /><rect x="185" y="65" width="1" height="40" /><rect x="145" y="65" width="40" height="1" /><rect x="145" y="105" width="41" height="1" /><use href="#n2" x="129" y="49" /><rect x="25" y="105" width="1" height="41" /><rect x="65" y="105" width="1" height="40" /><rect x="25" y="105" width="40" height="1" /><rect x="25" y="145" width="41" height="1" /><use href="#n2" x="9" y="89" /><rect x="185" y="105" width="1" height="41" /><rect x="225" y="105" width="1" height="40" /><rect x="185" y="105" width="40" height="1" /><rect x="185" y="145" width="41" height="1" /><use href="#n2" x="169" y="89" /><rect x="65" y="145" width="1" height="41" /><rect x="105" y="145" width="1" height="40" /><rect x="65" y="145" width="40" height="1" /><rect x="65" y="185" width="41" height="1" /><use href="#n2" x="49" y="129" /><rect x="145" y="145" width="1" height="41" /><rect x="185" y="145" width="1" height="40" /><rect x="145" y="145" width="40" height="1" /><rect x="145" y="185" width="41" height="1" /><use href="#n2" x="129" y="129" /></g></svg>