<?xml version="1.0" encoding="utf-8"?><svg xmlns="http://www.w3.org/2000/svg" xmlns:xlink="http://www.w3.org/1999/xlink" width="208" height="208"><rect x="7" y="7" width="1" height="41" /><rect x="47" y="7" width="1" height="40" /><rect x="7" y="7" width="40" height="1" /><rect x="7" y="7" width="1" height="9" /><rect x="15" y="7" width="1" height="8" /><rect x="7" y="7" width="8" height="1" /><rect x="9" y="9" width="1" height="1" /><rect x="13" y="9" width="1" height="1" /><rect x="9" y="10" width="1" height="1" /><rect x="13" y="10" width="1" height="1" /><rect x="10" y="11" width="1" height="1" /><rect x="12" y="11" width="1" height="1" /><rect x="10" y="12" width="1" height="1" /><rect x="12" y="12" width="1" height="1" /><rect x="11" y="13" width="1" height="1" /><rect x="39" y="7" width="1" height="9" /><rect x="47" y="7" width="1" height="8" /><rect x="39" y="7" width="8" height="1" /><rect x="41" y="9" width="1" height="1" /><rect x="45" y="9" width="1" height="1" /><rect x="41" y="10" width="1" height="1" /><rect x="45" y="10" width="1" height="1" /><rect x="42" y="11" width="1" height="1" /><rect x="44" y="11" width="1" height="1" /><rect x="42" y="12" width="1" height="1" /><rect x="44" y="12" width="1" height="1" /><rect x="43" y="13" width="1" height="1" /><rect x="7" y="15" width="1" height="9" /><rect x="15" y="15" width="1" height="8" /><rect x="7" y="23" width="9" height="1" /><rect x="9" y="17" width="1" height="1" /><rect x="13" y="17" width="1" height="1" /><rect x="9" y="18" width="1" height="1" /><rect x="13" y="18" width="1" height="1" /><rect x="10" y="19" width="1" height="1" /><rect x="12" y="19" width="1" height="1" /><rect x="10" y="20" width="1" height="1" /><rect x="12" y="20" width="1" height="1" /><rect x="11" y="21" width="1" height="1" /><rect x="39" y="15" width="1" height="9" /><rect x="47" y="15" width="1" height="8" /><rect x="39" y="23" width="9" height="1" /><rect x="41" y="17" width="1" height="1" /><rect x="45" y="17" width="1" height="1" /><rect x="41" y="18" width="1" height="1" /><rect x="45" y="18" width="1" height="1" /><rect x="42" y="19" width="1" height="1" /><rect x="44" y="19" width="1" height="1" /><rect x="42" y="20" width="1" height="1" /><rect x="44" y="20" width="1" height="1" /><rect x="43" y="21" width="1" height="1" /><rect x="15" y="23" width="1" height="9" /><rect x="23" y="23" width="1" height="8" /><rect x="15" y="23" width="8" height="1" /><rect x="17" y="25" width="1" height="1" /><rect x="21" y="25" width="1" height="1" /><rect x="17" y="26" width="1" height="1" /><rect x="21" y="26" width="1" height="1" /><rect x="18" y="27" width="1" height="1" /><rect x="20" y="27" width="1" height="1" /><rect x="18" y="28" width="1" height="1" /><rect x="20" y="28" width="1" height="1" /><rect x="19" y="29" width="1" height="1" /><rect x="31" y="23" width="1" height="9" /><rect x="39" y="23" width="1" height="8" /><rect x="31" y="23" width="8" height="1" /><rect x="33" y="25" width="1" height="1" /><rect x="37" y="25" width="1" height="1" /><rect x="33" y="26" width="1" height="1" /><rect x="37" y="26" width="1" height="1" /><rect x="34" y="27" width="1" height="1" /><rect x="36" y="27" width="1" height="1" /><rect x="34" y="28" width="1" height="1" /><rect x="36" y="28" width="1" height="1" /><rect x="35" y="29" width="1" height="1" /><rect x="15" y="31" width="1" height="9" /><rect x="23" y="31" width="1" height="8" /><rect x="15" y="39" width="9" height="1" /><rect x="17" y="33" width="1" height="1" /><rect x="21" y="33" width="1" height="1" /><rect x="17" y="34" width="1" height="1" /><rect x="21" y="34" width="1" height="1" /><rect x="18" y="35" width="1" height="1" /><rect x="20" y="35" width="1" height="1" /><rect x="18" y="36" width="1" height="1" /><rect x="20" y="36" width="1" height="1" /><rect x="19" y="37" width="1" height="1" /><rect x="31" y="31" width="1" height="9" /><rect x="39" y="31" width="1" height="8" /><rect x="31" y="39" width="9" height="1" /><rect x="33" y="33" width="1" height="1" /><rect x="37" y="33" width="1" height="1" /><rect x="33" y="34" width="1" height="1" /><rect x="37" y="34" width="1" height="1" /><rect x="34" y="35" width="1" height="1" /><rect x="36" y="35" width="1" height="1" /><rect x="34" y="36" width="1" height="1" /><rect x="36" y="36" width="1" height="1" /><rect x="35" y="37" width="1" height="1" /><rect x="23" y="39" width="1" height="9" /><rect x="31" y="39" width="1" height="8" /><rect x="23" y="39" width="8" height="1" /><rect x="23" y="47" width="9" height="1" /><rect x="25" y="41" width="1" height="1" /><rect x="29" y="41" width="1" height="1" /><rect x="25" y="42" width="1" height="1" /><rect x="29" y="42" width="1" height="1" /><rect x="26" y="43" width="1" height="1" /><rect x="28" y="43" width="1" height="1" /><rect x="26" y="44" width="1" height="1" /><rect x="28" y="44" width="1" height="1" /><rect x="27" y="45" width="1" height="1" /><rect x="167" y="7" width="1" height="41" /><rect x="207" y="7" width="1" height="40" /><rect x="167" y="7" width="40" height="1" /><rect x="167" y="7" width="1" height="9" /><rect x="175" y="7" width="1" height="8" /><rect x="167" y="7" width="8" height="1" /><rect x="169" y="9" width="1" height="1" /><rect x="173" y="9" width="1" height="1" /><rect x="169" y="10" width="1" height="1" /><rect x="173" y="10" width="1" height="1" /><rect x="170" y="11" width="1" height="1" /><rect x="172" y="11" width="1" height="1" /><rect x="170" y="12" width="1" height="1" /><rect x="172" y="12" width="1" height="1" /><rect x="171" y="13" width="1" height="1" /><rect x="199" y="7" width="1" height="9" /><rect x="207" y="7" width="1" height="8" /><rect x="199" y="7" width="8" height="1" /><rect x="201" y="9" width="1" height="1" /><rect x="205" y="9" width="1" height="1" /><rect x="201" y="10" width="1" height="1" /><rect x="205" y="10" width="1" height="1" /><rect x="202" y="11" width="1" height="1" /><rect x="204" y="11" width="1" height="1" /><rect x="202" y="12" width="1" height="1" /><rect x="204" y="12" width="1" height="1" /><rect x="203" y="13" width="1" height="1" /><rect x="167" y="15" width="1" height="9" /><rect x="175" y="15" width="1" height="8" /><rect x="167" y="23" width="9" height="1" /><rect x="169" y="17" width="1" height="1" /><rect x="173" y="17" width="1" height="1" /><rect x="169" y="18" width="1" height="1" /><rect x="173" y="18" width="1" height="1" /><rect x="170" y="19" width="1" height="1" /><rect x="172" y="19" width="1" height="1" /><rect x="170" y="20" width="1" height="1" /><rect x="172" y="20" width="1" height="1" /><rect x="171" y="21" width="1" height="1" /><rect x="199" y="15" width="1" height="9" /><rect x="207" y="15" width="1" height="8" /><rect x="199" y="23" width="9" height="1" /><rect x="201" y="17" width="1" height="1" /><rect x="205" y="17" width="1" height="1" /><rect x="201" y="18" width="1" height="1" /><rect x="205" y="18" width="1" height="1" /><rect x="202" y="19" width="1" height="1" /><rect x="204" y="19" width="1" height="1" /><rect x="202" y="20" width="1" height="1" /><rect x="204" y="20" width="1" height="1" /><rect x="203" y="21" width="1" height="1" /><rect x="175" y="23" width="1" height="9" /><rect x="183" y="23" width="1" height="8" /><rect x="175" y="23" width="8" height="1" /><rect x="177" y="25" width="1" height="1" /><rect x="181" y="25" width="1" height="1" /><rect x="177" y="26" width="1" height="1" /><rect x="181" y="26" width="1" height="1" /><rect x="178" y="27" width="1" height="1" /><rect x="180" y="27" width="1" height="1" /><rect x="178" y="28" width="1" height="1" /><rect x="180" y="28" width="1" height="1" /><rect x="179" y="29" width="1" height="1" /><rect x="191" y="23" width="1" height="9" /><rect x="199" y="23" width="1" height="8" /><rect x="191" y="23" width="8" height="1" /><rect x="193" y="25" width="1" height="1" /><rect x="197" y="25" width="1" height="1" /><rect x="193" y="26" width="1" height="1" /><rect x="197" y="26" width="1" height="1" /><rect x="194" y="27" width="1" height="1" /><rect x="196" y="27" width="1" height="1" /><rect x="194" y="28" width="1" height="1" /><rect x="196" y="28" width="1" height="1" /><rect x="195" y="29" width="1" height="1" /><rect x="175" y="31" width="1" height="9" /><rect x="183" y="31" width="1" height="8" /><rect x="175" y="39" width="9" height="1" /><rect x="177" y="33" width="1" height="1" /><rect x="181" y="33" width="1" height="1" /><rect x="177" y="34" width="1" height="1" /><rect x="181" y="34" width="1" height="1" /><rect x="178" y="35" width="1" height="1" /><rect x="180" y="35" width="1" height="1" /><rect x="178" y="36" width="1" height="1" /><rect x="180" y="36" width="1" height="1" /><rect x="179" y="37" width="1" height="1" /><rect x="191" y="31" width="1" height="9" /><rect x="199" y="31" width="1" height="8" /><rect x="191" y="39" width="9" height="1" /><rect x="193" y="33" width="1" height="1" /><rect x="197" y="33" width="1" height="1" /><rect x="193" y="34" width="1" height="1" /><rect x="197" y="34" width="1" height="1" /><rect x="194" y="35" width="1" height="1" /><rect x="196" y="35" width="1" height="1" /><rect x="194" y="36" width="1" height="1" /><rect x="196" y="36" width="1" height="1" /><rect x="195" y="37" width="1" height="1" /><rect x="183" y="39" width="1" height="9" /><rect x="191" y="39" width="1" height="8" /><rect x="183" y="39" width="8" height="1" /><rect x="183" y="47" width="9" height="1" /><rect x="185" y="41" width="1" height="1" /><rect x="189" y="41" width="1" height="1" /><rect x="185" y="42" width="1" height="1" /><rect x="189" y="42" width="1" height="1" /><rect x="186" y="43" width="1" height="1" /><rect x="188" y="43" width="1" height="1" /><rect x="186" y="44" width="1" height="1" /><rect x="188" y="44" width="1" height="1" /><rect x="187" y="45" width="1" height="1" /><rect x="7" y="47" width="1" height="41" /><rect x="47" y="47" width="1" height="40" /><rect x="7" y="87" width="41" height="1" /><rect x="7" y="47" width="1" height="9" /><rect x="15" y="47" width="1" height="8" /><rect x="7" y="47" width="8" height="1" /><rect x="9" y="49" width="1" height="1" /><rect x="13" y="49" width="1" height="1" /><rect x="9" y="50" width="1" height="1" /><rect x="13" y="50" width="1" height="1" /><rect x="10" y="51" width="1" height="1" /><rect x="12" y="51" width="1" height="1" /><rect x="10" y="52" width="1" height="1" /><rect x="12" y="52" width="1" height="1" /><rect x="11" y="53" width="1" height="1" /><rect x="39" y="47" width="1" height="9" /><rect x="47" y="47" width="1" height="8" /><rect x="39" y="47" width="8" height="1" /><rect x="41" y="49" width="1" height="1" /><rect x="45" y="49" width="1" height="1" /><rect x="41" y="50" width="1" height="1" /><rect x="45" y="50" width="1" height="1" /><rect x="42" y="51" width="1" height="1" /><rect x="44" y="51" width="1" height="1" /><rect x="42" y="52" width="1" height="1" /><rect x="44" y="52" width="1" height="1" /><rect x="43" y="53" width="1" height="1" /><rect x="7" y="55" width="1" height="9" /><rect x="15" y="55" width="1" height="8" /><rect x="7" y="63" width="9" height="1" /><rect x="9" y="57" width="1" height="1" /><rect x="13" y="57" width="1" height="1" /><rect x="9" y="58" width="1" height="1" /><rect x="13" y="58" width="1" height="1" /><rect x="10" y="59" width="1" height="1" /><rect x="12" y="59" width="1" height="1" /><rect x="10" y="60" width="1" height="1" /><rect x="12" y="60" width="1" height="1" /><rect x="11" y="61" width="1" height="1" /><rect x="39" y="55" width="1" height="9" /><rect x="47" y="55" width="1" height="8" /><rect x="39" y="63" width="9" height="1" /><rect x="41" y="57" width="1" height="1" /><rect x="45" y="57" width="1" height="1" /><rect x="41" y="58" width="1" height="1" /><rect x="45" y="58" width="1" height="1" /><rect x="42" y="59" width="1" height="1" /><rect x="44" y="59" width="1" height="1" /><rect x="42" y="60" width="1" height="1" /><rect x="44" y="60" width="1" height="1" /><rect x="43" y="61" width="1" height="1" /><rect x="15" y="63" width="1" height="9" /><rect x="23" y="63" width="1" height="8" /><rect x="15" y="63" width="8" height="1" /><rect x="17" y="65" width="1" height="1" /><rect x="21" y="65" width="1" height="1" /><rect x="17" y="66" width="1" height="1" /><rect x="21" y="66" width="1" height="1" /><rect x="18" y="67" width="1" height="1" /><rect x="20" y="67" width="1" height="1" /><rect x="18" y="68" width="1" height="1" /><rect x="20" y="68" width="1" height="1" /><rect x="19" y="69" width="1" height="1" /><rect x="31" y="63" width="1" height="9" /><rect x="39" y="63" width="1" height="8" /><rect x="31" y="63" width="8" height="1" /><rect x="33" y="65" width="1" height="1" /><rect x="37" y="65" width="1" height="1" /><rect x="33" y="66" width="1" height="1" /><rect x="37" y="66" width="1" height="1" /><rect x="34" y="67" width="1" height="1" /><rect x="36" y="67" width="1" height="1" /><rect x="34" y="68" width="1" height="1" /><rect x="36" y="68" width="1" height="1" /><rect x="35" y="69" width="1" height="1" /><rect x="15" y="71" width="1" height="9" /><rect x="23" y="71" width="1" height="8" /><rect x="15" y="79" width="9" height="1" /><rect x="17" y="73" width="1" height="1" /><rect x="21" y="73" width="1" height="1" /><rect x="17" y="74" width="1" height="1" /><rect x="21" y="74" width="1" height="1" /><rect x="18" y="75" width="1" height="1" /><rect x="20" y="75" width="1" height="1" /><rect x="18" y="76" width="1" height="1" /><rect x="20" y="76" width="1" height="1" /><rect x="19" y="77" width="1" height="1" /><rect x="31" y="71" width="1" height="9" /><rect x="39" y="71" width="1" height="8" /><rect x="31" y="79" width="9" height="1" /><rect x="33" y="73" width="1" height="1" /><rect x="37" y="73" width="1" height="1" /><rect x="33" y="74" width="1" height="1" /><rect x="37" y="74" width="1" height="1" /><rect x="34" y="75" width="1" height="1" /><rect x="36" y="75" width="1" height="1" /><rect x="34" y="76" width="1" height="1" /><rect x="36" y="76" width="1" height="1" /><rect x="35" y="77" width="1" height="1" /><rect x="23" y="79" width="1" height="9" /><rect x="31" y="79" width="1" height="8" /><rect x="23" y="79" width="8" height="1" /><rect x="23" y="87" width="9" height="1" /><rect x="25" y="81" width="1" height="1" /><rect x="29" y="81" width="1" height="1" /><rect x="25" y="82" width="1" height="1" /><rect x="29" y="82" width="1" height="1" /><rect x="26" y="83" width="1" height="1" /><rect x="28" y="83" width="1" height="1" /><rect x="26" y="84" width="1" height="1" /><rect x="28" y="84" width="1" height="1" /><rect x="27" y="85" width="1" height="1" /><rect x="167" y="47" width="1" height="41" /><rect x="207" y="47" width="1" height="40" /><rect x="167" y="87" width="41" height="1" /><rect x="167" y="47" width="1" height="9" /><rect x="175" y="47" width="1" height="8" /><rect x="167" y="47" width="8" height="1" /><rect x="169" y="49" width="1" height="1" /><rect x="173" y="49" width="1" height="1" /><rect x="169" y="50" width="1" height="1" /><rect x="173" y="50" width="1" height="1" /><rect x="170" y="51" width="1" height="1" /><rect x="172" y="51" width="1" height="1" /><rect x="170" y="52" width="1" height="1" /><rect x="172" y="52" width="1" height="1" /><rect x="171" y="53" width="1" height="1" /><rect x="199" y="47" width="1" height="9" /><rect x="207" y="47" width="1" height="8" /><rect x="199" y="47" width="8" height="1" /><rect x="201" y="49" width="1" height="1" /><rect x="205" y="49" width="1" height="1" /><rect x="201" y="50" width="1" height="1" /><rect x="205" y="50" width="1" height="1" /><rect x="202" y="51" width="1" height="1" /><rect x="204" y="51" width="1" height="1" /><rect x="202" y="52" width="1" height="1" /><rect x="204" y="52" width="1" height="1" /><rect x="203" y="53" width="1" height="1" /><rect x="167" y="55" width="1" height="9" /><rect x="175" y="55" width="1" height="8" /><rect x="167" y="63" width="9" height="1" /><rect x="169" y="57" width="1" height="1" /><rect x="173" y="57" width="1" height="1" /><rect x="169" y="58" width="1" height="1" /><rect x="173" y="58" width="1" height="1" /><rect x="170" y="59" width="1" height="1" /><rect x="172" y="59" width="1" height="1" /><rect x="170" y="60" width="1" height="1" /><rect x="172" y="60" width="1" height="1" /><rect x="171" y="61" width="1" height="1" /><rect x="199" y="55" width="1" height="9" /><rect x="207" y="55" width="1" height="8" /><rect x="199" y="63" width="9" height="1" /><rect x="201" y="57" width="1" height="1" /><rect x="205" y="57" width="1" height="1" /><rect x="201" y="58" width="1" height="1" /><rect x="205" y="58" width="1" height="1" /><rect x="202" y="59" width="1" height="1" /><rect x="204" y="59" width="1" height="1" /><rect x="202" y="60" width="1" height="1" /><rect x="204" y="60" width="1" height="1" /><rect x="203" y="61" width="1" height="1" /><rect x="175" y="63" width="1" height="9" /><rect x="183" y="63" width="1" height="8" /><rect x="175" y="63" width="8" height="1" /><rect x="177" y="65" width="1" height="1" /><rect x="181" y="65" width="1" height="1" /><rect x="177" y="66" width="1" height="1" /><rect x="181" y="66" width="1" height="1" /><rect x="178" y="67" width="1" height="1" /><rect x="180" y="67" width="1" height="1" /><rect x="178" y="68" width="1" height="1" /><rect x="180" y="68" width="1" height="1" /><rect x="179" y="69" width="1" height="1" /><rect x="191" y="63" width="1" height="9" /><rect x="199" y="63" width="1" height="8" /><rect x="191" y="63" width="8" height="1" /><rect x="193" y="65" width="1" height="1" /><rect x="197" y="65" width="1" height="1" /><rect x="193" y="66" width="1" height="1" /><rect x="197" y="66" width="1" height="1" /><rect x="194" y="67" width="1" height="1" /><rect x="196" y="67" width="1" height="1" /><rect x="194" y="68" width="1" height="1" /><rect x="196" y="68" width="1" height="1" /><rect x="195" y="69" width="1" height="1" /><rect x="175" y="71" width="1" height="9" /><rect x="183" y="71" width="1" height="8" /><rect x="175" y="79" width="9" height="1" /><rect x="177" y="73" width="1" height="1" /><rect x="181" y="73" width="1" height="1" /><rect x="177" y="74" width="1" height="1" /><rect x="181" y="74" width="1" height="1" /><rect x="178" y="75" width="1" height="1" /><rect x="180" y="75" width="1" height="1" /><rect x="178" y="76" width="1" height="1" /><rect x="180" y="76" width="1" height="1" /><rect x="179" y="77" width="1" height="1" /><rect x="191" y="71" width="1" height="9" /><rect x="199" y="71" width="1" height="8" /><rect x="191" y="79" width="9" height="1" /><rect x="193" y="73" width="1" height="1" /><rect x="197" y="73" width="1" height="1" /><rect x="193" y="74" width="1" height="1" /><rect x="197" y="74" width="1" height="1" /><rect x="194" y="75" width="1" height="1" /><rect x="196" y="75" width="1" height="1" /><rect x="194" y="76" width="1" height="1" /><rect x="196" y="76" width="1" height="1" /><rect x="195" y="77" width="1" height="1" /><rect x="183" y="79" width="1" height="9" /><rect x="191" y="79" width="1" height="8" /><rect x="183" y="79" width="8" height="1" /><rect x="183" y="87" width="9" height="1" /><rect x="185" y="81" width="1" height="1" /><rect x="189" y="81" width="1" height="1" /><rect x="185" y="82" width="1" height="1" /><rect x="189" y="82" width="1" height="1" /><rect x="186" y="83" width="1" height="1" /><rect x="188" y="83" width="1" height="1" /><rect x="186" y="84" width="1" height="1" /><rect x="188" y="84" width="1" height="1" /><rect x="187" y="85" width="1" height="1" /><rect x="47" y="87" width="1" height="41" /><rect x="87" y="87" width="1" height="40" /><rect x="47" y="87" width="40" height="1" /><rect x="47" y="87" width="1" height="9" /><rect x="55" y="87" width="1" height="8" /><rect x="47" y="87" width="8" height="1" /><rect x="49" y="89" width="1" height="1" /><rect x="53" y="89" width="1" height="1" /><rect x="49" y="90" width="1" height="1" /><rect x="53" y="90" width="1" height="1" /><rect x="50" y="91" width="1" height="1" /><rect x="52" y="91" width="1" height="1" /><rect x="50" y="92" width="1" height="1" /><rect x="52" y="92" width="1" height="1" /><rect x="51" y="93" width="1" height="1" /><rect x="79" y="87" width="1" height="9" /><rect x="87" y="87" width="1" height="8" /><rect x="79" y="87" width="8" height="1" /><rect x="81" y="89" width="1" height="1" /><rect x="85" y="89" width="1" height="1" /><rect x="81" y="90" width="1" height="1" /><rect x="85" y="90" width="1" height="1" /><rect x="82" y="91" width="1" height="1" /><rect x="84" y="91" width="1" height="1" /><rect x="82" y="92" width="1" height="1" /><rect x="84" y="92" width="1" height="1" /><rect x="83" y="93" width="1" height="1" /><rect x="47" y="95" width="1" height="9" /><rect x="55" y="95" width="1" height="8" /><rect x="47" y="103" width="9" height="1" /><rect x="49" y="97" width="1" height="1" /><rect x="53" y="97" width="1" height="1" /><rect x="49" y="98" width="1" height="1" /><rect x="53" y="98" width="1" height="1" /><rect x="50" y="99" width="1" height="1" /><rect x="52" y="99" width="1" height="1" /><rect x="50" y="100" width="1" height="1" /><rect x="52" y="100" width="1" height="1" /><rect x="51" y="101" width="1" height="1" /><rect x="79" y="95" width="1" height="9" /><rect x="87" y="95" width="1" height="8" /><rect x="79" y="103" width="9" height="1" /><rect x="81" y="97" width="1" height="1" /><rect x="85" y="97" width="1" height="1" /><rect x="81" y="98" width="1" height="1" /><rect x="85" y="98" width="1" height="1" /><rect x="82" y="99" width="1" height="1" /><rect x="84" y="99" width="1" height="1" /><rect x="82" y="100" width="1" height="1" /><rect x="84" y="100" width="1" height="1" /><rect x="83" y="101" width="1" height="1" /><rect x="55" y="103" width="1" height="9" /><rect x="63" y="103" width="1" height="8" /><rect x="55" y="103" width="8" height="1" /><rect x="57" y="105" width="1" height="1" /><rect x="61" y="105" width="1" height="1" /><rect x="57" y="106" width="1" height="1" /><rect x="61" y="106" width="1" height="1" /><rect x="58" y="107" width="1" height="1" /><rect x="60" y="107" width="1" height="1" /><rect x="58" y="108" width="1" height="1" /><rect x="60" y="108" width="1" height="1" /><rect x="59" y="109" width="1" height="1" /><rect x="71" y="103" width="1" height="9" /><rect x="79" y="103" width="1" height="8" /><rect x="71" y="103" width="8" height="1" /><rect x="73" y="105" width="1" height="1" /><rect x="77" y="105" width="1" height="1" /><rect x="73" y="106" width="1" height="1" /><rect x="77" y="106" width="1" height="1" /><rect x="74" y="107" width="1" height="1" /><rect x="76" y="107" width="1" height="1" /><rect x="74" y="108" width="1" height="1" /><rect x="76" y="108" width="1" height="1" /><rect x="75" y="109" width="1" height="1" /><rect x="55" y="111" width="1" height="9" /><rect x="63" y="111" width="1" height="8" /><rect x="55" y="119" width="9" height="1" /><rect x="57" y="113" width="1" height="1" /><rect x="61" y="113" width="1" height="1" /><rect x="57" y="114" width="1" height="1" /><rect x="61" y="114" width="1" height="1" /><rect x="58" y="115" width="1" height="1" /><rect x="60" y="115" width="1" height="1" /><rect x="58" y="116" width="1" height="1" /><rect x="60" y="116" width="1" height="1" /><rect x="59" y="117" width="1" height="1" /><rect x="71" y="111" width="1" height="9" /><rect x="79" y="111" width="1" height="8" /><rect x="71" y="119" width="9" height="1" /><rect x="73" y="113" width="1" height="1" /><rect x="77" y="113" width="1" height="1" /><rect x="73" y="114" width="1" height="1" /><rect x="77" y="114" width="1" height="1" /><rect x="74" y="115" width="1" height="1" /><rect x="76" y="115" width="1" height="1" /><rect x="74" y="116" width="1" height="1" /><rect x="76" y="116" width="1" height="1" /><rect x="75" y="117" width="1" height="1" /><rect x="63" y="119" width="1" height="9" /><rect x="71" y="119" width="1" height="8" /><rect x="63" y="119" width="8" height="1" /><rect x="63" y="127" width="9" height="1" /><rect x="65" y="121" width="1" height="1" /><rect x="69" y="121" width="1" height="1" /><rect x="65" y="122" width="1" height="1" /><rect x="69" y="122" width="1" height="1" /><rect x="66" y="123" width="1" height="1" /><rect x="68" y="123" width="1" height="1" /><rect x="66" y="124" width="1" height="1" /><rect x="68" y="124" width="1" height="1" /><rect x="67" y="125" width="1" height="1" /><rect x="127" y="87" width="1" height="41" /><rect x="167" y="87" width="1" height="40" /><rect x="127" y="87" width="40" height="1" /><rect x="127" y="87" width="1" height="9" /><rect x="135" y="87" width="1" height="8" /><rect x="127" y="87" width="8" height="1" /><rect x="129" y="89" width="1" height="1" /><rect x="133" y="89" width="1" height="1" /><rect x="129" y="90" width="1" height="1" /><rect x="133" y="90" width="1" height="1" /><rect x="130" y="91" width="1" height="1" /><rect x="132" y="91" width="1" height="1" /><rect x="130" y="92" width="1" height="1" /><rect x="132" y="92" width="1" height="1" /><rect x="131" y="93" width="1" height="1" /><rect x="159" y="87" width="1" height="9" /><rect x="167" y="87" width="1" height="8" /><rect x="159" y="87" width="8" height="1" /><rect x="161" y="89" width="1" height="1" /><rect x="165" y="89" width="1" height="1" /><rect x="161" y="90" width="1" height="1" /><rect x="165" y="90" width="1" height="1" /><rect x="162" y="91" width="1" height="1" /><rect x="164" y="91" width="1" height="1" /><rect x="162" y="92" width="1" height="1" /><rect x="164" y="92" width="1" height="1" /><rect x="163" y="93" width="1" height="1" /><rect x="127" y="95" width="1" height="9" /><rect x="135" y="95" width="1" height="8" /><rect x="127" y="103" width="9" height="1" /><rect x="129" y="97" width="1" height="1" /><rect x="133" y="97" width="1" height="1" /><rect x="129" y="98" width="1" height="1" /><rect x="133" y="98" width="1" height="1" /><rect x="130" y="99" width="1" height="1" /><rect x="132" y="99" width="1" height="1" /><rect x="130" y="100" width="1" height="1" /><rect x="132" y="100" width="1" height="1" /><rect x="131" y="101" width="1" height="1" /><rect x="159" y="95" width="1" height="9" /><rect x="167" y="95" width="1" height="8" /><rect x="159" y="103" width="9" height="1" /><rect x="161" y="97" width="1" height="1" /><rect x="165" y="97" width="1" height="1" /><rect x="161" y="98" width="1" height="1" /><rect x="165" y="98" width="1" height="1" /><rect x="162" y="99" width="1" height="1" /><rect x="164" y="99" width="1" height="1" /><rect x="162" y="100" width="1" height="1" /><rect x="164" y="100" width="1" height="1" /><rect x="163" y="101" width="1" height="1" /><rect x="135" y="103" width="1" height="9" /><rect x="143" y="103" width="1" height="8" /><rect x="135" y="103" width="8" height="1" /><rect x="137" y="105" width="1" height="1" /><rect x="141" y="105" width="1" height="1" /><rect x="137" y="106" width="1" height="1" /><rect x="141" y="106" width="1" height="1" /><rect x="138" y="107" width="1" height="1" /><rect x="140" y="107" width="1" height="1" /><rect x="138" y="108" width="1" height="1" /><rect x="140" y="108" width="1" height="1" /><rect x="139" y="109" width="1" height="1" /><rect x="151" y="103" width="1" height="9" /><rect x="159" y="103" width="1" height="8" /><rect x="151" y="103" width="8" height="1" /><rect x="153" y="105" width="1" height="1" /><rect x="157" y="105" width="1" height="1" /><rect x="153" y="106" width="1" height="1" /><rect x="157" y="106" width="1" height="1" /><rect x="154" y="107" width="1" height="1" /><rect x="156" y="107" width="1" height="1" /><rect x="154" y="108" width="1" height="1" /><rect x="156" y="108" width="1" height="1" /><rect x="155" y="109" width="1" height="1" /><rect x="135" y="111" width="1" height="9" /><rect x="143" y="111" width="1" height="8" /><rect x="135" y="119" width="9" height="1" /><rect x="137" y="113" width="1" height="1" /><rect x="141" y="113" width="1" height="1" /><rect x="137" y="114" width="1" height="1" /><rect x="141" y="114" width="1" height="1" /><rect x="138" y="115" width="1" height="1" /><rect x="140" y="115" width="1" height="1" /><rect x="138" y="116" width="1" height="1" /><rect x="140" y="116" width="1" height="1" /><rect x="139" y="117" width="1" height="1" /><rect x="151" y="111" width="1" height="9" /><rect x="159" y="111" width="1" height="8" /><rect x="151" y="119" width="9" height="1" /><rect x="153" y="113" width="1" height="1" /><rect x="157" y="113" width="1" height="1" /><rect x="153" y="114" width="1" height="1" /><rect x="157" y="114" width="1" height="1" /><rect x="154" y="115" width="1" height="1" /><rect x="156" y="115" width="1" height="1" /><rect x="154" y="116" width="1" height="1" /><rect x="156" y="116" width="1" height="1" /><rect x="155" y="117" width="1" height="1" /><rect x="143" y="119" width="1" height="9" /><rect x="151" y="119" width="1" height="8" /><rect x="143" y="119" width="8" height="1" /><rect x="143" y="127" width="9" height="1" /><rect x="145" y="121" width="1" height="1" /><rect x="149" y="121" width="1" height="1" /><rect x="145" y="122" width="1" height="1" /><rect x="149" y="122" width="1" height="1" /><rect x="146" y="123" width="1" height="1" /><rect x="148" y="123" width="1" height="1" /><rect x="146" y="124" width="1" height="1" /><rect x="148" y="124" width="1" height="1" /><rect x="147" y="125" width="1" height="1" /><rect x="47" y="127" width="1" height="41" /><rect x="87" y="127" width="1" height="40" /><rect x="47" y="167" width="41" height="1" /><rect x="47" y="127" width="1" height="9" /><rect x="55" y="127" width="1" height="8" /><rect x="47" y="127" width="8" height="1" /><rect x="49" y="129" width="1" height="1" /><rect x="53" y="129" width="1" height="1" /><rect x="49" y="130" width="1" height="1" /><rect x="53" y="130" width="1" height="1" /><rect x="50" y="131" width="1" height="1" /><rect x="52" y="131" width="1" height="1" /><rect x="50" y="132" width="1" height="1" /><rect x="52" y="132" width="1" height="1" /><rect x="51" y="133" width="1" height="1" /><rect x="79" y="127" width="1" height="9" /><rect x="87" y="127" width="1" height="8" /><rect x="79" y="127" width="8" height="1" /><rect x="81" y="129" width="1" height="1" /><rect x="85" y="129" width="1" height="1" /><rect x="81" y="130" width="1" height="1" /><rect x="85" y="130" width="1" height="1" /><rect x="82" y="131" width="1" height="1" /><rect x="84" y="131" width="1" height="1" /><rect x="82" y="132" width="1" height="1" /><rect x="84" y="132" width="1" height="1" /><rect x="83" y="133" width="1" height="1" /><rect x="47" y="135" width="1" height="9" /><rect x="55" y="135" width="1" height="8" /><rect x="47" y="143" width="9" height="1" /><rect x="49" y="137" width="1" height="1" /><rect x="53" y="137" width="1" height="1" /><rect x="49" y="138" width="1" height="1" /><rect x="53" y="138" width="1" height="1" /><rect x="50" y="139" width="1" height="1" /><rect x="52" y="139" width="1" height="1" /><rect x="50" y="140" width="1" height="1" /><rect x="52" y="140" width="1" height="1" /><rect x="51" y="141" width="1" height="1" /><rect x="79" y="135" width="1" height="9" /><rect x="87" y="135" width="1" height="8" /><rect x="79" y="143" width="9" height="1" /><rect x="81" y="137" width="1" height="1" /><rect x="85" y="137" width="1" height="1" /><rect x="81" y="138" width="1" height="1" /><rect x="85" y="138" width="1" height="1" /><rect x="82" y="139" width="1" height="1" /><rect x="84" y="139" width="1" height="1" /><rect x="82" y="140" width="1" height="1" /><rect x="84" y="140" width="1" height="1" /><rect x="83" y="141" width="1" height="1" /><rect x="55" y="143" width="1" height="9" /><rect x="63" y="143" width="1" height="8" /><rect x="55" y="143" width="8" height="1" /><rect x="57" y="145" width="1" height="1" /><rect x="61" y="145" width="1" height="1" /><rect x="57" y="146" width="1" height="1" /><rect x="61" y="146" width="1" height="1" /><rect x="58" y="147" width="1" height="1" /><rect x="60" y="147" width="1" height="1" /><rect x="58" y="148" width="1" height="1" /><rect x="60" y="148" width="1" height="1" /><rect x="59" y="149" width="1" height="1" /><rect x="71" y="143" width="1" height="9" /><rect x="79" y="143" width="1" height="8" /><rect x="71" y="143" width="8" height="1" /><rect x="73" y="145" width="1" height="1" /><rect x="77" y="145" width="1" height="1" /><rect x="73" y="146" width="1" height="1" /><rect x="77" y="146" width="1" height="1" /><rect x="74" y="147" width="1" height="1" /><rect x="76" y="147" width="1" height="1" /><rect x="74" y="148" width="1" height="1" /><rect x="76" y="148" width="1" height="1" /><rect x="75" y="149" width="1" height="1" /><rect x="55" y="151" width="1" height="9" /><rect x="63" y="151" width="1" height="8" /><rect x="55" y="159" width="9" height="1" /><rect x="57" y="153" width="1" height="1" /><rect x="61" y="153" width="1" height="1" /><rect x="57" y="154" width="1" height="1" /><rect x="61" y="154" width="1" height="1" /><rect x="58" y="155" width="1" height="1" /><rect x="60" y="155" width="1" height="1" /><rect x="58" y="156" width="1" height="1" /><rect x="60" y="156" width="1" height="1" /><rect x="59" y="157" width="1" height="1" /><rect x="71" y="151" width="1" height="9" /><rect x="79" y="151" width="1" height="8" /><rect x="71" y="159" width="9" height="1" /><rect x="73" y="153" width="1" height="1" /><rect x="77" y="153" width="1" height="1" /><rect x="73" y="154" width="1" height="1" /><rect x="77" y="154" width="1" height="1" /><rect x="74" y="155" width="1" height="1" /><rect x="76" y="155" width="1" height="1" /><rect x="74" y="156" width="1" height="1" /><rect x="76" y="156" width="1" height="1" /><rect x="75" y="157" width="1" height="1" /><rect x="63" y="159" width="1" height="9" /><rect x="71" y="159" width="1" height="8" /><rect x="63" y="159" width="8" height="1" /><rect x="63" y="167" width="9" height="1" /><rect x="65" y="161" width="1" height="1" /><rect x="69" y="161" width="1" height="1" /><rect x="65" y="162" width="1" height="1" /><rect x="69" y="162" width="1" height="1" /><rect x="66" y="163" width="1" height="1" /><rect x="68" y="163" width="1" height="1" /><rect x="66" y="164" width="1" height="1" /><rect x="68" y="164" width="1" height="1" /><rect x="67" y="165" width="1" height="1" /><rect x="127" y="127" width="1" height="41" /><rect x="167" y="127" width="1" height="40" /><rect x="127" y="167" width="41" height="1" /><rect x="127" y="127" width="1" height="9" /><rect x="135" y="127" width="1" height="8" /><rect x="127" y="127" width="8" height="1" /><rect x="129" y="129" width="1" height="1" /><rect x="133" y="129" width="1" height="1" /><rect x="129" y="130" width="1" height="1" /><rect x="133" y="130" width="1" height="1" /><rect x="130" y="131" width="1" height="1" /><rect x="132" y="131" width="1" height="1" /><rect x="130" y="132" width="1" height="1" /><rect x="132" y="132" width="1" height="1" /><rect x="131" y="133" width="1" height="1" /><rect x="159" y="127" width="1" height="9" /><rect x="167" y="127" width="1" height="8" /><rect x="159" y="127" width="8" height="1" /><rect x="161" y="129" width="1" height="1" /><rect x="165" y="129" width="1" height="1" /><rect x="161" y="130" width="1" height="1" /><rect x="165" y="130" width="1" height="1" /><rect x="162" y="131" width="1" height="1" /><rect x="164" y="131" width="1" height="1" /><rect x="162" y="132" width="1" height="1" /><rect x="164" y="132" width="1" height="1" /><rect x="163" y="133" width="1" height="1" /><rect x="127" y="135" width="1" height="9" /><rect x="135" y="135" width="1" height="8" /><rect x="127" y="143" width="9" height="1" /><rect x="129" y="137" width="1" height="1" /><rect x="133" y="137" width="1" height="1" /><rect x="129" y="138" width="1" height="1" /><rect x="133" y="138" width="1" height="1" /><rect x="130" y="139" width="1" height="1" /><rect x="132" y="139" width="1" height="1" /><rect x="130" y="140" width="1" height="1" /><rect x="132" y="140" width="1" height="1" /><rect x="131" y="141" width="1" height="1" /><rect x="159" y="135" width="1" height="9" /><rect x="167" y="135" width="1" height="8" /><rect x="159" y="143" width="9" height="1" /><rect x="161" y="137" width="1" height="1" /><rect x="165" y="137" width="1" height="1" /><rect x="161" y="138" width="1" height="1" /><rect x="165" y="138" width="1" height="1" /><rect x="162" y="139" width="1" height="1" /><rect x="164" y="139" width="1" height="1" /><rect x="162" y="140" width="1" height="1" /><rect x="164" y="140" width="1" height="1" /><rect x="163" y="141" width="1" height="1" /><rect x="135" y="143" width="1" height="9" /><rect x="143" y="143" width="1" height="8" /><rect x="135" y="143" width="8" height="1" /><rect x="137" y="145" width="1" height="1" /><rect x="141" y="145" width="1" height="1" /><rect x="137" y="146" width="1" height="1" /><rect x="141" y="146" width="1" height="1" /><rect x="138" y="147" width="1" height="1" /><rect x="140" y="147" width="1" height="1" /><rect x="138" y="148" width="1" height="1" /><rect x="140" y="148" width="1" height="1" /><rect x="139" y="149" width="1" height="1" /><rect x="151" y="143" width="1" height="9" /><rect x="159" y="143" width="1" height="8" /><rect x="151" y="143" width="8" height="1" /><rect x="153" y="145" width="1" height="1" /><rect x="157" y="145" width="1" height="1" /><rect x="153" y="146" width="1" height="1" /><rect x="157" y="146" width="1" height="1" /><rect x="154" y="147" width="1" height="1" /><rect x="156" y="147" width="1" height="1" /><rect x="154" y="148" width="1" height="1" /><rect x="156" y="148" width="1" height="1" /><rect x="155" y="149" width="1" height="1" /><rect x="135" y="151" width="1" height="9" /><rect x="143" y="151" width="1" height="8" /><rect x="135" y="159" width="9" height="1" /><rect x="137" y="153" width="1" height="1" /><rect x="141" y="153" width="1" height="1" /><rect x="137" y="154" width="1" height="1" /><rect x="141" y="154" width="1" height="1" /><rect x="138" y="155" width="1" height="1" /><rect x="140" y="155" width="1" height="1" /><rect x="138" y="156" width="1" height="1" /><rect x="140" y="156" width="1" height="1" /><rect x="139" y="157" width="1" height="1" /><rect x="151" y="151" width="1" height="9" /><rect x="159" y="151" width="1" height="8" /><rect x="151" y="159" width="9" height="1" /><rect x="153" y="153" width="1" height="1" /><rect x="157" y="153" width="1" height="1" /><rect x="153" y="154" width="1" height="1" /><rect x="157" y="154" width="1" height="1" /><rect x="154" y="155" width="1" height="1" /><rect x="156" y="155" width="1" height="1" /><rect x="154" y="156" width="1" height="1" /><rect x="156" y="156" width="1" height="1" /><rect x="155" y="157" width="1" height="1" /><rect x="143" y="159" width="1" height="9" /><rect x="151" y="159" width="1" height="8" /><rect x="143" y="159" width="8" height="1" /><rect x="143" y="167" width="9" height="1" /><rect x="145" y="161" width="1" height="1" /><rect x="149" y="161" width="1" height="1" /><rect x="145" y="162" width="1" height="1" /><rect x="149" y="162" width="1" height="1" /><rect x="146" y="163" width="1" height="1" /><rect x="148" y="163" width="1" height="1" /><rect x="146" y="164" width="1" height="1" /><rect x="148" y="164" width="1" height="1" /><rect x="147" y="165" width="1" height="1" /><rect x="87" y="167" width="1" height="41" /><rect x="127" y="167" width="1" height="40" /><rect x="87" y="167" width="40" height="1" /><rect x="87" y="207" width="41" height="1" /><rect x="87" y="167" width="1" height="9" /><rect x="95" y="167" width="1" height="8" /><rect x="87" y="167" width="8" height="1" /><rect x="89" y="169" width="1" height="1" /><rect x="93" y="169" width="1" height="1" /><rect x="89" y="170" width="1" height="1" /><rect x="93" y="170" width="1" height="1" /><rect x="90" y="171" width="1" height="1" /><rect x="92" y="171" width="1" height="1" /><rect x="90" y="172" width="1" height="1" /><rect x="92" y="172" width="1" height="1" /><rect x="91" y="173" width="1" height="1" /><rect x="119" y="167" width="1" height="9" /><rect x="127" y="167" width="1" height="8" /><rect x="119" y="167" width="8" height="1" /><rect x="121" y="169" width="1" height="1" /><rect x="125" y="169" width="1" height="1" /><rect x="121" y="170" width="1" height="1" /><rect x="125" y="170" width="1" height="1" /><rect x="122" y="171" width="1" height="1" /><rect x="124" y="171" width="1" height="1" /><rect x="122" y="172" width="1" height="1" /><rect x="124" y="172" width="1" height="1" /><rect x="123" y="173" width="1" height="1" /><rect x="87" y="175" width="1" height="9" /><rect x="95" y="175" width="1" height="8" /><rect x="87" y="183" width="9" height="1" /><rect x="89" y="177" width="1" height="1" /><rect x="93" y="177" width="1" height="1" /><rect x="89" y="178" width="1" height="1" /><rect x="93" y="178" width="1" height="1" /><rect x="90" y="179" width="1" height="1" /><rect x="92" y="179" width="1" height="1" /><rect x="90" y="180" width="1" height="1" /><rect x="92" y="180" width="1" height="1" /><rect x="91" y="181" width="1" height="1" /><rect x="119" y="175" width="1" height="9" /><rect x="127" y="175" width="1" height="8" /><rect x="119" y="183" width="9" height="1" /><rect x="121" y="177" width="1" height="1" /><rect x="125" y="177" width="1" height="1" /><rect x="121" y="178" width="1" height="1" /><rect x="125" y="178" width="1" height="1" /><rect x="122" y="179" width="1" height="1" /><rect x="124" y="179" width="1" height="1" /><rect x="122" y="180" width="1" height="1" /><rect x="124" y="180" width="1" height="1" /><rect x="123" y="181" width="1" height="1" /><rect x="95" y="183" width="1" height="9" /><rect x="103" y="183" width="1" height="8" /><rect x="95" y="183" width="8" height="1" /><rect x="97" y="185" width="1" height="1" /><rect x="101" y="185" width="1" height="1" /><rect x="97" y="186" width="1" height="1" /><rect x="101" y="186" width="1" height="1" /><rect x="98" y="187" width="1" height="1" /><rect x="100" y="187" width="1" height="1" /><rect x="98" y="188" width="1" height="1" /><rect x="100" y="188" width="1" height="1" /><rect x="99" y="189" width="1" height="1" /><rect x="111" y="183" width="1" height="9" /><rect x="119" y="183" width="1" height="8" /><rect x="111" y="183" width="8" height="1" /><rect x="113" y="185" width="1" height="1" /><rect x="117" y="185" width="1" height="1" /><rect x="113" y="186" width="1" height="1" /><rect x="117" y="186" width="1" height="1" /><rect x="114" y="187" width="1" height="1" /><rect x="116" y="187" width="1" height="1" /><rect x="114" y="188" width="1" height="1" /><rect x="116" y="188" width="1" height="1" /><rect x="115" y="189" width="1" height="1" /><rect x="95" y="191" width="1" height="9" /><rect x="103" y="191" width="1" height="8" /><rect x="95" y="199" width="9" height="1" /><rect x="97" y="193" width="1" height="1" /><rect x="101" y="193" width="1" height="1" /><rect x="97" y="194" width="1" height="1" /><rect x="101" y="194" width="1" height="1" /><rect x="98" y="195" width="1" height="1" /><rect x="100" y="195" width="1" height="1" /><rect x="98" y="196" width="1" height="1" /><rect x="100" y="196" width="1" height="1" /><rect x="99" y="197" width="1" height="1" /><rect x="111" y="191" width="1" height="9" /><rect x="119" y="191" width="1" height="8" /><rect x="111" y="199" width="9" height="1" /><rect x="113" y="193" width="1" height="1" /><rect x="117" y="193" width="1" height="1" /><rect x="113" y="194" width="1" height="1" /><rect x="117" y="194" width="1" height="1" /><rect x="114" y="195" width="1" height="1" /><rect x="116" y="195" width="1" height="1" /><rect x="114" y="196" width="1" height="1" /><rect x="116" y="196" width="1" height="1" /><rect x="115" y="197" width="1" height="1" /><rect x="103" y="199" width="1" height="9" /><rect x="111" y="199" width="1" height="8" /><rect x="103" y="199" width="8" height="1" /><rect x="103" y="207" width="9" height="1" /><rect x="105" y="201" width="1" height="1" /><rect x="109" y="201" width="1" height="1" /><rect x="105" y="202" width="1" height="1" /><rect x="109" y="202" width="1" height="1" /><rect x="106" y="203" width="1" height="1" /><rect x="108" y="203" width="1" height="1" /><rect x="106" y="204" width="1" height="1" /><rect x="108" y="204" width="1" height="1" /><rect x="107" y="205" width="1" height="1" /></svg>