<?xml version="1.0" encoding="utf-8"?><svg xmlns="http://www.w3.org/2000/svg" xmlns:xlink="http://www.w3.org/1999/xlink" width="48" height="48"><rect x="0" y="0" width="100%" height="100%" fill="#ffffff" /><rect x="15" y="15" width="1" height="9" /><rect x="15" y="15" width="8" height="1" /><rect x="19" y="17" width="1" height="1" /><rect x="17" y="18" width="1" height="1" /><rect x="20" y="18" width="1" height="1" /><rect x="17" y="19" width="1" height="1" /><rect x="20" y="19" width="1" height="1" /><rect x="18" y="20" width="1" height="1" /><rect x="23" y="15" width="8" height="1" /><rect x="27" y="17" width="1" height="1" /><rect x="25" y="18" width="1" height="1" /><rect x="28" y="18" width="1" height="1" /><rect x="25" y="19" width="1" height="1" /><rect x="28" y="19" width="1" height="1" /><rect x="26" y="20" width="1" height="1" /><rect x="39" y="15" width="1" height="8" /><rect x="31" y="15" width="8" height="1" /><rect x="31" y="23" width="9" height="1" /><rect x="35" y="17" width="1" height="1" /><rect x="33" y="18" width="1" height="1" /><rect x="36" y="18" width="1" height="1" /><rect x="33" y="19" width="1" height="1" /><rect x="36" y="19" width="1" height="1" /><rect x="34" y="20" width="1" height="1" /><rect x="7" y="23" width="1" height="9" /><rect x="7" y="23" width="8" height="1" /><rect x="7" y="31" width="9" height="1" /><rect x="11" y="25" width="1" height="1" /><rect x="9" y="26" width="1" height="1" /><rect x="12" y="26" width="1" height="1" /><rect x="9" y="27" width="1" height="1" /><rect x="12" y="27" width="1" height="1" /><rect x="10" y="28" width="1" height="1" /><rect x="15" y="31" width="9" height="1" /><rect x="19" y="25" width="1" height="1" /><rect x="17" y="26" width="1" height="1" /><rect x="20" y="26" width="1" height="1" /><rect x="17" y="27" width="1" height="1" /><rect x="20" y="27" width="1" height="1" /><rect x="18" y="28" width="1" height="1" /><rect x="31" y="23" width="1" height="8" /><rect x="23" y="31" width="9" height="1" /><rect x="27" y="25" width="1" height="1" /><rect x="25" y="26" width="1" height="1" /><rect x="28" y="26" width="1" height="1" /><rect x="25" y="27" width="1" height="1" /><rect x="28" y="27" width="1" height="1" /><rect x="26" y="28" width="1" height="1" /></svg>