<?xml version="1.0" encoding="utf-8"?><svg xmlns="http://www.w3.org/2000/svg" xmlns:xlink="http://www.w3.org/1999/xlink" width="48" height="48"><rect x="39" y="7" width="1" height="9" /><rect x="47" y="7" width="1" height="8" /><rect x="39" y="7" width="8" height="1" /><rect x="45" y="9" width="1" height="1" /><rect x="44" y="10" width="1" height="1" /><rect x="45" y="10" width="1" height="1" /><rect x="43" y="11" width="1" height="1" /><rect x="44" y="11" width="1" height="1" /><rect x="45" y="11" width="1" height="1" /><rect x="42" y="12" width="1" height="1" /><rect x="43" y="12" width="1" height="1" /><rect x="44" y="12" width="1" height="1" /><rect x="45" y="12" width="1" height="1" /><rect x="41" y="13" width="1" height="1" /><rect x="42" y="13" width="1" height="1" /><rect x="43" y="13" width="1" height="1" /><rect x="44" y="13" width="1" height="1" /><rect x="45" y="13" width="1" height="1" /><rect x="31" y="15" width="1" height="9" /><rect x="31" y="15" width="8" height="1" /><rect x="37" y="17" width="1" height="1" /><rect x="36" y="18" width="1" height="1" /><rect x="37" y="18" width="1" height="1" /><rect x="35" y="19" width="1" height="1" /><rect x="36" y="19" width="1" height="1" /><rect x="37" y="19" width="1" height="1" /><rect x="34" y="20" width="1" height="1" /><rect x="35" y="20" width="1" height="1" /><rect x="36" y="20" width="1" height="1" /><rect x="37" y="20" width="1" height="1" /><rect x="33" y="21" width="1" height="1" /><rect x="34" y="21" width="1" height="1" /><rect x="35" y="21" width="1" height="1" /><rect x="36" y="21" width="1" height="1" /><rect x="37" y="21" width="1" height="1" /><rect x="47" y="15" width="1" height="8" /><rect x="45" y="17" width="1" height="1" /><rect x="44" y="18" width="1" height="1" /><rect x="45" y="18" width="1" height="1" /><rect x="43" y="19" width="1" height="1" /><rect x="44" y="19" width="1" height="1" /><rect x="45" y="19" width="1" height="1" /><rect x="42" y="20" width="1" height="1" /><rect x="43" y="20" width="1" height="1" /><rect x="44" y="20" width="1" height="1" /><rect x="45" y="20" width="1" height="1" /><rect x="41" y="21" width="1" height="1" /><rect x="42" y="21" width="1" height="1" /><rect x="43" y="21" width="1" height="1" /><rect x="44" y="21" width="1" height="1" /><rect x="45" y="21" width="1" height="1" /><rect x="23" y="23" width="1" height="9" /><rect x="23" y="23" width="8" height="1" /><rect x="29" y="25" width="1" height="1" /><rect x="28" y="26" width="1" height="1" /><rect x="29" y="26" width="1" height="1" /><rect x="27" y="27" width="1" height="1" /><rect x="28" y="27" width="1" height="1" /><rect x="29" y="27" width="1" height="1" /><rect x="26" y="28" width="1" height="1" /><rect x="27" y="28" width="1" height="1" /><rect x="28" y="28" width="1" height="1" /><rect x="29" y="28" width="1" height="1" /><rect x="25" y="29" width="1" height="1" /><rect x="26" y="29" width="1" height="1" /><rect x="27" y="29" width="1" height="1" /><rect x="28" y="29" width="1" height="1" /><rect x="29" y="29" width="1" height="1" /><rect x="37" y="25" width="1" height="1" /><rect x="36" y="26" width="1" height="1" /><rect x="37" y="26" width="1" height="1" /><rect x="35" y="27" width="1" height="1" /><rect x="36" y="27" width="1" height="1" /><rect x="37" y="27" width="1" height="1" /><rect x="34" y="28" width="1" height="1" /><rect x="35" y="28" width="1" height="1" /><rect x="36" y="28" width="1" height="1" /><rect x="37" y="28" width="1" height="1" /><rect x="33" y="29" width="1" height="1" /><rect x="34" y="29" width="1" height="1" /><rect x="35" y="29" width="1" height="1" /><rect x="36" y="29" width="1" height="1" /><rect x="37" y="29" width="1" height="1" /><rect x="47" y="23" width="1" height="8" /><rect x="45" y="25" width="1" height="1" /><rect x="44" y="26" width="1" height="1" /><rect x="45" y="26" width="1" height="1" /><rect x="43" y="27" width="1" height="1" /><rect x="44" y="27" width="1" height="1" /><rect x="45" y="27" width="1" height="1" /><rect x="42" y="28" width="1" height="1" /><rect x="43" y="28" width="1" height="1" /><rect x="44" y="28" width="1" height="1" /><rect x="45" y="28" width="1" height="1" /><rect x="41" y="29" width="1" height="1" /><rect x="42" y="29" width="1" height="1" /><rect x="43" y="29" width="1" height="1" /><rect x="44" y="29" width="1" height="1" /><rect x="45" y="29" width="1" height="1" /><rect x="15" y="31" width="1" height="9" /><rect x="15" y="31" width="8" height="1" /><rect x="21" y="33" width="1" height="1" /><rect x="20" y="34" width="1" height="1" /><rect x="21" y="34" width="1" height="1" /><rect x="19" y="35" width="1" height="1" /><rect x="20" y="35" width="1" height="1" /><rect x="21" y="35" width="1" height="1" /><rect x="18" y="36" width="1" height="1" /><rect x="19" y="36" width="1" height="1" /><rect x="20" y="36" width="1" height="1" /><rect x="21" y="36" width="1" height="1" /><rect x="17" y="37" width="1" height="1" /><rect x="18" y="37" width="1" height="1" /><rect x="19" y="37" width="1" height="1" /><rect x="20" y="37" width="1" height="1" /><rect x="21" y="37" width="1" height="1" /><rect x="29" y="33" width="1" height="1" /><rect x="28" y="34" width="1" height="1" /><rect x="29" y="34" width="1" height="1" /><rect x="27" y="35" width="1" height="1" /><rect x="28" y="35" width="1" height="1" /><rect x="29" y="35" width="1" height="1" /><rect x="26" y="36" width="1" height="1" /><rect x="27" y="36" width="1" height="1" /><rect x="28" y="36" width="1" height="1" /><rect x="29" y="36" width="1" height="1" /><rect x="25" y="37" width="1" height="1" /><rect x="26" y="37" width="1" height="1" /><rect x="27" y="37" width="1" height="1" /><rect x="28" y="37" width="1" height="1" /><rect x="29" y="37" width="1" height="1" /><rect x="37" y="33" width="1" height="1" /><rect x="36" y="34" width="1" height="1" /><rect x="37" y="34" width="1" height="1" /><rect x="35" y="35" width="1" height="1" /><rect x="36" y="35" width="1" height="1" /><rect x="37" y="35" width="1" height="1" /><rect x="34" y="36" width="1" height="1" /><rect x="35" y="36" width="1" height="1" /><rect x="36" y="36" width="1" height="1" /><rect x="37" y="36" width="1" height="1" /><rect x="33" y="37" width="1" height="1" /><rect x="34" y="37" width="1" height="1" /><rect x="35" y="37" width="1" height="1" /><rect x="36" y="37" width="1" height="1" /><rect x="37" y="37" width="1" height="1" /><rect x="47" y="31" width="1" height="8" /><rect x="45" y="33" width="1" height="1" /><rect x="44" y="34" width="1" height="1" /><rect x="45" y="34" width="1" height="1" /><rect x="43" y="35" width="1" height="1" /><rect x="44" y="35" width="1" height="1" /><rect x="45" y="35" width="1" height="1" /><rect x="42" y="36" width="1" height="1" /><rect x="43" y="36" width="1" height="1" /><rect x="44" y="36" width="1" height="1" /><rect x="45" y="36" width="1" height="1" /><rect x="41" y="37" width="1" height="1" /><rect x="42" y="37" width="1" height="1" /><rect x="43" y="37" width="1" height="1" /><rect x="44" y="37" width="1" height="1" /><rect x="45" y="37" width="1" height="1" /><rect x="7" y="39" width="1" height="9" /><rect x="7" y="39" width="8" height="1" /><rect x="7" y="47" width="9" height="1" /><rect x="13" y="41" width="1" height="1" /><rect x="12" y="42" width="1" height="1" /><rect x="13" y="42" width="1" height="1" /><rect x="11" y="43" width="1" height="1" /><rect x="12" y="43" width="1" height="1" /><rect x="13" y="43" width="1" height="1" /><rect x="10" y="44" width="1" height="1" /><rect x="11" y="44" width="1" height="1" /><rect x="12" y="44" width="1" height="1" /><rect x="13" y="44" width="1" height="1" /><rect x="9" y="45" width="1" height="1" /><rect x="10" y="45" width="1" height="1" /><rect x="11" y="45" width="1" height="1" /><rect x="12" y="45" width="1" height="1" /><rect x="13" y="45" width="1" height="1" /><rect x="15" y="47" width="9" height="1" /><rect x="21" y="41" width="1" height="1" /><rect x="20" y="42" width="1" height="1" /><rect x="21" y="42" width="1" height="1" /><rect x="19" y="43" width="1" height="1" /><rect x="20" y="43" width="1" height="1" /><rect x="21" y="43" width="1" height="1" /><rect x="18" y="44" width="1" height="1" /><rect x="19" y="44" width="1" height="1" /><rect x="20" y="44" width="1" height="1" /><rect x="21" y="44" width="1" height="1" /><rect x="17" y="45" width="1" height="1" /><rect x="18" y="45" width="1" height="1" /><rect x="19" y="45" width="1" height="1" /><rect x="20" y="45" width="1" height="1" /><rect x="21" y="45" width="1" height="1" /><rect x="23" y="47" width="9" height="1" /><rect x="29" y="41" width="1" height="1" /><rect x="28" y="42" width="1" height="1" /><rect x="29" y="42" width="1" height="1" /><rect x="27" y="43" width="1" height="1" /><rect x="28" y="43" width="1" height="1" /><rect x="29" y="43" width="1" height="1" /><rect x="26" y="44" width="1" height="1" /><rect x="27" y="44" width="1" height="1" /><rect x="28" y="44" width="1" height="1" /><rect x="29" y="44" width="1" height="1" /><rect x="25" y="45" width="1" height="1" /><rect x="26" y="45" width="1" height="1" /><rect x="27" y="45" width="1" height="1" /><rect x="28" y="45" width="1" height="1" /><rect x="29" y="45" width="1" height="1" /><rect x="31" y="47" width="9" height="1" /><rect x="37" y="41" width="1" height="1" /><rect x="36" y="42" width="1" height="1" /><rect x="37" y="42" width="1" height="1" /><rect x="35" y="43" width="1" height="1" /><rect x="36" y="43" width="1" height="1" /><rect x="37" y="43" width="1" height="1" /><rect x="34" y="44" width="1" height="1" /><rect x="35" y="44" width="1" height="1" /><rect x="36" y="44" width="1" height="1" /><rect x="37" y="44" width="1" height="1" /><rect x="33" y="45" width="1" height="1" /><rect x="34" y="45" width="1" height="1" /><rect x="35" y="45" width="1" height="1" /><rect x="36" y="45" width="1" height="1" /><rect x="37" y="45" width="1" height="1" /><rect x="47" y="39" width="1" height="8" /><rect x="39" y="47" width="9" height="1" /><rect x="45" y="41" width="1" height="1" /><rect x="44" y="42" width="1" height="1" /><rect x="45" y="42" width="1" height="1" /><rect x="43" y="43" width="1" height="1" /><rect x="44" y="43" width="1" height="1" /><rect x="45" y="43" width="1" height="1" /><rect x="42" y="44" width="1" height="1" /><rect x="43" y="44" width="1" height="1" /><rect x="44" y="44" width="1" height="1" /><rect x="45" y="44" width="1" height="1" /><rect x="41" y="45" width="1" height="1" /><rect x="42" y="45" width="1" height="1" /><rect x="43" y="45" width="1" height="1" /><rect x="44" y="45" width="1" height="1" /><rect x="45" y="45" width="1" height="1" /></svg>