<?xml version="1.0" encoding="utf-8"?><svg xmlns="http://www.w3.org/2000/svg" xmlns:xlink="http://www.w3.org/1999/xlink" width="208" height="208"><rect x="0" y="0" width="100%" height="100%" fill="#ffffff" /><rect x="7" y="47" width="1" height="41" /><rect x="7" y="47" width="40" height="1" /><rect x="7" y="87" width="41" height="1" /><rect x="7" y="55" width="1" height="9" /><rect x="7" y="55" width="8" height="1" /><rect x="7" y="63" width="9" height="1" /><rect x="9" y="58" width="1" height="1" /><rect x="10" y="58" width="1" height="1" /><rect x="11" y="58" width="1" height="1" /><rect x="12" y="58" width="1" height="1" /><rect x="13" y="58" width="1" height="1" /><rect x="10" y="59" width="1" height="1" /><rect x="12" y="59" width="1" height="1" /><rect x="11" y="60" width="1" height="1" /><rect x="15" y="55" width="8" height="1" /><rect x="17" y="58" width="1" height="1" /><rect x="18" y="58" width="1" height="1" /><rect x="19" y="58" width="1" height="1" /><rect x="20" y="58" width="1" height="1" /><rect x="21" y="58" width="1" height="1" /><rect x="18" y="59" width="1" height="1" /><rect x="20" y="59" width="1" height="1" /><rect x="19" y="60" width="1" height="1" /><rect x="23" y="55" width="8" height="1" /><rect x="23" y="63" width="9" height="1" /><rect x="25" y="58" width="1" height="1" /><rect x="26" y="58" width="1" height="1" /><rect x="27" y="58" width="1" height="1" /><rect x="28" y="58" width="1" height="1" /><rect x="29" y="58" width="1" height="1" /><rect x="26" y="59" width="1" height="1" /><rect x="28" y="59" width="1" height="1" /><rect x="27" y="60" width="1" height="1" /><rect x="31" y="55" width="8" height="1" /><rect x="33" y="58" width="1" height="1" /><rect x="34" y="58" width="1" height="1" /><rect x="35" y="58" width="1" height="1" /><rect x="36" y="58" width="1" height="1" /><rect x="37" y="58" width="1" height="1" /><rect x="34" y="59" width="1" height="1" /><rect x="36" y="59" width="1" height="1" /><rect x="35" y="60" width="1" height="1" /><rect x="47" y="55" width="1" height="8" /><rect x="39" y="55" width="8" height="1" /><rect x="39" y="63" width="9" height="1" /><rect x="41" y="58" width="1" height="1" /><rect x="42" y="58" width="1" height="1" /><rect x="43" y="58" width="1" height="1" /><rect x="44" y="58" width="1" height="1" /><rect x="45" y="58" width="1" height="1" /><rect x="42" y="59" width="1" height="1" /><rect x="44" y="59" width="1" height="1" /><rect x="43" y="60" width="1" height="1" /><rect x="15" y="63" width="1" height="9" /><rect x="23" y="63" width="1" height="8" /><rect x="15" y="71" width="9" height="1" /><rect x="17" y="66" width="1" height="1" /><rect x="18" y="66" width="1" height="1" /><rect x="19" y="66" width="1" height="1" /><rect x="20" y="66" width="1" height="1" /><rect x="21" y="66" width="1" height="1" /><rect x="18" y="67" width="1" height="1" /><rect x="20" y="67" width="1" height="1" /><rect x="19" y="68" width="1" height="1" /><rect x="31" y="63" width="1" height="9" /><rect x="39" y="63" width="1" height="8" /><rect x="31" y="71" width="9" height="1" /><rect x="33" y="66" width="1" height="1" /><rect x="34" y="66" width="1" height="1" /><rect x="35" y="66" width="1" height="1" /><rect x="36" y="66" width="1" height="1" /><rect x="37" y="66" width="1" height="1" /><rect x="34" y="67" width="1" height="1" /><rect x="36" y="67" width="1" height="1" /><rect x="35" y="68" width="1" height="1" /><rect x="23" y="71" width="1" height="9" /><rect x="31" y="71" width="1" height="8" /><rect x="23" y="71" width="8" height="1" /><rect x="23" y="79" width="9" height="1" /><rect x="25" y="74" width="1" height="1" /><rect x="26" y="74" width="1" height="1" /><rect x="27" y="74" width="1" height="1" /><rect x="28" y="74" width="1" height="1" /><rect x="29" y="74" width="1" height="1" /><rect x="26" y="75" width="1" height="1" /><rect x="28" y="75" width="1" height="1" /><rect x="27" y="76" width="1" height="1" /><rect x="47" y="47" width="40" height="1" /><rect x="47" y="55" width="1" height="9" /><rect x="47" y="55" width="8" height="1" /><rect x="47" y="63" width="9" height="1" /><rect x="49" y="58" width="1" height="1" /><rect x="50" y="58" width="1" height="1" /><rect x="51" y="58" width="1" height="1" /><rect x="52" y="58" width="1" height="1" /><rect x="53" y="58" width="1" height="1" /><rect x="50" y="59" width="1" height="1" /><rect x="52" y="59" width="1" height="1" /><rect x="51" y="60" width="1" height="1" /><rect x="55" y="55" width="8" height="1" /><rect x="57" y="58" width="1" height="1" /><rect x="58" y="58" width="1" height="1" /><rect x="59" y="58" width="1" height="1" /><rect x="60" y="58" width="1" height="1" /><rect x="61" y="58" width="1" height="1" /><rect x="58" y="59" width="1" height="1" /><rect x="60" y="59" width="1" height="1" /><rect x="59" y="60" width="1" height="1" /><rect x="63" y="55" width="8" height="1" /><rect x="63" y="63" width="9" height="1" /><rect x="65" y="58" width="1" height="1" /><rect x="66" y="58" width="1" height="1" /><rect x="67" y="58" width="1" height="1" /><rect x="68" y="58" width="1" height="1" /><rect x="69" y="58" width="1" height="1" /><rect x="66" y="59" width="1" height="1" /><rect x="68" y="59" width="1" height="1" /><rect x="67" y="60" width="1" height="1" /><rect x="71" y="55" width="8" height="1" /><rect x="73" y="58" width="1" height="1" /><rect x="74" y="58" width="1" height="1" /><rect x="75" y="58" width="1" height="1" /><rect x="76" y="58" width="1" height="1" /><rect x="77" y="58" width="1" height="1" /><rect x="74" y="59" width="1" height="1" /><rect x="76" y="59" width="1" height="1" /><rect x="75" y="60" width="1" height="1" /><rect x="87" y="55" width="1" height="8" /><rect x="79" y="55" width="8" height="1" /><rect x="79" y="63" width="9" height="1" /><rect x="81" y="58" width="1" height="1" /><rect x="82" y="58" width="1" height="1" /><rect x="83" y="58" width="1" height="1" /><rect x="84" y="58" width="1" height="1" /><rect x="85" y="58" width="1" height="1" /><rect x="82" y="59" width="1" height="1" /><rect x="84" y="59" width="1" height="1" /><rect x="83" y="60" width="1" height="1" /><rect x="55" y="63" width="1" height="9" /><rect x="63" y="63" width="1" height="8" /><rect x="55" y="71" width="9" height="1" /><rect x="57" y="66" width="1" height="1" /><rect x="58" y="66" width="1" height="1" /><rect x="59" y="66" width="1" height="1" /><rect x="60" y="66" width="1" height="1" /><rect x="61" y="66" width="1" height="1" /><rect x="58" y="67" width="1" height="1" /><rect x="60" y="67" width="1" height="1" /><rect x="59" y="68" width="1" height="1" /><rect x="71" y="63" width="1" height="9" /><rect x="79" y="63" width="1" height="8" /><rect x="71" y="71" width="9" height="1" /><rect x="73" y="66" width="1" height="1" /><rect x="74" y="66" width="1" height="1" /><rect x="75" y="66" width="1" height="1" /><rect x="76" y="66" width="1" height="1" /><rect x="77" y="66" width="1" height="1" /><rect x="74" y="67" width="1" height="1" /><rect x="76" y="67" width="1" height="1" /><rect x="75" y="68" width="1" height="1" /><rect x="63" y="71" width="1" height="9" /><rect x="71" y="71" width="1" height="8" /><rect x="63" y="71" width="8" height="1" /><rect x="63" y="79" width="9" height="1" /><rect x="65" y="74" width="1" height="1" /><rect x="66" y="74" width="1" height="1" /><rect x="67" y="74" width="1" height="1" /><rect x="68" y="74" width="1" height="1" /><rect x="69" y="74" width="1" height="1" /><rect x="66" y="75" width="1" height="1" /><rect x="68" y="75" width="1" height="1" /><rect x="67" y="76" width="1" height="1" /><rect x="87" y="47" width="40" height="1" /><rect x="87" y="87" width="41" height="1" /><rect x="87" y="55" width="1" height="9" /><rect x="87" y="55" width="8" height="1" /><rect x="87" y="63" width="9" height="1" /><rect x="89" y="58" width="1" height="1" /><rect x="90" y="58" width="1" height="1" /><rect x="91" y="58" width="1" height="1" /><rect x="92" y="58" width="1" height="1" /><rect x="93" y="58" width="1" height="1" /><rect x="90" y="59" width="1" height="1" /><rect x="92" y="59" width="1" height="1" /><rect x="91" y="60" width="1" height="1" /><rect x="95" y="55" width="8" height="1" /><rect x="97" y="58" width="1" height="1" /><rect x="98" y="58" width="1" height="1" /><rect x="99" y="58" width="1" height="1" /><rect x="100" y="58" width="1" height="1" /><rect x="101" y="58" width="1" height="1" /><rect x="98" y="59" width="1" height="1" /><rect x="100" y="59" width="1" height="1" /><rect x="99" y="60" width="1" height="1" /><rect x="103" y="55" width="8" height="1" /><rect x="103" y="63" width="9" height="1" /><rect x="105" y="58" width="1" height="1" /><rect x="106" y="58" width="1" height="1" /><rect x="107" y="58" width="1" height="1" /><rect x="108" y="58" width="1" height="1" /><rect x="109" y="58" width="1" height="1" /><rect x="106" y="59" width="1" height="1" /><rect x="108" y="59" width="1" height="1" /><rect x="107" y="60" width="1" height="1" /><rect x="111" y="55" width="8" height="1" /><rect x="113" y="58" width="1" height="1" /><rect x="114" y="58" width="1" height="1" /><rect x="115" y="58" width="1" height="1" /><rect x="116" y="58" width="1" height="1" /><rect x="117" y="58" width="1" height="1" /><rect x="114" y="59" width="1" height="1" /><rect x="116" y="59" width="1" height="1" /><rect x="115" y="60" width="1" height="1" /><rect x="127" y="55" width="1" height="8" /><rect x="119" y="55" width="8" height="1" /><rect x="119" y="63" width="9" height="1" /><rect x="121" y="58" width="1" height="1" /><rect x="122" y="58" width="1" height="1" /><rect x="123" y="58" width="1" height="1" /><rect x="124" y="58" width="1" height="1" /><rect x="125" y="58" width="1" height="1" /><rect x="122" y="59" width="1" height="1" /><rect x="124" y="59" width="1" height="1" /><rect x="123" y="60" width="1" height="1" /><rect x="95" y="63" width="1" height="9" /><rect x="103" y="63" width="1" height="8" /><rect x="95" y="71" width="9" height="1" /><rect x="97" y="66" width="1" height="1" /><rect x="98" y="66" width="1" height="1" /><rect x="99" y="66" width="1" height="1" /><rect x="100" y="66" width="1" height="1" /><rect x="101" y="66" width="1" height="1" /><rect x="98" y="67" width="1" height="1" /><rect x="100" y="67" width="1" height="1" /><rect x="99" y="68" width="1" height="1" /><rect x="111" y="63" width="1" height="9" /><rect x="119" y="63" width="1" height="8" /><rect x="111" y="71" width="9" height="1" /><rect x="113" y="66" width="1" height="1" /><rect x="114" y="66" width="1" height="1" /><rect x="115" y="66" width="1" height="1" /><rect x="116" y="66" width="1" height="1" /><rect x="117" y="66" width="1" height="1" /><rect x="114" y="67" width="1" height="1" /><rect x="116" y="67" width="1" height="1" /><rect x="115" y="68" width="1" height="1" /><rect x="103" y="71" width="1" height="9" /><rect x="111" y="71" width="1" height="8" /><rect x="103" y="71" width="8" height="1" /><rect x="103" y="79" width="9" height="1" /><rect x="105" y="74" width="1" height="1" /><rect x="106" y="74" width="1" height="1" /><rect x="107" y="74" width="1" height="1" /><rect x="108" y="74" width="1" height="1" /><rect x="109" y="74" width="1" height="1" /><rect x="106" y="75" width="1" height="1" /><rect x="108" y="75" width="1" height="1" /><rect x="107" y="76" width="1" height="1" /><rect x="127" y="47" width="40" height="1" /><rect x="127" y="55" width="1" height="9" /><rect x="127" y="55" width="8" height="1" /><rect x="127" y="63" width="9" height="1" /><rect x="129" y="58" width="1" height="1" /><rect x="130" y="58" width="1" height="1" /><rect x="131" y="58" width="1" height="1" /><rect x="132" y="58" width="1" height="1" /><rect x="133" y="58" width="1" height="1" /><rect x="130" y="59" width="1" height="1" /><rect x="132" y="59" width="1" height="1" /><rect x="131" y="60" width="1" height="1" /><rect x="135" y="55" width="8" height="1" /><rect x="137" y="58" width="1" height="1" /><rect x="138" y="58" width="1" height="1" /><rect x="139" y="58" width="1" height="1" /><rect x="140" y="58" width="1" height="1" /><rect x="141" y="58" width="1" height="1" /><rect x="138" y="59" width="1" height="1" /><rect x="140" y="59" width="1" height="1" /><rect x="139" y="60" width="1" height="1" /><rect x="143" y="55" width="8" height="1" /><rect x="143" y="63" width="9" height="1" /><rect x="145" y="58" width="1" height="1" /><rect x="146" y="58" width="1" height="1" /><rect x="147" y="58" width="1" height="1" /><rect x="148" y="58" width="1" height="1" /><rect x="149" y="58" width="1" height="1" /><rect x="146" y="59" width="1" height="1" /><rect x="148" y="59" width="1" height="1" /><rect x="147" y="60" width="1" height="1" /><rect x="151" y="55" width="8" height="1" /><rect x="153" y="58" width="1" height="1" /><rect x="154" y="58" width="1" height="1" /><rect x="155" y="58" width="1" height="1" /><rect x="156" y="58" width="1" height="1" /><rect x="157" y="58" width="1" height="1" /><rect x="154" y="59" width="1" height="1" /><rect x="156" y="59" width="1" height="1" /><rect x="155" y="60" width="1" height="1" /><rect x="167" y="55" width="1" height="8" /><rect x="159" y="55" width="8" height="1" /><rect x="159" y="63" width="9" height="1" /><rect x="161" y="58" width="1" height="1" /><rect x="162" y="58" width="1" height="1" /><rect x="163" y="58" width="1" height="1" /><rect x="164" y="58" width="1" height="1" /><rect x="165" y="58" width="1" height="1" /><rect x="162" y="59" width="1" height="1" /><rect x="164" y="59" width="1" height="1" /><rect x="163" y="60" width="1" height="1" /><rect x="135" y="63" width="1" height="9" /><rect x="143" y="63" width="1" height="8" /><rect x="135" y="71" width="9" height="1" /><rect x="137" y="66" width="1" height="1" /><rect x="138" y="66" width="1" height="1" /><rect x="139" y="66" width="1" height="1" /><rect x="140" y="66" width="1" height="1" /><rect x="141" y="66" width="1" height="1" /><rect x="138" y="67" width="1" height="1" /><rect x="140" y="67" width="1" height="1" /><rect x="139" y="68" width="1" height="1" /><rect x="151" y="63" width="1" height="9" /><rect x="159" y="63" width="1" height="8" /><rect x="151" y="71" width="9" height="1" /><rect x="153" y="66" width="1" height="1" /><rect x="154" y="66" width="1" height="1" /><rect x="155" y="66" width="1" height="1" /><rect x="156" y="66" width="1" height="1" /><rect x="157" y="66" width="1" height="1" /><rect x="154" y="67" width="1" height="1" /><rect x="156" y="67" width="1" height="1" /><rect x="155" y="68" width="1" height="1" /><rect x="143" y="71" width="1" height="9" /><rect x="151" y="71" width="1" height="8" /><rect x="143" y="71" width="8" height="1" /><rect x="143" y="79" width="9" height="1" /><rect x="145" y="74" width="1" height="1" /><rect x="146" y="74" width="1" height="1" /><rect x="147" y="74" width="1" height="1" /><rect x="148" y="74" width="1" height="1" /><rect x="149" y="74" width="1" height="1" /><rect x="146" y="75" width="1" height="1" /><rect x="148" y="75" width="1" height="1" /><rect x="147" y="76" width="1" height="1" /><rect x="207" y="47" width="1" height="40" /><rect x="167" y="47" width="40" height="1" /><rect x="167" y="87" width="41" height="1" /><rect x="167" y="55" width="1" height="9" /><rect x="167" y="55" width="8" height="1" /><rect x="167" y="63" width="9" height="1" /><rect x="169" y="58" width="1" height="1" /><rect x="170" y="58" width="1" height="1" /><rect x="171" y="58" width="1" height="1" /><rect x="172" y="58" width="1" height="1" /><rect x="173" y="58" width="1" height="1" /><rect x="170" y="59" width="1" height="1" /><rect x="172" y="59" width="1" height="1" /><rect x="171" y="60" width="1" height="1" /><rect x="175" y="55" width="8" height="1" /><rect x="177" y="58" width="1" height="1" /><rect x="178" y="58" width="1" height="1" /><rect x="179" y="58" width="1" height="1" /><rect x="180" y="58" width="1" height="1" /><rect x="181" y="58" width="1" height="1" /><rect x="178" y="59" width="1" height="1" /><rect x="180" y="59" width="1" height="1" /><rect x="179" y="60" width="1" height="1" /><rect x="183" y="55" width="8" height="1" /><rect x="183" y="63" width="9" height="1" /><rect x="185" y="58" width="1" height="1" /><rect x="186" y="58" width="1" height="1" /><rect x="187" y="58" width="1" height="1" /><rect x="188" y="58" width="1" height="1" /><rect x="189" y="58" width="1" height="1" /><rect x="186" y="59" width="1" height="1" /><rect x="188" y="59" width="1" height="1" /><rect x="187" y="60" width="1" height="1" /><rect x="191" y="55" width="8" height="1" /><rect x="193" y="58" width="1" height="1" /><rect x="194" y="58" width="1" height="1" /><rect x="195" y="58" width="1" height="1" /><rect x="196" y="58" width="1" height="1" /><rect x="197" y="58" width="1" height="1" /><rect x="194" y="59" width="1" height="1" /><rect x="196" y="59" width="1" height="1" /><rect x="195" y="60" width="1" height="1" /><rect x="207" y="55" width="1" height="8" /><rect x="199" y="55" width="8" height="1" /><rect x="199" y="63" width="9" height="1" /><rect x="201" y="58" width="1" height="1" /><rect x="202" y="58" width="1" height="1" /><rect x="203" y="58" width="1" height="1" /><rect x="204" y="58" width="1" height="1" /><rect x="205" y="58" width="1" height="1" /><rect x="202" y="59" width="1" height="1" /><rect x="204" y="59" width="1" height="1" /><rect x="203" y="60" width="1" height="1" /><rect x="175" y="63" width="1" height="9" /><rect x="183" y="63" width="1" height="8" /><rect x="175" y="71" width="9" height="1" /><rect x="177" y="66" width="1" height="1" /><rect x="178" y="66" width="1" height="1" /><rect x="179" y="66" width="1" height="1" /><rect x="180" y="66" width="1" height="1" /><rect x="181" y="66" width="1" height="1" /><rect x="178" y="67" width="1" height="1" /><rect x="180" y="67" width="1" height="1" /><rect x="179" y="68" width="1" height="1" /><rect x="191" y="63" width="1" height="9" /><rect x="199" y="63" width="1" height="8" /><rect x="191" y="71" width="9" height="1" /><rect x="193" y="66" width="1" height="1" /><rect x="194" y="66" width="1" height="1" /><rect x="195" y="66" width="1" height="1" /><rect x="196" y="66" width="1" height="1" /><rect x="197" y="66" width="1" height="1" /><rect x="194" y="67" width="1" height="1" /><rect x="196" y="67" width="1" height="1" /><rect x="195" y="68" width="1" height="1" /><rect x="183" y="71" width="1" height="9" /><rect x="191" y="71" width="1" height="8" /><rect x="183" y="71" width="8" height="1" /><rect x="183" y="79" width="9" height="1" /><rect x="185" y="74" width="1" height="1" /><rect x="186" y="74" width="1" height="1" /><rect x="187" y="74" width="1" height="1" /><rect x="188" y="74" width="1" height="1" /><rect x="189" y="74" width="1" height="1" /><rect x="186" y="75" width="1" height="1" /><rect x="188" y="75" width="1" height="1" /><rect x="187" y="76" width="1" height="1" /><rect x="47" y="87" width="1" height="41" /><rect x="87" y="87" width="1" height="40" /><rect x="47" y="127" width="41" height="1" /><rect x="47" y="95" width="1" height="9" /><rect x="47" y="95" width="8" height="1" /><rect x="47" y="103" width="9" height="1" /><rect x="49" y="98" width="1" height="1" /><rect x="50" y="98" width="1" height="1" /><rect x="51" y="98" width="1" height="1" /><rect x="52" y="98" width="1" height="1" /><rect x="53" y="98" width="1" height="1" /><rect x="50" y="99" width="1" height="1" /><rect x="52" y="99" width="1" height="1" /><rect x="51" y="100" width="1" height="1" /><rect x="55" y="95" width="8" height="1" /><rect x="57" y="98" width="1" height="1" /><rect x="58" y="98" width="1" height="1" /><rect x="59" y="98" width="1" height="1" /><rect x="60" y="98" width="1" height="1" /><rect x="61" y="98" width="1" height="1" /><rect x="58" y="99" width="1" height="1" /><rect x="60" y="99" width="1" height="1" /><rect x="59" y="100" width="1" height="1" /><rect x="63" y="95" width="8" height="1" /><rect x="63" y="103" width="9" height="1" /><rect x="65" y="98" width="1" height="1" /><rect x="66" y="98" width="1" height="1" /><rect x="67" y="98" width="1" height="1" /><rect x="68" y="98" width="1" height="1" /><rect x="69" y="98" width="1" height="1" /><rect x="66" y="99" width="1" height="1" /><rect x="68" y="99" width="1" height="1" /><rect x="67" y="100" width="1" height="1" /><rect x="71" y="95" width="8" height="1" /><rect x="73" y="98" width="1" height="1" /><rect x="74" y="98" width="1" height="1" /><rect x="75" y="98" width="1" height="1" /><rect x="76" y="98" width="1" height="1" /><rect x="77" y="98" width="1" height="1" /><rect x="74" y="99" width="1" height="1" /><rect x="76" y="99" width="1" height="1" /><rect x="75" y="100" width="1" height="1" /><rect x="87" y="95" width="1" height="8" /><rect x="79" y="95" width="8" height="1" /><rect x="79" y="103" width="9" height="1" /><rect x="81" y="98" width="1" height="1" /><rect x="82" y="98" width="1" height="1" /><rect x="83" y="98" width="1" height="1" /><rect x="84" y="98" width="1" height="1" /><rect x="85" y="98" width="1" height="1" /><rect x="82" y="99" width="1" height="1" /><rect x="84" y="99" width="1" height="1" /><rect x="83" y="100" width="1" height="1" /><rect x="55" y="103" width="1" height="9" /><rect x="63" y="103" width="1" height="8" /><rect x="55" y="111" width="9" height="1" /><rect x="57" y="106" width="1" height="1" /><rect x="58" y="106" width="1" height="1" /><rect x="59" y="106" width="1" height="1" /><rect x="60" y="106" width="1" height="1" /><rect x="61" y="106" width="1" height="1" /><rect x="58" y="107" width="1" height="1" /><rect x="60" y="107" width="1" height="1" /><rect x="59" y="108" width="1" height="1" /><rect x="71" y="103" width="1" height="9" /><rect x="79" y="103" width="1" height="8" /><rect x="71" y="111" width="9" height="1" /><rect x="73" y="106" width="1" height="1" /><rect x="74" y="106" width="1" height="1" /><rect x="75" y="106" width="1" height="1" /><rect x="76" y="106" width="1" height="1" /><rect x="77" y="106" width="1" height="1" /><rect x="74" y="107" width="1" height="1" /><rect x="76" y="107" width="1" height="1" /><rect x="75" y="108" width="1" height="1" /><rect x="63" y="111" width="1" height="9" /><rect x="71" y="111" width="1" height="8" /><rect x="63" y="111" width="8" height="1" /><rect x="63" y="119" width="9" height="1" /><rect x="65" y="114" width="1" height="1" /><rect x="66" y="114" width="1" height="1" /><rect x="67" y="114" width="1" height="1" /><rect x="68" y="114" width="1" height="1" /><rect x="69" y="114" width="1" height="1" /><rect x="66" y="115" width="1" height="1" /><rect x="68" y="115" width="1" height="1" /><rect x="67" y="116" width="1" height="1" /><rect x="127" y="87" width="1" height="41" /><rect x="167" y="87" width="1" height="40" /><rect x="127" y="127" width="41" height="1" /><rect x="127" y="95" width="1" height="9" /><rect x="127" y="95" width="8" height="1" /><rect x="127" y="103" width="9" height="1" /><rect x="129" y="98" width="1" height="1" /><rect x="130" y="98" width="1" height="1" /><rect x="131" y="98" width="1" height="1" /><rect x="132" y="98" width="1" height="1" /><rect x="133" y="98" width="1" height="1" /><rect x="130" y="99" width="1" height="1" /><rect x="132" y="99" width="1" height="1" /><rect x="131" y="100" width="1" height="1" /><rect x="135" y="95" width="8" height="1" /><rect x="137" y="98" width="1" height="1" /><rect x="138" y="98" width="1" height="1" /><rect x="139" y="98" width="1" height="1" /><rect x="140" y="98" width="1" height="1" /><rect x="141" y="98" width="1" height="1" /><rect x="138" y="99" width="1" height="1" /><rect x="140" y="99" width="1" height="1" /><rect x="139" y="100" width="1" height="1" /><rect x="143" y="95" width="8" height="1" /><rect x="143" y="103" width="9" height="1" /><rect x="145" y="98" width="1" height="1" /><rect x="146" y="98" width="1" height="1" /><rect x="147" y="98" width="1" height="1" /><rect x="148" y="98" width="1" height="1" /><rect x="149" y="98" width="1" height="1" /><rect x="146" y="99" width="1" height="1" /><rect x="148" y="99" width="1" height="1" /><rect x="147" y="100" width="1" height="1" /><rect x="151" y="95" width="8" height="1" /><rect x="153" y="98" width="1" height="1" /><rect x="154" y="98" width="1" height="1" /><rect x="155" y="98" width="1" height="1" /><rect x="156" y="98" width="1" height="1" /><rect x="157" y="98" width="1" height="1" /><rect x="154" y="99" width="1" height="1" /><rect x="156" y="99" width="1" height="1" /><rect x="155" y="100" width="1" height="1" /><rect x="167" y="95" width="1" height="8" /><rect x="159" y="95" width="8" height="1" /><rect x="159" y="103" width="9" height="1" /><rect x="161" y="98" width="1" height="1" /><rect x="162" y="98" width="1" height="1" /><rect x="163" y="98" width="1" height="1" /><rect x="164" y="98" width="1" height="1" /><rect x="165" y="98" width="1" height="1" /><rect x="162" y="99" width="1" height="1" /><rect x="164" y="99" width="1" height="1" /><rect x="163" y="100" width="1" height="1" /><rect x="135" y="103" width="1" height="9" /><rect x="143" y="103" width="1" height="8" /><rect x="135" y="111" width="9" height="1" /><rect x="137" y="106" width="1" height="1" /><rect x="138" y="106" width="1" height="1" /><rect x="139" y="106" width="1" height="1" /><rect x="140" y="106" width="1" height="1" /><rect x="141" y="106" width="1" height="1" /><rect x="138" y="107" width="1" height="1" /><rect x="140" y="107" width="1" height="1" /><rect x="139" y="108" width="1" height="1" /><rect x="151" y="103" width="1" height="9" /><rect x="159" y="103" width="1" height="8" /><rect x="151" y="111" width="9" height="1" /><rect x="153" y="106" width="1" height="1" /><rect x="154" y="106" width="1" height="1" /><rect x="155" y="106" width="1" height="1" /><rect x="156" y="106" width="1" height="1" /><rect x="157" y="106" width="1" height="1" /><rect x="154" y="107" width="1" height="1" /><rect x="156" y="107" width="1" height="1" /><rect x="155" y="108" width="1" height="1" /><rect x="143" y="111" width="1" height="9" /><rect x="151" y="111" width="1" height="8" /><rect x="143" y="111" width="8" height="1" /><rect x="143" y="119" width="9" height="1" /><rect x="145" y="114" width="1" height="1" /><rect x="146" y="114" width="1" height="1" /><rect x="147" y="114" width="1" height="1" /><rect x="148" y="114" width="1" height="1" /><rect x="149" y="114" width="1" height="1" /><rect x="146" y="115" width="1" height="1" /><rect x="148" y="115" width="1" height="1" /><rect x="147" y="116" width="1" height="1" /><rect x="87" y="127" width="1" height="41" /><rect x="127" y="127" width="1" height="40" /><rect x="87" y="127" width="40" height="1" /><rect x="87" y="167" width="41" height="1" /><rect x="87" y="135" width="1" height="9" /><rect x="87" y="135" width="8" height="1" /><rect x="87" y="143" width="9" height="1" /><rect x="89" y="138" width="1" height="1" /><rect x="90" y="138" width="1" height="1" /><rect x="91" y="138" width="1" height="1" /><rect x="92" y="138" width="1" height="1" /><rect x="93" y="138" width="1" height="1" /><rect x="90" y="139" width="1" height="1" /><rect x="92" y="139" width="1" height="1" /><rect x="91" y="140" width="1" height="1" /><rect x="95" y="135" width="8" height="1" /><rect x="97" y="138" width="1" height="1" /><rect x="98" y="138" width="1" height="1" /><rect x="99" y="138" width="1" height="1" /><rect x="100" y="138" width="1" height="1" /><rect x="101" y="138" width="1" height="1" /><rect x="98" y="139" width="1" height="1" /><rect x="100" y="139" width="1" height="1" /><rect x="99" y="140" width="1" height="1" /><rect x="103" y="135" width="8" height="1" /><rect x="103" y="143" width="9" height="1" /><rect x="105" y="138" width="1" height="1" /><rect x="106" y="138" width="1" height="1" /><rect x="107" y="138" width="1" height="1" /><rect x="108" y="138" width="1" height="1" /><rect x="109" y="138" width="1" height="1" /><rect x="106" y="139" width="1" height="1" /><rect x="108" y="139" width="1" height="1" /><rect x="107" y="140" width="1" height="1" /><rect x="111" y="135" width="8" height="1" /><rect x="113" y="138" width="1" height="1" /><rect x="114" y="138" width="1" height="1" /><rect x="115" y="138" width="1" height="1" /><rect x="116" y="138" width="1" height="1" /><rect x="117" y="138" width="1" height="1" /><rect x="114" y="139" width="1" height="1" /><rect x="116" y="139" width="1" height="1" /><rect x="115" y="140" width="1" height="1" /><rect x="127" y="135" width="1" height="8" /><rect x="119" y="135" width="8" height="1" /><rect x="119" y="143" width="9" height="1" /><rect x="121" y="138" width="1" height="1" /><rect x="122" y="138" width="1" height="1" /><rect x="123" y="138" width="1" height="1" /><rect x="124" y="138" width="1" height="1" /><rect x="125" y="138" width="1" height="1" /><rect x="122" y="139" width="1" height="1" /><rect x="124" y="139" width="1" height="1" /><rect x="123" y="140" width="1" height="1" /><rect x="95" y="143" width="1" height="9" /><rect x="103" y="143" width="1" height="8" /><rect x="95" y="151" width="9" height="1" /><rect x="97" y="146" width="1" height="1" /><rect x="98" y="146" width="1" height="1" /><rect x="99" y="146" width="1" height="1" /><rect x="100" y="146" width="1" height="1" /><rect x="101" y="146" width="1" height="1" /><rect x="98" y="147" width="1" height="1" /><rect x="100" y="147" width="1" height="1" /><rect x="99" y="148" width="1" height="1" /><rect x="111" y="143" width="1" height="9" /><rect x="119" y="143" width="1" height="8" /><rect x="111" y="151" width="9" height="1" /><rect x="113" y="146" width="1" height="1" /><rect x="114" y="146" width="1" height="1" /><rect x="115" y="146" width="1" height="1" /><rect x="116" y="146" width="1" height="1" /><rect x="117" y="146" width="1" height="1" /><rect x="114" y="147" width="1" height="1" /><rect x="116" y="147" width="1" height="1" /><rect x="115" y="148" width="1" height="1" /><rect x="103" y="151" width="1" height="9" /><rect x="111" y="151" width="1" height="8" /><rect x="103" y="151" width="8" height="1" /><rect x="103" y="159" width="9" height="1" /><rect x="105" y="154" width="1" height="1" /><rect x="106" y="154" width="1" height="1" /><rect x="107" y="154" width="1" height="1" /><rect x="108" y="154" width="1" height="1" /><rect x="109" y="154" width="1" height="1" /><rect x="106" y="155" width="1" height="1" /><rect x="108" y="155" width="1" height="1" /><rect x="107" y="156" width="1" height="1" /></svg>