<?xml version="1.0" encoding="utf-8"?><svg xmlns="http://www.w3.org/2000/svg" xmlns:xlink="http://www.w3.org/1999/xlink" width="1008" height="1008"><g id="n4" transform="translate(-27,-27)"><rect x="434" y="34" width="1" height="201" /><rect x="634" y="34" width="1" height="200" /><rect x="434" y="34" width="200" height="1" /><rect x="434" y="234" width="201" height="1" /><use href="#n3" x="409" y="9" /><rect x="34" y="434" width="1" height="201" /><rect x="34" y="434" width="200" height="1" /><rect x="34" y="634" width="201" height="1" /><use href="#n3" x="9" y="409" /><rect x="234" y="434" width="200" height="1" /><rect x="234" y="634" width="201" height="1" /><use href="#n3" x="209" y="409" /><rect x="434" y="434" width="200" height="1" /><rect x="434" y="634" width="201" height="1" /><use href="#n3" x="409" y="409" /><rect x="634" y="434" width="200" height="1" /><rect x="634" y="634" width="201" height="1" /><use href="#n3" x="609" y="409" /><rect x="1034" y="434" width="1" height="200" /><rect x="834" y="434" width="200" height="1" /><rect x="834" y="634" width="201" height="1" /><use href="#n3" x="809" y="409" /><rect x="434" y="834" width="1" height="201" /><rect x="634" y="834" width="1" height="200" /><rect x="434" y="834" width="200" height="1" /><rect x="434" y="1034" width="201" height="1" /><use href="#n3" x="409" y="809" /></g></svg>