<?xml version="1.0" encoding="utf-8"?><svg xmlns="http://www.w3.org/2000/svg" xmlns:xlink="http://www.w3.org/1999/xlink" width="208" height="208"><rect x="7" y="7" width="1" height="41" /><rect x="47" y="7" width="1" height="40" /><rect x="7" y="7" width="40" height="1" /><rect x="7" y="7" width="1" height="9" /><rect x="15" y="7" width="1" height="8" /><rect x="7" y="7" width="8" height="1" /><rect x="9" y="9" width="1" height="1" /><rect x="9" y="10" width="1" height="1" /><rect x="9" y="11" width="1" height="1" /><rect x="9" y="12" width="1" height="1" /><rect x="9" y="13" width="1" height="1" /><rect x="10" y="13" width="1" height="1" /><rect x="11" y="13" width="1" height="1" /><rect x="12" y="13" width="1" height="1" /><rect x="13" y="13" width="1" height="1" /><rect x="7" y="15" width="1" height="9" /><rect x="15" y="15" width="1" height="8" /><rect x="9" y="17" width="1" height="1" /><rect x="9" y="18" width="1" height="1" /><rect x="9" y="19" width="1" height="1" /><rect x="9" y="20" width="1" height="1" /><rect x="9" y="21" width="1" height="1" /><rect x="10" y="21" width="1" height="1" /><rect x="11" y="21" width="1" height="1" /><rect x="12" y="21" width="1" height="1" /><rect x="13" y="21" width="1" height="1" /><rect x="7" y="23" width="1" height="9" /><rect x="15" y="23" width="1" height="8" /><rect x="9" y="25" width="1" height="1" /><rect x="9" y="26" width="1" height="1" /><rect x="9" y="27" width="1" height="1" /><rect x="9" y="28" width="1" height="1" /><rect x="9" y="29" width="1" height="1" /><rect x="10" y="29" width="1" height="1" /><rect x="11" y="29" width="1" height="1" /><rect x="12" y="29" width="1" height="1" /><rect x="13" y="29" width="1" height="1" /><rect x="7" y="31" width="1" height="9" /><rect x="15" y="31" width="1" height="8" /><rect x="9" y="33" width="1" height="1" /><rect x="9" y="34" width="1" height="1" /><rect x="9" y="35" width="1" height="1" /><rect x="9" y="36" width="1" height="1" /><rect x="9" y="37" width="1" height="1" /><rect x="10" y="37" width="1" height="1" /><rect x="11" y="37" width="1" height="1" /><rect x="12" y="37" width="1" height="1" /><rect x="13" y="37" width="1" height="1" /><rect x="7" y="39" width="1" height="9" /><rect x="7" y="47" width="9" height="1" /><rect x="9" y="41" width="1" height="1" /><rect x="9" y="42" width="1" height="1" /><rect x="9" y="43" width="1" height="1" /><rect x="9" y="44" width="1" height="1" /><rect x="9" y="45" width="1" height="1" /><rect x="10" y="45" width="1" height="1" /><rect x="11" y="45" width="1" height="1" /><rect x="12" y="45" width="1" height="1" /><rect x="13" y="45" width="1" height="1" /><rect x="15" y="39" width="8" height="1" /><rect x="15" y="47" width="9" height="1" /><rect x="17" y="41" width="1" height="1" /><rect x="17" y="42" width="1" height="1" /><rect x="17" y="43" width="1" height="1" /><rect x="17" y="44" width="1" height="1" /><rect x="17" y="45" width="1" height="1" /><rect x="18" y="45" width="1" height="1" /><rect x="19" y="45" width="1" height="1" /><rect x="20" y="45" width="1" height="1" /><rect x="21" y="45" width="1" height="1" /><rect x="23" y="39" width="8" height="1" /><rect x="23" y="47" width="9" height="1" /><rect x="25" y="41" width="1" height="1" /><rect x="25" y="42" width="1" height="1" /><rect x="25" y="43" width="1" height="1" /><rect x="25" y="44" width="1" height="1" /><rect x="25" y="45" width="1" height="1" /><rect x="26" y="45" width="1" height="1" /><rect x="27" y="45" width="1" height="1" /><rect x="28" y="45" width="1" height="1" /><rect x="29" y="45" width="1" height="1" /><rect x="31" y="39" width="8" height="1" /><rect x="31" y="47" width="9" height="1" /><rect x="33" y="41" width="1" height="1" /><rect x="33" y="42" width="1" height="1" /><rect x="33" y="43" width="1" height="1" /><rect x="33" y="44" width="1" height="1" /><rect x="33" y="45" width="1" height="1" /><rect x="34" y="45" width="1" height="1" /><rect x="35" y="45" width="1" height="1" /><rect x="36" y="45" width="1" height="1" /><rect x="37" y="45" width="1" height="1" /><rect x="47" y="39" width="1" height="8" /><rect x="39" y="39" width="8" height="1" /><rect x="39" y="47" width="9" height="1" /><rect x="41" y="41" width="1" height="1" /><rect x="41" y="42" width="1" height="1" /><rect x="41" y="43" width="1" height="1" /><rect x="41" y="44" width="1" height="1" /><rect x="41" y="45" width="1" height="1" /><rect x="42" y="45" width="1" height="1" /><rect x="43" y="45" width="1" height="1" /><rect x="44" y="45" width="1" height="1" /><rect x="45" y="45" width="1" height="1" /><rect x="7" y="47" width="1" height="41" /><rect x="47" y="47" width="1" height="40" /><rect x="7" y="47" width="1" height="9" /><rect x="15" y="47" width="1" height="8" /><rect x="7" y="47" width="8" height="1" /><rect x="9" y="49" width="1" height="1" /><rect x="9" y="50" width="1" height="1" /><rect x="9" y="51" width="1" height="1" /><rect x="9" y="52" width="1" height="1" /><rect x="9" y="53" width="1" height="1" /><rect x="10" y="53" width="1" height="1" /><rect x="11" y="53" width="1" height="1" /><rect x="12" y="53" width="1" height="1" /><rect x="13" y="53" width="1" height="1" /><rect x="7" y="55" width="1" height="9" /><rect x="15" y="55" width="1" height="8" /><rect x="9" y="57" width="1" height="1" /><rect x="9" y="58" width="1" height="1" /><rect x="9" y="59" width="1" height="1" /><rect x="9" y="60" width="1" height="1" /><rect x="9" y="61" width="1" height="1" /><rect x="10" y="61" width="1" height="1" /><rect x="11" y="61" width="1" height="1" /><rect x="12" y="61" width="1" height="1" /><rect x="13" y="61" width="1" height="1" /><rect x="7" y="63" width="1" height="9" /><rect x="15" y="63" width="1" height="8" /><rect x="9" y="65" width="1" height="1" /><rect x="9" y="66" width="1" height="1" /><rect x="9" y="67" width="1" height="1" /><rect x="9" y="68" width="1" height="1" /><rect x="9" y="69" width="1" height="1" /><rect x="10" y="69" width="1" height="1" /><rect x="11" y="69" width="1" height="1" /><rect x="12" y="69" width="1" height="1" /><rect x="13" y="69" width="1" height="1" /><rect x="7" y="71" width="1" height="9" /><rect x="15" y="71" width="1" height="8" /><rect x="9" y="73" width="1" height="1" /><rect x="9" y="74" width="1" height="1" /><rect x="9" y="75" width="1" height="1" /><rect x="9" y="76" width="1" height="1" /><rect x="9" y="77" width="1" height="1" /><rect x="10" y="77" width="1" height="1" /><rect x="11" y="77" width="1" height="1" /><rect x="12" y="77" width="1" height="1" /><rect x="13" y="77" width="1" height="1" /><rect x="7" y="79" width="1" height="9" /><rect x="7" y="87" width="9" height="1" /><rect x="9" y="81" width="1" height="1" /><rect x="9" y="82" width="1" height="1" /><rect x="9" y="83" width="1" height="1" /><rect x="9" y="84" width="1" height="1" /><rect x="9" y="85" width="1" height="1" /><rect x="10" y="85" width="1" height="1" /><rect x="11" y="85" width="1" height="1" /><rect x="12" y="85" width="1" height="1" /><rect x="13" y="85" width="1" height="1" /><rect x="15" y="79" width="8" height="1" /><rect x="15" y="87" width="9" height="1" /><rect x="17" y="81" width="1" height="1" /><rect x="17" y="82" width="1" height="1" /><rect x="17" y="83" width="1" height="1" /><rect x="17" y="84" width="1" height="1" /><rect x="17" y="85" width="1" height="1" /><rect x="18" y="85" width="1" height="1" /><rect x="19" y="85" width="1" height="1" /><rect x="20" y="85" width="1" height="1" /><rect x="21" y="85" width="1" height="1" /><rect x="23" y="79" width="8" height="1" /><rect x="23" y="87" width="9" height="1" /><rect x="25" y="81" width="1" height="1" /><rect x="25" y="82" width="1" height="1" /><rect x="25" y="83" width="1" height="1" /><rect x="25" y="84" width="1" height="1" /><rect x="25" y="85" width="1" height="1" /><rect x="26" y="85" width="1" height="1" /><rect x="27" y="85" width="1" height="1" /><rect x="28" y="85" width="1" height="1" /><rect x="29" y="85" width="1" height="1" /><rect x="31" y="79" width="8" height="1" /><rect x="31" y="87" width="9" height="1" /><rect x="33" y="81" width="1" height="1" /><rect x="33" y="82" width="1" height="1" /><rect x="33" y="83" width="1" height="1" /><rect x="33" y="84" width="1" height="1" /><rect x="33" y="85" width="1" height="1" /><rect x="34" y="85" width="1" height="1" /><rect x="35" y="85" width="1" height="1" /><rect x="36" y="85" width="1" height="1" /><rect x="37" y="85" width="1" height="1" /><rect x="47" y="79" width="1" height="8" /><rect x="39" y="79" width="8" height="1" /><rect x="39" y="87" width="9" height="1" /><rect x="41" y="81" width="1" height="1" /><rect x="41" y="82" width="1" height="1" /><rect x="41" y="83" width="1" height="1" /><rect x="41" y="84" width="1" height="1" /><rect x="41" y="85" width="1" height="1" /><rect x="42" y="85" width="1" height="1" /><rect x="43" y="85" width="1" height="1" /><rect x="44" y="85" width="1" height="1" /><rect x="45" y="85" width="1" height="1" /><rect x="7" y="87" width="1" height="41" /><rect x="47" y="87" width="1" height="40" /><rect x="7" y="87" width="1" height="9" /><rect x="15" y="87" width="1" height="8" /><rect x="7" y="87" width="8" height="1" /><rect x="9" y="89" width="1" height="1" /><rect x="9" y="90" width="1" height="1" /><rect x="9" y="91" width="1" height="1" /><rect x="9" y="92" width="1" height="1" /><rect x="9" y="93" width="1" height="1" /><rect x="10" y="93" width="1" height="1" /><rect x="11" y="93" width="1" height="1" /><rect x="12" y="93" width="1" height="1" /><rect x="13" y="93" width="1" height="1" /><rect x="7" y="95" width="1" height="9" /><rect x="15" y="95" width="1" height="8" /><rect x="9" y="97" width="1" height="1" /><rect x="9" y="98" width="1" height="1" /><rect x="9" y="99" width="1" height="1" /><rect x="9" y="100" width="1" height="1" /><rect x="9" y="101" width="1" height="1" /><rect x="10" y="101" width="1" height="1" /><rect x="11" y="101" width="1" height="1" /><rect x="12" y="101" width="1" height="1" /><rect x="13" y="101" width="1" height="1" /><rect x="7" y="103" width="1" height="9" /><rect x="15" y="103" width="1" height="8" /><rect x="9" y="105" width="1" height="1" /><rect x="9" y="106" width="1" height="1" /><rect x="9" y="107" width="1" height="1" /><rect x="9" y="108" width="1" height="1" /><rect x="9" y="109" width="1" height="1" /><rect x="10" y="109" width="1" height="1" /><rect x="11" y="109" width="1" height="1" /><rect x="12" y="109" width="1" height="1" /><rect x="13" y="109" width="1" height="1" /><rect x="7" y="111" width="1" height="9" /><rect x="15" y="111" width="1" height="8" /><rect x="9" y="113" width="1" height="1" /><rect x="9" y="114" width="1" height="1" /><rect x="9" y="115" width="1" height="1" /><rect x="9" y="116" width="1" height="1" /><rect x="9" y="117" width="1" height="1" /><rect x="10" y="117" width="1" height="1" /><rect x="11" y="117" width="1" height="1" /><rect x="12" y="117" width="1" height="1" /><rect x="13" y="117" width="1" height="1" /><rect x="7" y="119" width="1" height="9" /><rect x="7" y="127" width="9" height="1" /><rect x="9" y="121" width="1" height="1" /><rect x="9" y="122" width="1" height="1" /><rect x="9" y="123" width="1" height="1" /><rect x="9" y="124" width="1" height="1" /><rect x="9" y="125" width="1" height="1" /><rect x="10" y="125" width="1" height="1" /><rect x="11" y="125" width="1" height="1" /><rect x="12" y="125" width="1" height="1" /><rect x="13" y="125" width="1" height="1" /><rect x="15" y="119" width="8" height="1" /><rect x="15" y="127" width="9" height="1" /><rect x="17" y="121" width="1" height="1" /><rect x="17" y="122" width="1" height="1" /><rect x="17" y="123" width="1" height="1" /><rect x="17" y="124" width="1" height="1" /><rect x="17" y="125" width="1" height="1" /><rect x="18" y="125" width="1" height="1" /><rect x="19" y="125" width="1" height="1" /><rect x="20" y="125" width="1" height="1" /><rect x="21" y="125" width="1" height="1" /><rect x="23" y="119" width="8" height="1" /><rect x="23" y="127" width="9" height="1" /><rect x="25" y="121" width="1" height="1" /><rect x="25" y="122" width="1" height="1" /><rect x="25" y="123" width="1" height="1" /><rect x="25" y="124" width="1" height="1" /><rect x="25" y="125" width="1" height="1" /><rect x="26" y="125" width="1" height="1" /><rect x="27" y="125" width="1" height="1" /><rect x="28" y="125" width="1" height="1" /><rect x="29" y="125" width="1" height="1" /><rect x="31" y="119" width="8" height="1" /><rect x="31" y="127" width="9" height="1" /><rect x="33" y="121" width="1" height="1" /><rect x="33" y="122" width="1" height="1" /><rect x="33" y="123" width="1" height="1" /><rect x="33" y="124" width="1" height="1" /><rect x="33" y="125" width="1" height="1" /><rect x="34" y="125" width="1" height="1" /><rect x="35" y="125" width="1" height="1" /><rect x="36" y="125" width="1" height="1" /><rect x="37" y="125" width="1" height="1" /><rect x="47" y="119" width="1" height="8" /><rect x="39" y="119" width="8" height="1" /><rect x="39" y="127" width="9" height="1" /><rect x="41" y="121" width="1" height="1" /><rect x="41" y="122" width="1" height="1" /><rect x="41" y="123" width="1" height="1" /><rect x="41" y="124" width="1" height="1" /><rect x="41" y="125" width="1" height="1" /><rect x="42" y="125" width="1" height="1" /><rect x="43" y="125" width="1" height="1" /><rect x="44" y="125" width="1" height="1" /><rect x="45" y="125" width="1" height="1" /><rect x="7" y="127" width="1" height="41" /><rect x="47" y="127" width="1" height="40" /><rect x="7" y="127" width="1" height="9" /><rect x="15" y="127" width="1" height="8" /><rect x="7" y="127" width="8" height="1" /><rect x="9" y="129" width="1" height="1" /><rect x="9" y="130" width="1" height="1" /><rect x="9" y="131" width="1" height="1" /><rect x="9" y="132" width="1" height="1" /><rect x="9" y="133" width="1" height="1" /><rect x="10" y="133" width="1" height="1" /><rect x="11" y="133" width="1" height="1" /><rect x="12" y="133" width="1" height="1" /><rect x="13" y="133" width="1" height="1" /><rect x="7" y="135" width="1" height="9" /><rect x="15" y="135" width="1" height="8" /><rect x="9" y="137" width="1" height="1" /><rect x="9" y="138" width="1" height="1" /><rect x="9" y="139" width="1" height="1" /><rect x="9" y="140" width="1" height="1" /><rect x="9" y="141" width="1" height="1" /><rect x="10" y="141" width="1" height="1" /><rect x="11" y="141" width="1" height="1" /><rect x="12" y="141" width="1" height="1" /><rect x="13" y="141" width="1" height="1" /><rect x="7" y="143" width="1" height="9" /><rect x="15" y="143" width="1" height="8" /><rect x="9" y="145" width="1" height="1" /><rect x="9" y="146" width="1" height="1" /><rect x="9" y="147" width="1" height="1" /><rect x="9" y="148" width="1" height="1" /><rect x="9" y="149" width="1" height="1" /><rect x="10" y="149" width="1" height="1" /><rect x="11" y="149" width="1" height="1" /><rect x="12" y="149" width="1" height="1" /><rect x="13" y="149" width="1" height="1" /><rect x="7" y="151" width="1" height="9" /><rect x="15" y="151" width="1" height="8" /><rect x="9" y="153" width="1" height="1" /><rect x="9" y="154" width="1" height="1" /><rect x="9" y="155" width="1" height="1" /><rect x="9" y="156" width="1" height="1" /><rect x="9" y="157" width="1" height="1" /><rect x="10" y="157" width="1" height="1" /><rect x="11" y="157" width="1" height="1" /><rect x="12" y="157" width="1" height="1" /><rect x="13" y="157" width="1" height="1" /><rect x="7" y="159" width="1" height="9" /><rect x="7" y="167" width="9" height="1" /><rect x="9" y="161" width="1" height="1" /><rect x="9" y="162" width="1" height="1" /><rect x="9" y="163" width="1" height="1" /><rect x="9" y="164" width="1" height="1" /><rect x="9" y="165" width="1" height="1" /><rect x="10" y="165" width="1" height="1" /><rect x="11" y="165" width="1" height="1" /><rect x="12" y="165" width="1" height="1" /><rect x="13" y="165" width="1" height="1" /><rect x="15" y="159" width="8" height="1" /><rect x="15" y="167" width="9" height="1" /><rect x="17" y="161" width="1" height="1" /><rect x="17" y="162" width="1" height="1" /><rect x="17" y="163" width="1" height="1" /><rect x="17" y="164" width="1" height="1" /><rect x="17" y="165" width="1" height="1" /><rect x="18" y="165" width="1" height="1" /><rect x="19" y="165" width="1" height="1" /><rect x="20" y="165" width="1" height="1" /><rect x="21" y="165" width="1" height="1" /><rect x="23" y="159" width="8" height="1" /><rect x="23" y="167" width="9" height="1" /><rect x="25" y="161" width="1" height="1" /><rect x="25" y="162" width="1" height="1" /><rect x="25" y="163" width="1" height="1" /><rect x="25" y="164" width="1" height="1" /><rect x="25" y="165" width="1" height="1" /><rect x="26" y="165" width="1" height="1" /><rect x="27" y="165" width="1" height="1" /><rect x="28" y="165" width="1" height="1" /><rect x="29" y="165" width="1" height="1" /><rect x="31" y="159" width="8" height="1" /><rect x="31" y="167" width="9" height="1" /><rect x="33" y="161" width="1" height="1" /><rect x="33" y="162" width="1" height="1" /><rect x="33" y="163" width="1" height="1" /><rect x="33" y="164" width="1" height="1" /><rect x="33" y="165" width="1" height="1" /><rect x="34" y="165" width="1" height="1" /><rect x="35" y="165" width="1" height="1" /><rect x="36" y="165" width="1" height="1" /><rect x="37" y="165" width="1" height="1" /><rect x="47" y="159" width="1" height="8" /><rect x="39" y="159" width="8" height="1" /><rect x="39" y="167" width="9" height="1" /><rect x="41" y="161" width="1" height="1" /><rect x="41" y="162" width="1" height="1" /><rect x="41" y="163" width="1" height="1" /><rect x="41" y="164" width="1" height="1" /><rect x="41" y="165" width="1" height="1" /><rect x="42" y="165" width="1" height="1" /><rect x="43" y="165" width="1" height="1" /><rect x="44" y="165" width="1" height="1" /><rect x="45" y="165" width="1" height="1" /><rect x="7" y="167" width="1" height="41" /><rect x="7" y="207" width="41" height="1" /><rect x="7" y="167" width="1" height="9" /><rect x="15" y="167" width="1" height="8" /><rect x="7" y="167" width="8" height="1" /><rect x="9" y="169" width="1" height="1" /><rect x="9" y="170" width="1" height="1" /><rect x="9" y="171" width="1" height="1" /><rect x="9" y="172" width="1" height="1" /><rect x="9" y="173" width="1" height="1" /><rect x="10" y="173" width="1" height="1" /><rect x="11" y="173" width="1" height="1" /><rect x="12" y="173" width="1" height="1" /><rect x="13" y="173" width="1" height="1" /><rect x="7" y="175" width="1" height="9" /><rect x="15" y="175" width="1" height="8" /><rect x="9" y="177" width="1" height="1" /><rect x="9" y="178" width="1" height="1" /><rect x="9" y="179" width="1" height="1" /><rect x="9" y="180" width="1" height="1" /><rect x="9" y="181" width="1" height="1" /><rect x="10" y="181" width="1" height="1" /><rect x="11" y="181" width="1" height="1" /><rect x="12" y="181" width="1" height="1" /><rect x="13" y="181" width="1" height="1" /><rect x="7" y="183" width="1" height="9" /><rect x="15" y="183" width="1" height="8" /><rect x="9" y="185" width="1" height="1" /><rect x="9" y="186" width="1" height="1" /><rect x="9" y="187" width="1" height="1" /><rect x="9" y="188" width="1" height="1" /><rect x="9" y="189" width="1" height="1" /><rect x="10" y="189" width="1" height="1" /><rect x="11" y="189" width="1" height="1" /><rect x="12" y="189" width="1" height="1" /><rect x="13" y="189" width="1" height="1" /><rect x="7" y="191" width="1" height="9" /><rect x="15" y="191" width="1" height="8" /><rect x="9" y="193" width="1" height="1" /><rect x="9" y="194" width="1" height="1" /><rect x="9" y="195" width="1" height="1" /><rect x="9" y="196" width="1" height="1" /><rect x="9" y="197" width="1" height="1" /><rect x="10" y="197" width="1" height="1" /><rect x="11" y="197" width="1" height="1" /><rect x="12" y="197" width="1" height="1" /><rect x="13" y="197" width="1" height="1" /><rect x="7" y="199" width="1" height="9" /><rect x="7" y="207" width="9" height="1" /><rect x="9" y="201" width="1" height="1" /><rect x="9" y="202" width="1" height="1" /><rect x="9" y="203" width="1" height="1" /><rect x="9" y="204" width="1" height="1" /><rect x="9" y="205" width="1" height="1" /><rect x="10" y="205" width="1" height="1" /><rect x="11" y="205" width="1" height="1" /><rect x="12" y="205" width="1" height="1" /><rect x="13" y="205" width="1" height="1" /><rect x="15" y="199" width="8" height="1" /><rect x="15" y="207" width="9" height="1" /><rect x="17" y="201" width="1" height="1" /><rect x="17" y="202" width="1" height="1" /><rect x="17" y="203" width="1" height="1" /><rect x="17" y="204" width="1" height="1" /><rect x="17" y="205" width="1" height="1" /><rect x="18" y="205" width="1" height="1" /><rect x="19" y="205" width="1" height="1" /><rect x="20" y="205" width="1" height="1" /><rect x="21" y="205" width="1" height="1" /><rect x="23" y="199" width="8" height="1" /><rect x="23" y="207" width="9" height="1" /><rect x="25" y="201" width="1" height="1" /><rect x="25" y="202" width="1" height="1" /><rect x="25" y="203" width="1" height="1" /><rect x="25" y="204" width="1" height="1" /><rect x="25" y="205" width="1" height="1" /><rect x="26" y="205" width="1" height="1" /><rect x="27" y="205" width="1" height="1" /><rect x="28" y="205" width="1" height="1" /><rect x="29" y="205" width="1" height="1" /><rect x="31" y="199" width="8" height="1" /><rect x="31" y="207" width="9" height="1" /><rect x="33" y="201" width="1" height="1" /><rect x="33" y="202" width="1" height="1" /><rect x="33" y="203" width="1" height="1" /><rect x="33" y="204" width="1" height="1" /><rect x="33" y="205" width="1" height="1" /><rect x="34" y="205" width="1" height="1" /><rect x="35" y="205" width="1" height="1" /><rect x="36" y="205" width="1" height="1" /><rect x="37" y="205" width="1" height="1" /><rect x="47" y="199" width="1" height="8" /><rect x="39" y="199" width="8" height="1" /><rect x="39" y="207" width="9" height="1" /><rect x="41" y="201" width="1" height="1" /><rect x="41" y="202" width="1" height="1" /><rect x="41" y="203" width="1" height="1" /><rect x="41" y="204" width="1" height="1" /><rect x="41" y="205" width="1" height="1" /><rect x="42" y="205" width="1" height="1" /><rect x="43" y="205" width="1" height="1" /><rect x="44" y="205" width="1" height="1" /><rect x="45" y="205" width="1" height="1" /><rect x="47" y="167" width="40" height="1" /><rect x="47" y="207" width="41" height="1" /><rect x="47" y="167" width="1" height="9" /><rect x="55" y="167" width="1" height="8" /><rect x="47" y="167" width="8" height="1" /><rect x="49" y="169" width="1" height="1" /><rect x="49" y="170" width="1" height="1" /><rect x="49" y="171" width="1" height="1" /><rect x="49" y="172" width="1" height="1" /><rect x="49" y="173" width="1" height="1" /><rect x="50" y="173" width="1" height="1" /><rect x="51" y="173" width="1" height="1" /><rect x="52" y="173" width="1" height="1" /><rect x="53" y="173" width="1" height="1" /><rect x="47" y="175" width="1" height="9" /><rect x="55" y="175" width="1" height="8" /><rect x="49" y="177" width="1" height="1" /><rect x="49" y="178" width="1" height="1" /><rect x="49" y="179" width="1" height="1" /><rect x="49" y="180" width="1" height="1" /><rect x="49" y="181" width="1" height="1" /><rect x="50" y="181" width="1" height="1" /><rect x="51" y="181" width="1" height="1" /><rect x="52" y="181" width="1" height="1" /><rect x="53" y="181" width="1" height="1" /><rect x="47" y="183" width="1" height="9" /><rect x="55" y="183" width="1" height="8" /><rect x="49" y="185" width="1" height="1" /><rect x="49" y="186" width="1" height="1" /><rect x="49" y="187" width="1" height="1" /><rect x="49" y="188" width="1" height="1" /><rect x="49" y="189" width="1" height="1" /><rect x="50" y="189" width="1" height="1" /><rect x="51" y="189" width="1" height="1" /><rect x="52" y="189" width="1" height="1" /><rect x="53" y="189" width="1" height="1" /><rect x="47" y="191" width="1" height="9" /><rect x="55" y="191" width="1" height="8" /><rect x="49" y="193" width="1" height="1" /><rect x="49" y="194" width="1" height="1" /><rect x="49" y="195" width="1" height="1" /><rect x="49" y="196" width="1" height="1" /><rect x="49" y="197" width="1" height="1" /><rect x="50" y="197" width="1" height="1" /><rect x="51" y="197" width="1" height="1" /><rect x="52" y="197" width="1" height="1" /><rect x="53" y="197" width="1" height="1" /><rect x="47" y="199" width="1" height="9" /><rect x="47" y="207" width="9" height="1" /><rect x="49" y="201" width="1" height="1" /><rect x="49" y="202" width="1" height="1" /><rect x="49" y="203" width="1" height="1" /><rect x="49" y="204" width="1" height="1" /><rect x="49" y="205" width="1" height="1" /><rect x="50" y="205" width="1" height="1" /><rect x="51" y="205" width="1" height="1" /><rect x="52" y="205" width="1" height="1" /><rect x="53" y="205" width="1" height="1" /><rect x="55" y="199" width="8" height="1" /><rect x="55" y="207" width="9" height="1" /><rect x="57" y="201" width="1" height="1" /><rect x="57" y="202" width="1" height="1" /><rect x="57" y="203" width="1" height="1" /><rect x="57" y="204" width="1" height="1" /><rect x="57" y="205" width="1" height="1" /><rect x="58" y="205" width="1" height="1" /><rect x="59" y="205" width="1" height="1" /><rect x="60" y="205" width="1" height="1" /><rect x="61" y="205" width="1" height="1" /><rect x="63" y="199" width="8" height="1" /><rect x="63" y="207" width="9" height="1" /><rect x="65" y="201" width="1" height="1" /><rect x="65" y="202" width="1" height="1" /><rect x="65" y="203" width="1" height="1" /><rect x="65" y="204" width="1" height="1" /><rect x="65" y="205" width="1" height="1" /><rect x="66" y="205" width="1" height="1" /><rect x="67" y="205" width="1" height="1" /><rect x="68" y="205" width="1" height="1" /><rect x="69" y="205" width="1" height="1" /><rect x="71" y="199" width="8" height="1" /><rect x="71" y="207" width="9" height="1" /><rect x="73" y="201" width="1" height="1" /><rect x="73" y="202" width="1" height="1" /><rect x="73" y="203" width="1" height="1" /><rect x="73" y="204" width="1" height="1" /><rect x="73" y="205" width="1" height="1" /><rect x="74" y="205" width="1" height="1" /><rect x="75" y="205" width="1" height="1" /><rect x="76" y="205" width="1" height="1" /><rect x="77" y="205" width="1" height="1" /><rect x="87" y="199" width="1" height="8" /><rect x="79" y="199" width="8" height="1" /><rect x="79" y="207" width="9" height="1" /><rect x="81" y="201" width="1" height="1" /><rect x="81" y="202" width="1" height="1" /><rect x="81" y="203" width="1" height="1" /><rect x="81" y="204" width="1" height="1" /><rect x="81" y="205" width="1" height="1" /><rect x="82" y="205" width="1" height="1" /><rect x="83" y="205" width="1" height="1" /><rect x="84" y="205" width="1" height="1" /><rect x="85" y="205" width="1" height="1" /><rect x="87" y="167" width="40" height="1" /><rect x="87" y="207" width="41" height="1" /><rect x="87" y="167" width="1" height="9" /><rect x="95" y="167" width="1" height="8" /><rect x="87" y="167" width="8" height="1" /><rect x="89" y="169" width="1" height="1" /><rect x="89" y="170" width="1" height="1" /><rect x="89" y="171" width="1" height="1" /><rect x="89" y="172" width="1" height="1" /><rect x="89" y="173" width="1" height="1" /><rect x="90" y="173" width="1" height="1" /><rect x="91" y="173" width="1" height="1" /><rect x="92" y="173" width="1" height="1" /><rect x="93" y="173" width="1" height="1" /><rect x="87" y="175" width="1" height="9" /><rect x="95" y="175" width="1" height="8" /><rect x="89" y="177" width="1" height="1" /><rect x="89" y="178" width="1" height="1" /><rect x="89" y="179" width="1" height="1" /><rect x="89" y="180" width="1" height="1" /><rect x="89" y="181" width="1" height="1" /><rect x="90" y="181" width="1" height="1" /><rect x="91" y="181" width="1" height="1" /><rect x="92" y="181" width="1" height="1" /><rect x="93" y="181" width="1" height="1" /><rect x="87" y="183" width="1" height="9" /><rect x="95" y="183" width="1" height="8" /><rect x="89" y="185" width="1" height="1" /><rect x="89" y="186" width="1" height="1" /><rect x="89" y="187" width="1" height="1" /><rect x="89" y="188" width="1" height="1" /><rect x="89" y="189" width="1" height="1" /><rect x="90" y="189" width="1" height="1" /><rect x="91" y="189" width="1" height="1" /><rect x="92" y="189" width="1" height="1" /><rect x="93" y="189" width="1" height="1" /><rect x="87" y="191" width="1" height="9" /><rect x="95" y="191" width="1" height="8" /><rect x="89" y="193" width="1" height="1" /><rect x="89" y="194" width="1" height="1" /><rect x="89" y="195" width="1" height="1" /><rect x="89" y="196" width="1" height="1" /><rect x="89" y="197" width="1" height="1" /><rect x="90" y="197" width="1" height="1" /><rect x="91" y="197" width="1" height="1" /><rect x="92" y="197" width="1" height="1" /><rect x="93" y="197" width="1" height="1" /><rect x="87" y="199" width="1" height="9" /><rect x="87" y="207" width="9" height="1" /><rect x="89" y="201" width="1" height="1" /><rect x="89" y="202" width="1" height="1" /><rect x="89" y="203" width="1" height="1" /><rect x="89" y="204" width="1" height="1" /><rect x="89" y="205" width="1" height="1" /><rect x="90" y="205" width="1" height="1" /><rect x="91" y="205" width="1" height="1" /><rect x="92" y="205" width="1" height="1" /><rect x="93" y="205" width="1" height="1" /><rect x="95" y="199" width="8" height="1" /><rect x="95" y="207" width="9" height="1" /><rect x="97" y="201" width="1" height="1" /><rect x="97" y="202" width="1" height="1" /><rect x="97" y="203" width="1" height="1" /><rect x="97" y="204" width="1" height="1" /><rect x="97" y="205" width="1" height="1" /><rect x="98" y="205" width="1" height="1" /><rect x="99" y="205" width="1" height="1" /><rect x="100" y="205" width="1" height="1" /><rect x="101" y="205" width="1" height="1" /><rect x="103" y="199" width="8" height="1" /><rect x="103" y="207" width="9" height="1" /><rect x="105" y="201" width="1" height="1" /><rect x="105" y="202" width="1" height="1" /><rect x="105" y="203" width="1" height="1" /><rect x="105" y="204" width="1" height="1" /><rect x="105" y="205" width="1" height="1" /><rect x="106" y="205" width="1" height="1" /><rect x="107" y="205" width="1" height="1" /><rect x="108" y="205" width="1" height="1" /><rect x="109" y="205" width="1" height="1" /><rect x="111" y="199" width="8" height="1" /><rect x="111" y="207" width="9" height="1" /><rect x="113" y="201" width="1" height="1" /><rect x="113" y="202" width="1" height="1" /><rect x="113" y="203" width="1" height="1" /><rect x="113" y="204" width="1" height="1" /><rect x="113" y="205" width="1" height="1" /><rect x="114" y="205" width="1" height="1" /><rect x="115" y="205" width="1" height="1" /><rect x="116" y="205" width="1" height="1" /><rect x="117" y="205" width="1" height="1" /><rect x="127" y="199" width="1" height="8" /><rect x="119" y="199" width="8" height="1" /><rect x="119" y="207" width="9" height="1" /><rect x="121" y="201" width="1" height="1" /><rect x="121" y="202" width="1" height="1" /><rect x="121" y="203" width="1" height="1" /><rect x="121" y="204" width="1" height="1" /><rect x="121" y="205" width="1" height="1" /><rect x="122" y="205" width="1" height="1" /><rect x="123" y="205" width="1" height="1" /><rect x="124" y="205" width="1" height="1" /><rect x="125" y="205" width="1" height="1" /><rect x="127" y="167" width="40" height="1" /><rect x="127" y="207" width="41" height="1" /><rect x="127" y="167" width="1" height="9" /><rect x="135" y="167" width="1" height="8" /><rect x="127" y="167" width="8" height="1" /><rect x="129" y="169" width="1" height="1" /><rect x="129" y="170" width="1" height="1" /><rect x="129" y="171" width="1" height="1" /><rect x="129" y="172" width="1" height="1" /><rect x="129" y="173" width="1" height="1" /><rect x="130" y="173" width="1" height="1" /><rect x="131" y="173" width="1" height="1" /><rect x="132" y="173" width="1" height="1" /><rect x="133" y="173" width="1" height="1" /><rect x="127" y="175" width="1" height="9" /><rect x="135" y="175" width="1" height="8" /><rect x="129" y="177" width="1" height="1" /><rect x="129" y="178" width="1" height="1" /><rect x="129" y="179" width="1" height="1" /><rect x="129" y="180" width="1" height="1" /><rect x="129" y="181" width="1" height="1" /><rect x="130" y="181" width="1" height="1" /><rect x="131" y="181" width="1" height="1" /><rect x="132" y="181" width="1" height="1" /><rect x="133" y="181" width="1" height="1" /><rect x="127" y="183" width="1" height="9" /><rect x="135" y="183" width="1" height="8" /><rect x="129" y="185" width="1" height="1" /><rect x="129" y="186" width="1" height="1" /><rect x="129" y="187" width="1" height="1" /><rect x="129" y="188" width="1" height="1" /><rect x="129" y="189" width="1" height="1" /><rect x="130" y="189" width="1" height="1" /><rect x="131" y="189" width="1" height="1" /><rect x="132" y="189" width="1" height="1" /><rect x="133" y="189" width="1" height="1" /><rect x="127" y="191" width="1" height="9" /><rect x="135" y="191" width="1" height="8" /><rect x="129" y="193" width="1" height="1" /><rect x="129" y="194" width="1" height="1" /><rect x="129" y="195" width="1" height="1" /><rect x="129" y="196" width="1" height="1" /><rect x="129" y="197" width="1" height="1" /><rect x="130" y="197" width="1" height="1" /><rect x="131" y="197" width="1" height="1" /><rect x="132" y="197" width="1" height="1" /><rect x="133" y="197" width="1" height="1" /><rect x="127" y="199" width="1" height="9" /><rect x="127" y="207" width="9" height="1" /><rect x="129" y="201" width="1" height="1" /><rect x="129" y="202" width="1" height="1" /><rect x="129" y="203" width="1" height="1" /><rect x="129" y="204" width="1" height="1" /><rect x="129" y="205" width="1" height="1" /><rect x="130" y="205" width="1" height="1" /><rect x="131" y="205" width="1" height="1" /><rect x="132" y="205" width="1" height="1" /><rect x="133" y="205" width="1" height="1" /><rect x="135" y="199" width="8" height="1" /><rect x="135" y="207" width="9" height="1" /><rect x="137" y="201" width="1" height="1" /><rect x="137" y="202" width="1" height="1" /><rect x="137" y="203" width="1" height="1" /><rect x="137" y="204" width="1" height="1" /><rect x="137" y="205" width="1" height="1" /><rect x="138" y="205" width="1" height="1" /><rect x="139" y="205" width="1" height="1" /><rect x="140" y="205" width="1" height="1" /><rect x="141" y="205" width="1" height="1" /><rect x="143" y="199" width="8" height="1" /><rect x="143" y="207" width="9" height="1" /><rect x="145" y="201" width="1" height="1" /><rect x="145" y="202" width="1" height="1" /><rect x="145" y="203" width="1" height="1" /><rect x="145" y="204" width="1" height="1" /><rect x="145" y="205" width="1" height="1" /><rect x="146" y="205" width="1" height="1" /><rect x="147" y="205" width="1" height="1" /><rect x="148" y="205" width="1" height="1" /><rect x="149" y="205" width="1" height="1" /><rect x="151" y="199" width="8" height="1" /><rect x="151" y="207" width="9" height="1" /><rect x="153" y="201" width="1" height="1" /><rect x="153" y="202" width="1" height="1" /><rect x="153" y="203" width="1" height="1" /><rect x="153" y="204" width="1" height="1" /><rect x="153" y="205" width="1" height="1" /><rect x="154" y="205" width="1" height="1" /><rect x="155" y="205" width="1" height="1" /><rect x="156" y="205" width="1" height="1" /><rect x="157" y="205" width="1" height="1" /><rect x="167" y="199" width="1" height="8" /><rect x="159" y="199" width="8" height="1" /><rect x="159" y="207" width="9" height="1" /><rect x="161" y="201" width="1" height="1" /><rect x="161" y="202" width="1" height="1" /><rect x="161" y="203" width="1" height="1" /><rect x="161" y="204" width="1" height="1" /><rect x="161" y="205" width="1" height="1" /><rect x="162" y="205" width="1" height="1" /><rect x="163" y="205" width="1" height="1" /><rect x="164" y="205" width="1" height="1" /><rect x="165" y="205" width="1" height="1" /><rect x="207" y="167" width="1" height="40" /><rect x="167" y="167" width="40" height="1" /><rect x="167" y="207" width="41" height="1" /><rect x="167" y="167" width="1" height="9" /><rect x="175" y="167" width="1" height="8" /><rect x="167" y="167" width="8" height="1" /><rect x="169" y="169" width="1" height="1" /><rect x="169" y="170" width="1" height="1" /><rect x="169" y="171" width="1" height="1" /><rect x="169" y="172" width="1" height="1" /><rect x="169" y="173" width="1" height="1" /><rect x="170" y="173" width="1" height="1" /><rect x="171" y="173" width="1" height="1" /><rect x="172" y="173" width="1" height="1" /><rect x="173" y="173" width="1" height="1" /><rect x="167" y="175" width="1" height="9" /><rect x="175" y="175" width="1" height="8" /><rect x="169" y="177" width="1" height="1" /><rect x="169" y="178" width="1" height="1" /><rect x="169" y="179" width="1" height="1" /><rect x="169" y="180" width="1" height="1" /><rect x="169" y="181" width="1" height="1" /><rect x="170" y="181" width="1" height="1" /><rect x="171" y="181" width="1" height="1" /><rect x="172" y="181" width="1" height="1" /><rect x="173" y="181" width="1" height="1" /><rect x="167" y="183" width="1" height="9" /><rect x="175" y="183" width="1" height="8" /><rect x="169" y="185" width="1" height="1" /><rect x="169" y="186" width="1" height="1" /><rect x="169" y="187" width="1" height="1" /><rect x="169" y="188" width="1" height="1" /><rect x="169" y="189" width="1" height="1" /><rect x="170" y="189" width="1" height="1" /><rect x="171" y="189" width="1" height="1" /><rect x="172" y="189" width="1" height="1" /><rect x="173" y="189" width="1" height="1" /><rect x="167" y="191" width="1" height="9" /><rect x="175" y="191" width="1" height="8" /><rect x="169" y="193" width="1" height="1" /><rect x="169" y="194" width="1" height="1" /><rect x="169" y="195" width="1" height="1" /><rect x="169" y="196" width="1" height="1" /><rect x="169" y="197" width="1" height="1" /><rect x="170" y="197" width="1" height="1" /><rect x="171" y="197" width="1" height="1" /><rect x="172" y="197" width="1" height="1" /><rect x="173" y="197" width="1" height="1" /><rect x="167" y="199" width="1" height="9" /><rect x="167" y="207" width="9" height="1" /><rect x="169" y="201" width="1" height="1" /><rect x="169" y="202" width="1" height="1" /><rect x="169" y="203" width="1" height="1" /><rect x="169" y="204" width="1" height="1" /><rect x="169" y="205" width="1" height="1" /><rect x="170" y="205" width="1" height="1" /><rect x="171" y="205" width="1" height="1" /><rect x="172" y="205" width="1" height="1" /><rect x="173" y="205" width="1" height="1" /><rect x="175" y="199" width="8" height="1" /><rect x="175" y="207" width="9" height="1" /><rect x="177" y="201" width="1" height="1" /><rect x="177" y="202" width="1" height="1" /><rect x="177" y="203" width="1" height="1" /><rect x="177" y="204" width="1" height="1" /><rect x="177" y="205" width="1" height="1" /><rect x="178" y="205" width="1" height="1" /><rect x="179" y="205" width="1" height="1" /><rect x="180" y="205" width="1" height="1" /><rect x="181" y="205" width="1" height="1" /><rect x="183" y="199" width="8" height="1" /><rect x="183" y="207" width="9" height="1" /><rect x="185" y="201" width="1" height="1" /><rect x="185" y="202" width="1" height="1" /><rect x="185" y="203" width="1" height="1" /><rect x="185" y="204" width="1" height="1" /><rect x="185" y="205" width="1" height="1" /><rect x="186" y="205" width="1" height="1" /><rect x="187" y="205" width="1" height="1" /><rect x="188" y="205" width="1" height="1" /><rect x="189" y="205" width="1" height="1" /><rect x="191" y="199" width="8" height="1" /><rect x="191" y="207" width="9" height="1" /><rect x="193" y="201" width="1" height="1" /><rect x="193" y="202" width="1" height="1" /><rect x="193" y="203" width="1" height="1" /><rect x="193" y="204" width="1" height="1" /><rect x="193" y="205" width="1" height="1" /><rect x="194" y="205" width="1" height="1" /><rect x="195" y="205" width="1" height="1" /><rect x="196" y="205" width="1" height="1" /><rect x="197" y="205" width="1" height="1" /><rect x="207" y="199" width="1" height="8" /><rect x="199" y="199" width="8" height="1" /><rect x="199" y="207" width="9" height="1" /><rect x="201" y="201" width="1" height="1" /><rect x="201" y="202" width="1" height="1" /><rect x="201" y="203" width="1" height="1" /><rect x="201" y="204" width="1" height="1" /><rect x="201" y="205" width="1" height="1" /><rect x="202" y="205" width="1" height="1" /><rect x="203" y="205" width="1" height="1" /><rect x="204" y="205" width="1" height="1" /><rect x="205" y="205" width="1" height="1" /></svg>