<?xml version="1.0" encoding="utf-8"?><svg xmlns="http://www.w3.org/2000/svg" xmlns:xlink="http://www.w3.org/1999/xlink" width="208" height="208"><rect x="87" y="7" width="1" height="41" /><rect x="127" y="7" width="1" height="40" /><rect x="87" y="7" width="40" height="1" /><rect x="87" y="47" width="41" height="1" /><rect x="103" y="7" width="1" height="9" /><rect x="111" y="7" width="1" height="8" /><rect x="103" y="7" width="8" height="1" /><rect x="103" y="15" width="9" height="1" /><rect x="107" y="9" width="1" height="1" /><rect x="106" y="10" width="1" height="1" /><rect x="108" y="10" width="1" height="1" /><rect x="105" y="11" width="1" height="1" /><rect x="109" y="11" width="1" height="1" /><rect x="106" y="12" width="1" height="1" /><rect x="108" y="12" width="1" height="1" /><rect x="107" y="13" width="1" height="1" /><rect x="95" y="15" width="1" height="9" /><rect x="103" y="15" width="1" height="8" /><rect x="95" y="15" width="8" height="1" /><rect x="95" y="23" width="9" height="1" /><rect x="99" y="17" width="1" height="1" /><rect x="98" y="18" width="1" height="1" /><rect x="100" y="18" width="1" height="1" /><rect x="97" y="19" width="1" height="1" /><rect x="101" y="19" width="1" height="1" /><rect x="98" y="20" width="1" height="1" /><rect x="100" y="20" width="1" height="1" /><rect x="99" y="21" width="1" height="1" /><rect x="111" y="15" width="1" height="9" /><rect x="119" y="15" width="1" height="8" /><rect x="111" y="15" width="8" height="1" /><rect x="111" y="23" width="9" height="1" /><rect x="115" y="17" width="1" height="1" /><rect x="114" y="18" width="1" height="1" /><rect x="116" y="18" width="1" height="1" /><rect x="113" y="19" width="1" height="1" /><rect x="117" y="19" width="1" height="1" /><rect x="114" y="20" width="1" height="1" /><rect x="116" y="20" width="1" height="1" /><rect x="115" y="21" width="1" height="1" /><rect x="87" y="23" width="1" height="9" /><rect x="95" y="23" width="1" height="8" /><rect x="87" y="23" width="8" height="1" /><rect x="87" y="31" width="9" height="1" /><rect x="91" y="25" width="1" height="1" /><rect x="90" y="26" width="1" height="1" /><rect x="92" y="26" width="1" height="1" /><rect x="89" y="27" width="1" height="1" /><rect x="93" y="27" width="1" height="1" /><rect x="90" y="28" width="1" height="1" /><rect x="92" y="28" width="1" height="1" /><rect x="91" y="29" width="1" height="1" /><rect x="119" y="23" width="1" height="9" /><rect x="127" y="23" width="1" height="8" /><rect x="119" y="23" width="8" height="1" /><rect x="119" y="31" width="9" height="1" /><rect x="123" y="25" width="1" height="1" /><rect x="122" y="26" width="1" height="1" /><rect x="124" y="26" width="1" height="1" /><rect x="121" y="27" width="1" height="1" /><rect x="125" y="27" width="1" height="1" /><rect x="122" y="28" width="1" height="1" /><rect x="124" y="28" width="1" height="1" /><rect x="123" y="29" width="1" height="1" /><rect x="95" y="31" width="1" height="9" /><rect x="103" y="31" width="1" height="8" /><rect x="95" y="31" width="8" height="1" /><rect x="95" y="39" width="9" height="1" /><rect x="99" y="33" width="1" height="1" /><rect x="98" y="34" width="1" height="1" /><rect x="100" y="34" width="1" height="1" /><rect x="97" y="35" width="1" height="1" /><rect x="101" y="35" width="1" height="1" /><rect x="98" y="36" width="1" height="1" /><rect x="100" y="36" width="1" height="1" /><rect x="99" y="37" width="1" height="1" /><rect x="111" y="31" width="1" height="9" /><rect x="119" y="31" width="1" height="8" /><rect x="111" y="31" width="8" height="1" /><rect x="111" y="39" width="9" height="1" /><rect x="115" y="33" width="1" height="1" /><rect x="114" y="34" width="1" height="1" /><rect x="116" y="34" width="1" height="1" /><rect x="113" y="35" width="1" height="1" /><rect x="117" y="35" width="1" height="1" /><rect x="114" y="36" width="1" height="1" /><rect x="116" y="36" width="1" height="1" /><rect x="115" y="37" width="1" height="1" /><rect x="103" y="39" width="1" height="9" /><rect x="111" y="39" width="1" height="8" /><rect x="103" y="39" width="8" height="1" /><rect x="103" y="47" width="9" height="1" /><rect x="107" y="41" width="1" height="1" /><rect x="106" y="42" width="1" height="1" /><rect x="108" y="42" width="1" height="1" /><rect x="105" y="43" width="1" height="1" /><rect x="109" y="43" width="1" height="1" /><rect x="106" y="44" width="1" height="1" /><rect x="108" y="44" width="1" height="1" /><rect x="107" y="45" width="1" height="1" /><rect x="47" y="47" width="1" height="41" /><rect x="87" y="47" width="1" height="40" /><rect x="47" y="47" width="40" height="1" /><rect x="47" y="87" width="41" height="1" /><rect x="63" y="47" width="1" height="9" /><rect x="71" y="47" width="1" height="8" /><rect x="63" y="47" width="8" height="1" /><rect x="63" y="55" width="9" height="1" /><rect x="67" y="49" width="1" height="1" /><rect x="66" y="50" width="1" height="1" /><rect x="68" y="50" width="1" height="1" /><rect x="65" y="51" width="1" height="1" /><rect x="69" y="51" width="1" height="1" /><rect x="66" y="52" width="1" height="1" /><rect x="68" y="52" width="1" height="1" /><rect x="67" y="53" width="1" height="1" /><rect x="55" y="55" width="1" height="9" /><rect x="63" y="55" width="1" height="8" /><rect x="55" y="55" width="8" height="1" /><rect x="55" y="63" width="9" height="1" /><rect x="59" y="57" width="1" height="1" /><rect x="58" y="58" width="1" height="1" /><rect x="60" y="58" width="1" height="1" /><rect x="57" y="59" width="1" height="1" /><rect x="61" y="59" width="1" height="1" /><rect x="58" y="60" width="1" height="1" /><rect x="60" y="60" width="1" height="1" /><rect x="59" y="61" width="1" height="1" /><rect x="71" y="55" width="1" height="9" /><rect x="79" y="55" width="1" height="8" /><rect x="71" y="55" width="8" height="1" /><rect x="71" y="63" width="9" height="1" /><rect x="75" y="57" width="1" height="1" /><rect x="74" y="58" width="1" height="1" /><rect x="76" y="58" width="1" height="1" /><rect x="73" y="59" width="1" height="1" /><rect x="77" y="59" width="1" height="1" /><rect x="74" y="60" width="1" height="1" /><rect x="76" y="60" width="1" height="1" /><rect x="75" y="61" width="1" height="1" /><rect x="47" y="63" width="1" height="9" /><rect x="55" y="63" width="1" height="8" /><rect x="47" y="63" width="8" height="1" /><rect x="47" y="71" width="9" height="1" /><rect x="51" y="65" width="1" height="1" /><rect x="50" y="66" width="1" height="1" /><rect x="52" y="66" width="1" height="1" /><rect x="49" y="67" width="1" height="1" /><rect x="53" y="67" width="1" height="1" /><rect x="50" y="68" width="1" height="1" /><rect x="52" y="68" width="1" height="1" /><rect x="51" y="69" width="1" height="1" /><rect x="79" y="63" width="1" height="9" /><rect x="87" y="63" width="1" height="8" /><rect x="79" y="63" width="8" height="1" /><rect x="79" y="71" width="9" height="1" /><rect x="83" y="65" width="1" height="1" /><rect x="82" y="66" width="1" height="1" /><rect x="84" y="66" width="1" height="1" /><rect x="81" y="67" width="1" height="1" /><rect x="85" y="67" width="1" height="1" /><rect x="82" y="68" width="1" height="1" /><rect x="84" y="68" width="1" height="1" /><rect x="83" y="69" width="1" height="1" /><rect x="55" y="71" width="1" height="9" /><rect x="63" y="71" width="1" height="8" /><rect x="55" y="71" width="8" height="1" /><rect x="55" y="79" width="9" height="1" /><rect x="59" y="73" width="1" height="1" /><rect x="58" y="74" width="1" height="1" /><rect x="60" y="74" width="1" height="1" /><rect x="57" y="75" width="1" height="1" /><rect x="61" y="75" width="1" height="1" /><rect x="58" y="76" width="1" height="1" /><rect x="60" y="76" width="1" height="1" /><rect x="59" y="77" width="1" height="1" /><rect x="71" y="71" width="1" height="9" /><rect x="79" y="71" width="1" height="8" /><rect x="71" y="71" width="8" height="1" /><rect x="71" y="79" width="9" height="1" /><rect x="75" y="73" width="1" height="1" /><rect x="74" y="74" width="1" height="1" /><rect x="76" y="74" width="1" height="1" /><rect x="73" y="75" width="1" height="1" /><rect x="77" y="75" width="1" height="1" /><rect x="74" y="76" width="1" height="1" /><rect x="76" y="76" width="1" height="1" /><rect x="75" y="77" width="1" height="1" /><rect x="63" y="79" width="1" height="9" /><rect x="71" y="79" width="1" height="8" /><rect x="63" y="79" width="8" height="1" /><rect x="63" y="87" width="9" height="1" /><rect x="67" y="81" width="1" height="1" /><rect x="66" y="82" width="1" height="1" /><rect x="68" y="82" width="1" height="1" /><rect x="65" y="83" width="1" height="1" /><rect x="69" y="83" width="1" height="1" /><rect x="66" y="84" width="1" height="1" /><rect x="68" y="84" width="1" height="1" /><rect x="67" y="85" width="1" height="1" /><rect x="127" y="47" width="1" height="41" /><rect x="167" y="47" width="1" height="40" /><rect x="127" y="47" width="40" height="1" /><rect x="127" y="87" width="41" height="1" /><rect x="143" y="47" width="1" height="9" /><rect x="151" y="47" width="1" height="8" /><rect x="143" y="47" width="8" height="1" /><rect x="143" y="55" width="9" height="1" /><rect x="147" y="49" width="1" height="1" /><rect x="146" y="50" width="1" height="1" /><rect x="148" y="50" width="1" height="1" /><rect x="145" y="51" width="1" height="1" /><rect x="149" y="51" width="1" height="1" /><rect x="146" y="52" width="1" height="1" /><rect x="148" y="52" width="1" height="1" /><rect x="147" y="53" width="1" height="1" /><rect x="135" y="55" width="1" height="9" /><rect x="143" y="55" width="1" height="8" /><rect x="135" y="55" width="8" height="1" /><rect x="135" y="63" width="9" height="1" /><rect x="139" y="57" width="1" height="1" /><rect x="138" y="58" width="1" height="1" /><rect x="140" y="58" width="1" height="1" /><rect x="137" y="59" width="1" height="1" /><rect x="141" y="59" width="1" height="1" /><rect x="138" y="60" width="1" height="1" /><rect x="140" y="60" width="1" height="1" /><rect x="139" y="61" width="1" height="1" /><rect x="151" y="55" width="1" height="9" /><rect x="159" y="55" width="1" height="8" /><rect x="151" y="55" width="8" height="1" /><rect x="151" y="63" width="9" height="1" /><rect x="155" y="57" width="1" height="1" /><rect x="154" y="58" width="1" height="1" /><rect x="156" y="58" width="1" height="1" /><rect x="153" y="59" width="1" height="1" /><rect x="157" y="59" width="1" height="1" /><rect x="154" y="60" width="1" height="1" /><rect x="156" y="60" width="1" height="1" /><rect x="155" y="61" width="1" height="1" /><rect x="127" y="63" width="1" height="9" /><rect x="135" y="63" width="1" height="8" /><rect x="127" y="63" width="8" height="1" /><rect x="127" y="71" width="9" height="1" /><rect x="131" y="65" width="1" height="1" /><rect x="130" y="66" width="1" height="1" /><rect x="132" y="66" width="1" height="1" /><rect x="129" y="67" width="1" height="1" /><rect x="133" y="67" width="1" height="1" /><rect x="130" y="68" width="1" height="1" /><rect x="132" y="68" width="1" height="1" /><rect x="131" y="69" width="1" height="1" /><rect x="159" y="63" width="1" height="9" /><rect x="167" y="63" width="1" height="8" /><rect x="159" y="63" width="8" height="1" /><rect x="159" y="71" width="9" height="1" /><rect x="163" y="65" width="1" height="1" /><rect x="162" y="66" width="1" height="1" /><rect x="164" y="66" width="1" height="1" /><rect x="161" y="67" width="1" height="1" /><rect x="165" y="67" width="1" height="1" /><rect x="162" y="68" width="1" height="1" /><rect x="164" y="68" width="1" height="1" /><rect x="163" y="69" width="1" height="1" /><rect x="135" y="71" width="1" height="9" /><rect x="143" y="71" width="1" height="8" /><rect x="135" y="71" width="8" height="1" /><rect x="135" y="79" width="9" height="1" /><rect x="139" y="73" width="1" height="1" /><rect x="138" y="74" width="1" height="1" /><rect x="140" y="74" width="1" height="1" /><rect x="137" y="75" width="1" height="1" /><rect x="141" y="75" width="1" height="1" /><rect x="138" y="76" width="1" height="1" /><rect x="140" y="76" width="1" height="1" /><rect x="139" y="77" width="1" height="1" /><rect x="151" y="71" width="1" height="9" /><rect x="159" y="71" width="1" height="8" /><rect x="151" y="71" width="8" height="1" /><rect x="151" y="79" width="9" height="1" /><rect x="155" y="73" width="1" height="1" /><rect x="154" y="74" width="1" height="1" /><rect x="156" y="74" width="1" height="1" /><rect x="153" y="75" width="1" height="1" /><rect x="157" y="75" width="1" height="1" /><rect x="154" y="76" width="1" height="1" /><rect x="156" y="76" width="1" height="1" /><rect x="155" y="77" width="1" height="1" /><rect x="143" y="79" width="1" height="9" /><rect x="151" y="79" width="1" height="8" /><rect x="143" y="79" width="8" height="1" /><rect x="143" y="87" width="9" height="1" /><rect x="147" y="81" width="1" height="1" /><rect x="146" y="82" width="1" height="1" /><rect x="148" y="82" width="1" height="1" /><rect x="145" y="83" width="1" height="1" /><rect x="149" y="83" width="1" height="1" /><rect x="146" y="84" width="1" height="1" /><rect x="148" y="84" width="1" height="1" /><rect x="147" y="85" width="1" height="1" /><rect x="7" y="87" width="1" height="41" /><rect x="47" y="87" width="1" height="40" /><rect x="7" y="87" width="40" height="1" /><rect x="7" y="127" width="41" height="1" /><rect x="23" y="87" width="1" height="9" /><rect x="31" y="87" width="1" height="8" /><rect x="23" y="87" width="8" height="1" /><rect x="23" y="95" width="9" height="1" /><rect x="27" y="89" width="1" height="1" /><rect x="26" y="90" width="1" height="1" /><rect x="28" y="90" width="1" height="1" /><rect x="25" y="91" width="1" height="1" /><rect x="29" y="91" width="1" height="1" /><rect x="26" y="92" width="1" height="1" /><rect x="28" y="92" width="1" height="1" /><rect x="27" y="93" width="1" height="1" /><rect x="15" y="95" width="1" height="9" /><rect x="23" y="95" width="1" height="8" /><rect x="15" y="95" width="8" height="1" /><rect x="15" y="103" width="9" height="1" /><rect x="19" y="97" width="1" height="1" /><rect x="18" y="98" width="1" height="1" /><rect x="20" y="98" width="1" height="1" /><rect x="17" y="99" width="1" height="1" /><rect x="21" y="99" width="1" height="1" /><rect x="18" y="100" width="1" height="1" /><rect x="20" y="100" width="1" height="1" /><rect x="19" y="101" width="1" height="1" /><rect x="31" y="95" width="1" height="9" /><rect x="39" y="95" width="1" height="8" /><rect x="31" y="95" width="8" height="1" /><rect x="31" y="103" width="9" height="1" /><rect x="35" y="97" width="1" height="1" /><rect x="34" y="98" width="1" height="1" /><rect x="36" y="98" width="1" height="1" /><rect x="33" y="99" width="1" height="1" /><rect x="37" y="99" width="1" height="1" /><rect x="34" y="100" width="1" height="1" /><rect x="36" y="100" width="1" height="1" /><rect x="35" y="101" width="1" height="1" /><rect x="7" y="103" width="1" height="9" /><rect x="15" y="103" width="1" height="8" /><rect x="7" y="103" width="8" height="1" /><rect x="7" y="111" width="9" height="1" /><rect x="11" y="105" width="1" height="1" /><rect x="10" y="106" width="1" height="1" /><rect x="12" y="106" width="1" height="1" /><rect x="9" y="107" width="1" height="1" /><rect x="13" y="107" width="1" height="1" /><rect x="10" y="108" width="1" height="1" /><rect x="12" y="108" width="1" height="1" /><rect x="11" y="109" width="1" height="1" /><rect x="39" y="103" width="1" height="9" /><rect x="47" y="103" width="1" height="8" /><rect x="39" y="103" width="8" height="1" /><rect x="39" y="111" width="9" height="1" /><rect x="43" y="105" width="1" height="1" /><rect x="42" y="106" width="1" height="1" /><rect x="44" y="106" width="1" height="1" /><rect x="41" y="107" width="1" height="1" /><rect x="45" y="107" width="1" height="1" /><rect x="42" y="108" width="1" height="1" /><rect x="44" y="108" width="1" height="1" /><rect x="43" y="109" width="1" height="1" /><rect x="15" y="111" width="1" height="9" /><rect x="23" y="111" width="1" height="8" /><rect x="15" y="111" width="8" height="1" /><rect x="15" y="119" width="9" height="1" /><rect x="19" y="113" width="1" height="1" /><rect x="18" y="114" width="1" height="1" /><rect x="20" y="114" width="1" height="1" /><rect x="17" y="115" width="1" height="1" /><rect x="21" y="115" width="1" height="1" /><rect x="18" y="116" width="1" height="1" /><rect x="20" y="116" width="1" height="1" /><rect x="19" y="117" width="1" height="1" /><rect x="31" y="111" width="1" height="9" /><rect x="39" y="111" width="1" height="8" /><rect x="31" y="111" width="8" height="1" /><rect x="31" y="119" width="9" height="1" /><rect x="35" y="113" width="1" height="1" /><rect x="34" y="114" width="1" height="1" /><rect x="36" y="114" width="1" height="1" /><rect x="33" y="115" width="1" height="1" /><rect x="37" y="115" width="1" height="1" /><rect x="34" y="116" width="1" height="1" /><rect x="36" y="116" width="1" height="1" /><rect x="35" y="117" width="1" height="1" /><rect x="23" y="119" width="1" height="9" /><rect x="31" y="119" width="1" height="8" /><rect x="23" y="119" width="8" height="1" /><rect x="23" y="127" width="9" height="1" /><rect x="27" y="121" width="1" height="1" /><rect x="26" y="122" width="1" height="1" /><rect x="28" y="122" width="1" height="1" /><rect x="25" y="123" width="1" height="1" /><rect x="29" y="123" width="1" height="1" /><rect x="26" y="124" width="1" height="1" /><rect x="28" y="124" width="1" height="1" /><rect x="27" y="125" width="1" height="1" /><rect x="167" y="87" width="1" height="41" /><rect x="207" y="87" width="1" height="40" /><rect x="167" y="87" width="40" height="1" /><rect x="167" y="127" width="41" height="1" /><rect x="183" y="87" width="1" height="9" /><rect x="191" y="87" width="1" height="8" /><rect x="183" y="87" width="8" height="1" /><rect x="183" y="95" width="9" height="1" /><rect x="187" y="89" width="1" height="1" /><rect x="186" y="90" width="1" height="1" /><rect x="188" y="90" width="1" height="1" /><rect x="185" y="91" width="1" height="1" /><rect x="189" y="91" width="1" height="1" /><rect x="186" y="92" width="1" height="1" /><rect x="188" y="92" width="1" height="1" /><rect x="187" y="93" width="1" height="1" /><rect x="175" y="95" width="1" height="9" /><rect x="183" y="95" width="1" height="8" /><rect x="175" y="95" width="8" height="1" /><rect x="175" y="103" width="9" height="1" /><rect x="179" y="97" width="1" height="1" /><rect x="178" y="98" width="1" height="1" /><rect x="180" y="98" width="1" height="1" /><rect x="177" y="99" width="1" height="1" /><rect x="181" y="99" width="1" height="1" /><rect x="178" y="100" width="1" height="1" /><rect x="180" y="100" width="1" height="1" /><rect x="179" y="101" width="1" height="1" /><rect x="191" y="95" width="1" height="9" /><rect x="199" y="95" width="1" height="8" /><rect x="191" y="95" width="8" height="1" /><rect x="191" y="103" width="9" height="1" /><rect x="195" y="97" width="1" height="1" /><rect x="194" y="98" width="1" height="1" /><rect x="196" y="98" width="1" height="1" /><rect x="193" y="99" width="1" height="1" /><rect x="197" y="99" width="1" height="1" /><rect x="194" y="100" width="1" height="1" /><rect x="196" y="100" width="1" height="1" /><rect x="195" y="101" width="1" height="1" /><rect x="167" y="103" width="1" height="9" /><rect x="175" y="103" width="1" height="8" /><rect x="167" y="103" width="8" height="1" /><rect x="167" y="111" width="9" height="1" /><rect x="171" y="105" width="1" height="1" /><rect x="170" y="106" width="1" height="1" /><rect x="172" y="106" width="1" height="1" /><rect x="169" y="107" width="1" height="1" /><rect x="173" y="107" width="1" height="1" /><rect x="170" y="108" width="1" height="1" /><rect x="172" y="108" width="1" height="1" /><rect x="171" y="109" width="1" height="1" /><rect x="199" y="103" width="1" height="9" /><rect x="207" y="103" width="1" height="8" /><rect x="199" y="103" width="8" height="1" /><rect x="199" y="111" width="9" height="1" /><rect x="203" y="105" width="1" height="1" /><rect x="202" y="106" width="1" height="1" /><rect x="204" y="106" width="1" height="1" /><rect x="201" y="107" width="1" height="1" /><rect x="205" y="107" width="1" height="1" /><rect x="202" y="108" width="1" height="1" /><rect x="204" y="108" width="1" height="1" /><rect x="203" y="109" width="1" height="1" /><rect x="175" y="111" width="1" height="9" /><rect x="183" y="111" width="1" height="8" /><rect x="175" y="111" width="8" height="1" /><rect x="175" y="119" width="9" height="1" /><rect x="179" y="113" width="1" height="1" /><rect x="178" y="114" width="1" height="1" /><rect x="180" y="114" width="1" height="1" /><rect x="177" y="115" width="1" height="1" /><rect x="181" y="115" width="1" height="1" /><rect x="178" y="116" width="1" height="1" /><rect x="180" y="116" width="1" height="1" /><rect x="179" y="117" width="1" height="1" /><rect x="191" y="111" width="1" height="9" /><rect x="199" y="111" width="1" height="8" /><rect x="191" y="111" width="8" height="1" /><rect x="191" y="119" width="9" height="1" /><rect x="195" y="113" width="1" height="1" /><rect x="194" y="114" width="1" height="1" /><rect x="196" y="114" width="1" height="1" /><rect x="193" y="115" width="1" height="1" /><rect x="197" y="115" width="1" height="1" /><rect x="194" y="116" width="1" height="1" /><rect x="196" y="116" width="1" height="1" /><rect x="195" y="117" width="1" height="1" /><rect x="183" y="119" width="1" height="9" /><rect x="191" y="119" width="1" height="8" /><rect x="183" y="119" width="8" height="1" /><rect x="183" y="127" width="9" height="1" /><rect x="187" y="121" width="1" height="1" /><rect x="186" y="122" width="1" height="1" /><rect x="188" y="122" width="1" height="1" /><rect x="185" y="123" width="1" height="1" /><rect x="189" y="123" width="1" height="1" /><rect x="186" y="124" width="1" height="1" /><rect x="188" y="124" width="1" height="1" /><rect x="187" y="125" width="1" height="1" /><rect x="47" y="127" width="1" height="41" /><rect x="87" y="127" width="1" height="40" /><rect x="47" y="127" width="40" height="1" /><rect x="47" y="167" width="41" height="1" /><rect x="63" y="127" width="1" height="9" /><rect x="71" y="127" width="1" height="8" /><rect x="63" y="127" width="8" height="1" /><rect x="63" y="135" width="9" height="1" /><rect x="67" y="129" width="1" height="1" /><rect x="66" y="130" width="1" height="1" /><rect x="68" y="130" width="1" height="1" /><rect x="65" y="131" width="1" height="1" /><rect x="69" y="131" width="1" height="1" /><rect x="66" y="132" width="1" height="1" /><rect x="68" y="132" width="1" height="1" /><rect x="67" y="133" width="1" height="1" /><rect x="55" y="135" width="1" height="9" /><rect x="63" y="135" width="1" height="8" /><rect x="55" y="135" width="8" height="1" /><rect x="55" y="143" width="9" height="1" /><rect x="59" y="137" width="1" height="1" /><rect x="58" y="138" width="1" height="1" /><rect x="60" y="138" width="1" height="1" /><rect x="57" y="139" width="1" height="1" /><rect x="61" y="139" width="1" height="1" /><rect x="58" y="140" width="1" height="1" /><rect x="60" y="140" width="1" height="1" /><rect x="59" y="141" width="1" height="1" /><rect x="71" y="135" width="1" height="9" /><rect x="79" y="135" width="1" height="8" /><rect x="71" y="135" width="8" height="1" /><rect x="71" y="143" width="9" height="1" /><rect x="75" y="137" width="1" height="1" /><rect x="74" y="138" width="1" height="1" /><rect x="76" y="138" width="1" height="1" /><rect x="73" y="139" width="1" height="1" /><rect x="77" y="139" width="1" height="1" /><rect x="74" y="140" width="1" height="1" /><rect x="76" y="140" width="1" height="1" /><rect x="75" y="141" width="1" height="1" /><rect x="47" y="143" width="1" height="9" /><rect x="55" y="143" width="1" height="8" /><rect x="47" y="143" width="8" height="1" /><rect x="47" y="151" width="9" height="1" /><rect x="51" y="145" width="1" height="1" /><rect x="50" y="146" width="1" height="1" /><rect x="52" y="146" width="1" height="1" /><rect x="49" y="147" width="1" height="1" /><rect x="53" y="147" width="1" height="1" /><rect x="50" y="148" width="1" height="1" /><rect x="52" y="148" width="1" height="1" /><rect x="51" y="149" width="1" height="1" /><rect x="79" y="143" width="1" height="9" /><rect x="87" y="143" width="1" height="8" /><rect x="79" y="143" width="8" height="1" /><rect x="79" y="151" width="9" height="1" /><rect x="83" y="145" width="1" height="1" /><rect x="82" y="146" width="1" height="1" /><rect x="84" y="146" width="1" height="1" /><rect x="81" y="147" width="1" height="1" /><rect x="85" y="147" width="1" height="1" /><rect x="82" y="148" width="1" height="1" /><rect x="84" y="148" width="1" height="1" /><rect x="83" y="149" width="1" height="1" /><rect x="55" y="151" width="1" height="9" /><rect x="63" y="151" width="1" height="8" /><rect x="55" y="151" width="8" height="1" /><rect x="55" y="159" width="9" height="1" /><rect x="59" y="153" width="1" height="1" /><rect x="58" y="154" width="1" height="1" /><rect x="60" y="154" width="1" height="1" /><rect x="57" y="155" width="1" height="1" /><rect x="61" y="155" width="1" height="1" /><rect x="58" y="156" width="1" height="1" /><rect x="60" y="156" width="1" height="1" /><rect x="59" y="157" width="1" height="1" /><rect x="71" y="151" width="1" height="9" /><rect x="79" y="151" width="1" height="8" /><rect x="71" y="151" width="8" height="1" /><rect x="71" y="159" width="9" height="1" /><rect x="75" y="153" width="1" height="1" /><rect x="74" y="154" width="1" height="1" /><rect x="76" y="154" width="1" height="1" /><rect x="73" y="155" width="1" height="1" /><rect x="77" y="155" width="1" height="1" /><rect x="74" y="156" width="1" height="1" /><rect x="76" y="156" width="1" height="1" /><rect x="75" y="157" width="1" height="1" /><rect x="63" y="159" width="1" height="9" /><rect x="71" y="159" width="1" height="8" /><rect x="63" y="159" width="8" height="1" /><rect x="63" y="167" width="9" height="1" /><rect x="67" y="161" width="1" height="1" /><rect x="66" y="162" width="1" height="1" /><rect x="68" y="162" width="1" height="1" /><rect x="65" y="163" width="1" height="1" /><rect x="69" y="163" width="1" height="1" /><rect x="66" y="164" width="1" height="1" /><rect x="68" y="164" width="1" height="1" /><rect x="67" y="165" width="1" height="1" /><rect x="127" y="127" width="1" height="41" /><rect x="167" y="127" width="1" height="40" /><rect x="127" y="127" width="40" height="1" /><rect x="127" y="167" width="41" height="1" /><rect x="143" y="127" width="1" height="9" /><rect x="151" y="127" width="1" height="8" /><rect x="143" y="127" width="8" height="1" /><rect x="143" y="135" width="9" height="1" /><rect x="147" y="129" width="1" height="1" /><rect x="146" y="130" width="1" height="1" /><rect x="148" y="130" width="1" height="1" /><rect x="145" y="131" width="1" height="1" /><rect x="149" y="131" width="1" height="1" /><rect x="146" y="132" width="1" height="1" /><rect x="148" y="132" width="1" height="1" /><rect x="147" y="133" width="1" height="1" /><rect x="135" y="135" width="1" height="9" /><rect x="143" y="135" width="1" height="8" /><rect x="135" y="135" width="8" height="1" /><rect x="135" y="143" width="9" height="1" /><rect x="139" y="137" width="1" height="1" /><rect x="138" y="138" width="1" height="1" /><rect x="140" y="138" width="1" height="1" /><rect x="137" y="139" width="1" height="1" /><rect x="141" y="139" width="1" height="1" /><rect x="138" y="140" width="1" height="1" /><rect x="140" y="140" width="1" height="1" /><rect x="139" y="141" width="1" height="1" /><rect x="151" y="135" width="1" height="9" /><rect x="159" y="135" width="1" height="8" /><rect x="151" y="135" width="8" height="1" /><rect x="151" y="143" width="9" height="1" /><rect x="155" y="137" width="1" height="1" /><rect x="154" y="138" width="1" height="1" /><rect x="156" y="138" width="1" height="1" /><rect x="153" y="139" width="1" height="1" /><rect x="157" y="139" width="1" height="1" /><rect x="154" y="140" width="1" height="1" /><rect x="156" y="140" width="1" height="1" /><rect x="155" y="141" width="1" height="1" /><rect x="127" y="143" width="1" height="9" /><rect x="135" y="143" width="1" height="8" /><rect x="127" y="143" width="8" height="1" /><rect x="127" y="151" width="9" height="1" /><rect x="131" y="145" width="1" height="1" /><rect x="130" y="146" width="1" height="1" /><rect x="132" y="146" width="1" height="1" /><rect x="129" y="147" width="1" height="1" /><rect x="133" y="147" width="1" height="1" /><rect x="130" y="148" width="1" height="1" /><rect x="132" y="148" width="1" height="1" /><rect x="131" y="149" width="1" height="1" /><rect x="159" y="143" width="1" height="9" /><rect x="167" y="143" width="1" height="8" /><rect x="159" y="143" width="8" height="1" /><rect x="159" y="151" width="9" height="1" /><rect x="163" y="145" width="1" height="1" /><rect x="162" y="146" width="1" height="1" /><rect x="164" y="146" width="1" height="1" /><rect x="161" y="147" width="1" height="1" /><rect x="165" y="147" width="1" height="1" /><rect x="162" y="148" width="1" height="1" /><rect x="164" y="148" width="1" height="1" /><rect x="163" y="149" width="1" height="1" /><rect x="135" y="151" width="1" height="9" /><rect x="143" y="151" width="1" height="8" /><rect x="135" y="151" width="8" height="1" /><rect x="135" y="159" width="9" height="1" /><rect x="139" y="153" width="1" height="1" /><rect x="138" y="154" width="1" height="1" /><rect x="140" y="154" width="1" height="1" /><rect x="137" y="155" width="1" height="1" /><rect x="141" y="155" width="1" height="1" /><rect x="138" y="156" width="1" height="1" /><rect x="140" y="156" width="1" height="1" /><rect x="139" y="157" width="1" height="1" /><rect x="151" y="151" width="1" height="9" /><rect x="159" y="151" width="1" height="8" /><rect x="151" y="151" width="8" height="1" /><rect x="151" y="159" width="9" height="1" /><rect x="155" y="153" width="1" height="1" /><rect x="154" y="154" width="1" height="1" /><rect x="156" y="154" width="1" height="1" /><rect x="153" y="155" width="1" height="1" /><rect x="157" y="155" width="1" height="1" /><rect x="154" y="156" width="1" height="1" /><rect x="156" y="156" width="1" height="1" /><rect x="155" y="157" width="1" height="1" /><rect x="143" y="159" width="1" height="9" /><rect x="151" y="159" width="1" height="8" /><rect x="143" y="159" width="8" height="1" /><rect x="143" y="167" width="9" height="1" /><rect x="147" y="161" width="1" height="1" /><rect x="146" y="162" width="1" height="1" /><rect x="148" y="162" width="1" height="1" /><rect x="145" y="163" width="1" height="1" /><rect x="149" y="163" width="1" height="1" /><rect x="146" y="164" width="1" height="1" /><rect x="148" y="164" width="1" height="1" /><rect x="147" y="165" width="1" height="1" /><rect x="87" y="167" width="1" height="41" /><rect x="127" y="167" width="1" height="40" /><rect x="87" y="167" width="40" height="1" /><rect x="87" y="207" width="41" height="1" /><rect x="103" y="167" width="1" height="9" /><rect x="111" y="167" width="1" height="8" /><rect x="103" y="167" width="8" height="1" /><rect x="103" y="175" width="9" height="1" /><rect x="107" y="169" width="1" height="1" /><rect x="106" y="170" width="1" height="1" /><rect x="108" y="170" width="1" height="1" /><rect x="105" y="171" width="1" height="1" /><rect x="109" y="171" width="1" height="1" /><rect x="106" y="172" width="1" height="1" /><rect x="108" y="172" width="1" height="1" /><rect x="107" y="173" width="1" height="1" /><rect x="95" y="175" width="1" height="9" /><rect x="103" y="175" width="1" height="8" /><rect x="95" y="175" width="8" height="1" /><rect x="95" y="183" width="9" height="1" /><rect x="99" y="177" width="1" height="1" /><rect x="98" y="178" width="1" height="1" /><rect x="100" y="178" width="1" height="1" /><rect x="97" y="179" width="1" height="1" /><rect x="101" y="179" width="1" height="1" /><rect x="98" y="180" width="1" height="1" /><rect x="100" y="180" width="1" height="1" /><rect x="99" y="181" width="1" height="1" /><rect x="111" y="175" width="1" height="9" /><rect x="119" y="175" width="1" height="8" /><rect x="111" y="175" width="8" height="1" /><rect x="111" y="183" width="9" height="1" /><rect x="115" y="177" width="1" height="1" /><rect x="114" y="178" width="1" height="1" /><rect x="116" y="178" width="1" height="1" /><rect x="113" y="179" width="1" height="1" /><rect x="117" y="179" width="1" height="1" /><rect x="114" y="180" width="1" height="1" /><rect x="116" y="180" width="1" height="1" /><rect x="115" y="181" width="1" height="1" /><rect x="87" y="183" width="1" height="9" /><rect x="95" y="183" width="1" height="8" /><rect x="87" y="183" width="8" height="1" /><rect x="87" y="191" width="9" height="1" /><rect x="91" y="185" width="1" height="1" /><rect x="90" y="186" width="1" height="1" /><rect x="92" y="186" width="1" height="1" /><rect x="89" y="187" width="1" height="1" /><rect x="93" y="187" width="1" height="1" /><rect x="90" y="188" width="1" height="1" /><rect x="92" y="188" width="1" height="1" /><rect x="91" y="189" width="1" height="1" /><rect x="119" y="183" width="1" height="9" /><rect x="127" y="183" width="1" height="8" /><rect x="119" y="183" width="8" height="1" /><rect x="119" y="191" width="9" height="1" /><rect x="123" y="185" width="1" height="1" /><rect x="122" y="186" width="1" height="1" /><rect x="124" y="186" width="1" height="1" /><rect x="121" y="187" width="1" height="1" /><rect x="125" y="187" width="1" height="1" /><rect x="122" y="188" width="1" height="1" /><rect x="124" y="188" width="1" height="1" /><rect x="123" y="189" width="1" height="1" /><rect x="95" y="191" width="1" height="9" /><rect x="103" y="191" width="1" height="8" /><rect x="95" y="191" width="8" height="1" /><rect x="95" y="199" width="9" height="1" /><rect x="99" y="193" width="1" height="1" /><rect x="98" y="194" width="1" height="1" /><rect x="100" y="194" width="1" height="1" /><rect x="97" y="195" width="1" height="1" /><rect x="101" y="195" width="1" height="1" /><rect x="98" y="196" width="1" height="1" /><rect x="100" y="196" width="1" height="1" /><rect x="99" y="197" width="1" height="1" /><rect x="111" y="191" width="1" height="9" /><rect x="119" y="191" width="1" height="8" /><rect x="111" y="191" width="8" height="1" /><rect x="111" y="199" width="9" height="1" /><rect x="115" y="193" width="1" height="1" /><rect x="114" y="194" width="1" height="1" /><rect x="116" y="194" width="1" height="1" /><rect x="113" y="195" width="1" height="1" /><rect x="117" y="195" width="1" height="1" /><rect x="114" y="196" width="1" height="1" /><rect x="116" y="196" width="1" height="1" /><rect x="115" y="197" width="1" height="1" /><rect x="103" y="199" width="1" height="9" /><rect x="111" y="199" width="1" height="8" /><rect x="103" y="199" width="8" height="1" /><rect x="103" y="207" width="9" height="1" /><rect x="107" y="201" width="1" height="1" /><rect x="106" y="202" width="1" height="1" /><rect x="108" y="202" width="1" height="1" /><rect x="105" y="203" width="1" height="1" /><rect x="109" y="203" width="1" height="1" /><rect x="106" y="204" width="1" height="1" /><rect x="108" y="204" width="1" height="1" /><rect x="107" y="205" width="1" height="1" /></svg>