<?xml version="1.0" encoding="utf-8"?><svg xmlns="http://www.w3.org/2000/svg" xmlns:xlink="http://www.w3.org/1999/xlink" width="208" height="208"><rect x="47" y="7" width="1" height="41" /><rect x="87" y="7" width="1" height="40" /><rect x="47" y="7" width="40" height="1" /><rect x="55" y="7" width="1" height="9" /><rect x="63" y="7" width="1" height="8" /><rect x="55" y="7" width="8" height="1" /><rect x="58" y="9" width="1" height="1" /><rect x="60" y="9" width="1" height="1" /><rect x="58" y="10" width="1" height="1" /><rect x="60" y="10" width="1" height="1" /><rect x="71" y="7" width="1" height="9" /><rect x="79" y="7" width="1" height="8" /><rect x="71" y="7" width="8" height="1" /><rect x="74" y="9" width="1" height="1" /><rect x="76" y="9" width="1" height="1" /><rect x="74" y="10" width="1" height="1" /><rect x="76" y="10" width="1" height="1" /><rect x="55" y="15" width="1" height="9" /><rect x="63" y="15" width="1" height="8" /><rect x="55" y="23" width="9" height="1" /><rect x="58" y="17" width="1" height="1" /><rect x="60" y="17" width="1" height="1" /><rect x="58" y="18" width="1" height="1" /><rect x="60" y="18" width="1" height="1" /><rect x="71" y="15" width="1" height="9" /><rect x="79" y="15" width="1" height="8" /><rect x="71" y="23" width="9" height="1" /><rect x="74" y="17" width="1" height="1" /><rect x="76" y="17" width="1" height="1" /><rect x="74" y="18" width="1" height="1" /><rect x="76" y="18" width="1" height="1" /><rect x="127" y="7" width="1" height="41" /><rect x="167" y="7" width="1" height="40" /><rect x="127" y="7" width="40" height="1" /><rect x="135" y="7" width="1" height="9" /><rect x="143" y="7" width="1" height="8" /><rect x="135" y="7" width="8" height="1" /><rect x="138" y="9" width="1" height="1" /><rect x="140" y="9" width="1" height="1" /><rect x="138" y="10" width="1" height="1" /><rect x="140" y="10" width="1" height="1" /><rect x="151" y="7" width="1" height="9" /><rect x="159" y="7" width="1" height="8" /><rect x="151" y="7" width="8" height="1" /><rect x="154" y="9" width="1" height="1" /><rect x="156" y="9" width="1" height="1" /><rect x="154" y="10" width="1" height="1" /><rect x="156" y="10" width="1" height="1" /><rect x="135" y="15" width="1" height="9" /><rect x="143" y="15" width="1" height="8" /><rect x="135" y="23" width="9" height="1" /><rect x="138" y="17" width="1" height="1" /><rect x="140" y="17" width="1" height="1" /><rect x="138" y="18" width="1" height="1" /><rect x="140" y="18" width="1" height="1" /><rect x="151" y="15" width="1" height="9" /><rect x="159" y="15" width="1" height="8" /><rect x="151" y="23" width="9" height="1" /><rect x="154" y="17" width="1" height="1" /><rect x="156" y="17" width="1" height="1" /><rect x="154" y="18" width="1" height="1" /><rect x="156" y="18" width="1" height="1" /><rect x="47" y="47" width="1" height="41" /><rect x="87" y="47" width="1" height="40" /><rect x="47" y="87" width="41" height="1" /><rect x="55" y="47" width="1" height="9" /><rect x="63" y="47" width="1" height="8" /><rect x="55" y="47" width="8" height="1" /><rect x="58" y="49" width="1" height="1" /><rect x="60" y="49" width="1" height="1" /><rect x="58" y="50" width="1" height="1" /><rect x="60" y="50" width="1" height="1" /><rect x="71" y="47" width="1" height="9" /><rect x="79" y="47" width="1" height="8" /><rect x="71" y="47" width="8" height="1" /><rect x="74" y="49" width="1" height="1" /><rect x="76" y="49" width="1" height="1" /><rect x="74" y="50" width="1" height="1" /><rect x="76" y="50" width="1" height="1" /><rect x="55" y="55" width="1" height="9" /><rect x="63" y="55" width="1" height="8" /><rect x="55" y="63" width="9" height="1" /><rect x="58" y="57" width="1" height="1" /><rect x="60" y="57" width="1" height="1" /><rect x="58" y="58" width="1" height="1" /><rect x="60" y="58" width="1" height="1" /><rect x="71" y="55" width="1" height="9" /><rect x="79" y="55" width="1" height="8" /><rect x="71" y="63" width="9" height="1" /><rect x="74" y="57" width="1" height="1" /><rect x="76" y="57" width="1" height="1" /><rect x="74" y="58" width="1" height="1" /><rect x="76" y="58" width="1" height="1" /><rect x="127" y="47" width="1" height="41" /><rect x="167" y="47" width="1" height="40" /><rect x="127" y="87" width="41" height="1" /><rect x="135" y="47" width="1" height="9" /><rect x="143" y="47" width="1" height="8" /><rect x="135" y="47" width="8" height="1" /><rect x="138" y="49" width="1" height="1" /><rect x="140" y="49" width="1" height="1" /><rect x="138" y="50" width="1" height="1" /><rect x="140" y="50" width="1" height="1" /><rect x="151" y="47" width="1" height="9" /><rect x="159" y="47" width="1" height="8" /><rect x="151" y="47" width="8" height="1" /><rect x="154" y="49" width="1" height="1" /><rect x="156" y="49" width="1" height="1" /><rect x="154" y="50" width="1" height="1" /><rect x="156" y="50" width="1" height="1" /><rect x="135" y="55" width="1" height="9" /><rect x="143" y="55" width="1" height="8" /><rect x="135" y="63" width="9" height="1" /><rect x="138" y="57" width="1" height="1" /><rect x="140" y="57" width="1" height="1" /><rect x="138" y="58" width="1" height="1" /><rect x="140" y="58" width="1" height="1" /><rect x="151" y="55" width="1" height="9" /><rect x="159" y="55" width="1" height="8" /><rect x="151" y="63" width="9" height="1" /><rect x="154" y="57" width="1" height="1" /><rect x="156" y="57" width="1" height="1" /><rect x="154" y="58" width="1" height="1" /><rect x="156" y="58" width="1" height="1" /></svg>