<?xml version="1.0" encoding="utf-8"?><svg xmlns="http://www.w3.org/2000/svg" xmlns:xlink="http://www.w3.org/1999/xlink" width="208" height="208"><rect x="0" y="0" width="100%" height="100%" fill="#ffffff" /><rect x="47" y="7" width="1" height="41" /><rect x="47" y="7" width="40" height="1" /><rect x="47" y="47" width="41" height="1" /><rect x="55" y="7" width="1" height="9" /><rect x="55" y="7" width="8" height="1" /><rect x="55" y="15" width="9" height="1" /><rect x="58" y="9" width="1" height="1" /><rect x="59" y="9" width="1" height="1" /><rect x="60" y="9" width="1" height="1" /><rect x="57" y="10" width="1" height="1" /><rect x="61" y="10" width="1" height="1" /><rect x="59" y="11" width="1" height="1" /><rect x="60" y="11" width="1" height="1" /><rect x="59" y="13" width="1" height="1" /><rect x="63" y="7" width="8" height="1" /><rect x="63" y="15" width="9" height="1" /><rect x="66" y="9" width="1" height="1" /><rect x="67" y="9" width="1" height="1" /><rect x="68" y="9" width="1" height="1" /><rect x="65" y="10" width="1" height="1" /><rect x="69" y="10" width="1" height="1" /><rect x="67" y="11" width="1" height="1" /><rect x="68" y="11" width="1" height="1" /><rect x="67" y="13" width="1" height="1" /><rect x="79" y="7" width="1" height="8" /><rect x="71" y="7" width="8" height="1" /><rect x="71" y="15" width="9" height="1" /><rect x="74" y="9" width="1" height="1" /><rect x="75" y="9" width="1" height="1" /><rect x="76" y="9" width="1" height="1" /><rect x="73" y="10" width="1" height="1" /><rect x="77" y="10" width="1" height="1" /><rect x="75" y="11" width="1" height="1" /><rect x="76" y="11" width="1" height="1" /><rect x="75" y="13" width="1" height="1" /><rect x="47" y="15" width="1" height="9" /><rect x="55" y="15" width="1" height="8" /><rect x="47" y="15" width="8" height="1" /><rect x="47" y="23" width="9" height="1" /><rect x="50" y="17" width="1" height="1" /><rect x="51" y="17" width="1" height="1" /><rect x="52" y="17" width="1" height="1" /><rect x="49" y="18" width="1" height="1" /><rect x="53" y="18" width="1" height="1" /><rect x="51" y="19" width="1" height="1" /><rect x="52" y="19" width="1" height="1" /><rect x="51" y="21" width="1" height="1" /><rect x="79" y="15" width="1" height="9" /><rect x="87" y="15" width="1" height="8" /><rect x="79" y="15" width="8" height="1" /><rect x="79" y="23" width="9" height="1" /><rect x="82" y="17" width="1" height="1" /><rect x="83" y="17" width="1" height="1" /><rect x="84" y="17" width="1" height="1" /><rect x="81" y="18" width="1" height="1" /><rect x="85" y="18" width="1" height="1" /><rect x="83" y="19" width="1" height="1" /><rect x="84" y="19" width="1" height="1" /><rect x="83" y="21" width="1" height="1" /><rect x="63" y="23" width="1" height="9" /><rect x="63" y="23" width="8" height="1" /><rect x="63" y="31" width="9" height="1" /><rect x="66" y="25" width="1" height="1" /><rect x="67" y="25" width="1" height="1" /><rect x="68" y="25" width="1" height="1" /><rect x="65" y="26" width="1" height="1" /><rect x="69" y="26" width="1" height="1" /><rect x="67" y="27" width="1" height="1" /><rect x="68" y="27" width="1" height="1" /><rect x="67" y="29" width="1" height="1" /><rect x="79" y="23" width="1" height="8" /><rect x="71" y="23" width="8" height="1" /><rect x="71" y="31" width="9" height="1" /><rect x="74" y="25" width="1" height="1" /><rect x="75" y="25" width="1" height="1" /><rect x="76" y="25" width="1" height="1" /><rect x="73" y="26" width="1" height="1" /><rect x="77" y="26" width="1" height="1" /><rect x="75" y="27" width="1" height="1" /><rect x="76" y="27" width="1" height="1" /><rect x="75" y="29" width="1" height="1" /><rect x="63" y="39" width="1" height="9" /><rect x="71" y="39" width="1" height="8" /><rect x="63" y="39" width="8" height="1" /><rect x="63" y="47" width="9" height="1" /><rect x="66" y="41" width="1" height="1" /><rect x="67" y="41" width="1" height="1" /><rect x="68" y="41" width="1" height="1" /><rect x="65" y="42" width="1" height="1" /><rect x="69" y="42" width="1" height="1" /><rect x="67" y="43" width="1" height="1" /><rect x="68" y="43" width="1" height="1" /><rect x="67" y="45" width="1" height="1" /><rect x="87" y="7" width="40" height="1" /><rect x="87" y="47" width="41" height="1" /><rect x="95" y="7" width="1" height="9" /><rect x="95" y="7" width="8" height="1" /><rect x="95" y="15" width="9" height="1" /><rect x="98" y="9" width="1" height="1" /><rect x="99" y="9" width="1" height="1" /><rect x="100" y="9" width="1" height="1" /><rect x="97" y="10" width="1" height="1" /><rect x="101" y="10" width="1" height="1" /><rect x="99" y="11" width="1" height="1" /><rect x="100" y="11" width="1" height="1" /><rect x="99" y="13" width="1" height="1" /><rect x="103" y="7" width="8" height="1" /><rect x="103" y="15" width="9" height="1" /><rect x="106" y="9" width="1" height="1" /><rect x="107" y="9" width="1" height="1" /><rect x="108" y="9" width="1" height="1" /><rect x="105" y="10" width="1" height="1" /><rect x="109" y="10" width="1" height="1" /><rect x="107" y="11" width="1" height="1" /><rect x="108" y="11" width="1" height="1" /><rect x="107" y="13" width="1" height="1" /><rect x="119" y="7" width="1" height="8" /><rect x="111" y="7" width="8" height="1" /><rect x="111" y="15" width="9" height="1" /><rect x="114" y="9" width="1" height="1" /><rect x="115" y="9" width="1" height="1" /><rect x="116" y="9" width="1" height="1" /><rect x="113" y="10" width="1" height="1" /><rect x="117" y="10" width="1" height="1" /><rect x="115" y="11" width="1" height="1" /><rect x="116" y="11" width="1" height="1" /><rect x="115" y="13" width="1" height="1" /><rect x="87" y="15" width="1" height="9" /><rect x="95" y="15" width="1" height="8" /><rect x="87" y="15" width="8" height="1" /><rect x="87" y="23" width="9" height="1" /><rect x="90" y="17" width="1" height="1" /><rect x="91" y="17" width="1" height="1" /><rect x="92" y="17" width="1" height="1" /><rect x="89" y="18" width="1" height="1" /><rect x="93" y="18" width="1" height="1" /><rect x="91" y="19" width="1" height="1" /><rect x="92" y="19" width="1" height="1" /><rect x="91" y="21" width="1" height="1" /><rect x="119" y="15" width="1" height="9" /><rect x="127" y="15" width="1" height="8" /><rect x="119" y="15" width="8" height="1" /><rect x="119" y="23" width="9" height="1" /><rect x="122" y="17" width="1" height="1" /><rect x="123" y="17" width="1" height="1" /><rect x="124" y="17" width="1" height="1" /><rect x="121" y="18" width="1" height="1" /><rect x="125" y="18" width="1" height="1" /><rect x="123" y="19" width="1" height="1" /><rect x="124" y="19" width="1" height="1" /><rect x="123" y="21" width="1" height="1" /><rect x="103" y="23" width="1" height="9" /><rect x="103" y="23" width="8" height="1" /><rect x="103" y="31" width="9" height="1" /><rect x="106" y="25" width="1" height="1" /><rect x="107" y="25" width="1" height="1" /><rect x="108" y="25" width="1" height="1" /><rect x="105" y="26" width="1" height="1" /><rect x="109" y="26" width="1" height="1" /><rect x="107" y="27" width="1" height="1" /><rect x="108" y="27" width="1" height="1" /><rect x="107" y="29" width="1" height="1" /><rect x="119" y="23" width="1" height="8" /><rect x="111" y="23" width="8" height="1" /><rect x="111" y="31" width="9" height="1" /><rect x="114" y="25" width="1" height="1" /><rect x="115" y="25" width="1" height="1" /><rect x="116" y="25" width="1" height="1" /><rect x="113" y="26" width="1" height="1" /><rect x="117" y="26" width="1" height="1" /><rect x="115" y="27" width="1" height="1" /><rect x="116" y="27" width="1" height="1" /><rect x="115" y="29" width="1" height="1" /><rect x="103" y="39" width="1" height="9" /><rect x="111" y="39" width="1" height="8" /><rect x="103" y="39" width="8" height="1" /><rect x="103" y="47" width="9" height="1" /><rect x="106" y="41" width="1" height="1" /><rect x="107" y="41" width="1" height="1" /><rect x="108" y="41" width="1" height="1" /><rect x="105" y="42" width="1" height="1" /><rect x="109" y="42" width="1" height="1" /><rect x="107" y="43" width="1" height="1" /><rect x="108" y="43" width="1" height="1" /><rect x="107" y="45" width="1" height="1" /><rect x="167" y="7" width="1" height="40" /><rect x="127" y="7" width="40" height="1" /><rect x="127" y="47" width="41" height="1" /><rect x="135" y="7" width="1" height="9" /><rect x="135" y="7" width="8" height="1" /><rect x="135" y="15" width="9" height="1" /><rect x="138" y="9" width="1" height="1" /><rect x="139" y="9" width="1" height="1" /><rect x="140" y="9" width="1" height="1" /><rect x="137" y="10" width="1" height="1" /><rect x="141" y="10" width="1" height="1" /><rect x="139" y="11" width="1" height="1" /><rect x="140" y="11" width="1" height="1" /><rect x="139" y="13" width="1" height="1" /><rect x="143" y="7" width="8" height="1" /><rect x="143" y="15" width="9" height="1" /><rect x="146" y="9" width="1" height="1" /><rect x="147" y="9" width="1" height="1" /><rect x="148" y="9" width="1" height="1" /><rect x="145" y="10" width="1" height="1" /><rect x="149" y="10" width="1" height="1" /><rect x="147" y="11" width="1" height="1" /><rect x="148" y="11" width="1" height="1" /><rect x="147" y="13" width="1" height="1" /><rect x="159" y="7" width="1" height="8" /><rect x="151" y="7" width="8" height="1" /><rect x="151" y="15" width="9" height="1" /><rect x="154" y="9" width="1" height="1" /><rect x="155" y="9" width="1" height="1" /><rect x="156" y="9" width="1" height="1" /><rect x="153" y="10" width="1" height="1" /><rect x="157" y="10" width="1" height="1" /><rect x="155" y="11" width="1" height="1" /><rect x="156" y="11" width="1" height="1" /><rect x="155" y="13" width="1" height="1" /><rect x="127" y="15" width="1" height="9" /><rect x="135" y="15" width="1" height="8" /><rect x="127" y="15" width="8" height="1" /><rect x="127" y="23" width="9" height="1" /><rect x="130" y="17" width="1" height="1" /><rect x="131" y="17" width="1" height="1" /><rect x="132" y="17" width="1" height="1" /><rect x="129" y="18" width="1" height="1" /><rect x="133" y="18" width="1" height="1" /><rect x="131" y="19" width="1" height="1" /><rect x="132" y="19" width="1" height="1" /><rect x="131" y="21" width="1" height="1" /><rect x="159" y="15" width="1" height="9" /><rect x="167" y="15" width="1" height="8" /><rect x="159" y="15" width="8" height="1" /><rect x="159" y="23" width="9" height="1" /><rect x="162" y="17" width="1" height="1" /><rect x="163" y="17" width="1" height="1" /><rect x="164" y="17" width="1" height="1" /><rect x="161" y="18" width="1" height="1" /><rect x="165" y="18" width="1" height="1" /><rect x="163" y="19" width="1" height="1" /><rect x="164" y="19" width="1" height="1" /><rect x="163" y="21" width="1" height="1" /><rect x="143" y="23" width="1" height="9" /><rect x="143" y="23" width="8" height="1" /><rect x="143" y="31" width="9" height="1" /><rect x="146" y="25" width="1" height="1" /><rect x="147" y="25" width="1" height="1" /><rect x="148" y="25" width="1" height="1" /><rect x="145" y="26" width="1" height="1" /><rect x="149" y="26" width="1" height="1" /><rect x="147" y="27" width="1" height="1" /><rect x="148" y="27" width="1" height="1" /><rect x="147" y="29" width="1" height="1" /><rect x="159" y="23" width="1" height="8" /><rect x="151" y="23" width="8" height="1" /><rect x="151" y="31" width="9" height="1" /><rect x="154" y="25" width="1" height="1" /><rect x="155" y="25" width="1" height="1" /><rect x="156" y="25" width="1" height="1" /><rect x="153" y="26" width="1" height="1" /><rect x="157" y="26" width="1" height="1" /><rect x="155" y="27" width="1" height="1" /><rect x="156" y="27" width="1" height="1" /><rect x="155" y="29" width="1" height="1" /><rect x="143" y="39" width="1" height="9" /><rect x="151" y="39" width="1" height="8" /><rect x="143" y="39" width="8" height="1" /><rect x="143" y="47" width="9" height="1" /><rect x="146" y="41" width="1" height="1" /><rect x="147" y="41" width="1" height="1" /><rect x="148" y="41" width="1" height="1" /><rect x="145" y="42" width="1" height="1" /><rect x="149" y="42" width="1" height="1" /><rect x="147" y="43" width="1" height="1" /><rect x="148" y="43" width="1" height="1" /><rect x="147" y="45" width="1" height="1" /><rect x="7" y="47" width="1" height="41" /><rect x="47" y="47" width="1" height="40" /><rect x="7" y="47" width="40" height="1" /><rect x="7" y="87" width="41" height="1" /><rect x="15" y="47" width="1" height="9" /><rect x="15" y="47" width="8" height="1" /><rect x="15" y="55" width="9" height="1" /><rect x="18" y="49" width="1" height="1" /><rect x="19" y="49" width="1" height="1" /><rect x="20" y="49" width="1" height="1" /><rect x="17" y="50" width="1" height="1" /><rect x="21" y="50" width="1" height="1" /><rect x="19" y="51" width="1" height="1" /><rect x="20" y="51" width="1" height="1" /><rect x="19" y="53" width="1" height="1" /><rect x="23" y="47" width="8" height="1" /><rect x="23" y="55" width="9" height="1" /><rect x="26" y="49" width="1" height="1" /><rect x="27" y="49" width="1" height="1" /><rect x="28" y="49" width="1" height="1" /><rect x="25" y="50" width="1" height="1" /><rect x="29" y="50" width="1" height="1" /><rect x="27" y="51" width="1" height="1" /><rect x="28" y="51" width="1" height="1" /><rect x="27" y="53" width="1" height="1" /><rect x="39" y="47" width="1" height="8" /><rect x="31" y="47" width="8" height="1" /><rect x="31" y="55" width="9" height="1" /><rect x="34" y="49" width="1" height="1" /><rect x="35" y="49" width="1" height="1" /><rect x="36" y="49" width="1" height="1" /><rect x="33" y="50" width="1" height="1" /><rect x="37" y="50" width="1" height="1" /><rect x="35" y="51" width="1" height="1" /><rect x="36" y="51" width="1" height="1" /><rect x="35" y="53" width="1" height="1" /><rect x="7" y="55" width="1" height="9" /><rect x="15" y="55" width="1" height="8" /><rect x="7" y="55" width="8" height="1" /><rect x="7" y="63" width="9" height="1" /><rect x="10" y="57" width="1" height="1" /><rect x="11" y="57" width="1" height="1" /><rect x="12" y="57" width="1" height="1" /><rect x="9" y="58" width="1" height="1" /><rect x="13" y="58" width="1" height="1" /><rect x="11" y="59" width="1" height="1" /><rect x="12" y="59" width="1" height="1" /><rect x="11" y="61" width="1" height="1" /><rect x="39" y="55" width="1" height="9" /><rect x="47" y="55" width="1" height="8" /><rect x="39" y="55" width="8" height="1" /><rect x="39" y="63" width="9" height="1" /><rect x="42" y="57" width="1" height="1" /><rect x="43" y="57" width="1" height="1" /><rect x="44" y="57" width="1" height="1" /><rect x="41" y="58" width="1" height="1" /><rect x="45" y="58" width="1" height="1" /><rect x="43" y="59" width="1" height="1" /><rect x="44" y="59" width="1" height="1" /><rect x="43" y="61" width="1" height="1" /><rect x="23" y="63" width="1" height="9" /><rect x="23" y="63" width="8" height="1" /><rect x="23" y="71" width="9" height="1" /><rect x="26" y="65" width="1" height="1" /><rect x="27" y="65" width="1" height="1" /><rect x="28" y="65" width="1" height="1" /><rect x="25" y="66" width="1" height="1" /><rect x="29" y="66" width="1" height="1" /><rect x="27" y="67" width="1" height="1" /><rect x="28" y="67" width="1" height="1" /><rect x="27" y="69" width="1" height="1" /><rect x="39" y="63" width="1" height="8" /><rect x="31" y="63" width="8" height="1" /><rect x="31" y="71" width="9" height="1" /><rect x="34" y="65" width="1" height="1" /><rect x="35" y="65" width="1" height="1" /><rect x="36" y="65" width="1" height="1" /><rect x="33" y="66" width="1" height="1" /><rect x="37" y="66" width="1" height="1" /><rect x="35" y="67" width="1" height="1" /><rect x="36" y="67" width="1" height="1" /><rect x="35" y="69" width="1" height="1" /><rect x="23" y="79" width="1" height="9" /><rect x="31" y="79" width="1" height="8" /><rect x="23" y="79" width="8" height="1" /><rect x="23" y="87" width="9" height="1" /><rect x="26" y="81" width="1" height="1" /><rect x="27" y="81" width="1" height="1" /><rect x="28" y="81" width="1" height="1" /><rect x="25" y="82" width="1" height="1" /><rect x="29" y="82" width="1" height="1" /><rect x="27" y="83" width="1" height="1" /><rect x="28" y="83" width="1" height="1" /><rect x="27" y="85" width="1" height="1" /><rect x="167" y="47" width="1" height="41" /><rect x="207" y="47" width="1" height="40" /><rect x="167" y="47" width="40" height="1" /><rect x="167" y="87" width="41" height="1" /><rect x="175" y="47" width="1" height="9" /><rect x="175" y="47" width="8" height="1" /><rect x="175" y="55" width="9" height="1" /><rect x="178" y="49" width="1" height="1" /><rect x="179" y="49" width="1" height="1" /><rect x="180" y="49" width="1" height="1" /><rect x="177" y="50" width="1" height="1" /><rect x="181" y="50" width="1" height="1" /><rect x="179" y="51" width="1" height="1" /><rect x="180" y="51" width="1" height="1" /><rect x="179" y="53" width="1" height="1" /><rect x="183" y="47" width="8" height="1" /><rect x="183" y="55" width="9" height="1" /><rect x="186" y="49" width="1" height="1" /><rect x="187" y="49" width="1" height="1" /><rect x="188" y="49" width="1" height="1" /><rect x="185" y="50" width="1" height="1" /><rect x="189" y="50" width="1" height="1" /><rect x="187" y="51" width="1" height="1" /><rect x="188" y="51" width="1" height="1" /><rect x="187" y="53" width="1" height="1" /><rect x="199" y="47" width="1" height="8" /><rect x="191" y="47" width="8" height="1" /><rect x="191" y="55" width="9" height="1" /><rect x="194" y="49" width="1" height="1" /><rect x="195" y="49" width="1" height="1" /><rect x="196" y="49" width="1" height="1" /><rect x="193" y="50" width="1" height="1" /><rect x="197" y="50" width="1" height="1" /><rect x="195" y="51" width="1" height="1" /><rect x="196" y="51" width="1" height="1" /><rect x="195" y="53" width="1" height="1" /><rect x="167" y="55" width="1" height="9" /><rect x="175" y="55" width="1" height="8" /><rect x="167" y="55" width="8" height="1" /><rect x="167" y="63" width="9" height="1" /><rect x="170" y="57" width="1" height="1" /><rect x="171" y="57" width="1" height="1" /><rect x="172" y="57" width="1" height="1" /><rect x="169" y="58" width="1" height="1" /><rect x="173" y="58" width="1" height="1" /><rect x="171" y="59" width="1" height="1" /><rect x="172" y="59" width="1" height="1" /><rect x="171" y="61" width="1" height="1" /><rect x="199" y="55" width="1" height="9" /><rect x="207" y="55" width="1" height="8" /><rect x="199" y="55" width="8" height="1" /><rect x="199" y="63" width="9" height="1" /><rect x="202" y="57" width="1" height="1" /><rect x="203" y="57" width="1" height="1" /><rect x="204" y="57" width="1" height="1" /><rect x="201" y="58" width="1" height="1" /><rect x="205" y="58" width="1" height="1" /><rect x="203" y="59" width="1" height="1" /><rect x="204" y="59" width="1" height="1" /><rect x="203" y="61" width="1" height="1" /><rect x="183" y="63" width="1" height="9" /><rect x="183" y="63" width="8" height="1" /><rect x="183" y="71" width="9" height="1" /><rect x="186" y="65" width="1" height="1" /><rect x="187" y="65" width="1" height="1" /><rect x="188" y="65" width="1" height="1" /><rect x="185" y="66" width="1" height="1" /><rect x="189" y="66" width="1" height="1" /><rect x="187" y="67" width="1" height="1" /><rect x="188" y="67" width="1" height="1" /><rect x="187" y="69" width="1" height="1" /><rect x="199" y="63" width="1" height="8" /><rect x="191" y="63" width="8" height="1" /><rect x="191" y="71" width="9" height="1" /><rect x="194" y="65" width="1" height="1" /><rect x="195" y="65" width="1" height="1" /><rect x="196" y="65" width="1" height="1" /><rect x="193" y="66" width="1" height="1" /><rect x="197" y="66" width="1" height="1" /><rect x="195" y="67" width="1" height="1" /><rect x="196" y="67" width="1" height="1" /><rect x="195" y="69" width="1" height="1" /><rect x="183" y="79" width="1" height="9" /><rect x="191" y="79" width="1" height="8" /><rect x="183" y="79" width="8" height="1" /><rect x="183" y="87" width="9" height="1" /><rect x="186" y="81" width="1" height="1" /><rect x="187" y="81" width="1" height="1" /><rect x="188" y="81" width="1" height="1" /><rect x="185" y="82" width="1" height="1" /><rect x="189" y="82" width="1" height="1" /><rect x="187" y="83" width="1" height="1" /><rect x="188" y="83" width="1" height="1" /><rect x="187" y="85" width="1" height="1" /><rect x="87" y="87" width="1" height="41" /><rect x="87" y="87" width="40" height="1" /><rect x="87" y="127" width="41" height="1" /><rect x="95" y="87" width="1" height="9" /><rect x="95" y="87" width="8" height="1" /><rect x="95" y="95" width="9" height="1" /><rect x="98" y="89" width="1" height="1" /><rect x="99" y="89" width="1" height="1" /><rect x="100" y="89" width="1" height="1" /><rect x="97" y="90" width="1" height="1" /><rect x="101" y="90" width="1" height="1" /><rect x="99" y="91" width="1" height="1" /><rect x="100" y="91" width="1" height="1" /><rect x="99" y="93" width="1" height="1" /><rect x="103" y="87" width="8" height="1" /><rect x="103" y="95" width="9" height="1" /><rect x="106" y="89" width="1" height="1" /><rect x="107" y="89" width="1" height="1" /><rect x="108" y="89" width="1" height="1" /><rect x="105" y="90" width="1" height="1" /><rect x="109" y="90" width="1" height="1" /><rect x="107" y="91" width="1" height="1" /><rect x="108" y="91" width="1" height="1" /><rect x="107" y="93" width="1" height="1" /><rect x="119" y="87" width="1" height="8" /><rect x="111" y="87" width="8" height="1" /><rect x="111" y="95" width="9" height="1" /><rect x="114" y="89" width="1" height="1" /><rect x="115" y="89" width="1" height="1" /><rect x="116" y="89" width="1" height="1" /><rect x="113" y="90" width="1" height="1" /><rect x="117" y="90" width="1" height="1" /><rect x="115" y="91" width="1" height="1" /><rect x="116" y="91" width="1" height="1" /><rect x="115" y="93" width="1" height="1" /><rect x="87" y="95" width="1" height="9" /><rect x="95" y="95" width="1" height="8" /><rect x="87" y="95" width="8" height="1" /><rect x="87" y="103" width="9" height="1" /><rect x="90" y="97" width="1" height="1" /><rect x="91" y="97" width="1" height="1" /><rect x="92" y="97" width="1" height="1" /><rect x="89" y="98" width="1" height="1" /><rect x="93" y="98" width="1" height="1" /><rect x="91" y="99" width="1" height="1" /><rect x="92" y="99" width="1" height="1" /><rect x="91" y="101" width="1" height="1" /><rect x="119" y="95" width="1" height="9" /><rect x="127" y="95" width="1" height="8" /><rect x="119" y="95" width="8" height="1" /><rect x="119" y="103" width="9" height="1" /><rect x="122" y="97" width="1" height="1" /><rect x="123" y="97" width="1" height="1" /><rect x="124" y="97" width="1" height="1" /><rect x="121" y="98" width="1" height="1" /><rect x="125" y="98" width="1" height="1" /><rect x="123" y="99" width="1" height="1" /><rect x="124" y="99" width="1" height="1" /><rect x="123" y="101" width="1" height="1" /><rect x="103" y="103" width="1" height="9" /><rect x="103" y="103" width="8" height="1" /><rect x="103" y="111" width="9" height="1" /><rect x="106" y="105" width="1" height="1" /><rect x="107" y="105" width="1" height="1" /><rect x="108" y="105" width="1" height="1" /><rect x="105" y="106" width="1" height="1" /><rect x="109" y="106" width="1" height="1" /><rect x="107" y="107" width="1" height="1" /><rect x="108" y="107" width="1" height="1" /><rect x="107" y="109" width="1" height="1" /><rect x="119" y="103" width="1" height="8" /><rect x="111" y="103" width="8" height="1" /><rect x="111" y="111" width="9" height="1" /><rect x="114" y="105" width="1" height="1" /><rect x="115" y="105" width="1" height="1" /><rect x="116" y="105" width="1" height="1" /><rect x="113" y="106" width="1" height="1" /><rect x="117" y="106" width="1" height="1" /><rect x="115" y="107" width="1" height="1" /><rect x="116" y="107" width="1" height="1" /><rect x="115" y="109" width="1" height="1" /><rect x="103" y="119" width="1" height="9" /><rect x="111" y="119" width="1" height="8" /><rect x="103" y="119" width="8" height="1" /><rect x="103" y="127" width="9" height="1" /><rect x="106" y="121" width="1" height="1" /><rect x="107" y="121" width="1" height="1" /><rect x="108" y="121" width="1" height="1" /><rect x="105" y="122" width="1" height="1" /><rect x="109" y="122" width="1" height="1" /><rect x="107" y="123" width="1" height="1" /><rect x="108" y="123" width="1" height="1" /><rect x="107" y="125" width="1" height="1" /><rect x="167" y="87" width="1" height="40" /><rect x="127" y="87" width="40" height="1" /><rect x="127" y="127" width="41" height="1" /><rect x="135" y="87" width="1" height="9" /><rect x="135" y="87" width="8" height="1" /><rect x="135" y="95" width="9" height="1" /><rect x="138" y="89" width="1" height="1" /><rect x="139" y="89" width="1" height="1" /><rect x="140" y="89" width="1" height="1" /><rect x="137" y="90" width="1" height="1" /><rect x="141" y="90" width="1" height="1" /><rect x="139" y="91" width="1" height="1" /><rect x="140" y="91" width="1" height="1" /><rect x="139" y="93" width="1" height="1" /><rect x="143" y="87" width="8" height="1" /><rect x="143" y="95" width="9" height="1" /><rect x="146" y="89" width="1" height="1" /><rect x="147" y="89" width="1" height="1" /><rect x="148" y="89" width="1" height="1" /><rect x="145" y="90" width="1" height="1" /><rect x="149" y="90" width="1" height="1" /><rect x="147" y="91" width="1" height="1" /><rect x="148" y="91" width="1" height="1" /><rect x="147" y="93" width="1" height="1" /><rect x="159" y="87" width="1" height="8" /><rect x="151" y="87" width="8" height="1" /><rect x="151" y="95" width="9" height="1" /><rect x="154" y="89" width="1" height="1" /><rect x="155" y="89" width="1" height="1" /><rect x="156" y="89" width="1" height="1" /><rect x="153" y="90" width="1" height="1" /><rect x="157" y="90" width="1" height="1" /><rect x="155" y="91" width="1" height="1" /><rect x="156" y="91" width="1" height="1" /><rect x="155" y="93" width="1" height="1" /><rect x="127" y="95" width="1" height="9" /><rect x="135" y="95" width="1" height="8" /><rect x="127" y="95" width="8" height="1" /><rect x="127" y="103" width="9" height="1" /><rect x="130" y="97" width="1" height="1" /><rect x="131" y="97" width="1" height="1" /><rect x="132" y="97" width="1" height="1" /><rect x="129" y="98" width="1" height="1" /><rect x="133" y="98" width="1" height="1" /><rect x="131" y="99" width="1" height="1" /><rect x="132" y="99" width="1" height="1" /><rect x="131" y="101" width="1" height="1" /><rect x="159" y="95" width="1" height="9" /><rect x="167" y="95" width="1" height="8" /><rect x="159" y="95" width="8" height="1" /><rect x="159" y="103" width="9" height="1" /><rect x="162" y="97" width="1" height="1" /><rect x="163" y="97" width="1" height="1" /><rect x="164" y="97" width="1" height="1" /><rect x="161" y="98" width="1" height="1" /><rect x="165" y="98" width="1" height="1" /><rect x="163" y="99" width="1" height="1" /><rect x="164" y="99" width="1" height="1" /><rect x="163" y="101" width="1" height="1" /><rect x="143" y="103" width="1" height="9" /><rect x="143" y="103" width="8" height="1" /><rect x="143" y="111" width="9" height="1" /><rect x="146" y="105" width="1" height="1" /><rect x="147" y="105" width="1" height="1" /><rect x="148" y="105" width="1" height="1" /><rect x="145" y="106" width="1" height="1" /><rect x="149" y="106" width="1" height="1" /><rect x="147" y="107" width="1" height="1" /><rect x="148" y="107" width="1" height="1" /><rect x="147" y="109" width="1" height="1" /><rect x="159" y="103" width="1" height="8" /><rect x="151" y="103" width="8" height="1" /><rect x="151" y="111" width="9" height="1" /><rect x="154" y="105" width="1" height="1" /><rect x="155" y="105" width="1" height="1" /><rect x="156" y="105" width="1" height="1" /><rect x="153" y="106" width="1" height="1" /><rect x="157" y="106" width="1" height="1" /><rect x="155" y="107" width="1" height="1" /><rect x="156" y="107" width="1" height="1" /><rect x="155" y="109" width="1" height="1" /><rect x="143" y="119" width="1" height="9" /><rect x="151" y="119" width="1" height="8" /><rect x="143" y="119" width="8" height="1" /><rect x="143" y="127" width="9" height="1" /><rect x="146" y="121" width="1" height="1" /><rect x="147" y="121" width="1" height="1" /><rect x="148" y="121" width="1" height="1" /><rect x="145" y="122" width="1" height="1" /><rect x="149" y="122" width="1" height="1" /><rect x="147" y="123" width="1" height="1" /><rect x="148" y="123" width="1" height="1" /><rect x="147" y="125" width="1" height="1" /><rect x="87" y="167" width="1" height="41" /><rect x="127" y="167" width="1" height="40" /><rect x="87" y="167" width="40" height="1" /><rect x="87" y="207" width="41" height="1" /><rect x="95" y="167" width="1" height="9" /><rect x="95" y="167" width="8" height="1" /><rect x="95" y="175" width="9" height="1" /><rect x="98" y="169" width="1" height="1" /><rect x="99" y="169" width="1" height="1" /><rect x="100" y="169" width="1" height="1" /><rect x="97" y="170" width="1" height="1" /><rect x="101" y="170" width="1" height="1" /><rect x="99" y="171" width="1" height="1" /><rect x="100" y="171" width="1" height="1" /><rect x="99" y="173" width="1" height="1" /><rect x="103" y="167" width="8" height="1" /><rect x="103" y="175" width="9" height="1" /><rect x="106" y="169" width="1" height="1" /><rect x="107" y="169" width="1" height="1" /><rect x="108" y="169" width="1" height="1" /><rect x="105" y="170" width="1" height="1" /><rect x="109" y="170" width="1" height="1" /><rect x="107" y="171" width="1" height="1" /><rect x="108" y="171" width="1" height="1" /><rect x="107" y="173" width="1" height="1" /><rect x="119" y="167" width="1" height="8" /><rect x="111" y="167" width="8" height="1" /><rect x="111" y="175" width="9" height="1" /><rect x="114" y="169" width="1" height="1" /><rect x="115" y="169" width="1" height="1" /><rect x="116" y="169" width="1" height="1" /><rect x="113" y="170" width="1" height="1" /><rect x="117" y="170" width="1" height="1" /><rect x="115" y="171" width="1" height="1" /><rect x="116" y="171" width="1" height="1" /><rect x="115" y="173" width="1" height="1" /><rect x="87" y="175" width="1" height="9" /><rect x="95" y="175" width="1" height="8" /><rect x="87" y="175" width="8" height="1" /><rect x="87" y="183" width="9" height="1" /><rect x="90" y="177" width="1" height="1" /><rect x="91" y="177" width="1" height="1" /><rect x="92" y="177" width="1" height="1" /><rect x="89" y="178" width="1" height="1" /><rect x="93" y="178" width="1" height="1" /><rect x="91" y="179" width="1" height="1" /><rect x="92" y="179" width="1" height="1" /><rect x="91" y="181" width="1" height="1" /><rect x="119" y="175" width="1" height="9" /><rect x="127" y="175" width="1" height="8" /><rect x="119" y="175" width="8" height="1" /><rect x="119" y="183" width="9" height="1" /><rect x="122" y="177" width="1" height="1" /><rect x="123" y="177" width="1" height="1" /><rect x="124" y="177" width="1" height="1" /><rect x="121" y="178" width="1" height="1" /><rect x="125" y="178" width="1" height="1" /><rect x="123" y="179" width="1" height="1" /><rect x="124" y="179" width="1" height="1" /><rect x="123" y="181" width="1" height="1" /><rect x="103" y="183" width="1" height="9" /><rect x="103" y="183" width="8" height="1" /><rect x="103" y="191" width="9" height="1" /><rect x="106" y="185" width="1" height="1" /><rect x="107" y="185" width="1" height="1" /><rect x="108" y="185" width="1" height="1" /><rect x="105" y="186" width="1" height="1" /><rect x="109" y="186" width="1" height="1" /><rect x="107" y="187" width="1" height="1" /><rect x="108" y="187" width="1" height="1" /><rect x="107" y="189" width="1" height="1" /><rect x="119" y="183" width="1" height="8" /><rect x="111" y="183" width="8" height="1" /><rect x="111" y="191" width="9" height="1" /><rect x="114" y="185" width="1" height="1" /><rect x="115" y="185" width="1" height="1" /><rect x="116" y="185" width="1" height="1" /><rect x="113" y="186" width="1" height="1" /><rect x="117" y="186" width="1" height="1" /><rect x="115" y="187" width="1" height="1" /><rect x="116" y="187" width="1" height="1" /><rect x="115" y="189" width="1" height="1" /><rect x="103" y="199" width="1" height="9" /><rect x="111" y="199" width="1" height="8" /><rect x="103" y="199" width="8" height="1" /><rect x="103" y="207" width="9" height="1" /><rect x="106" y="201" width="1" height="1" /><rect x="107" y="201" width="1" height="1" /><rect x="108" y="201" width="1" height="1" /><rect x="105" y="202" width="1" height="1" /><rect x="109" y="202" width="1" height="1" /><rect x="107" y="203" width="1" height="1" /><rect x="108" y="203" width="1" height="1" /><rect x="107" y="205" width="1" height="1" /></svg>