<?xml version="1.0" encoding="utf-8"?><svg xmlns="http://www.w3.org/2000/svg" xmlns:xlink="http://www.w3.org/1999/xlink" width="208" height="208"><rect x="87" y="7" width="1" height="41" /><rect x="127" y="7" width="1" height="40" /><rect x="87" y="7" width="40" height="1" /><rect x="87" y="47" width="41" height="1" /><rect x="103" y="7" width="1" height="9" /><rect x="111" y="7" width="1" height="8" /><rect x="103" y="7" width="8" height="1" /><rect x="103" y="15" width="9" height="1" /><rect x="107" y="9" width="1" height="1" /><rect x="106" y="10" width="1" height="1" /><rect x="108" y="10" width="1" height="1" /><rect x="107" y="11" width="1" height="1" /><rect x="95" y="15" width="1" height="9" /><rect x="103" y="15" width="1" height="8" /><rect x="95" y="15" width="8" height="1" /><rect x="95" y="23" width="9" height="1" /><rect x="99" y="17" width="1" height="1" /><rect x="98" y="18" width="1" height="1" /><rect x="100" y="18" width="1" height="1" /><rect x="99" y="19" width="1" height="1" /><rect x="111" y="15" width="1" height="9" /><rect x="119" y="15" width="1" height="8" /><rect x="111" y="15" width="8" height="1" /><rect x="111" y="23" width="9" height="1" /><rect x="115" y="17" width="1" height="1" /><rect x="114" y="18" width="1" height="1" /><rect x="116" y="18" width="1" height="1" /><rect x="115" y="19" width="1" height="1" /><rect x="103" y="23" width="1" height="9" /><rect x="111" y="23" width="1" height="8" /><rect x="103" y="23" width="8" height="1" /><rect x="103" y="31" width="9" height="1" /><rect x="107" y="25" width="1" height="1" /><rect x="106" y="26" width="1" height="1" /><rect x="108" y="26" width="1" height="1" /><rect x="107" y="27" width="1" height="1" /><rect x="47" y="47" width="1" height="41" /><rect x="87" y="47" width="1" height="40" /><rect x="47" y="47" width="40" height="1" /><rect x="47" y="87" width="41" height="1" /><rect x="63" y="47" width="1" height="9" /><rect x="71" y="47" width="1" height="8" /><rect x="63" y="47" width="8" height="1" /><rect x="63" y="55" width="9" height="1" /><rect x="67" y="49" width="1" height="1" /><rect x="66" y="50" width="1" height="1" /><rect x="68" y="50" width="1" height="1" /><rect x="67" y="51" width="1" height="1" /><rect x="55" y="55" width="1" height="9" /><rect x="63" y="55" width="1" height="8" /><rect x="55" y="55" width="8" height="1" /><rect x="55" y="63" width="9" height="1" /><rect x="59" y="57" width="1" height="1" /><rect x="58" y="58" width="1" height="1" /><rect x="60" y="58" width="1" height="1" /><rect x="59" y="59" width="1" height="1" /><rect x="71" y="55" width="1" height="9" /><rect x="79" y="55" width="1" height="8" /><rect x="71" y="55" width="8" height="1" /><rect x="71" y="63" width="9" height="1" /><rect x="75" y="57" width="1" height="1" /><rect x="74" y="58" width="1" height="1" /><rect x="76" y="58" width="1" height="1" /><rect x="75" y="59" width="1" height="1" /><rect x="63" y="63" width="1" height="9" /><rect x="71" y="63" width="1" height="8" /><rect x="63" y="63" width="8" height="1" /><rect x="63" y="71" width="9" height="1" /><rect x="67" y="65" width="1" height="1" /><rect x="66" y="66" width="1" height="1" /><rect x="68" y="66" width="1" height="1" /><rect x="67" y="67" width="1" height="1" /><rect x="127" y="47" width="1" height="41" /><rect x="167" y="47" width="1" height="40" /><rect x="127" y="47" width="40" height="1" /><rect x="127" y="87" width="41" height="1" /><rect x="143" y="47" width="1" height="9" /><rect x="151" y="47" width="1" height="8" /><rect x="143" y="47" width="8" height="1" /><rect x="143" y="55" width="9" height="1" /><rect x="147" y="49" width="1" height="1" /><rect x="146" y="50" width="1" height="1" /><rect x="148" y="50" width="1" height="1" /><rect x="147" y="51" width="1" height="1" /><rect x="135" y="55" width="1" height="9" /><rect x="143" y="55" width="1" height="8" /><rect x="135" y="55" width="8" height="1" /><rect x="135" y="63" width="9" height="1" /><rect x="139" y="57" width="1" height="1" /><rect x="138" y="58" width="1" height="1" /><rect x="140" y="58" width="1" height="1" /><rect x="139" y="59" width="1" height="1" /><rect x="151" y="55" width="1" height="9" /><rect x="159" y="55" width="1" height="8" /><rect x="151" y="55" width="8" height="1" /><rect x="151" y="63" width="9" height="1" /><rect x="155" y="57" width="1" height="1" /><rect x="154" y="58" width="1" height="1" /><rect x="156" y="58" width="1" height="1" /><rect x="155" y="59" width="1" height="1" /><rect x="143" y="63" width="1" height="9" /><rect x="151" y="63" width="1" height="8" /><rect x="143" y="63" width="8" height="1" /><rect x="143" y="71" width="9" height="1" /><rect x="147" y="65" width="1" height="1" /><rect x="146" y="66" width="1" height="1" /><rect x="148" y="66" width="1" height="1" /><rect x="147" y="67" width="1" height="1" /><rect x="87" y="87" width="1" height="41" /><rect x="127" y="87" width="1" height="40" /><rect x="87" y="87" width="40" height="1" /><rect x="87" y="127" width="41" height="1" /><rect x="103" y="87" width="1" height="9" /><rect x="111" y="87" width="1" height="8" /><rect x="103" y="87" width="8" height="1" /><rect x="103" y="95" width="9" height="1" /><rect x="107" y="89" width="1" height="1" /><rect x="106" y="90" width="1" height="1" /><rect x="108" y="90" width="1" height="1" /><rect x="107" y="91" width="1" height="1" /><rect x="95" y="95" width="1" height="9" /><rect x="103" y="95" width="1" height="8" /><rect x="95" y="95" width="8" height="1" /><rect x="95" y="103" width="9" height="1" /><rect x="99" y="97" width="1" height="1" /><rect x="98" y="98" width="1" height="1" /><rect x="100" y="98" width="1" height="1" /><rect x="99" y="99" width="1" height="1" /><rect x="111" y="95" width="1" height="9" /><rect x="119" y="95" width="1" height="8" /><rect x="111" y="95" width="8" height="1" /><rect x="111" y="103" width="9" height="1" /><rect x="115" y="97" width="1" height="1" /><rect x="114" y="98" width="1" height="1" /><rect x="116" y="98" width="1" height="1" /><rect x="115" y="99" width="1" height="1" /><rect x="103" y="103" width="1" height="9" /><rect x="111" y="103" width="1" height="8" /><rect x="103" y="103" width="8" height="1" /><rect x="103" y="111" width="9" height="1" /><rect x="107" y="105" width="1" height="1" /><rect x="106" y="106" width="1" height="1" /><rect x="108" y="106" width="1" height="1" /><rect x="107" y="107" width="1" height="1" /></svg>