<?xml version="1.0" encoding="utf-8"?><svg xmlns="http://www.w3.org/2000/svg" xmlns:xlink="http://www.w3.org/1999/xlink" width="48" height="48"><rect x="23" y="23" width="1" height="9" /><rect x="31" y="23" width="1" height="8" /><rect x="23" y="23" width="8" height="1" /><rect x="27" y="27" width="1" height="1" /><rect x="26" y="28" width="1" height="1" /><rect x="27" y="28" width="1" height="1" /><rect x="28" y="28" width="1" height="1" /><rect x="15" y="31" width="1" height="9" /><rect x="15" y="31" width="8" height="1" /><rect x="15" y="39" width="9" height="1" /><rect x="19" y="35" width="1" height="1" /><rect x="18" y="36" width="1" height="1" /><rect x="19" y="36" width="1" height="1" /><rect x="20" y="36" width="1" height="1" /><rect x="23" y="39" width="9" height="1" /><rect x="27" y="35" width="1" height="1" /><rect x="26" y="36" width="1" height="1" /><rect x="27" y="36" width="1" height="1" /><rect x="28" y="36" width="1" height="1" /><rect x="39" y="31" width="1" height="8" /><rect x="31" y="31" width="8" height="1" /><rect x="31" y="39" width="9" height="1" /><rect x="35" y="35" width="1" height="1" /><rect x="34" y="36" width="1" height="1" /><rect x="35" y="36" width="1" height="1" /><rect x="36" y="36" width="1" height="1" /></svg>