<?xml version="1.0" encoding="utf-8"?><svg xmlns="http://www.w3.org/2000/svg" xmlns:xlink="http://www.w3.org/1999/xlink" width="208" height="208"><rect x="0" y="0" width="100%" height="100%" fill="#ffffff" /><rect x="7" y="7" width="1" height="41" /><rect x="47" y="7" width="1" height="40" /><rect x="7" y="7" width="40" height="1" /><rect x="7" y="47" width="41" height="1" /><rect x="7" y="7" width="1" height="9" /><rect x="15" y="7" width="1" height="8" /><rect x="7" y="7" width="8" height="1" /><rect x="7" y="15" width="9" height="1" /><rect x="9" y="9" width="1" height="1" /><rect x="11" y="9" width="1" height="1" /><rect x="13" y="9" width="1" height="1" /><rect x="9" y="11" width="1" height="1" /><rect x="11" y="11" width="1" height="1" /><rect x="13" y="11" width="1" height="1" /><rect x="9" y="13" width="1" height="1" /><rect x="11" y="13" width="1" height="1" /><rect x="13" y="13" width="1" height="1" /><rect x="23" y="7" width="1" height="9" /><rect x="31" y="7" width="1" height="8" /><rect x="23" y="7" width="8" height="1" /><rect x="23" y="15" width="9" height="1" /><rect x="25" y="9" width="1" height="1" /><rect x="27" y="9" width="1" height="1" /><rect x="29" y="9" width="1" height="1" /><rect x="25" y="11" width="1" height="1" /><rect x="27" y="11" width="1" height="1" /><rect x="29" y="11" width="1" height="1" /><rect x="25" y="13" width="1" height="1" /><rect x="27" y="13" width="1" height="1" /><rect x="29" y="13" width="1" height="1" /><rect x="39" y="7" width="1" height="9" /><rect x="47" y="7" width="1" height="8" /><rect x="39" y="7" width="8" height="1" /><rect x="39" y="15" width="9" height="1" /><rect x="41" y="9" width="1" height="1" /><rect x="43" y="9" width="1" height="1" /><rect x="45" y="9" width="1" height="1" /><rect x="41" y="11" width="1" height="1" /><rect x="43" y="11" width="1" height="1" /><rect x="45" y="11" width="1" height="1" /><rect x="41" y="13" width="1" height="1" /><rect x="43" y="13" width="1" height="1" /><rect x="45" y="13" width="1" height="1" /><rect x="7" y="23" width="1" height="9" /><rect x="15" y="23" width="1" height="8" /><rect x="7" y="23" width="8" height="1" /><rect x="7" y="31" width="9" height="1" /><rect x="9" y="25" width="1" height="1" /><rect x="11" y="25" width="1" height="1" /><rect x="13" y="25" width="1" height="1" /><rect x="9" y="27" width="1" height="1" /><rect x="11" y="27" width="1" height="1" /><rect x="13" y="27" width="1" height="1" /><rect x="9" y="29" width="1" height="1" /><rect x="11" y="29" width="1" height="1" /><rect x="13" y="29" width="1" height="1" /><rect x="23" y="23" width="1" height="9" /><rect x="31" y="23" width="1" height="8" /><rect x="23" y="23" width="8" height="1" /><rect x="23" y="31" width="9" height="1" /><rect x="25" y="25" width="1" height="1" /><rect x="27" y="25" width="1" height="1" /><rect x="29" y="25" width="1" height="1" /><rect x="25" y="27" width="1" height="1" /><rect x="27" y="27" width="1" height="1" /><rect x="29" y="27" width="1" height="1" /><rect x="25" y="29" width="1" height="1" /><rect x="27" y="29" width="1" height="1" /><rect x="29" y="29" width="1" height="1" /><rect x="39" y="23" width="1" height="9" /><rect x="47" y="23" width="1" height="8" /><rect x="39" y="23" width="8" height="1" /><rect x="39" y="31" width="9" height="1" /><rect x="41" y="25" width="1" height="1" /><rect x="43" y="25" width="1" height="1" /><rect x="45" y="25" width="1" height="1" /><rect x="41" y="27" width="1" height="1" /><rect x="43" y="27" width="1" height="1" /><rect x="45" y="27" width="1" height="1" /><rect x="41" y="29" width="1" height="1" /><rect x="43" y="29" width="1" height="1" /><rect x="45" y="29" width="1" height="1" /><rect x="7" y="39" width="1" height="9" /><rect x="15" y="39" width="1" height="8" /><rect x="7" y="39" width="8" height="1" /><rect x="7" y="47" width="9" height="1" /><rect x="9" y="41" width="1" height="1" /><rect x="11" y="41" width="1" height="1" /><rect x="13" y="41" width="1" height="1" /><rect x="9" y="43" width="1" height="1" /><rect x="11" y="43" width="1" height="1" /><rect x="13" y="43" width="1" height="1" /><rect x="9" y="45" width="1" height="1" /><rect x="11" y="45" width="1" height="1" /><rect x="13" y="45" width="1" height="1" /><rect x="23" y="39" width="1" height="9" /><rect x="31" y="39" width="1" height="8" /><rect x="23" y="39" width="8" height="1" /><rect x="23" y="47" width="9" height="1" /><rect x="25" y="41" width="1" height="1" /><rect x="27" y="41" width="1" height="1" /><rect x="29" y="41" width="1" height="1" /><rect x="25" y="43" width="1" height="1" /><rect x="27" y="43" width="1" height="1" /><rect x="29" y="43" width="1" height="1" /><rect x="25" y="45" width="1" height="1" /><rect x="27" y="45" width="1" height="1" /><rect x="29" y="45" width="1" height="1" /><rect x="39" y="39" width="1" height="9" /><rect x="47" y="39" width="1" height="8" /><rect x="39" y="39" width="8" height="1" /><rect x="39" y="47" width="9" height="1" /><rect x="41" y="41" width="1" height="1" /><rect x="43" y="41" width="1" height="1" /><rect x="45" y="41" width="1" height="1" /><rect x="41" y="43" width="1" height="1" /><rect x="43" y="43" width="1" height="1" /><rect x="45" y="43" width="1" height="1" /><rect x="41" y="45" width="1" height="1" /><rect x="43" y="45" width="1" height="1" /><rect x="45" y="45" width="1" height="1" /><rect x="87" y="7" width="1" height="41" /><rect x="127" y="7" width="1" height="40" /><rect x="87" y="7" width="40" height="1" /><rect x="87" y="47" width="41" height="1" /><rect x="87" y="7" width="1" height="9" /><rect x="95" y="7" width="1" height="8" /><rect x="87" y="7" width="8" height="1" /><rect x="87" y="15" width="9" height="1" /><rect x="89" y="9" width="1" height="1" /><rect x="91" y="9" width="1" height="1" /><rect x="93" y="9" width="1" height="1" /><rect x="89" y="11" width="1" height="1" /><rect x="91" y="11" width="1" height="1" /><rect x="93" y="11" width="1" height="1" /><rect x="89" y="13" width="1" height="1" /><rect x="91" y="13" width="1" height="1" /><rect x="93" y="13" width="1" height="1" /><rect x="103" y="7" width="1" height="9" /><rect x="111" y="7" width="1" height="8" /><rect x="103" y="7" width="8" height="1" /><rect x="103" y="15" width="9" height="1" /><rect x="105" y="9" width="1" height="1" /><rect x="107" y="9" width="1" height="1" /><rect x="109" y="9" width="1" height="1" /><rect x="105" y="11" width="1" height="1" /><rect x="107" y="11" width="1" height="1" /><rect x="109" y="11" width="1" height="1" /><rect x="105" y="13" width="1" height="1" /><rect x="107" y="13" width="1" height="1" /><rect x="109" y="13" width="1" height="1" /><rect x="119" y="7" width="1" height="9" /><rect x="127" y="7" width="1" height="8" /><rect x="119" y="7" width="8" height="1" /><rect x="119" y="15" width="9" height="1" /><rect x="121" y="9" width="1" height="1" /><rect x="123" y="9" width="1" height="1" /><rect x="125" y="9" width="1" height="1" /><rect x="121" y="11" width="1" height="1" /><rect x="123" y="11" width="1" height="1" /><rect x="125" y="11" width="1" height="1" /><rect x="121" y="13" width="1" height="1" /><rect x="123" y="13" width="1" height="1" /><rect x="125" y="13" width="1" height="1" /><rect x="87" y="23" width="1" height="9" /><rect x="95" y="23" width="1" height="8" /><rect x="87" y="23" width="8" height="1" /><rect x="87" y="31" width="9" height="1" /><rect x="89" y="25" width="1" height="1" /><rect x="91" y="25" width="1" height="1" /><rect x="93" y="25" width="1" height="1" /><rect x="89" y="27" width="1" height="1" /><rect x="91" y="27" width="1" height="1" /><rect x="93" y="27" width="1" height="1" /><rect x="89" y="29" width="1" height="1" /><rect x="91" y="29" width="1" height="1" /><rect x="93" y="29" width="1" height="1" /><rect x="103" y="23" width="1" height="9" /><rect x="111" y="23" width="1" height="8" /><rect x="103" y="23" width="8" height="1" /><rect x="103" y="31" width="9" height="1" /><rect x="105" y="25" width="1" height="1" /><rect x="107" y="25" width="1" height="1" /><rect x="109" y="25" width="1" height="1" /><rect x="105" y="27" width="1" height="1" /><rect x="107" y="27" width="1" height="1" /><rect x="109" y="27" width="1" height="1" /><rect x="105" y="29" width="1" height="1" /><rect x="107" y="29" width="1" height="1" /><rect x="109" y="29" width="1" height="1" /><rect x="119" y="23" width="1" height="9" /><rect x="127" y="23" width="1" height="8" /><rect x="119" y="23" width="8" height="1" /><rect x="119" y="31" width="9" height="1" /><rect x="121" y="25" width="1" height="1" /><rect x="123" y="25" width="1" height="1" /><rect x="125" y="25" width="1" height="1" /><rect x="121" y="27" width="1" height="1" /><rect x="123" y="27" width="1" height="1" /><rect x="125" y="27" width="1" height="1" /><rect x="121" y="29" width="1" height="1" /><rect x="123" y="29" width="1" height="1" /><rect x="125" y="29" width="1" height="1" /><rect x="87" y="39" width="1" height="9" /><rect x="95" y="39" width="1" height="8" /><rect x="87" y="39" width="8" height="1" /><rect x="87" y="47" width="9" height="1" /><rect x="89" y="41" width="1" height="1" /><rect x="91" y="41" width="1" height="1" /><rect x="93" y="41" width="1" height="1" /><rect x="89" y="43" width="1" height="1" /><rect x="91" y="43" width="1" height="1" /><rect x="93" y="43" width="1" height="1" /><rect x="89" y="45" width="1" height="1" /><rect x="91" y="45" width="1" height="1" /><rect x="93" y="45" width="1" height="1" /><rect x="103" y="39" width="1" height="9" /><rect x="111" y="39" width="1" height="8" /><rect x="103" y="39" width="8" height="1" /><rect x="103" y="47" width="9" height="1" /><rect x="105" y="41" width="1" height="1" /><rect x="107" y="41" width="1" height="1" /><rect x="109" y="41" width="1" height="1" /><rect x="105" y="43" width="1" height="1" /><rect x="107" y="43" width="1" height="1" /><rect x="109" y="43" width="1" height="1" /><rect x="105" y="45" width="1" height="1" /><rect x="107" y="45" width="1" height="1" /><rect x="109" y="45" width="1" height="1" /><rect x="119" y="39" width="1" height="9" /><rect x="127" y="39" width="1" height="8" /><rect x="119" y="39" width="8" height="1" /><rect x="119" y="47" width="9" height="1" /><rect x="121" y="41" width="1" height="1" /><rect x="123" y="41" width="1" height="1" /><rect x="125" y="41" width="1" height="1" /><rect x="121" y="43" width="1" height="1" /><rect x="123" y="43" width="1" height="1" /><rect x="125" y="43" width="1" height="1" /><rect x="121" y="45" width="1" height="1" /><rect x="123" y="45" width="1" height="1" /><rect x="125" y="45" width="1" height="1" /><rect x="167" y="7" width="1" height="41" /><rect x="207" y="7" width="1" height="40" /><rect x="167" y="7" width="40" height="1" /><rect x="167" y="47" width="41" height="1" /><rect x="167" y="7" width="1" height="9" /><rect x="175" y="7" width="1" height="8" /><rect x="167" y="7" width="8" height="1" /><rect x="167" y="15" width="9" height="1" /><rect x="169" y="9" width="1" height="1" /><rect x="171" y="9" width="1" height="1" /><rect x="173" y="9" width="1" height="1" /><rect x="169" y="11" width="1" height="1" /><rect x="171" y="11" width="1" height="1" /><rect x="173" y="11" width="1" height="1" /><rect x="169" y="13" width="1" height="1" /><rect x="171" y="13" width="1" height="1" /><rect x="173" y="13" width="1" height="1" /><rect x="183" y="7" width="1" height="9" /><rect x="191" y="7" width="1" height="8" /><rect x="183" y="7" width="8" height="1" /><rect x="183" y="15" width="9" height="1" /><rect x="185" y="9" width="1" height="1" /><rect x="187" y="9" width="1" height="1" /><rect x="189" y="9" width="1" height="1" /><rect x="185" y="11" width="1" height="1" /><rect x="187" y="11" width="1" height="1" /><rect x="189" y="11" width="1" height="1" /><rect x="185" y="13" width="1" height="1" /><rect x="187" y="13" width="1" height="1" /><rect x="189" y="13" width="1" height="1" /><rect x="199" y="7" width="1" height="9" /><rect x="207" y="7" width="1" height="8" /><rect x="199" y="7" width="8" height="1" /><rect x="199" y="15" width="9" height="1" /><rect x="201" y="9" width="1" height="1" /><rect x="203" y="9" width="1" height="1" /><rect x="205" y="9" width="1" height="1" /><rect x="201" y="11" width="1" height="1" /><rect x="203" y="11" width="1" height="1" /><rect x="205" y="11" width="1" height="1" /><rect x="201" y="13" width="1" height="1" /><rect x="203" y="13" width="1" height="1" /><rect x="205" y="13" width="1" height="1" /><rect x="167" y="23" width="1" height="9" /><rect x="175" y="23" width="1" height="8" /><rect x="167" y="23" width="8" height="1" /><rect x="167" y="31" width="9" height="1" /><rect x="169" y="25" width="1" height="1" /><rect x="171" y="25" width="1" height="1" /><rect x="173" y="25" width="1" height="1" /><rect x="169" y="27" width="1" height="1" /><rect x="171" y="27" width="1" height="1" /><rect x="173" y="27" width="1" height="1" /><rect x="169" y="29" width="1" height="1" /><rect x="171" y="29" width="1" height="1" /><rect x="173" y="29" width="1" height="1" /><rect x="183" y="23" width="1" height="9" /><rect x="191" y="23" width="1" height="8" /><rect x="183" y="23" width="8" height="1" /><rect x="183" y="31" width="9" height="1" /><rect x="185" y="25" width="1" height="1" /><rect x="187" y="25" width="1" height="1" /><rect x="189" y="25" width="1" height="1" /><rect x="185" y="27" width="1" height="1" /><rect x="187" y="27" width="1" height="1" /><rect x="189" y="27" width="1" height="1" /><rect x="185" y="29" width="1" height="1" /><rect x="187" y="29" width="1" height="1" /><rect x="189" y="29" width="1" height="1" /><rect x="199" y="23" width="1" height="9" /><rect x="207" y="23" width="1" height="8" /><rect x="199" y="23" width="8" height="1" /><rect x="199" y="31" width="9" height="1" /><rect x="201" y="25" width="1" height="1" /><rect x="203" y="25" width="1" height="1" /><rect x="205" y="25" width="1" height="1" /><rect x="201" y="27" width="1" height="1" /><rect x="203" y="27" width="1" height="1" /><rect x="205" y="27" width="1" height="1" /><rect x="201" y="29" width="1" height="1" /><rect x="203" y="29" width="1" height="1" /><rect x="205" y="29" width="1" height="1" /><rect x="167" y="39" width="1" height="9" /><rect x="175" y="39" width="1" height="8" /><rect x="167" y="39" width="8" height="1" /><rect x="167" y="47" width="9" height="1" /><rect x="169" y="41" width="1" height="1" /><rect x="171" y="41" width="1" height="1" /><rect x="173" y="41" width="1" height="1" /><rect x="169" y="43" width="1" height="1" /><rect x="171" y="43" width="1" height="1" /><rect x="173" y="43" width="1" height="1" /><rect x="169" y="45" width="1" height="1" /><rect x="171" y="45" width="1" height="1" /><rect x="173" y="45" width="1" height="1" /><rect x="183" y="39" width="1" height="9" /><rect x="191" y="39" width="1" height="8" /><rect x="183" y="39" width="8" height="1" /><rect x="183" y="47" width="9" height="1" /><rect x="185" y="41" width="1" height="1" /><rect x="187" y="41" width="1" height="1" /><rect x="189" y="41" width="1" height="1" /><rect x="185" y="43" width="1" height="1" /><rect x="187" y="43" width="1" height="1" /><rect x="189" y="43" width="1" height="1" /><rect x="185" y="45" width="1" height="1" /><rect x="187" y="45" width="1" height="1" /><rect x="189" y="45" width="1" height="1" /><rect x="199" y="39" width="1" height="9" /><rect x="207" y="39" width="1" height="8" /><rect x="199" y="39" width="8" height="1" /><rect x="199" y="47" width="9" height="1" /><rect x="201" y="41" width="1" height="1" /><rect x="203" y="41" width="1" height="1" /><rect x="205" y="41" width="1" height="1" /><rect x="201" y="43" width="1" height="1" /><rect x="203" y="43" width="1" height="1" /><rect x="205" y="43" width="1" height="1" /><rect x="201" y="45" width="1" height="1" /><rect x="203" y="45" width="1" height="1" /><rect x="205" y="45" width="1" height="1" /><rect x="7" y="87" width="1" height="41" /><rect x="47" y="87" width="1" height="40" /><rect x="7" y="87" width="40" height="1" /><rect x="7" y="127" width="41" height="1" /><rect x="7" y="87" width="1" height="9" /><rect x="15" y="87" width="1" height="8" /><rect x="7" y="87" width="8" height="1" /><rect x="7" y="95" width="9" height="1" /><rect x="9" y="89" width="1" height="1" /><rect x="11" y="89" width="1" height="1" /><rect x="13" y="89" width="1" height="1" /><rect x="9" y="91" width="1" height="1" /><rect x="11" y="91" width="1" height="1" /><rect x="13" y="91" width="1" height="1" /><rect x="9" y="93" width="1" height="1" /><rect x="11" y="93" width="1" height="1" /><rect x="13" y="93" width="1" height="1" /><rect x="23" y="87" width="1" height="9" /><rect x="31" y="87" width="1" height="8" /><rect x="23" y="87" width="8" height="1" /><rect x="23" y="95" width="9" height="1" /><rect x="25" y="89" width="1" height="1" /><rect x="27" y="89" width="1" height="1" /><rect x="29" y="89" width="1" height="1" /><rect x="25" y="91" width="1" height="1" /><rect x="27" y="91" width="1" height="1" /><rect x="29" y="91" width="1" height="1" /><rect x="25" y="93" width="1" height="1" /><rect x="27" y="93" width="1" height="1" /><rect x="29" y="93" width="1" height="1" /><rect x="39" y="87" width="1" height="9" /><rect x="47" y="87" width="1" height="8" /><rect x="39" y="87" width="8" height="1" /><rect x="39" y="95" width="9" height="1" /><rect x="41" y="89" width="1" height="1" /><rect x="43" y="89" width="1" height="1" /><rect x="45" y="89" width="1" height="1" /><rect x="41" y="91" width="1" height="1" /><rect x="43" y="91" width="1" height="1" /><rect x="45" y="91" width="1" height="1" /><rect x="41" y="93" width="1" height="1" /><rect x="43" y="93" width="1" height="1" /><rect x="45" y="93" width="1" height="1" /><rect x="7" y="103" width="1" height="9" /><rect x="15" y="103" width="1" height="8" /><rect x="7" y="103" width="8" height="1" /><rect x="7" y="111" width="9" height="1" /><rect x="9" y="105" width="1" height="1" /><rect x="11" y="105" width="1" height="1" /><rect x="13" y="105" width="1" height="1" /><rect x="9" y="107" width="1" height="1" /><rect x="11" y="107" width="1" height="1" /><rect x="13" y="107" width="1" height="1" /><rect x="9" y="109" width="1" height="1" /><rect x="11" y="109" width="1" height="1" /><rect x="13" y="109" width="1" height="1" /><rect x="23" y="103" width="1" height="9" /><rect x="31" y="103" width="1" height="8" /><rect x="23" y="103" width="8" height="1" /><rect x="23" y="111" width="9" height="1" /><rect x="25" y="105" width="1" height="1" /><rect x="27" y="105" width="1" height="1" /><rect x="29" y="105" width="1" height="1" /><rect x="25" y="107" width="1" height="1" /><rect x="27" y="107" width="1" height="1" /><rect x="29" y="107" width="1" height="1" /><rect x="25" y="109" width="1" height="1" /><rect x="27" y="109" width="1" height="1" /><rect x="29" y="109" width="1" height="1" /><rect x="39" y="103" width="1" height="9" /><rect x="47" y="103" width="1" height="8" /><rect x="39" y="103" width="8" height="1" /><rect x="39" y="111" width="9" height="1" /><rect x="41" y="105" width="1" height="1" /><rect x="43" y="105" width="1" height="1" /><rect x="45" y="105" width="1" height="1" /><rect x="41" y="107" width="1" height="1" /><rect x="43" y="107" width="1" height="1" /><rect x="45" y="107" width="1" height="1" /><rect x="41" y="109" width="1" height="1" /><rect x="43" y="109" width="1" height="1" /><rect x="45" y="109" width="1" height="1" /><rect x="7" y="119" width="1" height="9" /><rect x="15" y="119" width="1" height="8" /><rect x="7" y="119" width="8" height="1" /><rect x="7" y="127" width="9" height="1" /><rect x="9" y="121" width="1" height="1" /><rect x="11" y="121" width="1" height="1" /><rect x="13" y="121" width="1" height="1" /><rect x="9" y="123" width="1" height="1" /><rect x="11" y="123" width="1" height="1" /><rect x="13" y="123" width="1" height="1" /><rect x="9" y="125" width="1" height="1" /><rect x="11" y="125" width="1" height="1" /><rect x="13" y="125" width="1" height="1" /><rect x="23" y="119" width="1" height="9" /><rect x="31" y="119" width="1" height="8" /><rect x="23" y="119" width="8" height="1" /><rect x="23" y="127" width="9" height="1" /><rect x="25" y="121" width="1" height="1" /><rect x="27" y="121" width="1" height="1" /><rect x="29" y="121" width="1" height="1" /><rect x="25" y="123" width="1" height="1" /><rect x="27" y="123" width="1" height="1" /><rect x="29" y="123" width="1" height="1" /><rect x="25" y="125" width="1" height="1" /><rect x="27" y="125" width="1" height="1" /><rect x="29" y="125" width="1" height="1" /><rect x="39" y="119" width="1" height="9" /><rect x="47" y="119" width="1" height="8" /><rect x="39" y="119" width="8" height="1" /><rect x="39" y="127" width="9" height="1" /><rect x="41" y="121" width="1" height="1" /><rect x="43" y="121" width="1" height="1" /><rect x="45" y="121" width="1" height="1" /><rect x="41" y="123" width="1" height="1" /><rect x="43" y="123" width="1" height="1" /><rect x="45" y="123" width="1" height="1" /><rect x="41" y="125" width="1" height="1" /><rect x="43" y="125" width="1" height="1" /><rect x="45" y="125" width="1" height="1" /><rect x="87" y="87" width="1" height="41" /><rect x="127" y="87" width="1" height="40" /><rect x="87" y="87" width="40" height="1" /><rect x="87" y="127" width="41" height="1" /><rect x="87" y="87" width="1" height="9" /><rect x="95" y="87" width="1" height="8" /><rect x="87" y="87" width="8" height="1" /><rect x="87" y="95" width="9" height="1" /><rect x="89" y="89" width="1" height="1" /><rect x="91" y="89" width="1" height="1" /><rect x="93" y="89" width="1" height="1" /><rect x="89" y="91" width="1" height="1" /><rect x="91" y="91" width="1" height="1" /><rect x="93" y="91" width="1" height="1" /><rect x="89" y="93" width="1" height="1" /><rect x="91" y="93" width="1" height="1" /><rect x="93" y="93" width="1" height="1" /><rect x="103" y="87" width="1" height="9" /><rect x="111" y="87" width="1" height="8" /><rect x="103" y="87" width="8" height="1" /><rect x="103" y="95" width="9" height="1" /><rect x="105" y="89" width="1" height="1" /><rect x="107" y="89" width="1" height="1" /><rect x="109" y="89" width="1" height="1" /><rect x="105" y="91" width="1" height="1" /><rect x="107" y="91" width="1" height="1" /><rect x="109" y="91" width="1" height="1" /><rect x="105" y="93" width="1" height="1" /><rect x="107" y="93" width="1" height="1" /><rect x="109" y="93" width="1" height="1" /><rect x="119" y="87" width="1" height="9" /><rect x="127" y="87" width="1" height="8" /><rect x="119" y="87" width="8" height="1" /><rect x="119" y="95" width="9" height="1" /><rect x="121" y="89" width="1" height="1" /><rect x="123" y="89" width="1" height="1" /><rect x="125" y="89" width="1" height="1" /><rect x="121" y="91" width="1" height="1" /><rect x="123" y="91" width="1" height="1" /><rect x="125" y="91" width="1" height="1" /><rect x="121" y="93" width="1" height="1" /><rect x="123" y="93" width="1" height="1" /><rect x="125" y="93" width="1" height="1" /><rect x="87" y="103" width="1" height="9" /><rect x="95" y="103" width="1" height="8" /><rect x="87" y="103" width="8" height="1" /><rect x="87" y="111" width="9" height="1" /><rect x="89" y="105" width="1" height="1" /><rect x="91" y="105" width="1" height="1" /><rect x="93" y="105" width="1" height="1" /><rect x="89" y="107" width="1" height="1" /><rect x="91" y="107" width="1" height="1" /><rect x="93" y="107" width="1" height="1" /><rect x="89" y="109" width="1" height="1" /><rect x="91" y="109" width="1" height="1" /><rect x="93" y="109" width="1" height="1" /><rect x="103" y="103" width="1" height="9" /><rect x="111" y="103" width="1" height="8" /><rect x="103" y="103" width="8" height="1" /><rect x="103" y="111" width="9" height="1" /><rect x="105" y="105" width="1" height="1" /><rect x="107" y="105" width="1" height="1" /><rect x="109" y="105" width="1" height="1" /><rect x="105" y="107" width="1" height="1" /><rect x="107" y="107" width="1" height="1" /><rect x="109" y="107" width="1" height="1" /><rect x="105" y="109" width="1" height="1" /><rect x="107" y="109" width="1" height="1" /><rect x="109" y="109" width="1" height="1" /><rect x="119" y="103" width="1" height="9" /><rect x="127" y="103" width="1" height="8" /><rect x="119" y="103" width="8" height="1" /><rect x="119" y="111" width="9" height="1" /><rect x="121" y="105" width="1" height="1" /><rect x="123" y="105" width="1" height="1" /><rect x="125" y="105" width="1" height="1" /><rect x="121" y="107" width="1" height="1" /><rect x="123" y="107" width="1" height="1" /><rect x="125" y="107" width="1" height="1" /><rect x="121" y="109" width="1" height="1" /><rect x="123" y="109" width="1" height="1" /><rect x="125" y="109" width="1" height="1" /><rect x="87" y="119" width="1" height="9" /><rect x="95" y="119" width="1" height="8" /><rect x="87" y="119" width="8" height="1" /><rect x="87" y="127" width="9" height="1" /><rect x="89" y="121" width="1" height="1" /><rect x="91" y="121" width="1" height="1" /><rect x="93" y="121" width="1" height="1" /><rect x="89" y="123" width="1" height="1" /><rect x="91" y="123" width="1" height="1" /><rect x="93" y="123" width="1" height="1" /><rect x="89" y="125" width="1" height="1" /><rect x="91" y="125" width="1" height="1" /><rect x="93" y="125" width="1" height="1" /><rect x="103" y="119" width="1" height="9" /><rect x="111" y="119" width="1" height="8" /><rect x="103" y="119" width="8" height="1" /><rect x="103" y="127" width="9" height="1" /><rect x="105" y="121" width="1" height="1" /><rect x="107" y="121" width="1" height="1" /><rect x="109" y="121" width="1" height="1" /><rect x="105" y="123" width="1" height="1" /><rect x="107" y="123" width="1" height="1" /><rect x="109" y="123" width="1" height="1" /><rect x="105" y="125" width="1" height="1" /><rect x="107" y="125" width="1" height="1" /><rect x="109" y="125" width="1" height="1" /><rect x="119" y="119" width="1" height="9" /><rect x="127" y="119" width="1" height="8" /><rect x="119" y="119" width="8" height="1" /><rect x="119" y="127" width="9" height="1" /><rect x="121" y="121" width="1" height="1" /><rect x="123" y="121" width="1" height="1" /><rect x="125" y="121" width="1" height="1" /><rect x="121" y="123" width="1" height="1" /><rect x="123" y="123" width="1" height="1" /><rect x="125" y="123" width="1" height="1" /><rect x="121" y="125" width="1" height="1" /><rect x="123" y="125" width="1" height="1" /><rect x="125" y="125" width="1" height="1" /><rect x="167" y="87" width="1" height="41" /><rect x="207" y="87" width="1" height="40" /><rect x="167" y="87" width="40" height="1" /><rect x="167" y="127" width="41" height="1" /><rect x="167" y="87" width="1" height="9" /><rect x="175" y="87" width="1" height="8" /><rect x="167" y="87" width="8" height="1" /><rect x="167" y="95" width="9" height="1" /><rect x="169" y="89" width="1" height="1" /><rect x="171" y="89" width="1" height="1" /><rect x="173" y="89" width="1" height="1" /><rect x="169" y="91" width="1" height="1" /><rect x="171" y="91" width="1" height="1" /><rect x="173" y="91" width="1" height="1" /><rect x="169" y="93" width="1" height="1" /><rect x="171" y="93" width="1" height="1" /><rect x="173" y="93" width="1" height="1" /><rect x="183" y="87" width="1" height="9" /><rect x="191" y="87" width="1" height="8" /><rect x="183" y="87" width="8" height="1" /><rect x="183" y="95" width="9" height="1" /><rect x="185" y="89" width="1" height="1" /><rect x="187" y="89" width="1" height="1" /><rect x="189" y="89" width="1" height="1" /><rect x="185" y="91" width="1" height="1" /><rect x="187" y="91" width="1" height="1" /><rect x="189" y="91" width="1" height="1" /><rect x="185" y="93" width="1" height="1" /><rect x="187" y="93" width="1" height="1" /><rect x="189" y="93" width="1" height="1" /><rect x="199" y="87" width="1" height="9" /><rect x="207" y="87" width="1" height="8" /><rect x="199" y="87" width="8" height="1" /><rect x="199" y="95" width="9" height="1" /><rect x="201" y="89" width="1" height="1" /><rect x="203" y="89" width="1" height="1" /><rect x="205" y="89" width="1" height="1" /><rect x="201" y="91" width="1" height="1" /><rect x="203" y="91" width="1" height="1" /><rect x="205" y="91" width="1" height="1" /><rect x="201" y="93" width="1" height="1" /><rect x="203" y="93" width="1" height="1" /><rect x="205" y="93" width="1" height="1" /><rect x="167" y="103" width="1" height="9" /><rect x="175" y="103" width="1" height="8" /><rect x="167" y="103" width="8" height="1" /><rect x="167" y="111" width="9" height="1" /><rect x="169" y="105" width="1" height="1" /><rect x="171" y="105" width="1" height="1" /><rect x="173" y="105" width="1" height="1" /><rect x="169" y="107" width="1" height="1" /><rect x="171" y="107" width="1" height="1" /><rect x="173" y="107" width="1" height="1" /><rect x="169" y="109" width="1" height="1" /><rect x="171" y="109" width="1" height="1" /><rect x="173" y="109" width="1" height="1" /><rect x="183" y="103" width="1" height="9" /><rect x="191" y="103" width="1" height="8" /><rect x="183" y="103" width="8" height="1" /><rect x="183" y="111" width="9" height="1" /><rect x="185" y="105" width="1" height="1" /><rect x="187" y="105" width="1" height="1" /><rect x="189" y="105" width="1" height="1" /><rect x="185" y="107" width="1" height="1" /><rect x="187" y="107" width="1" height="1" /><rect x="189" y="107" width="1" height="1" /><rect x="185" y="109" width="1" height="1" /><rect x="187" y="109" width="1" height="1" /><rect x="189" y="109" width="1" height="1" /><rect x="199" y="103" width="1" height="9" /><rect x="207" y="103" width="1" height="8" /><rect x="199" y="103" width="8" height="1" /><rect x="199" y="111" width="9" height="1" /><rect x="201" y="105" width="1" height="1" /><rect x="203" y="105" width="1" height="1" /><rect x="205" y="105" width="1" height="1" /><rect x="201" y="107" width="1" height="1" /><rect x="203" y="107" width="1" height="1" /><rect x="205" y="107" width="1" height="1" /><rect x="201" y="109" width="1" height="1" /><rect x="203" y="109" width="1" height="1" /><rect x="205" y="109" width="1" height="1" /><rect x="167" y="119" width="1" height="9" /><rect x="175" y="119" width="1" height="8" /><rect x="167" y="119" width="8" height="1" /><rect x="167" y="127" width="9" height="1" /><rect x="169" y="121" width="1" height="1" /><rect x="171" y="121" width="1" height="1" /><rect x="173" y="121" width="1" height="1" /><rect x="169" y="123" width="1" height="1" /><rect x="171" y="123" width="1" height="1" /><rect x="173" y="123" width="1" height="1" /><rect x="169" y="125" width="1" height="1" /><rect x="171" y="125" width="1" height="1" /><rect x="173" y="125" width="1" height="1" /><rect x="183" y="119" width="1" height="9" /><rect x="191" y="119" width="1" height="8" /><rect x="183" y="119" width="8" height="1" /><rect x="183" y="127" width="9" height="1" /><rect x="185" y="121" width="1" height="1" /><rect x="187" y="121" width="1" height="1" /><rect x="189" y="121" width="1" height="1" /><rect x="185" y="123" width="1" height="1" /><rect x="187" y="123" width="1" height="1" /><rect x="189" y="123" width="1" height="1" /><rect x="185" y="125" width="1" height="1" /><rect x="187" y="125" width="1" height="1" /><rect x="189" y="125" width="1" height="1" /><rect x="199" y="119" width="1" height="9" /><rect x="207" y="119" width="1" height="8" /><rect x="199" y="119" width="8" height="1" /><rect x="199" y="127" width="9" height="1" /><rect x="201" y="121" width="1" height="1" /><rect x="203" y="121" width="1" height="1" /><rect x="205" y="121" width="1" height="1" /><rect x="201" y="123" width="1" height="1" /><rect x="203" y="123" width="1" height="1" /><rect x="205" y="123" width="1" height="1" /><rect x="201" y="125" width="1" height="1" /><rect x="203" y="125" width="1" height="1" /><rect x="205" y="125" width="1" height="1" /><rect x="7" y="167" width="1" height="41" /><rect x="47" y="167" width="1" height="40" /><rect x="7" y="167" width="40" height="1" /><rect x="7" y="207" width="41" height="1" /><rect x="7" y="167" width="1" height="9" /><rect x="15" y="167" width="1" height="8" /><rect x="7" y="167" width="8" height="1" /><rect x="7" y="175" width="9" height="1" /><rect x="9" y="169" width="1" height="1" /><rect x="11" y="169" width="1" height="1" /><rect x="13" y="169" width="1" height="1" /><rect x="9" y="171" width="1" height="1" /><rect x="11" y="171" width="1" height="1" /><rect x="13" y="171" width="1" height="1" /><rect x="9" y="173" width="1" height="1" /><rect x="11" y="173" width="1" height="1" /><rect x="13" y="173" width="1" height="1" /><rect x="23" y="167" width="1" height="9" /><rect x="31" y="167" width="1" height="8" /><rect x="23" y="167" width="8" height="1" /><rect x="23" y="175" width="9" height="1" /><rect x="25" y="169" width="1" height="1" /><rect x="27" y="169" width="1" height="1" /><rect x="29" y="169" width="1" height="1" /><rect x="25" y="171" width="1" height="1" /><rect x="27" y="171" width="1" height="1" /><rect x="29" y="171" width="1" height="1" /><rect x="25" y="173" width="1" height="1" /><rect x="27" y="173" width="1" height="1" /><rect x="29" y="173" width="1" height="1" /><rect x="39" y="167" width="1" height="9" /><rect x="47" y="167" width="1" height="8" /><rect x="39" y="167" width="8" height="1" /><rect x="39" y="175" width="9" height="1" /><rect x="41" y="169" width="1" height="1" /><rect x="43" y="169" width="1" height="1" /><rect x="45" y="169" width="1" height="1" /><rect x="41" y="171" width="1" height="1" /><rect x="43" y="171" width="1" height="1" /><rect x="45" y="171" width="1" height="1" /><rect x="41" y="173" width="1" height="1" /><rect x="43" y="173" width="1" height="1" /><rect x="45" y="173" width="1" height="1" /><rect x="7" y="183" width="1" height="9" /><rect x="15" y="183" width="1" height="8" /><rect x="7" y="183" width="8" height="1" /><rect x="7" y="191" width="9" height="1" /><rect x="9" y="185" width="1" height="1" /><rect x="11" y="185" width="1" height="1" /><rect x="13" y="185" width="1" height="1" /><rect x="9" y="187" width="1" height="1" /><rect x="11" y="187" width="1" height="1" /><rect x="13" y="187" width="1" height="1" /><rect x="9" y="189" width="1" height="1" /><rect x="11" y="189" width="1" height="1" /><rect x="13" y="189" width="1" height="1" /><rect x="23" y="183" width="1" height="9" /><rect x="31" y="183" width="1" height="8" /><rect x="23" y="183" width="8" height="1" /><rect x="23" y="191" width="9" height="1" /><rect x="25" y="185" width="1" height="1" /><rect x="27" y="185" width="1" height="1" /><rect x="29" y="185" width="1" height="1" /><rect x="25" y="187" width="1" height="1" /><rect x="27" y="187" width="1" height="1" /><rect x="29" y="187" width="1" height="1" /><rect x="25" y="189" width="1" height="1" /><rect x="27" y="189" width="1" height="1" /><rect x="29" y="189" width="1" height="1" /><rect x="39" y="183" width="1" height="9" /><rect x="47" y="183" width="1" height="8" /><rect x="39" y="183" width="8" height="1" /><rect x="39" y="191" width="9" height="1" /><rect x="41" y="185" width="1" height="1" /><rect x="43" y="185" width="1" height="1" /><rect x="45" y="185" width="1" height="1" /><rect x="41" y="187" width="1" height="1" /><rect x="43" y="187" width="1" height="1" /><rect x="45" y="187" width="1" height="1" /><rect x="41" y="189" width="1" height="1" /><rect x="43" y="189" width="1" height="1" /><rect x="45" y="189" width="1" height="1" /><rect x="7" y="199" width="1" height="9" /><rect x="15" y="199" width="1" height="8" /><rect x="7" y="199" width="8" height="1" /><rect x="7" y="207" width="9" height="1" /><rect x="9" y="201" width="1" height="1" /><rect x="11" y="201" width="1" height="1" /><rect x="13" y="201" width="1" height="1" /><rect x="9" y="203" width="1" height="1" /><rect x="11" y="203" width="1" height="1" /><rect x="13" y="203" width="1" height="1" /><rect x="9" y="205" width="1" height="1" /><rect x="11" y="205" width="1" height="1" /><rect x="13" y="205" width="1" height="1" /><rect x="23" y="199" width="1" height="9" /><rect x="31" y="199" width="1" height="8" /><rect x="23" y="199" width="8" height="1" /><rect x="23" y="207" width="9" height="1" /><rect x="25" y="201" width="1" height="1" /><rect x="27" y="201" width="1" height="1" /><rect x="29" y="201" width="1" height="1" /><rect x="25" y="203" width="1" height="1" /><rect x="27" y="203" width="1" height="1" /><rect x="29" y="203" width="1" height="1" /><rect x="25" y="205" width="1" height="1" /><rect x="27" y="205" width="1" height="1" /><rect x="29" y="205" width="1" height="1" /><rect x="39" y="199" width="1" height="9" /><rect x="47" y="199" width="1" height="8" /><rect x="39" y="199" width="8" height="1" /><rect x="39" y="207" width="9" height="1" /><rect x="41" y="201" width="1" height="1" /><rect x="43" y="201" width="1" height="1" /><rect x="45" y="201" width="1" height="1" /><rect x="41" y="203" width="1" height="1" /><rect x="43" y="203" width="1" height="1" /><rect x="45" y="203" width="1" height="1" /><rect x="41" y="205" width="1" height="1" /><rect x="43" y="205" width="1" height="1" /><rect x="45" y="205" width="1" height="1" /><rect x="87" y="167" width="1" height="41" /><rect x="127" y="167" width="1" height="40" /><rect x="87" y="167" width="40" height="1" /><rect x="87" y="207" width="41" height="1" /><rect x="87" y="167" width="1" height="9" /><rect x="95" y="167" width="1" height="8" /><rect x="87" y="167" width="8" height="1" /><rect x="87" y="175" width="9" height="1" /><rect x="89" y="169" width="1" height="1" /><rect x="91" y="169" width="1" height="1" /><rect x="93" y="169" width="1" height="1" /><rect x="89" y="171" width="1" height="1" /><rect x="91" y="171" width="1" height="1" /><rect x="93" y="171" width="1" height="1" /><rect x="89" y="173" width="1" height="1" /><rect x="91" y="173" width="1" height="1" /><rect x="93" y="173" width="1" height="1" /><rect x="103" y="167" width="1" height="9" /><rect x="111" y="167" width="1" height="8" /><rect x="103" y="167" width="8" height="1" /><rect x="103" y="175" width="9" height="1" /><rect x="105" y="169" width="1" height="1" /><rect x="107" y="169" width="1" height="1" /><rect x="109" y="169" width="1" height="1" /><rect x="105" y="171" width="1" height="1" /><rect x="107" y="171" width="1" height="1" /><rect x="109" y="171" width="1" height="1" /><rect x="105" y="173" width="1" height="1" /><rect x="107" y="173" width="1" height="1" /><rect x="109" y="173" width="1" height="1" /><rect x="119" y="167" width="1" height="9" /><rect x="127" y="167" width="1" height="8" /><rect x="119" y="167" width="8" height="1" /><rect x="119" y="175" width="9" height="1" /><rect x="121" y="169" width="1" height="1" /><rect x="123" y="169" width="1" height="1" /><rect x="125" y="169" width="1" height="1" /><rect x="121" y="171" width="1" height="1" /><rect x="123" y="171" width="1" height="1" /><rect x="125" y="171" width="1" height="1" /><rect x="121" y="173" width="1" height="1" /><rect x="123" y="173" width="1" height="1" /><rect x="125" y="173" width="1" height="1" /><rect x="87" y="183" width="1" height="9" /><rect x="95" y="183" width="1" height="8" /><rect x="87" y="183" width="8" height="1" /><rect x="87" y="191" width="9" height="1" /><rect x="89" y="185" width="1" height="1" /><rect x="91" y="185" width="1" height="1" /><rect x="93" y="185" width="1" height="1" /><rect x="89" y="187" width="1" height="1" /><rect x="91" y="187" width="1" height="1" /><rect x="93" y="187" width="1" height="1" /><rect x="89" y="189" width="1" height="1" /><rect x="91" y="189" width="1" height="1" /><rect x="93" y="189" width="1" height="1" /><rect x="103" y="183" width="1" height="9" /><rect x="111" y="183" width="1" height="8" /><rect x="103" y="183" width="8" height="1" /><rect x="103" y="191" width="9" height="1" /><rect x="105" y="185" width="1" height="1" /><rect x="107" y="185" width="1" height="1" /><rect x="109" y="185" width="1" height="1" /><rect x="105" y="187" width="1" height="1" /><rect x="107" y="187" width="1" height="1" /><rect x="109" y="187" width="1" height="1" /><rect x="105" y="189" width="1" height="1" /><rect x="107" y="189" width="1" height="1" /><rect x="109" y="189" width="1" height="1" /><rect x="119" y="183" width="1" height="9" /><rect x="127" y="183" width="1" height="8" /><rect x="119" y="183" width="8" height="1" /><rect x="119" y="191" width="9" height="1" /><rect x="121" y="185" width="1" height="1" /><rect x="123" y="185" width="1" height="1" /><rect x="125" y="185" width="1" height="1" /><rect x="121" y="187" width="1" height="1" /><rect x="123" y="187" width="1" height="1" /><rect x="125" y="187" width="1" height="1" /><rect x="121" y="189" width="1" height="1" /><rect x="123" y="189" width="1" height="1" /><rect x="125" y="189" width="1" height="1" /><rect x="87" y="199" width="1" height="9" /><rect x="95" y="199" width="1" height="8" /><rect x="87" y="199" width="8" height="1" /><rect x="87" y="207" width="9" height="1" /><rect x="89" y="201" width="1" height="1" /><rect x="91" y="201" width="1" height="1" /><rect x="93" y="201" width="1" height="1" /><rect x="89" y="203" width="1" height="1" /><rect x="91" y="203" width="1" height="1" /><rect x="93" y="203" width="1" height="1" /><rect x="89" y="205" width="1" height="1" /><rect x="91" y="205" width="1" height="1" /><rect x="93" y="205" width="1" height="1" /><rect x="103" y="199" width="1" height="9" /><rect x="111" y="199" width="1" height="8" /><rect x="103" y="199" width="8" height="1" /><rect x="103" y="207" width="9" height="1" /><rect x="105" y="201" width="1" height="1" /><rect x="107" y="201" width="1" height="1" /><rect x="109" y="201" width="1" height="1" /><rect x="105" y="203" width="1" height="1" /><rect x="107" y="203" width="1" height="1" /><rect x="109" y="203" width="1" height="1" /><rect x="105" y="205" width="1" height="1" /><rect x="107" y="205" width="1" height="1" /><rect x="109" y="205" width="1" height="1" /><rect x="119" y="199" width="1" height="9" /><rect x="127" y="199" width="1" height="8" /><rect x="119" y="199" width="8" height="1" /><rect x="119" y="207" width="9" height="1" /><rect x="121" y="201" width="1" height="1" /><rect x="123" y="201" width="1" height="1" /><rect x="125" y="201" width="1" height="1" /><rect x="121" y="203" width="1" height="1" /><rect x="123" y="203" width="1" height="1" /><rect x="125" y="203" width="1" height="1" /><rect x="121" y="205" width="1" height="1" /><rect x="123" y="205" width="1" height="1" /><rect x="125" y="205" width="1" height="1" /><rect x="167" y="167" width="1" height="41" /><rect x="207" y="167" width="1" height="40" /><rect x="167" y="167" width="40" height="1" /><rect x="167" y="207" width="41" height="1" /><rect x="167" y="167" width="1" height="9" /><rect x="175" y="167" width="1" height="8" /><rect x="167" y="167" width="8" height="1" /><rect x="167" y="175" width="9" height="1" /><rect x="169" y="169" width="1" height="1" /><rect x="171" y="169" width="1" height="1" /><rect x="173" y="169" width="1" height="1" /><rect x="169" y="171" width="1" height="1" /><rect x="171" y="171" width="1" height="1" /><rect x="173" y="171" width="1" height="1" /><rect x="169" y="173" width="1" height="1" /><rect x="171" y="173" width="1" height="1" /><rect x="173" y="173" width="1" height="1" /><rect x="183" y="167" width="1" height="9" /><rect x="191" y="167" width="1" height="8" /><rect x="183" y="167" width="8" height="1" /><rect x="183" y="175" width="9" height="1" /><rect x="185" y="169" width="1" height="1" /><rect x="187" y="169" width="1" height="1" /><rect x="189" y="169" width="1" height="1" /><rect x="185" y="171" width="1" height="1" /><rect x="187" y="171" width="1" height="1" /><rect x="189" y="171" width="1" height="1" /><rect x="185" y="173" width="1" height="1" /><rect x="187" y="173" width="1" height="1" /><rect x="189" y="173" width="1" height="1" /><rect x="199" y="167" width="1" height="9" /><rect x="207" y="167" width="1" height="8" /><rect x="199" y="167" width="8" height="1" /><rect x="199" y="175" width="9" height="1" /><rect x="201" y="169" width="1" height="1" /><rect x="203" y="169" width="1" height="1" /><rect x="205" y="169" width="1" height="1" /><rect x="201" y="171" width="1" height="1" /><rect x="203" y="171" width="1" height="1" /><rect x="205" y="171" width="1" height="1" /><rect x="201" y="173" width="1" height="1" /><rect x="203" y="173" width="1" height="1" /><rect x="205" y="173" width="1" height="1" /><rect x="167" y="183" width="1" height="9" /><rect x="175" y="183" width="1" height="8" /><rect x="167" y="183" width="8" height="1" /><rect x="167" y="191" width="9" height="1" /><rect x="169" y="185" width="1" height="1" /><rect x="171" y="185" width="1" height="1" /><rect x="173" y="185" width="1" height="1" /><rect x="169" y="187" width="1" height="1" /><rect x="171" y="187" width="1" height="1" /><rect x="173" y="187" width="1" height="1" /><rect x="169" y="189" width="1" height="1" /><rect x="171" y="189" width="1" height="1" /><rect x="173" y="189" width="1" height="1" /><rect x="183" y="183" width="1" height="9" /><rect x="191" y="183" width="1" height="8" /><rect x="183" y="183" width="8" height="1" /><rect x="183" y="191" width="9" height="1" /><rect x="185" y="185" width="1" height="1" /><rect x="187" y="185" width="1" height="1" /><rect x="189" y="185" width="1" height="1" /><rect x="185" y="187" width="1" height="1" /><rect x="187" y="187" width="1" height="1" /><rect x="189" y="187" width="1" height="1" /><rect x="185" y="189" width="1" height="1" /><rect x="187" y="189" width="1" height="1" /><rect x="189" y="189" width="1" height="1" /><rect x="199" y="183" width="1" height="9" /><rect x="207" y="183" width="1" height="8" /><rect x="199" y="183" width="8" height="1" /><rect x="199" y="191" width="9" height="1" /><rect x="201" y="185" width="1" height="1" /><rect x="203" y="185" width="1" height="1" /><rect x="205" y="185" width="1" height="1" /><rect x="201" y="187" width="1" height="1" /><rect x="203" y="187" width="1" height="1" /><rect x="205" y="187" width="1" height="1" /><rect x="201" y="189" width="1" height="1" /><rect x="203" y="189" width="1" height="1" /><rect x="205" y="189" width="1" height="1" /><rect x="167" y="199" width="1" height="9" /><rect x="175" y="199" width="1" height="8" /><rect x="167" y="199" width="8" height="1" /><rect x="167" y="207" width="9" height="1" /><rect x="169" y="201" width="1" height="1" /><rect x="171" y="201" width="1" height="1" /><rect x="173" y="201" width="1" height="1" /><rect x="169" y="203" width="1" height="1" /><rect x="171" y="203" width="1" height="1" /><rect x="173" y="203" width="1" height="1" /><rect x="169" y="205" width="1" height="1" /><rect x="171" y="205" width="1" height="1" /><rect x="173" y="205" width="1" height="1" /><rect x="183" y="199" width="1" height="9" /><rect x="191" y="199" width="1" height="8" /><rect x="183" y="199" width="8" height="1" /><rect x="183" y="207" width="9" height="1" /><rect x="185" y="201" width="1" height="1" /><rect x="187" y="201" width="1" height="1" /><rect x="189" y="201" width="1" height="1" /><rect x="185" y="203" width="1" height="1" /><rect x="187" y="203" width="1" height="1" /><rect x="189" y="203" width="1" height="1" /><rect x="185" y="205" width="1" height="1" /><rect x="187" y="205" width="1" height="1" /><rect x="189" y="205" width="1" height="1" /><rect x="199" y="199" width="1" height="9" /><rect x="207" y="199" width="1" height="8" /><rect x="199" y="199" width="8" height="1" /><rect x="199" y="207" width="9" height="1" /><rect x="201" y="201" width="1" height="1" /><rect x="203" y="201" width="1" height="1" /><rect x="205" y="201" width="1" height="1" /><rect x="201" y="203" width="1" height="1" /><rect x="203" y="203" width="1" height="1" /><rect x="205" y="203" width="1" height="1" /><rect x="201" y="205" width="1" height="1" /><rect x="203" y="205" width="1" height="1" /><rect x="205" y="205" width="1" height="1" /></svg>