<?xml version="1.0" encoding="utf-8"?><svg xmlns="http://www.w3.org/2000/svg" xmlns:xlink="http://www.w3.org/1999/xlink" width="48" height="48"><rect x="23" y="7" width="1" height="9" /><rect x="31" y="7" width="1" height="8" /><rect x="23" y="7" width="8" height="1" /><rect x="27" y="9" width="1" height="1" /><rect x="27" y="10" width="1" height="1" /><rect x="27" y="11" width="1" height="1" /><rect x="27" y="13" width="1" height="1" /><rect x="23" y="15" width="1" height="9" /><rect x="31" y="15" width="1" height="8" /><rect x="27" y="17" width="1" height="1" /><rect x="27" y="18" width="1" height="1" /><rect x="27" y="19" width="1" height="1" /><rect x="27" y="21" width="1" height="1" /><rect x="23" y="23" width="1" height="9" /><rect x="31" y="23" width="1" height="8" /><rect x="23" y="31" width="9" height="1" /><rect x="27" y="25" width="1" height="1" /><rect x="27" y="26" width="1" height="1" /><rect x="27" y="27" width="1" height="1" /><rect x="27" y="29" width="1" height="1" /><rect x="23" y="39" width="1" height="9" /><rect x="31" y="39" width="1" height="8" /><rect x="23" y="39" width="8" height="1" /><rect x="23" y="47" width="9" height="1" /><rect x="27" y="41" width="1" height="1" /><rect x="27" y="42" width="1" height="1" /><rect x="27" y="43" width="1" height="1" /><rect x="27" y="45" width="1" height="1" /></svg>