<?xml version="1.0" encoding="utf-8"?><svg xmlns="http://www.w3.org/2000/svg" xmlns:xlink="http://www.w3.org/1999/xlink" width="48" height="48"><rect x="0" y="0" width="100%" height="100%" fill="#ffffff" /><rect x="15" y="7" width="1" height="9" /><rect x="23" y="7" width="1" height="8" /><rect x="15" y="7" width="8" height="1" /><rect x="18" y="9" width="1" height="1" /><rect x="20" y="9" width="1" height="1" /><rect x="18" y="10" width="1" height="1" /><rect x="20" y="10" width="1" height="1" /><rect x="31" y="7" width="1" height="9" /><rect x="39" y="7" width="1" height="8" /><rect x="31" y="7" width="8" height="1" /><rect x="34" y="9" width="1" height="1" /><rect x="36" y="9" width="1" height="1" /><rect x="34" y="10" width="1" height="1" /><rect x="36" y="10" width="1" height="1" /><rect x="15" y="15" width="1" height="9" /><rect x="23" y="15" width="1" height="8" /><rect x="15" y="23" width="9" height="1" /><rect x="18" y="17" width="1" height="1" /><rect x="20" y="17" width="1" height="1" /><rect x="18" y="18" width="1" height="1" /><rect x="20" y="18" width="1" height="1" /><rect x="31" y="15" width="1" height="9" /><rect x="39" y="15" width="1" height="8" /><rect x="31" y="23" width="9" height="1" /><rect x="34" y="17" width="1" height="1" /><rect x="36" y="17" width="1" height="1" /><rect x="34" y="18" width="1" height="1" /><rect x="36" y="18" width="1" height="1" /></svg>