<?xml version="1.0" encoding="utf-8"?><svg xmlns="http://www.w3.org/2000/svg" xmlns:xlink="http://www.w3.org/1999/xlink" width="208" height="208"><rect x="0" y="0" width="100%" height="100%" fill="#ffffff" /><rect x="87" y="87" width="1" height="41" /><rect x="127" y="87" width="1" height="40" /><rect x="87" y="87" width="40" height="1" /><rect x="103" y="103" width="1" height="9" /><rect x="111" y="103" width="1" height="8" /><rect x="103" y="103" width="8" height="1" /><rect x="107" y="107" width="1" height="1" /><rect x="106" y="108" width="1" height="1" /><rect x="107" y="108" width="1" height="1" /><rect x="108" y="108" width="1" height="1" /><rect x="95" y="111" width="1" height="9" /><rect x="95" y="111" width="8" height="1" /><rect x="95" y="119" width="9" height="1" /><rect x="99" y="115" width="1" height="1" /><rect x="98" y="116" width="1" height="1" /><rect x="99" y="116" width="1" height="1" /><rect x="100" y="116" width="1" height="1" /><rect x="103" y="119" width="9" height="1" /><rect x="107" y="115" width="1" height="1" /><rect x="106" y="116" width="1" height="1" /><rect x="107" y="116" width="1" height="1" /><rect x="108" y="116" width="1" height="1" /><rect x="119" y="111" width="1" height="8" /><rect x="111" y="111" width="8" height="1" /><rect x="111" y="119" width="9" height="1" /><rect x="115" y="115" width="1" height="1" /><rect x="114" y="116" width="1" height="1" /><rect x="115" y="116" width="1" height="1" /><rect x="116" y="116" width="1" height="1" /><rect x="47" y="127" width="1" height="41" /><rect x="47" y="127" width="40" height="1" /><rect x="47" y="167" width="41" height="1" /><rect x="63" y="143" width="1" height="9" /><rect x="71" y="143" width="1" height="8" /><rect x="63" y="143" width="8" height="1" /><rect x="67" y="147" width="1" height="1" /><rect x="66" y="148" width="1" height="1" /><rect x="67" y="148" width="1" height="1" /><rect x="68" y="148" width="1" height="1" /><rect x="55" y="151" width="1" height="9" /><rect x="55" y="151" width="8" height="1" /><rect x="55" y="159" width="9" height="1" /><rect x="59" y="155" width="1" height="1" /><rect x="58" y="156" width="1" height="1" /><rect x="59" y="156" width="1" height="1" /><rect x="60" y="156" width="1" height="1" /><rect x="63" y="159" width="9" height="1" /><rect x="67" y="155" width="1" height="1" /><rect x="66" y="156" width="1" height="1" /><rect x="67" y="156" width="1" height="1" /><rect x="68" y="156" width="1" height="1" /><rect x="79" y="151" width="1" height="8" /><rect x="71" y="151" width="8" height="1" /><rect x="71" y="159" width="9" height="1" /><rect x="75" y="155" width="1" height="1" /><rect x="74" y="156" width="1" height="1" /><rect x="75" y="156" width="1" height="1" /><rect x="76" y="156" width="1" height="1" /><rect x="87" y="167" width="41" height="1" /><rect x="103" y="143" width="1" height="9" /><rect x="111" y="143" width="1" height="8" /><rect x="103" y="143" width="8" height="1" /><rect x="107" y="147" width="1" height="1" /><rect x="106" y="148" width="1" height="1" /><rect x="107" y="148" width="1" height="1" /><rect x="108" y="148" width="1" height="1" /><rect x="95" y="151" width="1" height="9" /><rect x="95" y="151" width="8" height="1" /><rect x="95" y="159" width="9" height="1" /><rect x="99" y="155" width="1" height="1" /><rect x="98" y="156" width="1" height="1" /><rect x="99" y="156" width="1" height="1" /><rect x="100" y="156" width="1" height="1" /><rect x="103" y="159" width="9" height="1" /><rect x="107" y="155" width="1" height="1" /><rect x="106" y="156" width="1" height="1" /><rect x="107" y="156" width="1" height="1" /><rect x="108" y="156" width="1" height="1" /><rect x="119" y="151" width="1" height="8" /><rect x="111" y="151" width="8" height="1" /><rect x="111" y="159" width="9" height="1" /><rect x="115" y="155" width="1" height="1" /><rect x="114" y="156" width="1" height="1" /><rect x="115" y="156" width="1" height="1" /><rect x="116" y="156" width="1" height="1" /><rect x="167" y="127" width="1" height="40" /><rect x="127" y="127" width="40" height="1" /><rect x="127" y="167" width="41" height="1" /><rect x="143" y="143" width="1" height="9" /><rect x="151" y="143" width="1" height="8" /><rect x="143" y="143" width="8" height="1" /><rect x="147" y="147" width="1" height="1" /><rect x="146" y="148" width="1" height="1" /><rect x="147" y="148" width="1" height="1" /><rect x="148" y="148" width="1" height="1" /><rect x="135" y="151" width="1" height="9" /><rect x="135" y="151" width="8" height="1" /><rect x="135" y="159" width="9" height="1" /><rect x="139" y="155" width="1" height="1" /><rect x="138" y="156" width="1" height="1" /><rect x="139" y="156" width="1" height="1" /><rect x="140" y="156" width="1" height="1" /><rect x="143" y="159" width="9" height="1" /><rect x="147" y="155" width="1" height="1" /><rect x="146" y="156" width="1" height="1" /><rect x="147" y="156" width="1" height="1" /><rect x="148" y="156" width="1" height="1" /><rect x="159" y="151" width="1" height="8" /><rect x="151" y="151" width="8" height="1" /><rect x="151" y="159" width="9" height="1" /><rect x="155" y="155" width="1" height="1" /><rect x="154" y="156" width="1" height="1" /><rect x="155" y="156" width="1" height="1" /><rect x="156" y="156" width="1" height="1" /></svg>