<?xml version="1.0" encoding="utf-8"?><svg xmlns="http://www.w3.org/2000/svg" xmlns:xlink="http://www.w3.org/1999/xlink" width="208" height="208"><rect x="47" y="87" width="1" height="41" /><rect x="47" y="87" width="40" height="1" /><rect x="47" y="127" width="41" height="1" /><rect x="55" y="103" width="1" height="9" /><rect x="55" y="103" width="8" height="1" /><rect x="55" y="111" width="9" height="1" /><rect x="58" y="107" width="1" height="1" /><rect x="59" y="107" width="1" height="1" /><rect x="60" y="107" width="1" height="1" /><rect x="63" y="103" width="8" height="1" /><rect x="63" y="111" width="9" height="1" /><rect x="66" y="107" width="1" height="1" /><rect x="67" y="107" width="1" height="1" /><rect x="68" y="107" width="1" height="1" /><rect x="79" y="103" width="1" height="8" /><rect x="71" y="103" width="8" height="1" /><rect x="71" y="111" width="9" height="1" /><rect x="74" y="107" width="1" height="1" /><rect x="75" y="107" width="1" height="1" /><rect x="76" y="107" width="1" height="1" /><rect x="87" y="87" width="40" height="1" /><rect x="87" y="127" width="41" height="1" /><rect x="95" y="103" width="1" height="9" /><rect x="95" y="103" width="8" height="1" /><rect x="95" y="111" width="9" height="1" /><rect x="98" y="107" width="1" height="1" /><rect x="99" y="107" width="1" height="1" /><rect x="100" y="107" width="1" height="1" /><rect x="103" y="103" width="8" height="1" /><rect x="103" y="111" width="9" height="1" /><rect x="106" y="107" width="1" height="1" /><rect x="107" y="107" width="1" height="1" /><rect x="108" y="107" width="1" height="1" /><rect x="119" y="103" width="1" height="8" /><rect x="111" y="103" width="8" height="1" /><rect x="111" y="111" width="9" height="1" /><rect x="114" y="107" width="1" height="1" /><rect x="115" y="107" width="1" height="1" /><rect x="116" y="107" width="1" height="1" /><rect x="167" y="87" width="1" height="40" /><rect x="127" y="87" width="40" height="1" /><rect x="127" y="127" width="41" height="1" /><rect x="135" y="103" width="1" height="9" /><rect x="135" y="103" width="8" height="1" /><rect x="135" y="111" width="9" height="1" /><rect x="138" y="107" width="1" height="1" /><rect x="139" y="107" width="1" height="1" /><rect x="140" y="107" width="1" height="1" /><rect x="143" y="103" width="8" height="1" /><rect x="143" y="111" width="9" height="1" /><rect x="146" y="107" width="1" height="1" /><rect x="147" y="107" width="1" height="1" /><rect x="148" y="107" width="1" height="1" /><rect x="159" y="103" width="1" height="8" /><rect x="151" y="103" width="8" height="1" /><rect x="151" y="111" width="9" height="1" /><rect x="154" y="107" width="1" height="1" /><rect x="155" y="107" width="1" height="1" /><rect x="156" y="107" width="1" height="1" /></svg>