<?xml version="1.0" encoding="utf-8"?><svg xmlns="http://www.w3.org/2000/svg" xmlns:xlink="http://www.w3.org/1999/xlink" width="48" height="48"><rect x="0" y="0" width="100%" height="100%" fill="#ffffff" /><rect x="7" y="7" width="1" height="9" /><rect x="7" y="7" width="8" height="1" /><rect x="7" y="15" width="9" height="1" /><rect x="9" y="9" width="1" height="1" /><rect x="10" y="9" width="1" height="1" /><rect x="11" y="9" width="1" height="1" /><rect x="12" y="9" width="1" height="1" /><rect x="13" y="9" width="1" height="1" /><rect x="9" y="11" width="1" height="1" /><rect x="10" y="11" width="1" height="1" /><rect x="12" y="11" width="1" height="1" /><rect x="13" y="11" width="1" height="1" /><rect x="9" y="13" width="1" height="1" /><rect x="10" y="13" width="1" height="1" /><rect x="11" y="13" width="1" height="1" /><rect x="12" y="13" width="1" height="1" /><rect x="13" y="13" width="1" height="1" /><rect x="15" y="7" width="8" height="1" /><rect x="15" y="15" width="9" height="1" /><rect x="17" y="9" width="1" height="1" /><rect x="18" y="9" width="1" height="1" /><rect x="19" y="9" width="1" height="1" /><rect x="20" y="9" width="1" height="1" /><rect x="21" y="9" width="1" height="1" /><rect x="17" y="11" width="1" height="1" /><rect x="18" y="11" width="1" height="1" /><rect x="20" y="11" width="1" height="1" /><rect x="21" y="11" width="1" height="1" /><rect x="17" y="13" width="1" height="1" /><rect x="18" y="13" width="1" height="1" /><rect x="19" y="13" width="1" height="1" /><rect x="20" y="13" width="1" height="1" /><rect x="21" y="13" width="1" height="1" /><rect x="23" y="7" width="8" height="1" /><rect x="23" y="15" width="9" height="1" /><rect x="25" y="9" width="1" height="1" /><rect x="26" y="9" width="1" height="1" /><rect x="27" y="9" width="1" height="1" /><rect x="28" y="9" width="1" height="1" /><rect x="29" y="9" width="1" height="1" /><rect x="25" y="11" width="1" height="1" /><rect x="26" y="11" width="1" height="1" /><rect x="28" y="11" width="1" height="1" /><rect x="29" y="11" width="1" height="1" /><rect x="25" y="13" width="1" height="1" /><rect x="26" y="13" width="1" height="1" /><rect x="27" y="13" width="1" height="1" /><rect x="28" y="13" width="1" height="1" /><rect x="29" y="13" width="1" height="1" /><rect x="31" y="7" width="8" height="1" /><rect x="31" y="15" width="9" height="1" /><rect x="33" y="9" width="1" height="1" /><rect x="34" y="9" width="1" height="1" /><rect x="35" y="9" width="1" height="1" /><rect x="36" y="9" width="1" height="1" /><rect x="37" y="9" width="1" height="1" /><rect x="33" y="11" width="1" height="1" /><rect x="34" y="11" width="1" height="1" /><rect x="36" y="11" width="1" height="1" /><rect x="37" y="11" width="1" height="1" /><rect x="33" y="13" width="1" height="1" /><rect x="34" y="13" width="1" height="1" /><rect x="35" y="13" width="1" height="1" /><rect x="36" y="13" width="1" height="1" /><rect x="37" y="13" width="1" height="1" /><rect x="47" y="7" width="1" height="8" /><rect x="39" y="7" width="8" height="1" /><rect x="39" y="15" width="9" height="1" /><rect x="41" y="9" width="1" height="1" /><rect x="42" y="9" width="1" height="1" /><rect x="43" y="9" width="1" height="1" /><rect x="44" y="9" width="1" height="1" /><rect x="45" y="9" width="1" height="1" /><rect x="41" y="11" width="1" height="1" /><rect x="42" y="11" width="1" height="1" /><rect x="44" y="11" width="1" height="1" /><rect x="45" y="11" width="1" height="1" /><rect x="41" y="13" width="1" height="1" /><rect x="42" y="13" width="1" height="1" /><rect x="43" y="13" width="1" height="1" /><rect x="44" y="13" width="1" height="1" /><rect x="45" y="13" width="1" height="1" /><rect x="7" y="23" width="1" height="9" /><rect x="7" y="23" width="8" height="1" /><rect x="7" y="31" width="9" height="1" /><rect x="9" y="25" width="1" height="1" /><rect x="10" y="25" width="1" height="1" /><rect x="11" y="25" width="1" height="1" /><rect x="12" y="25" width="1" height="1" /><rect x="13" y="25" width="1" height="1" /><rect x="9" y="27" width="1" height="1" /><rect x="10" y="27" width="1" height="1" /><rect x="12" y="27" width="1" height="1" /><rect x="13" y="27" width="1" height="1" /><rect x="9" y="29" width="1" height="1" /><rect x="10" y="29" width="1" height="1" /><rect x="11" y="29" width="1" height="1" /><rect x="12" y="29" width="1" height="1" /><rect x="13" y="29" width="1" height="1" /><rect x="23" y="23" width="1" height="8" /><rect x="15" y="23" width="8" height="1" /><rect x="15" y="31" width="9" height="1" /><rect x="17" y="25" width="1" height="1" /><rect x="18" y="25" width="1" height="1" /><rect x="19" y="25" width="1" height="1" /><rect x="20" y="25" width="1" height="1" /><rect x="21" y="25" width="1" height="1" /><rect x="17" y="27" width="1" height="1" /><rect x="18" y="27" width="1" height="1" /><rect x="20" y="27" width="1" height="1" /><rect x="21" y="27" width="1" height="1" /><rect x="17" y="29" width="1" height="1" /><rect x="18" y="29" width="1" height="1" /><rect x="19" y="29" width="1" height="1" /><rect x="20" y="29" width="1" height="1" /><rect x="21" y="29" width="1" height="1" /><rect x="31" y="23" width="1" height="9" /><rect x="31" y="23" width="8" height="1" /><rect x="31" y="31" width="9" height="1" /><rect x="33" y="25" width="1" height="1" /><rect x="34" y="25" width="1" height="1" /><rect x="35" y="25" width="1" height="1" /><rect x="36" y="25" width="1" height="1" /><rect x="37" y="25" width="1" height="1" /><rect x="33" y="27" width="1" height="1" /><rect x="34" y="27" width="1" height="1" /><rect x="36" y="27" width="1" height="1" /><rect x="37" y="27" width="1" height="1" /><rect x="33" y="29" width="1" height="1" /><rect x="34" y="29" width="1" height="1" /><rect x="35" y="29" width="1" height="1" /><rect x="36" y="29" width="1" height="1" /><rect x="37" y="29" width="1" height="1" /><rect x="47" y="23" width="1" height="8" /><rect x="39" y="23" width="8" height="1" /><rect x="39" y="31" width="9" height="1" /><rect x="41" y="25" width="1" height="1" /><rect x="42" y="25" width="1" height="1" /><rect x="43" y="25" width="1" height="1" /><rect x="44" y="25" width="1" height="1" /><rect x="45" y="25" width="1" height="1" /><rect x="41" y="27" width="1" height="1" /><rect x="42" y="27" width="1" height="1" /><rect x="44" y="27" width="1" height="1" /><rect x="45" y="27" width="1" height="1" /><rect x="41" y="29" width="1" height="1" /><rect x="42" y="29" width="1" height="1" /><rect x="43" y="29" width="1" height="1" /><rect x="44" y="29" width="1" height="1" /><rect x="45" y="29" width="1" height="1" /><rect x="7" y="39" width="1" height="9" /><rect x="7" y="39" width="8" height="1" /><rect x="7" y="47" width="9" height="1" /><rect x="9" y="41" width="1" height="1" /><rect x="10" y="41" width="1" height="1" /><rect x="11" y="41" width="1" height="1" /><rect x="12" y="41" width="1" height="1" /><rect x="13" y="41" width="1" height="1" /><rect x="9" y="43" width="1" height="1" /><rect x="10" y="43" width="1" height="1" /><rect x="12" y="43" width="1" height="1" /><rect x="13" y="43" width="1" height="1" /><rect x="9" y="45" width="1" height="1" /><rect x="10" y="45" width="1" height="1" /><rect x="11" y="45" width="1" height="1" /><rect x="12" y="45" width="1" height="1" /><rect x="13" y="45" width="1" height="1" /><rect x="15" y="39" width="8" height="1" /><rect x="15" y="47" width="9" height="1" /><rect x="17" y="41" width="1" height="1" /><rect x="18" y="41" width="1" height="1" /><rect x="19" y="41" width="1" height="1" /><rect x="20" y="41" width="1" height="1" /><rect x="21" y="41" width="1" height="1" /><rect x="17" y="43" width="1" height="1" /><rect x="18" y="43" width="1" height="1" /><rect x="20" y="43" width="1" height="1" /><rect x="21" y="43" width="1" height="1" /><rect x="17" y="45" width="1" height="1" /><rect x="18" y="45" width="1" height="1" /><rect x="19" y="45" width="1" height="1" /><rect x="20" y="45" width="1" height="1" /><rect x="21" y="45" width="1" height="1" /><rect x="23" y="39" width="8" height="1" /><rect x="23" y="47" width="9" height="1" /><rect x="25" y="41" width="1" height="1" /><rect x="26" y="41" width="1" height="1" /><rect x="27" y="41" width="1" height="1" /><rect x="28" y="41" width="1" height="1" /><rect x="29" y="41" width="1" height="1" /><rect x="25" y="43" width="1" height="1" /><rect x="26" y="43" width="1" height="1" /><rect x="28" y="43" width="1" height="1" /><rect x="29" y="43" width="1" height="1" /><rect x="25" y="45" width="1" height="1" /><rect x="26" y="45" width="1" height="1" /><rect x="27" y="45" width="1" height="1" /><rect x="28" y="45" width="1" height="1" /><rect x="29" y="45" width="1" height="1" /><rect x="31" y="39" width="8" height="1" /><rect x="31" y="47" width="9" height="1" /><rect x="33" y="41" width="1" height="1" /><rect x="34" y="41" width="1" height="1" /><rect x="35" y="41" width="1" height="1" /><rect x="36" y="41" width="1" height="1" /><rect x="37" y="41" width="1" height="1" /><rect x="33" y="43" width="1" height="1" /><rect x="34" y="43" width="1" height="1" /><rect x="36" y="43" width="1" height="1" /><rect x="37" y="43" width="1" height="1" /><rect x="33" y="45" width="1" height="1" /><rect x="34" y="45" width="1" height="1" /><rect x="35" y="45" width="1" height="1" /><rect x="36" y="45" width="1" height="1" /><rect x="37" y="45" width="1" height="1" /><rect x="47" y="39" width="1" height="8" /><rect x="39" y="39" width="8" height="1" /><rect x="39" y="47" width="9" height="1" /><rect x="41" y="41" width="1" height="1" /><rect x="42" y="41" width="1" height="1" /><rect x="43" y="41" width="1" height="1" /><rect x="44" y="41" width="1" height="1" /><rect x="45" y="41" width="1" height="1" /><rect x="41" y="43" width="1" height="1" /><rect x="42" y="43" width="1" height="1" /><rect x="44" y="43" width="1" height="1" /><rect x="45" y="43" width="1" height="1" /><rect x="41" y="45" width="1" height="1" /><rect x="42" y="45" width="1" height="1" /><rect x="43" y="45" width="1" height="1" /><rect x="44" y="45" width="1" height="1" /><rect x="45" y="45" width="1" height="1" /></svg>