<?xml version="1.0" encoding="utf-8"?><svg xmlns="http://www.w3.org/2000/svg" xmlns:xlink="http://www.w3.org/1999/xlink" width="208" height="208"><rect x="0" y="0" width="100%" height="100%" fill="#ffffff" /><rect x="47" y="7" width="1" height="41" /><rect x="87" y="7" width="1" height="40" /><rect x="47" y="7" width="40" height="1" /><rect x="55" y="7" width="1" height="9" /><rect x="63" y="7" width="1" height="8" /><rect x="55" y="7" width="8" height="1" /><rect x="58" y="9" width="1" height="1" /><rect x="58" y="10" width="1" height="1" /><rect x="59" y="10" width="1" height="1" /><rect x="58" y="11" width="1" height="1" /><rect x="59" y="11" width="1" height="1" /><rect x="60" y="11" width="1" height="1" /><rect x="58" y="12" width="1" height="1" /><rect x="59" y="12" width="1" height="1" /><rect x="58" y="13" width="1" height="1" /><rect x="55" y="15" width="1" height="9" /><rect x="58" y="17" width="1" height="1" /><rect x="58" y="18" width="1" height="1" /><rect x="59" y="18" width="1" height="1" /><rect x="58" y="19" width="1" height="1" /><rect x="59" y="19" width="1" height="1" /><rect x="60" y="19" width="1" height="1" /><rect x="58" y="20" width="1" height="1" /><rect x="59" y="20" width="1" height="1" /><rect x="58" y="21" width="1" height="1" /><rect x="71" y="15" width="1" height="8" /><rect x="63" y="15" width="8" height="1" /><rect x="66" y="17" width="1" height="1" /><rect x="66" y="18" width="1" height="1" /><rect x="67" y="18" width="1" height="1" /><rect x="66" y="19" width="1" height="1" /><rect x="67" y="19" width="1" height="1" /><rect x="68" y="19" width="1" height="1" /><rect x="66" y="20" width="1" height="1" /><rect x="67" y="20" width="1" height="1" /><rect x="66" y="21" width="1" height="1" /><rect x="55" y="23" width="1" height="9" /><rect x="58" y="25" width="1" height="1" /><rect x="58" y="26" width="1" height="1" /><rect x="59" y="26" width="1" height="1" /><rect x="58" y="27" width="1" height="1" /><rect x="59" y="27" width="1" height="1" /><rect x="60" y="27" width="1" height="1" /><rect x="58" y="28" width="1" height="1" /><rect x="59" y="28" width="1" height="1" /><rect x="58" y="29" width="1" height="1" /><rect x="66" y="25" width="1" height="1" /><rect x="66" y="26" width="1" height="1" /><rect x="67" y="26" width="1" height="1" /><rect x="66" y="27" width="1" height="1" /><rect x="67" y="27" width="1" height="1" /><rect x="68" y="27" width="1" height="1" /><rect x="66" y="28" width="1" height="1" /><rect x="67" y="28" width="1" height="1" /><rect x="66" y="29" width="1" height="1" /><rect x="79" y="23" width="1" height="8" /><rect x="71" y="23" width="8" height="1" /><rect x="71" y="31" width="9" height="1" /><rect x="74" y="25" width="1" height="1" /><rect x="74" y="26" width="1" height="1" /><rect x="75" y="26" width="1" height="1" /><rect x="74" y="27" width="1" height="1" /><rect x="75" y="27" width="1" height="1" /><rect x="76" y="27" width="1" height="1" /><rect x="74" y="28" width="1" height="1" /><rect x="75" y="28" width="1" height="1" /><rect x="74" y="29" width="1" height="1" /><rect x="55" y="31" width="1" height="9" /><rect x="58" y="33" width="1" height="1" /><rect x="58" y="34" width="1" height="1" /><rect x="59" y="34" width="1" height="1" /><rect x="58" y="35" width="1" height="1" /><rect x="59" y="35" width="1" height="1" /><rect x="60" y="35" width="1" height="1" /><rect x="58" y="36" width="1" height="1" /><rect x="59" y="36" width="1" height="1" /><rect x="58" y="37" width="1" height="1" /><rect x="71" y="31" width="1" height="8" /><rect x="63" y="39" width="9" height="1" /><rect x="66" y="33" width="1" height="1" /><rect x="66" y="34" width="1" height="1" /><rect x="67" y="34" width="1" height="1" /><rect x="66" y="35" width="1" height="1" /><rect x="67" y="35" width="1" height="1" /><rect x="68" y="35" width="1" height="1" /><rect x="66" y="36" width="1" height="1" /><rect x="67" y="36" width="1" height="1" /><rect x="66" y="37" width="1" height="1" /><rect x="55" y="39" width="1" height="9" /><rect x="63" y="39" width="1" height="8" /><rect x="55" y="47" width="9" height="1" /><rect x="58" y="41" width="1" height="1" /><rect x="58" y="42" width="1" height="1" /><rect x="59" y="42" width="1" height="1" /><rect x="58" y="43" width="1" height="1" /><rect x="59" y="43" width="1" height="1" /><rect x="60" y="43" width="1" height="1" /><rect x="58" y="44" width="1" height="1" /><rect x="59" y="44" width="1" height="1" /><rect x="58" y="45" width="1" height="1" /><rect x="47" y="47" width="1" height="41" /><rect x="55" y="47" width="1" height="9" /><rect x="63" y="47" width="1" height="8" /><rect x="55" y="47" width="8" height="1" /><rect x="58" y="49" width="1" height="1" /><rect x="58" y="50" width="1" height="1" /><rect x="59" y="50" width="1" height="1" /><rect x="58" y="51" width="1" height="1" /><rect x="59" y="51" width="1" height="1" /><rect x="60" y="51" width="1" height="1" /><rect x="58" y="52" width="1" height="1" /><rect x="59" y="52" width="1" height="1" /><rect x="58" y="53" width="1" height="1" /><rect x="55" y="55" width="1" height="9" /><rect x="58" y="57" width="1" height="1" /><rect x="58" y="58" width="1" height="1" /><rect x="59" y="58" width="1" height="1" /><rect x="58" y="59" width="1" height="1" /><rect x="59" y="59" width="1" height="1" /><rect x="60" y="59" width="1" height="1" /><rect x="58" y="60" width="1" height="1" /><rect x="59" y="60" width="1" height="1" /><rect x="58" y="61" width="1" height="1" /><rect x="71" y="55" width="1" height="8" /><rect x="63" y="55" width="8" height="1" /><rect x="66" y="57" width="1" height="1" /><rect x="66" y="58" width="1" height="1" /><rect x="67" y="58" width="1" height="1" /><rect x="66" y="59" width="1" height="1" /><rect x="67" y="59" width="1" height="1" /><rect x="68" y="59" width="1" height="1" /><rect x="66" y="60" width="1" height="1" /><rect x="67" y="60" width="1" height="1" /><rect x="66" y="61" width="1" height="1" /><rect x="55" y="63" width="1" height="9" /><rect x="58" y="65" width="1" height="1" /><rect x="58" y="66" width="1" height="1" /><rect x="59" y="66" width="1" height="1" /><rect x="58" y="67" width="1" height="1" /><rect x="59" y="67" width="1" height="1" /><rect x="60" y="67" width="1" height="1" /><rect x="58" y="68" width="1" height="1" /><rect x="59" y="68" width="1" height="1" /><rect x="58" y="69" width="1" height="1" /><rect x="66" y="65" width="1" height="1" /><rect x="66" y="66" width="1" height="1" /><rect x="67" y="66" width="1" height="1" /><rect x="66" y="67" width="1" height="1" /><rect x="67" y="67" width="1" height="1" /><rect x="68" y="67" width="1" height="1" /><rect x="66" y="68" width="1" height="1" /><rect x="67" y="68" width="1" height="1" /><rect x="66" y="69" width="1" height="1" /><rect x="79" y="63" width="1" height="8" /><rect x="71" y="63" width="8" height="1" /><rect x="71" y="71" width="9" height="1" /><rect x="74" y="65" width="1" height="1" /><rect x="74" y="66" width="1" height="1" /><rect x="75" y="66" width="1" height="1" /><rect x="74" y="67" width="1" height="1" /><rect x="75" y="67" width="1" height="1" /><rect x="76" y="67" width="1" height="1" /><rect x="74" y="68" width="1" height="1" /><rect x="75" y="68" width="1" height="1" /><rect x="74" y="69" width="1" height="1" /><rect x="55" y="71" width="1" height="9" /><rect x="58" y="73" width="1" height="1" /><rect x="58" y="74" width="1" height="1" /><rect x="59" y="74" width="1" height="1" /><rect x="58" y="75" width="1" height="1" /><rect x="59" y="75" width="1" height="1" /><rect x="60" y="75" width="1" height="1" /><rect x="58" y="76" width="1" height="1" /><rect x="59" y="76" width="1" height="1" /><rect x="58" y="77" width="1" height="1" /><rect x="71" y="71" width="1" height="8" /><rect x="63" y="79" width="9" height="1" /><rect x="66" y="73" width="1" height="1" /><rect x="66" y="74" width="1" height="1" /><rect x="67" y="74" width="1" height="1" /><rect x="66" y="75" width="1" height="1" /><rect x="67" y="75" width="1" height="1" /><rect x="68" y="75" width="1" height="1" /><rect x="66" y="76" width="1" height="1" /><rect x="67" y="76" width="1" height="1" /><rect x="66" y="77" width="1" height="1" /><rect x="55" y="79" width="1" height="9" /><rect x="63" y="79" width="1" height="8" /><rect x="55" y="87" width="9" height="1" /><rect x="58" y="81" width="1" height="1" /><rect x="58" y="82" width="1" height="1" /><rect x="59" y="82" width="1" height="1" /><rect x="58" y="83" width="1" height="1" /><rect x="59" y="83" width="1" height="1" /><rect x="60" y="83" width="1" height="1" /><rect x="58" y="84" width="1" height="1" /><rect x="59" y="84" width="1" height="1" /><rect x="58" y="85" width="1" height="1" /><rect x="127" y="47" width="1" height="40" /><rect x="87" y="47" width="40" height="1" /><rect x="95" y="47" width="1" height="9" /><rect x="103" y="47" width="1" height="8" /><rect x="95" y="47" width="8" height="1" /><rect x="98" y="49" width="1" height="1" /><rect x="98" y="50" width="1" height="1" /><rect x="99" y="50" width="1" height="1" /><rect x="98" y="51" width="1" height="1" /><rect x="99" y="51" width="1" height="1" /><rect x="100" y="51" width="1" height="1" /><rect x="98" y="52" width="1" height="1" /><rect x="99" y="52" width="1" height="1" /><rect x="98" y="53" width="1" height="1" /><rect x="95" y="55" width="1" height="9" /><rect x="98" y="57" width="1" height="1" /><rect x="98" y="58" width="1" height="1" /><rect x="99" y="58" width="1" height="1" /><rect x="98" y="59" width="1" height="1" /><rect x="99" y="59" width="1" height="1" /><rect x="100" y="59" width="1" height="1" /><rect x="98" y="60" width="1" height="1" /><rect x="99" y="60" width="1" height="1" /><rect x="98" y="61" width="1" height="1" /><rect x="111" y="55" width="1" height="8" /><rect x="103" y="55" width="8" height="1" /><rect x="106" y="57" width="1" height="1" /><rect x="106" y="58" width="1" height="1" /><rect x="107" y="58" width="1" height="1" /><rect x="106" y="59" width="1" height="1" /><rect x="107" y="59" width="1" height="1" /><rect x="108" y="59" width="1" height="1" /><rect x="106" y="60" width="1" height="1" /><rect x="107" y="60" width="1" height="1" /><rect x="106" y="61" width="1" height="1" /><rect x="95" y="63" width="1" height="9" /><rect x="98" y="65" width="1" height="1" /><rect x="98" y="66" width="1" height="1" /><rect x="99" y="66" width="1" height="1" /><rect x="98" y="67" width="1" height="1" /><rect x="99" y="67" width="1" height="1" /><rect x="100" y="67" width="1" height="1" /><rect x="98" y="68" width="1" height="1" /><rect x="99" y="68" width="1" height="1" /><rect x="98" y="69" width="1" height="1" /><rect x="106" y="65" width="1" height="1" /><rect x="106" y="66" width="1" height="1" /><rect x="107" y="66" width="1" height="1" /><rect x="106" y="67" width="1" height="1" /><rect x="107" y="67" width="1" height="1" /><rect x="108" y="67" width="1" height="1" /><rect x="106" y="68" width="1" height="1" /><rect x="107" y="68" width="1" height="1" /><rect x="106" y="69" width="1" height="1" /><rect x="119" y="63" width="1" height="8" /><rect x="111" y="63" width="8" height="1" /><rect x="111" y="71" width="9" height="1" /><rect x="114" y="65" width="1" height="1" /><rect x="114" y="66" width="1" height="1" /><rect x="115" y="66" width="1" height="1" /><rect x="114" y="67" width="1" height="1" /><rect x="115" y="67" width="1" height="1" /><rect x="116" y="67" width="1" height="1" /><rect x="114" y="68" width="1" height="1" /><rect x="115" y="68" width="1" height="1" /><rect x="114" y="69" width="1" height="1" /><rect x="95" y="71" width="1" height="9" /><rect x="98" y="73" width="1" height="1" /><rect x="98" y="74" width="1" height="1" /><rect x="99" y="74" width="1" height="1" /><rect x="98" y="75" width="1" height="1" /><rect x="99" y="75" width="1" height="1" /><rect x="100" y="75" width="1" height="1" /><rect x="98" y="76" width="1" height="1" /><rect x="99" y="76" width="1" height="1" /><rect x="98" y="77" width="1" height="1" /><rect x="111" y="71" width="1" height="8" /><rect x="103" y="79" width="9" height="1" /><rect x="106" y="73" width="1" height="1" /><rect x="106" y="74" width="1" height="1" /><rect x="107" y="74" width="1" height="1" /><rect x="106" y="75" width="1" height="1" /><rect x="107" y="75" width="1" height="1" /><rect x="108" y="75" width="1" height="1" /><rect x="106" y="76" width="1" height="1" /><rect x="107" y="76" width="1" height="1" /><rect x="106" y="77" width="1" height="1" /><rect x="95" y="79" width="1" height="9" /><rect x="103" y="79" width="1" height="8" /><rect x="95" y="87" width="9" height="1" /><rect x="98" y="81" width="1" height="1" /><rect x="98" y="82" width="1" height="1" /><rect x="99" y="82" width="1" height="1" /><rect x="98" y="83" width="1" height="1" /><rect x="99" y="83" width="1" height="1" /><rect x="100" y="83" width="1" height="1" /><rect x="98" y="84" width="1" height="1" /><rect x="99" y="84" width="1" height="1" /><rect x="98" y="85" width="1" height="1" /><rect x="47" y="87" width="1" height="41" /><rect x="55" y="87" width="1" height="9" /><rect x="63" y="87" width="1" height="8" /><rect x="55" y="87" width="8" height="1" /><rect x="58" y="89" width="1" height="1" /><rect x="58" y="90" width="1" height="1" /><rect x="59" y="90" width="1" height="1" /><rect x="58" y="91" width="1" height="1" /><rect x="59" y="91" width="1" height="1" /><rect x="60" y="91" width="1" height="1" /><rect x="58" y="92" width="1" height="1" /><rect x="59" y="92" width="1" height="1" /><rect x="58" y="93" width="1" height="1" /><rect x="55" y="95" width="1" height="9" /><rect x="58" y="97" width="1" height="1" /><rect x="58" y="98" width="1" height="1" /><rect x="59" y="98" width="1" height="1" /><rect x="58" y="99" width="1" height="1" /><rect x="59" y="99" width="1" height="1" /><rect x="60" y="99" width="1" height="1" /><rect x="58" y="100" width="1" height="1" /><rect x="59" y="100" width="1" height="1" /><rect x="58" y="101" width="1" height="1" /><rect x="71" y="95" width="1" height="8" /><rect x="63" y="95" width="8" height="1" /><rect x="66" y="97" width="1" height="1" /><rect x="66" y="98" width="1" height="1" /><rect x="67" y="98" width="1" height="1" /><rect x="66" y="99" width="1" height="1" /><rect x="67" y="99" width="1" height="1" /><rect x="68" y="99" width="1" height="1" /><rect x="66" y="100" width="1" height="1" /><rect x="67" y="100" width="1" height="1" /><rect x="66" y="101" width="1" height="1" /><rect x="55" y="103" width="1" height="9" /><rect x="58" y="105" width="1" height="1" /><rect x="58" y="106" width="1" height="1" /><rect x="59" y="106" width="1" height="1" /><rect x="58" y="107" width="1" height="1" /><rect x="59" y="107" width="1" height="1" /><rect x="60" y="107" width="1" height="1" /><rect x="58" y="108" width="1" height="1" /><rect x="59" y="108" width="1" height="1" /><rect x="58" y="109" width="1" height="1" /><rect x="66" y="105" width="1" height="1" /><rect x="66" y="106" width="1" height="1" /><rect x="67" y="106" width="1" height="1" /><rect x="66" y="107" width="1" height="1" /><rect x="67" y="107" width="1" height="1" /><rect x="68" y="107" width="1" height="1" /><rect x="66" y="108" width="1" height="1" /><rect x="67" y="108" width="1" height="1" /><rect x="66" y="109" width="1" height="1" /><rect x="79" y="103" width="1" height="8" /><rect x="71" y="103" width="8" height="1" /><rect x="71" y="111" width="9" height="1" /><rect x="74" y="105" width="1" height="1" /><rect x="74" y="106" width="1" height="1" /><rect x="75" y="106" width="1" height="1" /><rect x="74" y="107" width="1" height="1" /><rect x="75" y="107" width="1" height="1" /><rect x="76" y="107" width="1" height="1" /><rect x="74" y="108" width="1" height="1" /><rect x="75" y="108" width="1" height="1" /><rect x="74" y="109" width="1" height="1" /><rect x="55" y="111" width="1" height="9" /><rect x="58" y="113" width="1" height="1" /><rect x="58" y="114" width="1" height="1" /><rect x="59" y="114" width="1" height="1" /><rect x="58" y="115" width="1" height="1" /><rect x="59" y="115" width="1" height="1" /><rect x="60" y="115" width="1" height="1" /><rect x="58" y="116" width="1" height="1" /><rect x="59" y="116" width="1" height="1" /><rect x="58" y="117" width="1" height="1" /><rect x="71" y="111" width="1" height="8" /><rect x="63" y="119" width="9" height="1" /><rect x="66" y="113" width="1" height="1" /><rect x="66" y="114" width="1" height="1" /><rect x="67" y="114" width="1" height="1" /><rect x="66" y="115" width="1" height="1" /><rect x="67" y="115" width="1" height="1" /><rect x="68" y="115" width="1" height="1" /><rect x="66" y="116" width="1" height="1" /><rect x="67" y="116" width="1" height="1" /><rect x="66" y="117" width="1" height="1" /><rect x="55" y="119" width="1" height="9" /><rect x="63" y="119" width="1" height="8" /><rect x="55" y="127" width="9" height="1" /><rect x="58" y="121" width="1" height="1" /><rect x="58" y="122" width="1" height="1" /><rect x="59" y="122" width="1" height="1" /><rect x="58" y="123" width="1" height="1" /><rect x="59" y="123" width="1" height="1" /><rect x="60" y="123" width="1" height="1" /><rect x="58" y="124" width="1" height="1" /><rect x="59" y="124" width="1" height="1" /><rect x="58" y="125" width="1" height="1" /><rect x="95" y="87" width="1" height="9" /><rect x="103" y="87" width="1" height="8" /><rect x="95" y="87" width="8" height="1" /><rect x="98" y="89" width="1" height="1" /><rect x="98" y="90" width="1" height="1" /><rect x="99" y="90" width="1" height="1" /><rect x="98" y="91" width="1" height="1" /><rect x="99" y="91" width="1" height="1" /><rect x="100" y="91" width="1" height="1" /><rect x="98" y="92" width="1" height="1" /><rect x="99" y="92" width="1" height="1" /><rect x="98" y="93" width="1" height="1" /><rect x="95" y="95" width="1" height="9" /><rect x="98" y="97" width="1" height="1" /><rect x="98" y="98" width="1" height="1" /><rect x="99" y="98" width="1" height="1" /><rect x="98" y="99" width="1" height="1" /><rect x="99" y="99" width="1" height="1" /><rect x="100" y="99" width="1" height="1" /><rect x="98" y="100" width="1" height="1" /><rect x="99" y="100" width="1" height="1" /><rect x="98" y="101" width="1" height="1" /><rect x="111" y="95" width="1" height="8" /><rect x="103" y="95" width="8" height="1" /><rect x="106" y="97" width="1" height="1" /><rect x="106" y="98" width="1" height="1" /><rect x="107" y="98" width="1" height="1" /><rect x="106" y="99" width="1" height="1" /><rect x="107" y="99" width="1" height="1" /><rect x="108" y="99" width="1" height="1" /><rect x="106" y="100" width="1" height="1" /><rect x="107" y="100" width="1" height="1" /><rect x="106" y="101" width="1" height="1" /><rect x="95" y="103" width="1" height="9" /><rect x="98" y="105" width="1" height="1" /><rect x="98" y="106" width="1" height="1" /><rect x="99" y="106" width="1" height="1" /><rect x="98" y="107" width="1" height="1" /><rect x="99" y="107" width="1" height="1" /><rect x="100" y="107" width="1" height="1" /><rect x="98" y="108" width="1" height="1" /><rect x="99" y="108" width="1" height="1" /><rect x="98" y="109" width="1" height="1" /><rect x="106" y="105" width="1" height="1" /><rect x="106" y="106" width="1" height="1" /><rect x="107" y="106" width="1" height="1" /><rect x="106" y="107" width="1" height="1" /><rect x="107" y="107" width="1" height="1" /><rect x="108" y="107" width="1" height="1" /><rect x="106" y="108" width="1" height="1" /><rect x="107" y="108" width="1" height="1" /><rect x="106" y="109" width="1" height="1" /><rect x="119" y="103" width="1" height="8" /><rect x="111" y="103" width="8" height="1" /><rect x="111" y="111" width="9" height="1" /><rect x="114" y="105" width="1" height="1" /><rect x="114" y="106" width="1" height="1" /><rect x="115" y="106" width="1" height="1" /><rect x="114" y="107" width="1" height="1" /><rect x="115" y="107" width="1" height="1" /><rect x="116" y="107" width="1" height="1" /><rect x="114" y="108" width="1" height="1" /><rect x="115" y="108" width="1" height="1" /><rect x="114" y="109" width="1" height="1" /><rect x="95" y="111" width="1" height="9" /><rect x="98" y="113" width="1" height="1" /><rect x="98" y="114" width="1" height="1" /><rect x="99" y="114" width="1" height="1" /><rect x="98" y="115" width="1" height="1" /><rect x="99" y="115" width="1" height="1" /><rect x="100" y="115" width="1" height="1" /><rect x="98" y="116" width="1" height="1" /><rect x="99" y="116" width="1" height="1" /><rect x="98" y="117" width="1" height="1" /><rect x="111" y="111" width="1" height="8" /><rect x="103" y="119" width="9" height="1" /><rect x="106" y="113" width="1" height="1" /><rect x="106" y="114" width="1" height="1" /><rect x="107" y="114" width="1" height="1" /><rect x="106" y="115" width="1" height="1" /><rect x="107" y="115" width="1" height="1" /><rect x="108" y="115" width="1" height="1" /><rect x="106" y="116" width="1" height="1" /><rect x="107" y="116" width="1" height="1" /><rect x="106" y="117" width="1" height="1" /><rect x="95" y="119" width="1" height="9" /><rect x="103" y="119" width="1" height="8" /><rect x="95" y="127" width="9" height="1" /><rect x="98" y="121" width="1" height="1" /><rect x="98" y="122" width="1" height="1" /><rect x="99" y="122" width="1" height="1" /><rect x="98" y="123" width="1" height="1" /><rect x="99" y="123" width="1" height="1" /><rect x="100" y="123" width="1" height="1" /><rect x="98" y="124" width="1" height="1" /><rect x="99" y="124" width="1" height="1" /><rect x="98" y="125" width="1" height="1" /><rect x="167" y="87" width="1" height="40" /><rect x="127" y="87" width="40" height="1" /><rect x="127" y="127" width="41" height="1" /><rect x="135" y="87" width="1" height="9" /><rect x="143" y="87" width="1" height="8" /><rect x="135" y="87" width="8" height="1" /><rect x="138" y="89" width="1" height="1" /><rect x="138" y="90" width="1" height="1" /><rect x="139" y="90" width="1" height="1" /><rect x="138" y="91" width="1" height="1" /><rect x="139" y="91" width="1" height="1" /><rect x="140" y="91" width="1" height="1" /><rect x="138" y="92" width="1" height="1" /><rect x="139" y="92" width="1" height="1" /><rect x="138" y="93" width="1" height="1" /><rect x="135" y="95" width="1" height="9" /><rect x="138" y="97" width="1" height="1" /><rect x="138" y="98" width="1" height="1" /><rect x="139" y="98" width="1" height="1" /><rect x="138" y="99" width="1" height="1" /><rect x="139" y="99" width="1" height="1" /><rect x="140" y="99" width="1" height="1" /><rect x="138" y="100" width="1" height="1" /><rect x="139" y="100" width="1" height="1" /><rect x="138" y="101" width="1" height="1" /><rect x="151" y="95" width="1" height="8" /><rect x="143" y="95" width="8" height="1" /><rect x="146" y="97" width="1" height="1" /><rect x="146" y="98" width="1" height="1" /><rect x="147" y="98" width="1" height="1" /><rect x="146" y="99" width="1" height="1" /><rect x="147" y="99" width="1" height="1" /><rect x="148" y="99" width="1" height="1" /><rect x="146" y="100" width="1" height="1" /><rect x="147" y="100" width="1" height="1" /><rect x="146" y="101" width="1" height="1" /><rect x="135" y="103" width="1" height="9" /><rect x="138" y="105" width="1" height="1" /><rect x="138" y="106" width="1" height="1" /><rect x="139" y="106" width="1" height="1" /><rect x="138" y="107" width="1" height="1" /><rect x="139" y="107" width="1" height="1" /><rect x="140" y="107" width="1" height="1" /><rect x="138" y="108" width="1" height="1" /><rect x="139" y="108" width="1" height="1" /><rect x="138" y="109" width="1" height="1" /><rect x="146" y="105" width="1" height="1" /><rect x="146" y="106" width="1" height="1" /><rect x="147" y="106" width="1" height="1" /><rect x="146" y="107" width="1" height="1" /><rect x="147" y="107" width="1" height="1" /><rect x="148" y="107" width="1" height="1" /><rect x="146" y="108" width="1" height="1" /><rect x="147" y="108" width="1" height="1" /><rect x="146" y="109" width="1" height="1" /><rect x="159" y="103" width="1" height="8" /><rect x="151" y="103" width="8" height="1" /><rect x="151" y="111" width="9" height="1" /><rect x="154" y="105" width="1" height="1" /><rect x="154" y="106" width="1" height="1" /><rect x="155" y="106" width="1" height="1" /><rect x="154" y="107" width="1" height="1" /><rect x="155" y="107" width="1" height="1" /><rect x="156" y="107" width="1" height="1" /><rect x="154" y="108" width="1" height="1" /><rect x="155" y="108" width="1" height="1" /><rect x="154" y="109" width="1" height="1" /><rect x="135" y="111" width="1" height="9" /><rect x="138" y="113" width="1" height="1" /><rect x="138" y="114" width="1" height="1" /><rect x="139" y="114" width="1" height="1" /><rect x="138" y="115" width="1" height="1" /><rect x="139" y="115" width="1" height="1" /><rect x="140" y="115" width="1" height="1" /><rect x="138" y="116" width="1" height="1" /><rect x="139" y="116" width="1" height="1" /><rect x="138" y="117" width="1" height="1" /><rect x="151" y="111" width="1" height="8" /><rect x="143" y="119" width="9" height="1" /><rect x="146" y="113" width="1" height="1" /><rect x="146" y="114" width="1" height="1" /><rect x="147" y="114" width="1" height="1" /><rect x="146" y="115" width="1" height="1" /><rect x="147" y="115" width="1" height="1" /><rect x="148" y="115" width="1" height="1" /><rect x="146" y="116" width="1" height="1" /><rect x="147" y="116" width="1" height="1" /><rect x="146" y="117" width="1" height="1" /><rect x="135" y="119" width="1" height="9" /><rect x="143" y="119" width="1" height="8" /><rect x="135" y="127" width="9" height="1" /><rect x="138" y="121" width="1" height="1" /><rect x="138" y="122" width="1" height="1" /><rect x="139" y="122" width="1" height="1" /><rect x="138" y="123" width="1" height="1" /><rect x="139" y="123" width="1" height="1" /><rect x="140" y="123" width="1" height="1" /><rect x="138" y="124" width="1" height="1" /><rect x="139" y="124" width="1" height="1" /><rect x="138" y="125" width="1" height="1" /><rect x="47" y="127" width="1" height="41" /><rect x="55" y="127" width="1" height="9" /><rect x="63" y="127" width="1" height="8" /><rect x="55" y="127" width="8" height="1" /><rect x="58" y="129" width="1" height="1" /><rect x="58" y="130" width="1" height="1" /><rect x="59" y="130" width="1" height="1" /><rect x="58" y="131" width="1" height="1" /><rect x="59" y="131" width="1" height="1" /><rect x="60" y="131" width="1" height="1" /><rect x="58" y="132" width="1" height="1" /><rect x="59" y="132" width="1" height="1" /><rect x="58" y="133" width="1" height="1" /><rect x="55" y="135" width="1" height="9" /><rect x="58" y="137" width="1" height="1" /><rect x="58" y="138" width="1" height="1" /><rect x="59" y="138" width="1" height="1" /><rect x="58" y="139" width="1" height="1" /><rect x="59" y="139" width="1" height="1" /><rect x="60" y="139" width="1" height="1" /><rect x="58" y="140" width="1" height="1" /><rect x="59" y="140" width="1" height="1" /><rect x="58" y="141" width="1" height="1" /><rect x="71" y="135" width="1" height="8" /><rect x="63" y="135" width="8" height="1" /><rect x="66" y="137" width="1" height="1" /><rect x="66" y="138" width="1" height="1" /><rect x="67" y="138" width="1" height="1" /><rect x="66" y="139" width="1" height="1" /><rect x="67" y="139" width="1" height="1" /><rect x="68" y="139" width="1" height="1" /><rect x="66" y="140" width="1" height="1" /><rect x="67" y="140" width="1" height="1" /><rect x="66" y="141" width="1" height="1" /><rect x="55" y="143" width="1" height="9" /><rect x="58" y="145" width="1" height="1" /><rect x="58" y="146" width="1" height="1" /><rect x="59" y="146" width="1" height="1" /><rect x="58" y="147" width="1" height="1" /><rect x="59" y="147" width="1" height="1" /><rect x="60" y="147" width="1" height="1" /><rect x="58" y="148" width="1" height="1" /><rect x="59" y="148" width="1" height="1" /><rect x="58" y="149" width="1" height="1" /><rect x="66" y="145" width="1" height="1" /><rect x="66" y="146" width="1" height="1" /><rect x="67" y="146" width="1" height="1" /><rect x="66" y="147" width="1" height="1" /><rect x="67" y="147" width="1" height="1" /><rect x="68" y="147" width="1" height="1" /><rect x="66" y="148" width="1" height="1" /><rect x="67" y="148" width="1" height="1" /><rect x="66" y="149" width="1" height="1" /><rect x="79" y="143" width="1" height="8" /><rect x="71" y="143" width="8" height="1" /><rect x="71" y="151" width="9" height="1" /><rect x="74" y="145" width="1" height="1" /><rect x="74" y="146" width="1" height="1" /><rect x="75" y="146" width="1" height="1" /><rect x="74" y="147" width="1" height="1" /><rect x="75" y="147" width="1" height="1" /><rect x="76" y="147" width="1" height="1" /><rect x="74" y="148" width="1" height="1" /><rect x="75" y="148" width="1" height="1" /><rect x="74" y="149" width="1" height="1" /><rect x="55" y="151" width="1" height="9" /><rect x="58" y="153" width="1" height="1" /><rect x="58" y="154" width="1" height="1" /><rect x="59" y="154" width="1" height="1" /><rect x="58" y="155" width="1" height="1" /><rect x="59" y="155" width="1" height="1" /><rect x="60" y="155" width="1" height="1" /><rect x="58" y="156" width="1" height="1" /><rect x="59" y="156" width="1" height="1" /><rect x="58" y="157" width="1" height="1" /><rect x="71" y="151" width="1" height="8" /><rect x="63" y="159" width="9" height="1" /><rect x="66" y="153" width="1" height="1" /><rect x="66" y="154" width="1" height="1" /><rect x="67" y="154" width="1" height="1" /><rect x="66" y="155" width="1" height="1" /><rect x="67" y="155" width="1" height="1" /><rect x="68" y="155" width="1" height="1" /><rect x="66" y="156" width="1" height="1" /><rect x="67" y="156" width="1" height="1" /><rect x="66" y="157" width="1" height="1" /><rect x="55" y="159" width="1" height="9" /><rect x="63" y="159" width="1" height="8" /><rect x="55" y="167" width="9" height="1" /><rect x="58" y="161" width="1" height="1" /><rect x="58" y="162" width="1" height="1" /><rect x="59" y="162" width="1" height="1" /><rect x="58" y="163" width="1" height="1" /><rect x="59" y="163" width="1" height="1" /><rect x="60" y="163" width="1" height="1" /><rect x="58" y="164" width="1" height="1" /><rect x="59" y="164" width="1" height="1" /><rect x="58" y="165" width="1" height="1" /><rect x="127" y="127" width="1" height="40" /><rect x="87" y="167" width="41" height="1" /><rect x="95" y="127" width="1" height="9" /><rect x="103" y="127" width="1" height="8" /><rect x="95" y="127" width="8" height="1" /><rect x="98" y="129" width="1" height="1" /><rect x="98" y="130" width="1" height="1" /><rect x="99" y="130" width="1" height="1" /><rect x="98" y="131" width="1" height="1" /><rect x="99" y="131" width="1" height="1" /><rect x="100" y="131" width="1" height="1" /><rect x="98" y="132" width="1" height="1" /><rect x="99" y="132" width="1" height="1" /><rect x="98" y="133" width="1" height="1" /><rect x="95" y="135" width="1" height="9" /><rect x="98" y="137" width="1" height="1" /><rect x="98" y="138" width="1" height="1" /><rect x="99" y="138" width="1" height="1" /><rect x="98" y="139" width="1" height="1" /><rect x="99" y="139" width="1" height="1" /><rect x="100" y="139" width="1" height="1" /><rect x="98" y="140" width="1" height="1" /><rect x="99" y="140" width="1" height="1" /><rect x="98" y="141" width="1" height="1" /><rect x="111" y="135" width="1" height="8" /><rect x="103" y="135" width="8" height="1" /><rect x="106" y="137" width="1" height="1" /><rect x="106" y="138" width="1" height="1" /><rect x="107" y="138" width="1" height="1" /><rect x="106" y="139" width="1" height="1" /><rect x="107" y="139" width="1" height="1" /><rect x="108" y="139" width="1" height="1" /><rect x="106" y="140" width="1" height="1" /><rect x="107" y="140" width="1" height="1" /><rect x="106" y="141" width="1" height="1" /><rect x="95" y="143" width="1" height="9" /><rect x="98" y="145" width="1" height="1" /><rect x="98" y="146" width="1" height="1" /><rect x="99" y="146" width="1" height="1" /><rect x="98" y="147" width="1" height="1" /><rect x="99" y="147" width="1" height="1" /><rect x="100" y="147" width="1" height="1" /><rect x="98" y="148" width="1" height="1" /><rect x="99" y="148" width="1" height="1" /><rect x="98" y="149" width="1" height="1" /><rect x="106" y="145" width="1" height="1" /><rect x="106" y="146" width="1" height="1" /><rect x="107" y="146" width="1" height="1" /><rect x="106" y="147" width="1" height="1" /><rect x="107" y="147" width="1" height="1" /><rect x="108" y="147" width="1" height="1" /><rect x="106" y="148" width="1" height="1" /><rect x="107" y="148" width="1" height="1" /><rect x="106" y="149" width="1" height="1" /><rect x="119" y="143" width="1" height="8" /><rect x="111" y="143" width="8" height="1" /><rect x="111" y="151" width="9" height="1" /><rect x="114" y="145" width="1" height="1" /><rect x="114" y="146" width="1" height="1" /><rect x="115" y="146" width="1" height="1" /><rect x="114" y="147" width="1" height="1" /><rect x="115" y="147" width="1" height="1" /><rect x="116" y="147" width="1" height="1" /><rect x="114" y="148" width="1" height="1" /><rect x="115" y="148" width="1" height="1" /><rect x="114" y="149" width="1" height="1" /><rect x="95" y="151" width="1" height="9" /><rect x="98" y="153" width="1" height="1" /><rect x="98" y="154" width="1" height="1" /><rect x="99" y="154" width="1" height="1" /><rect x="98" y="155" width="1" height="1" /><rect x="99" y="155" width="1" height="1" /><rect x="100" y="155" width="1" height="1" /><rect x="98" y="156" width="1" height="1" /><rect x="99" y="156" width="1" height="1" /><rect x="98" y="157" width="1" height="1" /><rect x="111" y="151" width="1" height="8" /><rect x="103" y="159" width="9" height="1" /><rect x="106" y="153" width="1" height="1" /><rect x="106" y="154" width="1" height="1" /><rect x="107" y="154" width="1" height="1" /><rect x="106" y="155" width="1" height="1" /><rect x="107" y="155" width="1" height="1" /><rect x="108" y="155" width="1" height="1" /><rect x="106" y="156" width="1" height="1" /><rect x="107" y="156" width="1" height="1" /><rect x="106" y="157" width="1" height="1" /><rect x="95" y="159" width="1" height="9" /><rect x="103" y="159" width="1" height="8" /><rect x="95" y="167" width="9" height="1" /><rect x="98" y="161" width="1" height="1" /><rect x="98" y="162" width="1" height="1" /><rect x="99" y="162" width="1" height="1" /><rect x="98" y="163" width="1" height="1" /><rect x="99" y="163" width="1" height="1" /><rect x="100" y="163" width="1" height="1" /><rect x="98" y="164" width="1" height="1" /><rect x="99" y="164" width="1" height="1" /><rect x="98" y="165" width="1" height="1" /><rect x="47" y="167" width="1" height="41" /><rect x="87" y="167" width="1" height="40" /><rect x="47" y="207" width="41" height="1" /><rect x="55" y="167" width="1" height="9" /><rect x="63" y="167" width="1" height="8" /><rect x="55" y="167" width="8" height="1" /><rect x="58" y="169" width="1" height="1" /><rect x="58" y="170" width="1" height="1" /><rect x="59" y="170" width="1" height="1" /><rect x="58" y="171" width="1" height="1" /><rect x="59" y="171" width="1" height="1" /><rect x="60" y="171" width="1" height="1" /><rect x="58" y="172" width="1" height="1" /><rect x="59" y="172" width="1" height="1" /><rect x="58" y="173" width="1" height="1" /><rect x="55" y="175" width="1" height="9" /><rect x="58" y="177" width="1" height="1" /><rect x="58" y="178" width="1" height="1" /><rect x="59" y="178" width="1" height="1" /><rect x="58" y="179" width="1" height="1" /><rect x="59" y="179" width="1" height="1" /><rect x="60" y="179" width="1" height="1" /><rect x="58" y="180" width="1" height="1" /><rect x="59" y="180" width="1" height="1" /><rect x="58" y="181" width="1" height="1" /><rect x="71" y="175" width="1" height="8" /><rect x="63" y="175" width="8" height="1" /><rect x="66" y="177" width="1" height="1" /><rect x="66" y="178" width="1" height="1" /><rect x="67" y="178" width="1" height="1" /><rect x="66" y="179" width="1" height="1" /><rect x="67" y="179" width="1" height="1" /><rect x="68" y="179" width="1" height="1" /><rect x="66" y="180" width="1" height="1" /><rect x="67" y="180" width="1" height="1" /><rect x="66" y="181" width="1" height="1" /><rect x="55" y="183" width="1" height="9" /><rect x="58" y="185" width="1" height="1" /><rect x="58" y="186" width="1" height="1" /><rect x="59" y="186" width="1" height="1" /><rect x="58" y="187" width="1" height="1" /><rect x="59" y="187" width="1" height="1" /><rect x="60" y="187" width="1" height="1" /><rect x="58" y="188" width="1" height="1" /><rect x="59" y="188" width="1" height="1" /><rect x="58" y="189" width="1" height="1" /><rect x="66" y="185" width="1" height="1" /><rect x="66" y="186" width="1" height="1" /><rect x="67" y="186" width="1" height="1" /><rect x="66" y="187" width="1" height="1" /><rect x="67" y="187" width="1" height="1" /><rect x="68" y="187" width="1" height="1" /><rect x="66" y="188" width="1" height="1" /><rect x="67" y="188" width="1" height="1" /><rect x="66" y="189" width="1" height="1" /><rect x="79" y="183" width="1" height="8" /><rect x="71" y="183" width="8" height="1" /><rect x="71" y="191" width="9" height="1" /><rect x="74" y="185" width="1" height="1" /><rect x="74" y="186" width="1" height="1" /><rect x="75" y="186" width="1" height="1" /><rect x="74" y="187" width="1" height="1" /><rect x="75" y="187" width="1" height="1" /><rect x="76" y="187" width="1" height="1" /><rect x="74" y="188" width="1" height="1" /><rect x="75" y="188" width="1" height="1" /><rect x="74" y="189" width="1" height="1" /><rect x="55" y="191" width="1" height="9" /><rect x="58" y="193" width="1" height="1" /><rect x="58" y="194" width="1" height="1" /><rect x="59" y="194" width="1" height="1" /><rect x="58" y="195" width="1" height="1" /><rect x="59" y="195" width="1" height="1" /><rect x="60" y="195" width="1" height="1" /><rect x="58" y="196" width="1" height="1" /><rect x="59" y="196" width="1" height="1" /><rect x="58" y="197" width="1" height="1" /><rect x="71" y="191" width="1" height="8" /><rect x="63" y="199" width="9" height="1" /><rect x="66" y="193" width="1" height="1" /><rect x="66" y="194" width="1" height="1" /><rect x="67" y="194" width="1" height="1" /><rect x="66" y="195" width="1" height="1" /><rect x="67" y="195" width="1" height="1" /><rect x="68" y="195" width="1" height="1" /><rect x="66" y="196" width="1" height="1" /><rect x="67" y="196" width="1" height="1" /><rect x="66" y="197" width="1" height="1" /><rect x="55" y="199" width="1" height="9" /><rect x="63" y="199" width="1" height="8" /><rect x="55" y="207" width="9" height="1" /><rect x="58" y="201" width="1" height="1" /><rect x="58" y="202" width="1" height="1" /><rect x="59" y="202" width="1" height="1" /><rect x="58" y="203" width="1" height="1" /><rect x="59" y="203" width="1" height="1" /><rect x="60" y="203" width="1" height="1" /><rect x="58" y="204" width="1" height="1" /><rect x="59" y="204" width="1" height="1" /><rect x="58" y="205" width="1" height="1" /></svg>