<?xml version="1.0" encoding="utf-8"?><svg xmlns="http://www.w3.org/2000/svg" xmlns:xlink="http://www.w3.org/1999/xlink" width="208" height="208"><rect x="0" y="0" width="100%" height="100%" fill="#ffffff" /><rect x="47" y="87" width="1" height="41" /><rect x="47" y="87" width="40" height="1" /><rect x="47" y="127" width="41" height="1" /><rect x="63" y="95" width="1" height="9" /><rect x="71" y="95" width="1" height="8" /><rect x="63" y="95" width="8" height="1" /><rect x="66" y="99" width="1" height="1" /><rect x="67" y="99" width="1" height="1" /><rect x="68" y="99" width="1" height="1" /><rect x="63" y="103" width="1" height="9" /><rect x="71" y="103" width="1" height="8" /><rect x="66" y="107" width="1" height="1" /><rect x="67" y="107" width="1" height="1" /><rect x="68" y="107" width="1" height="1" /><rect x="63" y="111" width="1" height="9" /><rect x="71" y="111" width="1" height="8" /><rect x="63" y="119" width="9" height="1" /><rect x="66" y="115" width="1" height="1" /><rect x="67" y="115" width="1" height="1" /><rect x="68" y="115" width="1" height="1" /><rect x="87" y="87" width="40" height="1" /><rect x="87" y="127" width="41" height="1" /><rect x="103" y="95" width="1" height="9" /><rect x="111" y="95" width="1" height="8" /><rect x="103" y="95" width="8" height="1" /><rect x="106" y="99" width="1" height="1" /><rect x="107" y="99" width="1" height="1" /><rect x="108" y="99" width="1" height="1" /><rect x="103" y="103" width="1" height="9" /><rect x="111" y="103" width="1" height="8" /><rect x="106" y="107" width="1" height="1" /><rect x="107" y="107" width="1" height="1" /><rect x="108" y="107" width="1" height="1" /><rect x="103" y="111" width="1" height="9" /><rect x="111" y="111" width="1" height="8" /><rect x="103" y="119" width="9" height="1" /><rect x="106" y="115" width="1" height="1" /><rect x="107" y="115" width="1" height="1" /><rect x="108" y="115" width="1" height="1" /><rect x="167" y="87" width="1" height="40" /><rect x="127" y="87" width="40" height="1" /><rect x="127" y="127" width="41" height="1" /><rect x="143" y="95" width="1" height="9" /><rect x="151" y="95" width="1" height="8" /><rect x="143" y="95" width="8" height="1" /><rect x="146" y="99" width="1" height="1" /><rect x="147" y="99" width="1" height="1" /><rect x="148" y="99" width="1" height="1" /><rect x="143" y="103" width="1" height="9" /><rect x="151" y="103" width="1" height="8" /><rect x="146" y="107" width="1" height="1" /><rect x="147" y="107" width="1" height="1" /><rect x="148" y="107" width="1" height="1" /><rect x="143" y="111" width="1" height="9" /><rect x="151" y="111" width="1" height="8" /><rect x="143" y="119" width="9" height="1" /><rect x="146" y="115" width="1" height="1" /><rect x="147" y="115" width="1" height="1" /><rect x="148" y="115" width="1" height="1" /></svg>