<?xml version="1.0" encoding="utf-8"?><svg xmlns="http://www.w3.org/2000/svg" xmlns:xlink="http://www.w3.org/1999/xlink" width="208" height="208"><g id="n3" transform="translate(-18,-18)"><rect x="105" y="25" width="1" height="41" /><rect x="145" y="25" width="1" height="40" /><rect x="105" y="25" width="40" height="1" /><use href="#n2" x="89" y="9" /><rect x="105" y="65" width="1" height="41" /><rect x="145" y="65" width="1" height="40" /><use href="#n2" x="89" y="49" /><rect x="105" y="105" width="1" height="41" /><rect x="145" y="105" width="1" height="40" /><use href="#n2" x="89" y="89" /><rect x="105" y="145" width="1" height="41" /><rect x="145" y="145" width="1" height="40" /><use href="#n2" x="89" y="129" /><rect x="105" y="185" width="1" height="41" /><rect x="145" y="185" width="1" height="40" /><rect x="105" y="225" width="41" height="1" /><use href="#n2" x="89" y="169" /></g></svg>