<?xml version="1.0" encoding="utf-8"?><svg xmlns="http://www.w3.org/2000/svg" xmlns:xlink="http://www.w3.org/1999/xlink" width="48" height="48"><symbol id="n1"><rect x="11" y="9" width="1" height="1" /><rect x="11" y="11" width="1" height="1" /><rect x="11" y="13" width="1" height="1" /></symbol><g id="n2" transform="translate(-9,-9)"><rect x="32" y="16" width="1" height="9" /><rect x="40" y="16" width="1" height="8" /><rect x="32" y="16" width="8" height="1" /><rect x="32" y="24" width="9" height="1" /><use href="#n1" x="25" y="9" /><rect x="32" y="32" width="1" height="9" /><rect x="40" y="32" width="1" height="8" /><rect x="32" y="32" width="8" height="1" /><rect x="32" y="40" width="9" height="1" /><use href="#n1" x="25" y="25" /><rect x="32" y="48" width="1" height="9" /><rect x="40" y="48" width="1" height="8" /><rect x="32" y="48" width="8" height="1" /><rect x="32" y="56" width="9" height="1" /><use href="#n1" x="25" y="41" /></g></svg>