<?xml version="1.0" encoding="utf-8"?><svg xmlns="http://www.w3.org/2000/svg" xmlns:xlink="http://www.w3.org/1999/xlink" width="208" height="208"><rect x="47" y="47" width="1" height="41" /><rect x="87" y="47" width="1" height="40" /><rect x="47" y="47" width="40" height="1" /><rect x="47" y="87" width="41" height="1" /><rect x="55" y="55" width="1" height="9" /><rect x="63" y="55" width="1" height="8" /><rect x="55" y="55" width="8" height="1" /><rect x="55" y="63" width="9" height="1" /><rect x="58" y="58" width="1" height="1" /><rect x="60" y="58" width="1" height="1" /><rect x="57" y="59" width="1" height="1" /><rect x="61" y="59" width="1" height="1" /><rect x="58" y="60" width="1" height="1" /><rect x="60" y="60" width="1" height="1" /><rect x="71" y="55" width="1" height="9" /><rect x="79" y="55" width="1" height="8" /><rect x="71" y="55" width="8" height="1" /><rect x="71" y="63" width="9" height="1" /><rect x="74" y="58" width="1" height="1" /><rect x="76" y="58" width="1" height="1" /><rect x="73" y="59" width="1" height="1" /><rect x="77" y="59" width="1" height="1" /><rect x="74" y="60" width="1" height="1" /><rect x="76" y="60" width="1" height="1" /><rect x="47" y="63" width="1" height="9" /><rect x="55" y="63" width="1" height="8" /><rect x="47" y="63" width="8" height="1" /><rect x="47" y="71" width="9" height="1" /><rect x="50" y="66" width="1" height="1" /><rect x="52" y="66" width="1" height="1" /><rect x="49" y="67" width="1" height="1" /><rect x="53" y="67" width="1" height="1" /><rect x="50" y="68" width="1" height="1" /><rect x="52" y="68" width="1" height="1" /><rect x="79" y="63" width="1" height="9" /><rect x="87" y="63" width="1" height="8" /><rect x="79" y="63" width="8" height="1" /><rect x="79" y="71" width="9" height="1" /><rect x="82" y="66" width="1" height="1" /><rect x="84" y="66" width="1" height="1" /><rect x="81" y="67" width="1" height="1" /><rect x="85" y="67" width="1" height="1" /><rect x="82" y="68" width="1" height="1" /><rect x="84" y="68" width="1" height="1" /><rect x="55" y="71" width="1" height="9" /><rect x="63" y="71" width="1" height="8" /><rect x="55" y="71" width="8" height="1" /><rect x="55" y="79" width="9" height="1" /><rect x="58" y="74" width="1" height="1" /><rect x="60" y="74" width="1" height="1" /><rect x="57" y="75" width="1" height="1" /><rect x="61" y="75" width="1" height="1" /><rect x="58" y="76" width="1" height="1" /><rect x="60" y="76" width="1" height="1" /><rect x="71" y="71" width="1" height="9" /><rect x="79" y="71" width="1" height="8" /><rect x="71" y="71" width="8" height="1" /><rect x="71" y="79" width="9" height="1" /><rect x="74" y="74" width="1" height="1" /><rect x="76" y="74" width="1" height="1" /><rect x="73" y="75" width="1" height="1" /><rect x="77" y="75" width="1" height="1" /><rect x="74" y="76" width="1" height="1" /><rect x="76" y="76" width="1" height="1" /><rect x="127" y="47" width="1" height="41" /><rect x="167" y="47" width="1" height="40" /><rect x="127" y="47" width="40" height="1" /><rect x="127" y="87" width="41" height="1" /><rect x="135" y="55" width="1" height="9" /><rect x="143" y="55" width="1" height="8" /><rect x="135" y="55" width="8" height="1" /><rect x="135" y="63" width="9" height="1" /><rect x="138" y="58" width="1" height="1" /><rect x="140" y="58" width="1" height="1" /><rect x="137" y="59" width="1" height="1" /><rect x="141" y="59" width="1" height="1" /><rect x="138" y="60" width="1" height="1" /><rect x="140" y="60" width="1" height="1" /><rect x="151" y="55" width="1" height="9" /><rect x="159" y="55" width="1" height="8" /><rect x="151" y="55" width="8" height="1" /><rect x="151" y="63" width="9" height="1" /><rect x="154" y="58" width="1" height="1" /><rect x="156" y="58" width="1" height="1" /><rect x="153" y="59" width="1" height="1" /><rect x="157" y="59" width="1" height="1" /><rect x="154" y="60" width="1" height="1" /><rect x="156" y="60" width="1" height="1" /><rect x="127" y="63" width="1" height="9" /><rect x="135" y="63" width="1" height="8" /><rect x="127" y="63" width="8" height="1" /><rect x="127" y="71" width="9" height="1" /><rect x="130" y="66" width="1" height="1" /><rect x="132" y="66" width="1" height="1" /><rect x="129" y="67" width="1" height="1" /><rect x="133" y="67" width="1" height="1" /><rect x="130" y="68" width="1" height="1" /><rect x="132" y="68" width="1" height="1" /><rect x="159" y="63" width="1" height="9" /><rect x="167" y="63" width="1" height="8" /><rect x="159" y="63" width="8" height="1" /><rect x="159" y="71" width="9" height="1" /><rect x="162" y="66" width="1" height="1" /><rect x="164" y="66" width="1" height="1" /><rect x="161" y="67" width="1" height="1" /><rect x="165" y="67" width="1" height="1" /><rect x="162" y="68" width="1" height="1" /><rect x="164" y="68" width="1" height="1" /><rect x="135" y="71" width="1" height="9" /><rect x="143" y="71" width="1" height="8" /><rect x="135" y="71" width="8" height="1" /><rect x="135" y="79" width="9" height="1" /><rect x="138" y="74" width="1" height="1" /><rect x="140" y="74" width="1" height="1" /><rect x="137" y="75" width="1" height="1" /><rect x="141" y="75" width="1" height="1" /><rect x="138" y="76" width="1" height="1" /><rect x="140" y="76" width="1" height="1" /><rect x="151" y="71" width="1" height="9" /><rect x="159" y="71" width="1" height="8" /><rect x="151" y="71" width="8" height="1" /><rect x="151" y="79" width="9" height="1" /><rect x="154" y="74" width="1" height="1" /><rect x="156" y="74" width="1" height="1" /><rect x="153" y="75" width="1" height="1" /><rect x="157" y="75" width="1" height="1" /><rect x="154" y="76" width="1" height="1" /><rect x="156" y="76" width="1" height="1" /><rect x="7" y="87" width="1" height="41" /><rect x="47" y="87" width="1" height="40" /><rect x="7" y="87" width="40" height="1" /><rect x="7" y="127" width="41" height="1" /><rect x="15" y="95" width="1" height="9" /><rect x="23" y="95" width="1" height="8" /><rect x="15" y="95" width="8" height="1" /><rect x="15" y="103" width="9" height="1" /><rect x="18" y="98" width="1" height="1" /><rect x="20" y="98" width="1" height="1" /><rect x="17" y="99" width="1" height="1" /><rect x="21" y="99" width="1" height="1" /><rect x="18" y="100" width="1" height="1" /><rect x="20" y="100" width="1" height="1" /><rect x="31" y="95" width="1" height="9" /><rect x="39" y="95" width="1" height="8" /><rect x="31" y="95" width="8" height="1" /><rect x="31" y="103" width="9" height="1" /><rect x="34" y="98" width="1" height="1" /><rect x="36" y="98" width="1" height="1" /><rect x="33" y="99" width="1" height="1" /><rect x="37" y="99" width="1" height="1" /><rect x="34" y="100" width="1" height="1" /><rect x="36" y="100" width="1" height="1" /><rect x="7" y="103" width="1" height="9" /><rect x="15" y="103" width="1" height="8" /><rect x="7" y="103" width="8" height="1" /><rect x="7" y="111" width="9" height="1" /><rect x="10" y="106" width="1" height="1" /><rect x="12" y="106" width="1" height="1" /><rect x="9" y="107" width="1" height="1" /><rect x="13" y="107" width="1" height="1" /><rect x="10" y="108" width="1" height="1" /><rect x="12" y="108" width="1" height="1" /><rect x="39" y="103" width="1" height="9" /><rect x="47" y="103" width="1" height="8" /><rect x="39" y="103" width="8" height="1" /><rect x="39" y="111" width="9" height="1" /><rect x="42" y="106" width="1" height="1" /><rect x="44" y="106" width="1" height="1" /><rect x="41" y="107" width="1" height="1" /><rect x="45" y="107" width="1" height="1" /><rect x="42" y="108" width="1" height="1" /><rect x="44" y="108" width="1" height="1" /><rect x="15" y="111" width="1" height="9" /><rect x="23" y="111" width="1" height="8" /><rect x="15" y="111" width="8" height="1" /><rect x="15" y="119" width="9" height="1" /><rect x="18" y="114" width="1" height="1" /><rect x="20" y="114" width="1" height="1" /><rect x="17" y="115" width="1" height="1" /><rect x="21" y="115" width="1" height="1" /><rect x="18" y="116" width="1" height="1" /><rect x="20" y="116" width="1" height="1" /><rect x="31" y="111" width="1" height="9" /><rect x="39" y="111" width="1" height="8" /><rect x="31" y="111" width="8" height="1" /><rect x="31" y="119" width="9" height="1" /><rect x="34" y="114" width="1" height="1" /><rect x="36" y="114" width="1" height="1" /><rect x="33" y="115" width="1" height="1" /><rect x="37" y="115" width="1" height="1" /><rect x="34" y="116" width="1" height="1" /><rect x="36" y="116" width="1" height="1" /><rect x="167" y="87" width="1" height="41" /><rect x="207" y="87" width="1" height="40" /><rect x="167" y="87" width="40" height="1" /><rect x="167" y="127" width="41" height="1" /><rect x="175" y="95" width="1" height="9" /><rect x="183" y="95" width="1" height="8" /><rect x="175" y="95" width="8" height="1" /><rect x="175" y="103" width="9" height="1" /><rect x="178" y="98" width="1" height="1" /><rect x="180" y="98" width="1" height="1" /><rect x="177" y="99" width="1" height="1" /><rect x="181" y="99" width="1" height="1" /><rect x="178" y="100" width="1" height="1" /><rect x="180" y="100" width="1" height="1" /><rect x="191" y="95" width="1" height="9" /><rect x="199" y="95" width="1" height="8" /><rect x="191" y="95" width="8" height="1" /><rect x="191" y="103" width="9" height="1" /><rect x="194" y="98" width="1" height="1" /><rect x="196" y="98" width="1" height="1" /><rect x="193" y="99" width="1" height="1" /><rect x="197" y="99" width="1" height="1" /><rect x="194" y="100" width="1" height="1" /><rect x="196" y="100" width="1" height="1" /><rect x="167" y="103" width="1" height="9" /><rect x="175" y="103" width="1" height="8" /><rect x="167" y="103" width="8" height="1" /><rect x="167" y="111" width="9" height="1" /><rect x="170" y="106" width="1" height="1" /><rect x="172" y="106" width="1" height="1" /><rect x="169" y="107" width="1" height="1" /><rect x="173" y="107" width="1" height="1" /><rect x="170" y="108" width="1" height="1" /><rect x="172" y="108" width="1" height="1" /><rect x="199" y="103" width="1" height="9" /><rect x="207" y="103" width="1" height="8" /><rect x="199" y="103" width="8" height="1" /><rect x="199" y="111" width="9" height="1" /><rect x="202" y="106" width="1" height="1" /><rect x="204" y="106" width="1" height="1" /><rect x="201" y="107" width="1" height="1" /><rect x="205" y="107" width="1" height="1" /><rect x="202" y="108" width="1" height="1" /><rect x="204" y="108" width="1" height="1" /><rect x="175" y="111" width="1" height="9" /><rect x="183" y="111" width="1" height="8" /><rect x="175" y="111" width="8" height="1" /><rect x="175" y="119" width="9" height="1" /><rect x="178" y="114" width="1" height="1" /><rect x="180" y="114" width="1" height="1" /><rect x="177" y="115" width="1" height="1" /><rect x="181" y="115" width="1" height="1" /><rect x="178" y="116" width="1" height="1" /><rect x="180" y="116" width="1" height="1" /><rect x="191" y="111" width="1" height="9" /><rect x="199" y="111" width="1" height="8" /><rect x="191" y="111" width="8" height="1" /><rect x="191" y="119" width="9" height="1" /><rect x="194" y="114" width="1" height="1" /><rect x="196" y="114" width="1" height="1" /><rect x="193" y="115" width="1" height="1" /><rect x="197" y="115" width="1" height="1" /><rect x="194" y="116" width="1" height="1" /><rect x="196" y="116" width="1" height="1" /><rect x="47" y="127" width="1" height="41" /><rect x="87" y="127" width="1" height="40" /><rect x="47" y="127" width="40" height="1" /><rect x="47" y="167" width="41" height="1" /><rect x="55" y="135" width="1" height="9" /><rect x="63" y="135" width="1" height="8" /><rect x="55" y="135" width="8" height="1" /><rect x="55" y="143" width="9" height="1" /><rect x="58" y="138" width="1" height="1" /><rect x="60" y="138" width="1" height="1" /><rect x="57" y="139" width="1" height="1" /><rect x="61" y="139" width="1" height="1" /><rect x="58" y="140" width="1" height="1" /><rect x="60" y="140" width="1" height="1" /><rect x="71" y="135" width="1" height="9" /><rect x="79" y="135" width="1" height="8" /><rect x="71" y="135" width="8" height="1" /><rect x="71" y="143" width="9" height="1" /><rect x="74" y="138" width="1" height="1" /><rect x="76" y="138" width="1" height="1" /><rect x="73" y="139" width="1" height="1" /><rect x="77" y="139" width="1" height="1" /><rect x="74" y="140" width="1" height="1" /><rect x="76" y="140" width="1" height="1" /><rect x="47" y="143" width="1" height="9" /><rect x="55" y="143" width="1" height="8" /><rect x="47" y="143" width="8" height="1" /><rect x="47" y="151" width="9" height="1" /><rect x="50" y="146" width="1" height="1" /><rect x="52" y="146" width="1" height="1" /><rect x="49" y="147" width="1" height="1" /><rect x="53" y="147" width="1" height="1" /><rect x="50" y="148" width="1" height="1" /><rect x="52" y="148" width="1" height="1" /><rect x="79" y="143" width="1" height="9" /><rect x="87" y="143" width="1" height="8" /><rect x="79" y="143" width="8" height="1" /><rect x="79" y="151" width="9" height="1" /><rect x="82" y="146" width="1" height="1" /><rect x="84" y="146" width="1" height="1" /><rect x="81" y="147" width="1" height="1" /><rect x="85" y="147" width="1" height="1" /><rect x="82" y="148" width="1" height="1" /><rect x="84" y="148" width="1" height="1" /><rect x="55" y="151" width="1" height="9" /><rect x="63" y="151" width="1" height="8" /><rect x="55" y="151" width="8" height="1" /><rect x="55" y="159" width="9" height="1" /><rect x="58" y="154" width="1" height="1" /><rect x="60" y="154" width="1" height="1" /><rect x="57" y="155" width="1" height="1" /><rect x="61" y="155" width="1" height="1" /><rect x="58" y="156" width="1" height="1" /><rect x="60" y="156" width="1" height="1" /><rect x="71" y="151" width="1" height="9" /><rect x="79" y="151" width="1" height="8" /><rect x="71" y="151" width="8" height="1" /><rect x="71" y="159" width="9" height="1" /><rect x="74" y="154" width="1" height="1" /><rect x="76" y="154" width="1" height="1" /><rect x="73" y="155" width="1" height="1" /><rect x="77" y="155" width="1" height="1" /><rect x="74" y="156" width="1" height="1" /><rect x="76" y="156" width="1" height="1" /><rect x="127" y="127" width="1" height="41" /><rect x="167" y="127" width="1" height="40" /><rect x="127" y="127" width="40" height="1" /><rect x="127" y="167" width="41" height="1" /><rect x="135" y="135" width="1" height="9" /><rect x="143" y="135" width="1" height="8" /><rect x="135" y="135" width="8" height="1" /><rect x="135" y="143" width="9" height="1" /><rect x="138" y="138" width="1" height="1" /><rect x="140" y="138" width="1" height="1" /><rect x="137" y="139" width="1" height="1" /><rect x="141" y="139" width="1" height="1" /><rect x="138" y="140" width="1" height="1" /><rect x="140" y="140" width="1" height="1" /><rect x="151" y="135" width="1" height="9" /><rect x="159" y="135" width="1" height="8" /><rect x="151" y="135" width="8" height="1" /><rect x="151" y="143" width="9" height="1" /><rect x="154" y="138" width="1" height="1" /><rect x="156" y="138" width="1" height="1" /><rect x="153" y="139" width="1" height="1" /><rect x="157" y="139" width="1" height="1" /><rect x="154" y="140" width="1" height="1" /><rect x="156" y="140" width="1" height="1" /><rect x="127" y="143" width="1" height="9" /><rect x="135" y="143" width="1" height="8" /><rect x="127" y="143" width="8" height="1" /><rect x="127" y="151" width="9" height="1" /><rect x="130" y="146" width="1" height="1" /><rect x="132" y="146" width="1" height="1" /><rect x="129" y="147" width="1" height="1" /><rect x="133" y="147" width="1" height="1" /><rect x="130" y="148" width="1" height="1" /><rect x="132" y="148" width="1" height="1" /><rect x="159" y="143" width="1" height="9" /><rect x="167" y="143" width="1" height="8" /><rect x="159" y="143" width="8" height="1" /><rect x="159" y="151" width="9" height="1" /><rect x="162" y="146" width="1" height="1" /><rect x="164" y="146" width="1" height="1" /><rect x="161" y="147" width="1" height="1" /><rect x="165" y="147" width="1" height="1" /><rect x="162" y="148" width="1" height="1" /><rect x="164" y="148" width="1" height="1" /><rect x="135" y="151" width="1" height="9" /><rect x="143" y="151" width="1" height="8" /><rect x="135" y="151" width="8" height="1" /><rect x="135" y="159" width="9" height="1" /><rect x="138" y="154" width="1" height="1" /><rect x="140" y="154" width="1" height="1" /><rect x="137" y="155" width="1" height="1" /><rect x="141" y="155" width="1" height="1" /><rect x="138" y="156" width="1" height="1" /><rect x="140" y="156" width="1" height="1" /><rect x="151" y="151" width="1" height="9" /><rect x="159" y="151" width="1" height="8" /><rect x="151" y="151" width="8" height="1" /><rect x="151" y="159" width="9" height="1" /><rect x="154" y="154" width="1" height="1" /><rect x="156" y="154" width="1" height="1" /><rect x="153" y="155" width="1" height="1" /><rect x="157" y="155" width="1" height="1" /><rect x="154" y="156" width="1" height="1" /><rect x="156" y="156" width="1" height="1" /></svg>