<?xml version="1.0" encoding="utf-8"?><svg xmlns="http://www.w3.org/2000/svg" xmlns:xlink="http://www.w3.org/1999/xlink" width="1008" height="1008"><symbol id="n1"><rect x="9" y="9" width="1" height="1" /><rect x="10" y="9" width="1" height="1" /><rect x="11" y="9" width="1" height="1" /><rect x="12" y="9" width="1" height="1" /><rect x="13" y="9" width="1" height="1" /><rect x="9" y="10" width="1" height="1" /><rect x="11" y="10" width="1" height="1" /><rect x="13" y="10" width="1" height="1" /><rect x="9" y="11" width="1" height="1" /><rect x="11" y="11" width="1" height="1" /><rect x="13" y="11" width="1" height="1" /><rect x="9" y="12" width="1" height="1" /><rect x="11" y="12" width="1" height="1" /><rect x="13" y="12" width="1" height="1" /><rect x="9" y="13" width="1" height="1" /><rect x="10" y="13" width="1" height="1" /><rect x="11" y="13" width="1" height="1" /><rect x="12" y="13" width="1" height="1" /><rect x="13" y="13" width="1" height="1" /></symbol><symbol id="n2"><rect x="16" y="16" width="1" height="9" /><rect x="16" y="16" width="8" height="1" /><use href="#n1" x="9" y="9" /><rect x="24" y="16" width="8" height="1" /><rect x="24" y="24" width="9" height="1" /><use href="#n1" x="17" y="9" /><rect x="32" y="16" width="8" height="1" /><use href="#n1" x="25" y="9" /><rect x="40" y="16" width="8" height="1" /><rect x="40" y="24" width="9" height="1" /><use href="#n1" x="33" y="9" /><rect x="56" y="16" width="1" height="8" /><rect x="48" y="16" width="8" height="1" /><use href="#n1" x="41" y="9" /><rect x="16" y="24" width="1" height="9" /><rect x="24" y="24" width="1" height="8" /><use href="#n1" x="9" y="17" /><rect x="32" y="24" width="1" height="9" /><rect x="40" y="24" width="1" height="8" /><use href="#n1" x="25" y="17" /><rect x="48" y="24" width="1" height="9" /><rect x="56" y="24" width="1" height="8" /><use href="#n1" x="41" y="17" /><rect x="16" y="32" width="1" height="9" /><rect x="24" y="32" width="1" height="8" /><use href="#n1" x="9" y="25" /><rect x="32" y="32" width="1" height="9" /><rect x="40" y="32" width="1" height="8" /><use href="#n1" x="25" y="25" /><rect x="48" y="32" width="1" height="9" /><rect x="56" y="32" width="1" height="8" /><use href="#n1" x="41" y="25" /><rect x="16" y="40" width="1" height="9" /><rect x="24" y="40" width="1" height="8" /><use href="#n1" x="9" y="33" /><rect x="32" y="40" width="1" height="9" /><rect x="40" y="40" width="1" height="8" /><use href="#n1" x="25" y="33" /><rect x="48" y="40" width="1" height="9" /><rect x="56" y="40" width="1" height="8" /><use href="#n1" x="41" y="33" /><rect x="16" y="48" width="1" height="9" /><rect x="16" y="56" width="9" height="1" /><use href="#n1" x="9" y="41" /><rect x="24" y="48" width="8" height="1" /><rect x="24" y="56" width="9" height="1" /><use href="#n1" x="17" y="41" /><rect x="32" y="56" width="9" height="1" /><use href="#n1" x="25" y="41" /><rect x="40" y="48" width="8" height="1" /><rect x="40" y="56" width="9" height="1" /><use href="#n1" x="33" y="41" /><rect x="56" y="48" width="1" height="8" /><rect x="48" y="56" width="9" height="1" /><use href="#n1" x="41" y="41" /></symbol><symbol id="n3"><rect x="25" y="25" width="1" height="41" /><rect x="25" y="25" width="40" height="1" /><use href="#n2" x="9" y="9" /><rect x="65" y="25" width="40" height="1" /><rect x="65" y="65" width="41" height="1" /><use href="#n2" x="49" y="9" /><rect x="105" y="25" width="40" height="1" /><use href="#n2" x="89" y="9" /><rect x="145" y="25" width="40" height="1" /><rect x="145" y="65" width="41" height="1" /><use href="#n2" x="129" y="9" /><rect x="225" y="25" width="1" height="40" /><rect x="185" y="25" width="40" height="1" /><use href="#n2" x="169" y="9" /><rect x="25" y="65" width="1" height="41" /><rect x="65" y="65" width="1" height="40" /><use href="#n2" x="9" y="49" /><rect x="105" y="65" width="1" height="41" /><rect x="145" y="65" width="1" height="40" /><use href="#n2" x="89" y="49" /><rect x="185" y="65" width="1" height="41" /><rect x="225" y="65" width="1" height="40" /><use href="#n2" x="169" y="49" /><rect x="25" y="105" width="1" height="41" /><rect x="65" y="105" width="1" height="40" /><use href="#n2" x="9" y="89" /><rect x="105" y="105" width="1" height="41" /><rect x="145" y="105" width="1" height="40" /><use href="#n2" x="89" y="89" /><rect x="185" y="105" width="1" height="41" /><rect x="225" y="105" width="1" height="40" /><use href="#n2" x="169" y="89" /><rect x="25" y="145" width="1" height="41" /><rect x="65" y="145" width="1" height="40" /><use href="#n2" x="9" y="129" /><rect x="105" y="145" width="1" height="41" /><rect x="145" y="145" width="1" height="40" /><use href="#n2" x="89" y="129" /><rect x="185" y="145" width="1" height="41" /><rect x="225" y="145" width="1" height="40" /><use href="#n2" x="169" y="129" /><rect x="25" y="185" width="1" height="41" /><rect x="25" y="225" width="41" height="1" /><use href="#n2" x="9" y="169" /><rect x="65" y="185" width="40" height="1" /><rect x="65" y="225" width="41" height="1" /><use href="#n2" x="49" y="169" /><rect x="105" y="225" width="41" height="1" /><use href="#n2" x="89" y="169" /><rect x="145" y="185" width="40" height="1" /><rect x="145" y="225" width="41" height="1" /><use href="#n2" x="129" y="169" /><rect x="225" y="185" width="1" height="40" /><rect x="185" y="225" width="41" height="1" /><use href="#n2" x="169" y="169" /></symbol><g id="n4" transform="translate(-27,-27)"><rect x="34" y="34" width="1" height="201" /><rect x="34" y="34" width="200" height="1" /><use href="#n3" x="9" y="9" /><rect x="234" y="34" width="200" height="1" /><rect x="234" y="234" width="201" height="1" /><use href="#n3" x="209" y="9" /><rect x="434" y="34" width="200" height="1" /><use href="#n3" x="409" y="9" /><rect x="634" y="34" width="200" height="1" /><rect x="634" y="234" width="201" height="1" /><use href="#n3" x="609" y="9" /><rect x="1034" y="34" width="1" height="200" /><rect x="834" y="34" width="200" height="1" /><use href="#n3" x="809" y="9" /><rect x="34" y="234" width="1" height="201" /><rect x="234" y="234" width="1" height="200" /><use href="#n3" x="9" y="209" /><rect x="434" y="234" width="1" height="201" /><rect x="634" y="234" width="1" height="200" /><use href="#n3" x="409" y="209" /><rect x="834" y="234" width="1" height="201" /><rect x="1034" y="234" width="1" height="200" /><use href="#n3" x="809" y="209" /><rect x="34" y="434" width="1" height="201" /><rect x="234" y="434" width="1" height="200" /><use href="#n3" x="9" y="409" /><rect x="434" y="434" width="1" height="201" /><rect x="634" y="434" width="1" height="200" /><use href="#n3" x="409" y="409" /><rect x="834" y="434" width="1" height="201" /><rect x="1034" y="434" width="1" height="200" /><use href="#n3" x="809" y="409" /><rect x="34" y="634" width="1" height="201" /><rect x="234" y="634" width="1" height="200" /><use href="#n3" x="9" y="609" /><rect x="434" y="634" width="1" height="201" /><rect x="634" y="634" width="1" height="200" /><use href="#n3" x="409" y="609" /><rect x="834" y="634" width="1" height="201" /><rect x="1034" y="634" width="1" height="200" /><use href="#n3" x="809" y="609" /><rect x="34" y="834" width="1" height="201" /><rect x="34" y="1034" width="201" height="1" /><use href="#n3" x="9" y="809" /><rect x="234" y="834" width="200" height="1" /><rect x="234" y="1034" width="201" height="1" /><use href="#n3" x="209" y="809" /><rect x="434" y="1034" width="201" height="1" /><use href="#n3" x="409" y="809" /><rect x="634" y="834" width="200" height="1" /><rect x="634" y="1034" width="201" height="1" /><use href="#n3" x="609" y="809" /><rect x="1034" y="834" width="1" height="200" /><rect x="834" y="1034" width="201" height="1" /><use href="#n3" x="809" y="809" /></g></svg>