<?xml version="1.0" encoding="utf-8"?><svg xmlns="http://www.w3.org/2000/svg" xmlns:xlink="http://www.w3.org/1999/xlink" width="1008" height="1008"><rect x="0" y="0" width="100%" height="100%" fill="#ffffff" /><symbol id="n1"><rect x="11" y="9" width="1" height="1" /><rect x="9" y="13" width="1" height="1" /><rect x="13" y="13" width="1" height="1" /></symbol><symbol id="n2"><rect x="32" y="16" width="1" height="9" /><rect x="40" y="16" width="1" height="8" /><rect x="32" y="16" width="8" height="1" /><rect x="32" y="24" width="9" height="1" /><use href="#n1" x="25" y="9" /><rect x="16" y="48" width="1" height="9" /><rect x="24" y="48" width="1" height="8" /><rect x="16" y="48" width="8" height="1" /><rect x="16" y="56" width="9" height="1" /><use href="#n1" x="9" y="41" /><rect x="48" y="48" width="1" height="9" /><rect x="56" y="48" width="1" height="8" /><rect x="48" y="48" width="8" height="1" /><rect x="48" y="56" width="9" height="1" /><use href="#n1" x="41" y="41" /></symbol><symbol id="n3"><rect x="105" y="25" width="1" height="41" /><rect x="145" y="25" width="1" height="40" /><rect x="105" y="25" width="40" height="1" /><rect x="105" y="65" width="41" height="1" /><use href="#n2" x="89" y="9" /><rect x="25" y="185" width="1" height="41" /><rect x="65" y="185" width="1" height="40" /><rect x="25" y="185" width="40" height="1" /><rect x="25" y="225" width="41" height="1" /><use href="#n2" x="9" y="169" /><rect x="185" y="185" width="1" height="41" /><rect x="225" y="185" width="1" height="40" /><rect x="185" y="185" width="40" height="1" /><rect x="185" y="225" width="41" height="1" /><use href="#n2" x="169" y="169" /></symbol><g id="n4" transform="translate(-27,-27)"><rect x="434" y="34" width="1" height="201" /><rect x="634" y="34" width="1" height="200" /><rect x="434" y="34" width="200" height="1" /><rect x="434" y="234" width="201" height="1" /><use href="#n3" x="409" y="9" /><rect x="34" y="834" width="1" height="201" /><rect x="234" y="834" width="1" height="200" /><rect x="34" y="834" width="200" height="1" /><rect x="34" y="1034" width="201" height="1" /><use href="#n3" x="9" y="809" /><rect x="834" y="834" width="1" height="201" /><rect x="1034" y="834" width="1" height="200" /><rect x="834" y="834" width="200" height="1" /><rect x="834" y="1034" width="201" height="1" /><use href="#n3" x="809" y="809" /></g></svg>