<?xml version="1.0" encoding="utf-8"?><svg xmlns="http://www.w3.org/2000/svg" xmlns:xlink="http://www.w3.org/1999/xlink" width="208" height="208"><rect x="0" y="0" width="100%" height="100%" fill="#ffffff" /><rect x="47" y="47" width="1" height="41" /><rect x="47" y="47" width="40" height="1" /><rect x="55" y="55" width="1" height="9" /><rect x="55" y="55" width="8" height="1" /><rect x="58" y="58" width="1" height="1" /><rect x="59" y="58" width="1" height="1" /><rect x="60" y="58" width="1" height="1" /><rect x="58" y="59" width="1" height="1" /><rect x="60" y="59" width="1" height="1" /><rect x="58" y="60" width="1" height="1" /><rect x="59" y="60" width="1" height="1" /><rect x="60" y="60" width="1" height="1" /><rect x="63" y="55" width="8" height="1" /><rect x="63" y="63" width="9" height="1" /><rect x="66" y="58" width="1" height="1" /><rect x="67" y="58" width="1" height="1" /><rect x="68" y="58" width="1" height="1" /><rect x="66" y="59" width="1" height="1" /><rect x="68" y="59" width="1" height="1" /><rect x="66" y="60" width="1" height="1" /><rect x="67" y="60" width="1" height="1" /><rect x="68" y="60" width="1" height="1" /><rect x="79" y="55" width="1" height="8" /><rect x="71" y="55" width="8" height="1" /><rect x="74" y="58" width="1" height="1" /><rect x="75" y="58" width="1" height="1" /><rect x="76" y="58" width="1" height="1" /><rect x="74" y="59" width="1" height="1" /><rect x="76" y="59" width="1" height="1" /><rect x="74" y="60" width="1" height="1" /><rect x="75" y="60" width="1" height="1" /><rect x="76" y="60" width="1" height="1" /><rect x="55" y="63" width="1" height="9" /><rect x="63" y="63" width="1" height="8" /><rect x="58" y="66" width="1" height="1" /><rect x="59" y="66" width="1" height="1" /><rect x="60" y="66" width="1" height="1" /><rect x="58" y="67" width="1" height="1" /><rect x="60" y="67" width="1" height="1" /><rect x="58" y="68" width="1" height="1" /><rect x="59" y="68" width="1" height="1" /><rect x="60" y="68" width="1" height="1" /><rect x="71" y="63" width="1" height="9" /><rect x="79" y="63" width="1" height="8" /><rect x="74" y="66" width="1" height="1" /><rect x="75" y="66" width="1" height="1" /><rect x="76" y="66" width="1" height="1" /><rect x="74" y="67" width="1" height="1" /><rect x="76" y="67" width="1" height="1" /><rect x="74" y="68" width="1" height="1" /><rect x="75" y="68" width="1" height="1" /><rect x="76" y="68" width="1" height="1" /><rect x="55" y="71" width="1" height="9" /><rect x="55" y="79" width="9" height="1" /><rect x="58" y="74" width="1" height="1" /><rect x="59" y="74" width="1" height="1" /><rect x="60" y="74" width="1" height="1" /><rect x="58" y="75" width="1" height="1" /><rect x="60" y="75" width="1" height="1" /><rect x="58" y="76" width="1" height="1" /><rect x="59" y="76" width="1" height="1" /><rect x="60" y="76" width="1" height="1" /><rect x="63" y="71" width="8" height="1" /><rect x="63" y="79" width="9" height="1" /><rect x="66" y="74" width="1" height="1" /><rect x="67" y="74" width="1" height="1" /><rect x="68" y="74" width="1" height="1" /><rect x="66" y="75" width="1" height="1" /><rect x="68" y="75" width="1" height="1" /><rect x="66" y="76" width="1" height="1" /><rect x="67" y="76" width="1" height="1" /><rect x="68" y="76" width="1" height="1" /><rect x="79" y="71" width="1" height="8" /><rect x="71" y="79" width="9" height="1" /><rect x="74" y="74" width="1" height="1" /><rect x="75" y="74" width="1" height="1" /><rect x="76" y="74" width="1" height="1" /><rect x="74" y="75" width="1" height="1" /><rect x="76" y="75" width="1" height="1" /><rect x="74" y="76" width="1" height="1" /><rect x="75" y="76" width="1" height="1" /><rect x="76" y="76" width="1" height="1" /><rect x="87" y="47" width="40" height="1" /><rect x="87" y="87" width="41" height="1" /><rect x="95" y="55" width="1" height="9" /><rect x="95" y="55" width="8" height="1" /><rect x="98" y="58" width="1" height="1" /><rect x="99" y="58" width="1" height="1" /><rect x="100" y="58" width="1" height="1" /><rect x="98" y="59" width="1" height="1" /><rect x="100" y="59" width="1" height="1" /><rect x="98" y="60" width="1" height="1" /><rect x="99" y="60" width="1" height="1" /><rect x="100" y="60" width="1" height="1" /><rect x="103" y="55" width="8" height="1" /><rect x="103" y="63" width="9" height="1" /><rect x="106" y="58" width="1" height="1" /><rect x="107" y="58" width="1" height="1" /><rect x="108" y="58" width="1" height="1" /><rect x="106" y="59" width="1" height="1" /><rect x="108" y="59" width="1" height="1" /><rect x="106" y="60" width="1" height="1" /><rect x="107" y="60" width="1" height="1" /><rect x="108" y="60" width="1" height="1" /><rect x="119" y="55" width="1" height="8" /><rect x="111" y="55" width="8" height="1" /><rect x="114" y="58" width="1" height="1" /><rect x="115" y="58" width="1" height="1" /><rect x="116" y="58" width="1" height="1" /><rect x="114" y="59" width="1" height="1" /><rect x="116" y="59" width="1" height="1" /><rect x="114" y="60" width="1" height="1" /><rect x="115" y="60" width="1" height="1" /><rect x="116" y="60" width="1" height="1" /><rect x="95" y="63" width="1" height="9" /><rect x="103" y="63" width="1" height="8" /><rect x="98" y="66" width="1" height="1" /><rect x="99" y="66" width="1" height="1" /><rect x="100" y="66" width="1" height="1" /><rect x="98" y="67" width="1" height="1" /><rect x="100" y="67" width="1" height="1" /><rect x="98" y="68" width="1" height="1" /><rect x="99" y="68" width="1" height="1" /><rect x="100" y="68" width="1" height="1" /><rect x="111" y="63" width="1" height="9" /><rect x="119" y="63" width="1" height="8" /><rect x="114" y="66" width="1" height="1" /><rect x="115" y="66" width="1" height="1" /><rect x="116" y="66" width="1" height="1" /><rect x="114" y="67" width="1" height="1" /><rect x="116" y="67" width="1" height="1" /><rect x="114" y="68" width="1" height="1" /><rect x="115" y="68" width="1" height="1" /><rect x="116" y="68" width="1" height="1" /><rect x="95" y="71" width="1" height="9" /><rect x="95" y="79" width="9" height="1" /><rect x="98" y="74" width="1" height="1" /><rect x="99" y="74" width="1" height="1" /><rect x="100" y="74" width="1" height="1" /><rect x="98" y="75" width="1" height="1" /><rect x="100" y="75" width="1" height="1" /><rect x="98" y="76" width="1" height="1" /><rect x="99" y="76" width="1" height="1" /><rect x="100" y="76" width="1" height="1" /><rect x="103" y="71" width="8" height="1" /><rect x="103" y="79" width="9" height="1" /><rect x="106" y="74" width="1" height="1" /><rect x="107" y="74" width="1" height="1" /><rect x="108" y="74" width="1" height="1" /><rect x="106" y="75" width="1" height="1" /><rect x="108" y="75" width="1" height="1" /><rect x="106" y="76" width="1" height="1" /><rect x="107" y="76" width="1" height="1" /><rect x="108" y="76" width="1" height="1" /><rect x="119" y="71" width="1" height="8" /><rect x="111" y="79" width="9" height="1" /><rect x="114" y="74" width="1" height="1" /><rect x="115" y="74" width="1" height="1" /><rect x="116" y="74" width="1" height="1" /><rect x="114" y="75" width="1" height="1" /><rect x="116" y="75" width="1" height="1" /><rect x="114" y="76" width="1" height="1" /><rect x="115" y="76" width="1" height="1" /><rect x="116" y="76" width="1" height="1" /><rect x="167" y="47" width="1" height="40" /><rect x="127" y="47" width="40" height="1" /><rect x="135" y="55" width="1" height="9" /><rect x="135" y="55" width="8" height="1" /><rect x="138" y="58" width="1" height="1" /><rect x="139" y="58" width="1" height="1" /><rect x="140" y="58" width="1" height="1" /><rect x="138" y="59" width="1" height="1" /><rect x="140" y="59" width="1" height="1" /><rect x="138" y="60" width="1" height="1" /><rect x="139" y="60" width="1" height="1" /><rect x="140" y="60" width="1" height="1" /><rect x="143" y="55" width="8" height="1" /><rect x="143" y="63" width="9" height="1" /><rect x="146" y="58" width="1" height="1" /><rect x="147" y="58" width="1" height="1" /><rect x="148" y="58" width="1" height="1" /><rect x="146" y="59" width="1" height="1" /><rect x="148" y="59" width="1" height="1" /><rect x="146" y="60" width="1" height="1" /><rect x="147" y="60" width="1" height="1" /><rect x="148" y="60" width="1" height="1" /><rect x="159" y="55" width="1" height="8" /><rect x="151" y="55" width="8" height="1" /><rect x="154" y="58" width="1" height="1" /><rect x="155" y="58" width="1" height="1" /><rect x="156" y="58" width="1" height="1" /><rect x="154" y="59" width="1" height="1" /><rect x="156" y="59" width="1" height="1" /><rect x="154" y="60" width="1" height="1" /><rect x="155" y="60" width="1" height="1" /><rect x="156" y="60" width="1" height="1" /><rect x="135" y="63" width="1" height="9" /><rect x="143" y="63" width="1" height="8" /><rect x="138" y="66" width="1" height="1" /><rect x="139" y="66" width="1" height="1" /><rect x="140" y="66" width="1" height="1" /><rect x="138" y="67" width="1" height="1" /><rect x="140" y="67" width="1" height="1" /><rect x="138" y="68" width="1" height="1" /><rect x="139" y="68" width="1" height="1" /><rect x="140" y="68" width="1" height="1" /><rect x="151" y="63" width="1" height="9" /><rect x="159" y="63" width="1" height="8" /><rect x="154" y="66" width="1" height="1" /><rect x="155" y="66" width="1" height="1" /><rect x="156" y="66" width="1" height="1" /><rect x="154" y="67" width="1" height="1" /><rect x="156" y="67" width="1" height="1" /><rect x="154" y="68" width="1" height="1" /><rect x="155" y="68" width="1" height="1" /><rect x="156" y="68" width="1" height="1" /><rect x="135" y="71" width="1" height="9" /><rect x="135" y="79" width="9" height="1" /><rect x="138" y="74" width="1" height="1" /><rect x="139" y="74" width="1" height="1" /><rect x="140" y="74" width="1" height="1" /><rect x="138" y="75" width="1" height="1" /><rect x="140" y="75" width="1" height="1" /><rect x="138" y="76" width="1" height="1" /><rect x="139" y="76" width="1" height="1" /><rect x="140" y="76" width="1" height="1" /><rect x="143" y="71" width="8" height="1" /><rect x="143" y="79" width="9" height="1" /><rect x="146" y="74" width="1" height="1" /><rect x="147" y="74" width="1" height="1" /><rect x="148" y="74" width="1" height="1" /><rect x="146" y="75" width="1" height="1" /><rect x="148" y="75" width="1" height="1" /><rect x="146" y="76" width="1" height="1" /><rect x="147" y="76" width="1" height="1" /><rect x="148" y="76" width="1" height="1" /><rect x="159" y="71" width="1" height="8" /><rect x="151" y="79" width="9" height="1" /><rect x="154" y="74" width="1" height="1" /><rect x="155" y="74" width="1" height="1" /><rect x="156" y="74" width="1" height="1" /><rect x="154" y="75" width="1" height="1" /><rect x="156" y="75" width="1" height="1" /><rect x="154" y="76" width="1" height="1" /><rect x="155" y="76" width="1" height="1" /><rect x="156" y="76" width="1" height="1" /><rect x="47" y="87" width="1" height="41" /><rect x="87" y="87" width="1" height="40" /><rect x="55" y="95" width="1" height="9" /><rect x="55" y="95" width="8" height="1" /><rect x="58" y="98" width="1" height="1" /><rect x="59" y="98" width="1" height="1" /><rect x="60" y="98" width="1" height="1" /><rect x="58" y="99" width="1" height="1" /><rect x="60" y="99" width="1" height="1" /><rect x="58" y="100" width="1" height="1" /><rect x="59" y="100" width="1" height="1" /><rect x="60" y="100" width="1" height="1" /><rect x="63" y="95" width="8" height="1" /><rect x="63" y="103" width="9" height="1" /><rect x="66" y="98" width="1" height="1" /><rect x="67" y="98" width="1" height="1" /><rect x="68" y="98" width="1" height="1" /><rect x="66" y="99" width="1" height="1" /><rect x="68" y="99" width="1" height="1" /><rect x="66" y="100" width="1" height="1" /><rect x="67" y="100" width="1" height="1" /><rect x="68" y="100" width="1" height="1" /><rect x="79" y="95" width="1" height="8" /><rect x="71" y="95" width="8" height="1" /><rect x="74" y="98" width="1" height="1" /><rect x="75" y="98" width="1" height="1" /><rect x="76" y="98" width="1" height="1" /><rect x="74" y="99" width="1" height="1" /><rect x="76" y="99" width="1" height="1" /><rect x="74" y="100" width="1" height="1" /><rect x="75" y="100" width="1" height="1" /><rect x="76" y="100" width="1" height="1" /><rect x="55" y="103" width="1" height="9" /><rect x="63" y="103" width="1" height="8" /><rect x="58" y="106" width="1" height="1" /><rect x="59" y="106" width="1" height="1" /><rect x="60" y="106" width="1" height="1" /><rect x="58" y="107" width="1" height="1" /><rect x="60" y="107" width="1" height="1" /><rect x="58" y="108" width="1" height="1" /><rect x="59" y="108" width="1" height="1" /><rect x="60" y="108" width="1" height="1" /><rect x="71" y="103" width="1" height="9" /><rect x="79" y="103" width="1" height="8" /><rect x="74" y="106" width="1" height="1" /><rect x="75" y="106" width="1" height="1" /><rect x="76" y="106" width="1" height="1" /><rect x="74" y="107" width="1" height="1" /><rect x="76" y="107" width="1" height="1" /><rect x="74" y="108" width="1" height="1" /><rect x="75" y="108" width="1" height="1" /><rect x="76" y="108" width="1" height="1" /><rect x="55" y="111" width="1" height="9" /><rect x="55" y="119" width="9" height="1" /><rect x="58" y="114" width="1" height="1" /><rect x="59" y="114" width="1" height="1" /><rect x="60" y="114" width="1" height="1" /><rect x="58" y="115" width="1" height="1" /><rect x="60" y="115" width="1" height="1" /><rect x="58" y="116" width="1" height="1" /><rect x="59" y="116" width="1" height="1" /><rect x="60" y="116" width="1" height="1" /><rect x="63" y="111" width="8" height="1" /><rect x="63" y="119" width="9" height="1" /><rect x="66" y="114" width="1" height="1" /><rect x="67" y="114" width="1" height="1" /><rect x="68" y="114" width="1" height="1" /><rect x="66" y="115" width="1" height="1" /><rect x="68" y="115" width="1" height="1" /><rect x="66" y="116" width="1" height="1" /><rect x="67" y="116" width="1" height="1" /><rect x="68" y="116" width="1" height="1" /><rect x="79" y="111" width="1" height="8" /><rect x="71" y="119" width="9" height="1" /><rect x="74" y="114" width="1" height="1" /><rect x="75" y="114" width="1" height="1" /><rect x="76" y="114" width="1" height="1" /><rect x="74" y="115" width="1" height="1" /><rect x="76" y="115" width="1" height="1" /><rect x="74" y="116" width="1" height="1" /><rect x="75" y="116" width="1" height="1" /><rect x="76" y="116" width="1" height="1" /><rect x="127" y="87" width="1" height="41" /><rect x="167" y="87" width="1" height="40" /><rect x="135" y="95" width="1" height="9" /><rect x="135" y="95" width="8" height="1" /><rect x="138" y="98" width="1" height="1" /><rect x="139" y="98" width="1" height="1" /><rect x="140" y="98" width="1" height="1" /><rect x="138" y="99" width="1" height="1" /><rect x="140" y="99" width="1" height="1" /><rect x="138" y="100" width="1" height="1" /><rect x="139" y="100" width="1" height="1" /><rect x="140" y="100" width="1" height="1" /><rect x="143" y="95" width="8" height="1" /><rect x="143" y="103" width="9" height="1" /><rect x="146" y="98" width="1" height="1" /><rect x="147" y="98" width="1" height="1" /><rect x="148" y="98" width="1" height="1" /><rect x="146" y="99" width="1" height="1" /><rect x="148" y="99" width="1" height="1" /><rect x="146" y="100" width="1" height="1" /><rect x="147" y="100" width="1" height="1" /><rect x="148" y="100" width="1" height="1" /><rect x="159" y="95" width="1" height="8" /><rect x="151" y="95" width="8" height="1" /><rect x="154" y="98" width="1" height="1" /><rect x="155" y="98" width="1" height="1" /><rect x="156" y="98" width="1" height="1" /><rect x="154" y="99" width="1" height="1" /><rect x="156" y="99" width="1" height="1" /><rect x="154" y="100" width="1" height="1" /><rect x="155" y="100" width="1" height="1" /><rect x="156" y="100" width="1" height="1" /><rect x="135" y="103" width="1" height="9" /><rect x="143" y="103" width="1" height="8" /><rect x="138" y="106" width="1" height="1" /><rect x="139" y="106" width="1" height="1" /><rect x="140" y="106" width="1" height="1" /><rect x="138" y="107" width="1" height="1" /><rect x="140" y="107" width="1" height="1" /><rect x="138" y="108" width="1" height="1" /><rect x="139" y="108" width="1" height="1" /><rect x="140" y="108" width="1" height="1" /><rect x="151" y="103" width="1" height="9" /><rect x="159" y="103" width="1" height="8" /><rect x="154" y="106" width="1" height="1" /><rect x="155" y="106" width="1" height="1" /><rect x="156" y="106" width="1" height="1" /><rect x="154" y="107" width="1" height="1" /><rect x="156" y="107" width="1" height="1" /><rect x="154" y="108" width="1" height="1" /><rect x="155" y="108" width="1" height="1" /><rect x="156" y="108" width="1" height="1" /><rect x="135" y="111" width="1" height="9" /><rect x="135" y="119" width="9" height="1" /><rect x="138" y="114" width="1" height="1" /><rect x="139" y="114" width="1" height="1" /><rect x="140" y="114" width="1" height="1" /><rect x="138" y="115" width="1" height="1" /><rect x="140" y="115" width="1" height="1" /><rect x="138" y="116" width="1" height="1" /><rect x="139" y="116" width="1" height="1" /><rect x="140" y="116" width="1" height="1" /><rect x="143" y="111" width="8" height="1" /><rect x="143" y="119" width="9" height="1" /><rect x="146" y="114" width="1" height="1" /><rect x="147" y="114" width="1" height="1" /><rect x="148" y="114" width="1" height="1" /><rect x="146" y="115" width="1" height="1" /><rect x="148" y="115" width="1" height="1" /><rect x="146" y="116" width="1" height="1" /><rect x="147" y="116" width="1" height="1" /><rect x="148" y="116" width="1" height="1" /><rect x="159" y="111" width="1" height="8" /><rect x="151" y="119" width="9" height="1" /><rect x="154" y="114" width="1" height="1" /><rect x="155" y="114" width="1" height="1" /><rect x="156" y="114" width="1" height="1" /><rect x="154" y="115" width="1" height="1" /><rect x="156" y="115" width="1" height="1" /><rect x="154" y="116" width="1" height="1" /><rect x="155" y="116" width="1" height="1" /><rect x="156" y="116" width="1" height="1" /><rect x="47" y="127" width="1" height="41" /><rect x="47" y="167" width="41" height="1" /><rect x="55" y="135" width="1" height="9" /><rect x="55" y="135" width="8" height="1" /><rect x="58" y="138" width="1" height="1" /><rect x="59" y="138" width="1" height="1" /><rect x="60" y="138" width="1" height="1" /><rect x="58" y="139" width="1" height="1" /><rect x="60" y="139" width="1" height="1" /><rect x="58" y="140" width="1" height="1" /><rect x="59" y="140" width="1" height="1" /><rect x="60" y="140" width="1" height="1" /><rect x="63" y="135" width="8" height="1" /><rect x="63" y="143" width="9" height="1" /><rect x="66" y="138" width="1" height="1" /><rect x="67" y="138" width="1" height="1" /><rect x="68" y="138" width="1" height="1" /><rect x="66" y="139" width="1" height="1" /><rect x="68" y="139" width="1" height="1" /><rect x="66" y="140" width="1" height="1" /><rect x="67" y="140" width="1" height="1" /><rect x="68" y="140" width="1" height="1" /><rect x="79" y="135" width="1" height="8" /><rect x="71" y="135" width="8" height="1" /><rect x="74" y="138" width="1" height="1" /><rect x="75" y="138" width="1" height="1" /><rect x="76" y="138" width="1" height="1" /><rect x="74" y="139" width="1" height="1" /><rect x="76" y="139" width="1" height="1" /><rect x="74" y="140" width="1" height="1" /><rect x="75" y="140" width="1" height="1" /><rect x="76" y="140" width="1" height="1" /><rect x="55" y="143" width="1" height="9" /><rect x="63" y="143" width="1" height="8" /><rect x="58" y="146" width="1" height="1" /><rect x="59" y="146" width="1" height="1" /><rect x="60" y="146" width="1" height="1" /><rect x="58" y="147" width="1" height="1" /><rect x="60" y="147" width="1" height="1" /><rect x="58" y="148" width="1" height="1" /><rect x="59" y="148" width="1" height="1" /><rect x="60" y="148" width="1" height="1" /><rect x="71" y="143" width="1" height="9" /><rect x="79" y="143" width="1" height="8" /><rect x="74" y="146" width="1" height="1" /><rect x="75" y="146" width="1" height="1" /><rect x="76" y="146" width="1" height="1" /><rect x="74" y="147" width="1" height="1" /><rect x="76" y="147" width="1" height="1" /><rect x="74" y="148" width="1" height="1" /><rect x="75" y="148" width="1" height="1" /><rect x="76" y="148" width="1" height="1" /><rect x="55" y="151" width="1" height="9" /><rect x="55" y="159" width="9" height="1" /><rect x="58" y="154" width="1" height="1" /><rect x="59" y="154" width="1" height="1" /><rect x="60" y="154" width="1" height="1" /><rect x="58" y="155" width="1" height="1" /><rect x="60" y="155" width="1" height="1" /><rect x="58" y="156" width="1" height="1" /><rect x="59" y="156" width="1" height="1" /><rect x="60" y="156" width="1" height="1" /><rect x="63" y="151" width="8" height="1" /><rect x="63" y="159" width="9" height="1" /><rect x="66" y="154" width="1" height="1" /><rect x="67" y="154" width="1" height="1" /><rect x="68" y="154" width="1" height="1" /><rect x="66" y="155" width="1" height="1" /><rect x="68" y="155" width="1" height="1" /><rect x="66" y="156" width="1" height="1" /><rect x="67" y="156" width="1" height="1" /><rect x="68" y="156" width="1" height="1" /><rect x="79" y="151" width="1" height="8" /><rect x="71" y="159" width="9" height="1" /><rect x="74" y="154" width="1" height="1" /><rect x="75" y="154" width="1" height="1" /><rect x="76" y="154" width="1" height="1" /><rect x="74" y="155" width="1" height="1" /><rect x="76" y="155" width="1" height="1" /><rect x="74" y="156" width="1" height="1" /><rect x="75" y="156" width="1" height="1" /><rect x="76" y="156" width="1" height="1" /><rect x="87" y="127" width="40" height="1" /><rect x="87" y="167" width="41" height="1" /><rect x="95" y="135" width="1" height="9" /><rect x="95" y="135" width="8" height="1" /><rect x="98" y="138" width="1" height="1" /><rect x="99" y="138" width="1" height="1" /><rect x="100" y="138" width="1" height="1" /><rect x="98" y="139" width="1" height="1" /><rect x="100" y="139" width="1" height="1" /><rect x="98" y="140" width="1" height="1" /><rect x="99" y="140" width="1" height="1" /><rect x="100" y="140" width="1" height="1" /><rect x="103" y="135" width="8" height="1" /><rect x="103" y="143" width="9" height="1" /><rect x="106" y="138" width="1" height="1" /><rect x="107" y="138" width="1" height="1" /><rect x="108" y="138" width="1" height="1" /><rect x="106" y="139" width="1" height="1" /><rect x="108" y="139" width="1" height="1" /><rect x="106" y="140" width="1" height="1" /><rect x="107" y="140" width="1" height="1" /><rect x="108" y="140" width="1" height="1" /><rect x="119" y="135" width="1" height="8" /><rect x="111" y="135" width="8" height="1" /><rect x="114" y="138" width="1" height="1" /><rect x="115" y="138" width="1" height="1" /><rect x="116" y="138" width="1" height="1" /><rect x="114" y="139" width="1" height="1" /><rect x="116" y="139" width="1" height="1" /><rect x="114" y="140" width="1" height="1" /><rect x="115" y="140" width="1" height="1" /><rect x="116" y="140" width="1" height="1" /><rect x="95" y="143" width="1" height="9" /><rect x="103" y="143" width="1" height="8" /><rect x="98" y="146" width="1" height="1" /><rect x="99" y="146" width="1" height="1" /><rect x="100" y="146" width="1" height="1" /><rect x="98" y="147" width="1" height="1" /><rect x="100" y="147" width="1" height="1" /><rect x="98" y="148" width="1" height="1" /><rect x="99" y="148" width="1" height="1" /><rect x="100" y="148" width="1" height="1" /><rect x="111" y="143" width="1" height="9" /><rect x="119" y="143" width="1" height="8" /><rect x="114" y="146" width="1" height="1" /><rect x="115" y="146" width="1" height="1" /><rect x="116" y="146" width="1" height="1" /><rect x="114" y="147" width="1" height="1" /><rect x="116" y="147" width="1" height="1" /><rect x="114" y="148" width="1" height="1" /><rect x="115" y="148" width="1" height="1" /><rect x="116" y="148" width="1" height="1" /><rect x="95" y="151" width="1" height="9" /><rect x="95" y="159" width="9" height="1" /><rect x="98" y="154" width="1" height="1" /><rect x="99" y="154" width="1" height="1" /><rect x="100" y="154" width="1" height="1" /><rect x="98" y="155" width="1" height="1" /><rect x="100" y="155" width="1" height="1" /><rect x="98" y="156" width="1" height="1" /><rect x="99" y="156" width="1" height="1" /><rect x="100" y="156" width="1" height="1" /><rect x="103" y="151" width="8" height="1" /><rect x="103" y="159" width="9" height="1" /><rect x="106" y="154" width="1" height="1" /><rect x="107" y="154" width="1" height="1" /><rect x="108" y="154" width="1" height="1" /><rect x="106" y="155" width="1" height="1" /><rect x="108" y="155" width="1" height="1" /><rect x="106" y="156" width="1" height="1" /><rect x="107" y="156" width="1" height="1" /><rect x="108" y="156" width="1" height="1" /><rect x="119" y="151" width="1" height="8" /><rect x="111" y="159" width="9" height="1" /><rect x="114" y="154" width="1" height="1" /><rect x="115" y="154" width="1" height="1" /><rect x="116" y="154" width="1" height="1" /><rect x="114" y="155" width="1" height="1" /><rect x="116" y="155" width="1" height="1" /><rect x="114" y="156" width="1" height="1" /><rect x="115" y="156" width="1" height="1" /><rect x="116" y="156" width="1" height="1" /><rect x="167" y="127" width="1" height="40" /><rect x="127" y="167" width="41" height="1" /><rect x="135" y="135" width="1" height="9" /><rect x="135" y="135" width="8" height="1" /><rect x="138" y="138" width="1" height="1" /><rect x="139" y="138" width="1" height="1" /><rect x="140" y="138" width="1" height="1" /><rect x="138" y="139" width="1" height="1" /><rect x="140" y="139" width="1" height="1" /><rect x="138" y="140" width="1" height="1" /><rect x="139" y="140" width="1" height="1" /><rect x="140" y="140" width="1" height="1" /><rect x="143" y="135" width="8" height="1" /><rect x="143" y="143" width="9" height="1" /><rect x="146" y="138" width="1" height="1" /><rect x="147" y="138" width="1" height="1" /><rect x="148" y="138" width="1" height="1" /><rect x="146" y="139" width="1" height="1" /><rect x="148" y="139" width="1" height="1" /><rect x="146" y="140" width="1" height="1" /><rect x="147" y="140" width="1" height="1" /><rect x="148" y="140" width="1" height="1" /><rect x="159" y="135" width="1" height="8" /><rect x="151" y="135" width="8" height="1" /><rect x="154" y="138" width="1" height="1" /><rect x="155" y="138" width="1" height="1" /><rect x="156" y="138" width="1" height="1" /><rect x="154" y="139" width="1" height="1" /><rect x="156" y="139" width="1" height="1" /><rect x="154" y="140" width="1" height="1" /><rect x="155" y="140" width="1" height="1" /><rect x="156" y="140" width="1" height="1" /><rect x="135" y="143" width="1" height="9" /><rect x="143" y="143" width="1" height="8" /><rect x="138" y="146" width="1" height="1" /><rect x="139" y="146" width="1" height="1" /><rect x="140" y="146" width="1" height="1" /><rect x="138" y="147" width="1" height="1" /><rect x="140" y="147" width="1" height="1" /><rect x="138" y="148" width="1" height="1" /><rect x="139" y="148" width="1" height="1" /><rect x="140" y="148" width="1" height="1" /><rect x="151" y="143" width="1" height="9" /><rect x="159" y="143" width="1" height="8" /><rect x="154" y="146" width="1" height="1" /><rect x="155" y="146" width="1" height="1" /><rect x="156" y="146" width="1" height="1" /><rect x="154" y="147" width="1" height="1" /><rect x="156" y="147" width="1" height="1" /><rect x="154" y="148" width="1" height="1" /><rect x="155" y="148" width="1" height="1" /><rect x="156" y="148" width="1" height="1" /><rect x="135" y="151" width="1" height="9" /><rect x="135" y="159" width="9" height="1" /><rect x="138" y="154" width="1" height="1" /><rect x="139" y="154" width="1" height="1" /><rect x="140" y="154" width="1" height="1" /><rect x="138" y="155" width="1" height="1" /><rect x="140" y="155" width="1" height="1" /><rect x="138" y="156" width="1" height="1" /><rect x="139" y="156" width="1" height="1" /><rect x="140" y="156" width="1" height="1" /><rect x="143" y="151" width="8" height="1" /><rect x="143" y="159" width="9" height="1" /><rect x="146" y="154" width="1" height="1" /><rect x="147" y="154" width="1" height="1" /><rect x="148" y="154" width="1" height="1" /><rect x="146" y="155" width="1" height="1" /><rect x="148" y="155" width="1" height="1" /><rect x="146" y="156" width="1" height="1" /><rect x="147" y="156" width="1" height="1" /><rect x="148" y="156" width="1" height="1" /><rect x="159" y="151" width="1" height="8" /><rect x="151" y="159" width="9" height="1" /><rect x="154" y="154" width="1" height="1" /><rect x="155" y="154" width="1" height="1" /><rect x="156" y="154" width="1" height="1" /><rect x="154" y="155" width="1" height="1" /><rect x="156" y="155" width="1" height="1" /><rect x="154" y="156" width="1" height="1" /><rect x="155" y="156" width="1" height="1" /><rect x="156" y="156" width="1" height="1" /></svg>