<?xml version="1.0" encoding="utf-8"?><svg xmlns="http://www.w3.org/2000/svg" xmlns:xlink="http://www.w3.org/1999/xlink" width="208" height="208"><g id="n3" transform="translate(-18,-18)"><rect x="65" y="25" width="1" height="41" /><rect x="105" y="25" width="1" height="40" /><rect x="65" y="25" width="40" height="1" /><use href="#n2" x="49" y="9" /><rect x="145" y="25" width="1" height="41" /><rect x="185" y="25" width="1" height="40" /><rect x="145" y="25" width="40" height="1" /><use href="#n2" x="129" y="9" /><rect x="65" y="65" width="1" height="41" /><rect x="105" y="65" width="1" height="40" /><rect x="65" y="105" width="41" height="1" /><use href="#n2" x="49" y="49" /><rect x="145" y="65" width="1" height="41" /><rect x="185" y="65" width="1" height="40" /><rect x="145" y="105" width="41" height="1" /><use href="#n2" x="129" y="49" /></g></svg>