<?xml version="1.0" encoding="utf-8"?><svg xmlns="http://www.w3.org/2000/svg" xmlns:xlink="http://www.w3.org/1999/xlink" width="208" height="208"><rect x="87" y="47" width="1" height="41" /><rect x="127" y="47" width="1" height="40" /><rect x="87" y="47" width="40" height="1" /><rect x="103" y="55" width="1" height="9" /><rect x="111" y="55" width="1" height="8" /><rect x="103" y="55" width="8" height="1" /><rect x="107" y="58" width="1" height="1" /><rect x="106" y="59" width="1" height="1" /><rect x="107" y="59" width="1" height="1" /><rect x="108" y="59" width="1" height="1" /><rect x="105" y="60" width="1" height="1" /><rect x="106" y="60" width="1" height="1" /><rect x="107" y="60" width="1" height="1" /><rect x="108" y="60" width="1" height="1" /><rect x="109" y="60" width="1" height="1" /><rect x="95" y="63" width="1" height="9" /><rect x="95" y="63" width="8" height="1" /><rect x="99" y="66" width="1" height="1" /><rect x="98" y="67" width="1" height="1" /><rect x="99" y="67" width="1" height="1" /><rect x="100" y="67" width="1" height="1" /><rect x="97" y="68" width="1" height="1" /><rect x="98" y="68" width="1" height="1" /><rect x="99" y="68" width="1" height="1" /><rect x="100" y="68" width="1" height="1" /><rect x="101" y="68" width="1" height="1" /><rect x="107" y="66" width="1" height="1" /><rect x="106" y="67" width="1" height="1" /><rect x="107" y="67" width="1" height="1" /><rect x="108" y="67" width="1" height="1" /><rect x="105" y="68" width="1" height="1" /><rect x="106" y="68" width="1" height="1" /><rect x="107" y="68" width="1" height="1" /><rect x="108" y="68" width="1" height="1" /><rect x="109" y="68" width="1" height="1" /><rect x="119" y="63" width="1" height="8" /><rect x="111" y="63" width="8" height="1" /><rect x="115" y="66" width="1" height="1" /><rect x="114" y="67" width="1" height="1" /><rect x="115" y="67" width="1" height="1" /><rect x="116" y="67" width="1" height="1" /><rect x="113" y="68" width="1" height="1" /><rect x="114" y="68" width="1" height="1" /><rect x="115" y="68" width="1" height="1" /><rect x="116" y="68" width="1" height="1" /><rect x="117" y="68" width="1" height="1" /><rect x="87" y="71" width="1" height="9" /><rect x="87" y="71" width="8" height="1" /><rect x="87" y="79" width="9" height="1" /><rect x="91" y="74" width="1" height="1" /><rect x="90" y="75" width="1" height="1" /><rect x="91" y="75" width="1" height="1" /><rect x="92" y="75" width="1" height="1" /><rect x="89" y="76" width="1" height="1" /><rect x="90" y="76" width="1" height="1" /><rect x="91" y="76" width="1" height="1" /><rect x="92" y="76" width="1" height="1" /><rect x="93" y="76" width="1" height="1" /><rect x="95" y="79" width="9" height="1" /><rect x="99" y="74" width="1" height="1" /><rect x="98" y="75" width="1" height="1" /><rect x="99" y="75" width="1" height="1" /><rect x="100" y="75" width="1" height="1" /><rect x="97" y="76" width="1" height="1" /><rect x="98" y="76" width="1" height="1" /><rect x="99" y="76" width="1" height="1" /><rect x="100" y="76" width="1" height="1" /><rect x="101" y="76" width="1" height="1" /><rect x="103" y="79" width="9" height="1" /><rect x="107" y="74" width="1" height="1" /><rect x="106" y="75" width="1" height="1" /><rect x="107" y="75" width="1" height="1" /><rect x="108" y="75" width="1" height="1" /><rect x="105" y="76" width="1" height="1" /><rect x="106" y="76" width="1" height="1" /><rect x="107" y="76" width="1" height="1" /><rect x="108" y="76" width="1" height="1" /><rect x="109" y="76" width="1" height="1" /><rect x="111" y="79" width="9" height="1" /><rect x="115" y="74" width="1" height="1" /><rect x="114" y="75" width="1" height="1" /><rect x="115" y="75" width="1" height="1" /><rect x="116" y="75" width="1" height="1" /><rect x="113" y="76" width="1" height="1" /><rect x="114" y="76" width="1" height="1" /><rect x="115" y="76" width="1" height="1" /><rect x="116" y="76" width="1" height="1" /><rect x="117" y="76" width="1" height="1" /><rect x="127" y="71" width="1" height="8" /><rect x="119" y="71" width="8" height="1" /><rect x="119" y="79" width="9" height="1" /><rect x="123" y="74" width="1" height="1" /><rect x="122" y="75" width="1" height="1" /><rect x="123" y="75" width="1" height="1" /><rect x="124" y="75" width="1" height="1" /><rect x="121" y="76" width="1" height="1" /><rect x="122" y="76" width="1" height="1" /><rect x="123" y="76" width="1" height="1" /><rect x="124" y="76" width="1" height="1" /><rect x="125" y="76" width="1" height="1" /><rect x="47" y="87" width="1" height="41" /><rect x="47" y="87" width="40" height="1" /><rect x="63" y="95" width="1" height="9" /><rect x="71" y="95" width="1" height="8" /><rect x="63" y="95" width="8" height="1" /><rect x="67" y="98" width="1" height="1" /><rect x="66" y="99" width="1" height="1" /><rect x="67" y="99" width="1" height="1" /><rect x="68" y="99" width="1" height="1" /><rect x="65" y="100" width="1" height="1" /><rect x="66" y="100" width="1" height="1" /><rect x="67" y="100" width="1" height="1" /><rect x="68" y="100" width="1" height="1" /><rect x="69" y="100" width="1" height="1" /><rect x="55" y="103" width="1" height="9" /><rect x="55" y="103" width="8" height="1" /><rect x="59" y="106" width="1" height="1" /><rect x="58" y="107" width="1" height="1" /><rect x="59" y="107" width="1" height="1" /><rect x="60" y="107" width="1" height="1" /><rect x="57" y="108" width="1" height="1" /><rect x="58" y="108" width="1" height="1" /><rect x="59" y="108" width="1" height="1" /><rect x="60" y="108" width="1" height="1" /><rect x="61" y="108" width="1" height="1" /><rect x="67" y="106" width="1" height="1" /><rect x="66" y="107" width="1" height="1" /><rect x="67" y="107" width="1" height="1" /><rect x="68" y="107" width="1" height="1" /><rect x="65" y="108" width="1" height="1" /><rect x="66" y="108" width="1" height="1" /><rect x="67" y="108" width="1" height="1" /><rect x="68" y="108" width="1" height="1" /><rect x="69" y="108" width="1" height="1" /><rect x="79" y="103" width="1" height="8" /><rect x="71" y="103" width="8" height="1" /><rect x="75" y="106" width="1" height="1" /><rect x="74" y="107" width="1" height="1" /><rect x="75" y="107" width="1" height="1" /><rect x="76" y="107" width="1" height="1" /><rect x="73" y="108" width="1" height="1" /><rect x="74" y="108" width="1" height="1" /><rect x="75" y="108" width="1" height="1" /><rect x="76" y="108" width="1" height="1" /><rect x="77" y="108" width="1" height="1" /><rect x="47" y="111" width="1" height="9" /><rect x="47" y="111" width="8" height="1" /><rect x="47" y="119" width="9" height="1" /><rect x="51" y="114" width="1" height="1" /><rect x="50" y="115" width="1" height="1" /><rect x="51" y="115" width="1" height="1" /><rect x="52" y="115" width="1" height="1" /><rect x="49" y="116" width="1" height="1" /><rect x="50" y="116" width="1" height="1" /><rect x="51" y="116" width="1" height="1" /><rect x="52" y="116" width="1" height="1" /><rect x="53" y="116" width="1" height="1" /><rect x="55" y="119" width="9" height="1" /><rect x="59" y="114" width="1" height="1" /><rect x="58" y="115" width="1" height="1" /><rect x="59" y="115" width="1" height="1" /><rect x="60" y="115" width="1" height="1" /><rect x="57" y="116" width="1" height="1" /><rect x="58" y="116" width="1" height="1" /><rect x="59" y="116" width="1" height="1" /><rect x="60" y="116" width="1" height="1" /><rect x="61" y="116" width="1" height="1" /><rect x="63" y="119" width="9" height="1" /><rect x="67" y="114" width="1" height="1" /><rect x="66" y="115" width="1" height="1" /><rect x="67" y="115" width="1" height="1" /><rect x="68" y="115" width="1" height="1" /><rect x="65" y="116" width="1" height="1" /><rect x="66" y="116" width="1" height="1" /><rect x="67" y="116" width="1" height="1" /><rect x="68" y="116" width="1" height="1" /><rect x="69" y="116" width="1" height="1" /><rect x="71" y="119" width="9" height="1" /><rect x="75" y="114" width="1" height="1" /><rect x="74" y="115" width="1" height="1" /><rect x="75" y="115" width="1" height="1" /><rect x="76" y="115" width="1" height="1" /><rect x="73" y="116" width="1" height="1" /><rect x="74" y="116" width="1" height="1" /><rect x="75" y="116" width="1" height="1" /><rect x="76" y="116" width="1" height="1" /><rect x="77" y="116" width="1" height="1" /><rect x="87" y="111" width="1" height="8" /><rect x="79" y="111" width="8" height="1" /><rect x="79" y="119" width="9" height="1" /><rect x="83" y="114" width="1" height="1" /><rect x="82" y="115" width="1" height="1" /><rect x="83" y="115" width="1" height="1" /><rect x="84" y="115" width="1" height="1" /><rect x="81" y="116" width="1" height="1" /><rect x="82" y="116" width="1" height="1" /><rect x="83" y="116" width="1" height="1" /><rect x="84" y="116" width="1" height="1" /><rect x="85" y="116" width="1" height="1" /><rect x="103" y="95" width="1" height="9" /><rect x="111" y="95" width="1" height="8" /><rect x="103" y="95" width="8" height="1" /><rect x="107" y="98" width="1" height="1" /><rect x="106" y="99" width="1" height="1" /><rect x="107" y="99" width="1" height="1" /><rect x="108" y="99" width="1" height="1" /><rect x="105" y="100" width="1" height="1" /><rect x="106" y="100" width="1" height="1" /><rect x="107" y="100" width="1" height="1" /><rect x="108" y="100" width="1" height="1" /><rect x="109" y="100" width="1" height="1" /><rect x="95" y="103" width="1" height="9" /><rect x="95" y="103" width="8" height="1" /><rect x="99" y="106" width="1" height="1" /><rect x="98" y="107" width="1" height="1" /><rect x="99" y="107" width="1" height="1" /><rect x="100" y="107" width="1" height="1" /><rect x="97" y="108" width="1" height="1" /><rect x="98" y="108" width="1" height="1" /><rect x="99" y="108" width="1" height="1" /><rect x="100" y="108" width="1" height="1" /><rect x="101" y="108" width="1" height="1" /><rect x="107" y="106" width="1" height="1" /><rect x="106" y="107" width="1" height="1" /><rect x="107" y="107" width="1" height="1" /><rect x="108" y="107" width="1" height="1" /><rect x="105" y="108" width="1" height="1" /><rect x="106" y="108" width="1" height="1" /><rect x="107" y="108" width="1" height="1" /><rect x="108" y="108" width="1" height="1" /><rect x="109" y="108" width="1" height="1" /><rect x="119" y="103" width="1" height="8" /><rect x="111" y="103" width="8" height="1" /><rect x="115" y="106" width="1" height="1" /><rect x="114" y="107" width="1" height="1" /><rect x="115" y="107" width="1" height="1" /><rect x="116" y="107" width="1" height="1" /><rect x="113" y="108" width="1" height="1" /><rect x="114" y="108" width="1" height="1" /><rect x="115" y="108" width="1" height="1" /><rect x="116" y="108" width="1" height="1" /><rect x="117" y="108" width="1" height="1" /><rect x="87" y="111" width="1" height="9" /><rect x="87" y="111" width="8" height="1" /><rect x="87" y="119" width="9" height="1" /><rect x="91" y="114" width="1" height="1" /><rect x="90" y="115" width="1" height="1" /><rect x="91" y="115" width="1" height="1" /><rect x="92" y="115" width="1" height="1" /><rect x="89" y="116" width="1" height="1" /><rect x="90" y="116" width="1" height="1" /><rect x="91" y="116" width="1" height="1" /><rect x="92" y="116" width="1" height="1" /><rect x="93" y="116" width="1" height="1" /><rect x="95" y="119" width="9" height="1" /><rect x="99" y="114" width="1" height="1" /><rect x="98" y="115" width="1" height="1" /><rect x="99" y="115" width="1" height="1" /><rect x="100" y="115" width="1" height="1" /><rect x="97" y="116" width="1" height="1" /><rect x="98" y="116" width="1" height="1" /><rect x="99" y="116" width="1" height="1" /><rect x="100" y="116" width="1" height="1" /><rect x="101" y="116" width="1" height="1" /><rect x="103" y="119" width="9" height="1" /><rect x="107" y="114" width="1" height="1" /><rect x="106" y="115" width="1" height="1" /><rect x="107" y="115" width="1" height="1" /><rect x="108" y="115" width="1" height="1" /><rect x="105" y="116" width="1" height="1" /><rect x="106" y="116" width="1" height="1" /><rect x="107" y="116" width="1" height="1" /><rect x="108" y="116" width="1" height="1" /><rect x="109" y="116" width="1" height="1" /><rect x="111" y="119" width="9" height="1" /><rect x="115" y="114" width="1" height="1" /><rect x="114" y="115" width="1" height="1" /><rect x="115" y="115" width="1" height="1" /><rect x="116" y="115" width="1" height="1" /><rect x="113" y="116" width="1" height="1" /><rect x="114" y="116" width="1" height="1" /><rect x="115" y="116" width="1" height="1" /><rect x="116" y="116" width="1" height="1" /><rect x="117" y="116" width="1" height="1" /><rect x="127" y="111" width="1" height="8" /><rect x="119" y="111" width="8" height="1" /><rect x="119" y="119" width="9" height="1" /><rect x="123" y="114" width="1" height="1" /><rect x="122" y="115" width="1" height="1" /><rect x="123" y="115" width="1" height="1" /><rect x="124" y="115" width="1" height="1" /><rect x="121" y="116" width="1" height="1" /><rect x="122" y="116" width="1" height="1" /><rect x="123" y="116" width="1" height="1" /><rect x="124" y="116" width="1" height="1" /><rect x="125" y="116" width="1" height="1" /><rect x="167" y="87" width="1" height="40" /><rect x="127" y="87" width="40" height="1" /><rect x="143" y="95" width="1" height="9" /><rect x="151" y="95" width="1" height="8" /><rect x="143" y="95" width="8" height="1" /><rect x="147" y="98" width="1" height="1" /><rect x="146" y="99" width="1" height="1" /><rect x="147" y="99" width="1" height="1" /><rect x="148" y="99" width="1" height="1" /><rect x="145" y="100" width="1" height="1" /><rect x="146" y="100" width="1" height="1" /><rect x="147" y="100" width="1" height="1" /><rect x="148" y="100" width="1" height="1" /><rect x="149" y="100" width="1" height="1" /><rect x="135" y="103" width="1" height="9" /><rect x="135" y="103" width="8" height="1" /><rect x="139" y="106" width="1" height="1" /><rect x="138" y="107" width="1" height="1" /><rect x="139" y="107" width="1" height="1" /><rect x="140" y="107" width="1" height="1" /><rect x="137" y="108" width="1" height="1" /><rect x="138" y="108" width="1" height="1" /><rect x="139" y="108" width="1" height="1" /><rect x="140" y="108" width="1" height="1" /><rect x="141" y="108" width="1" height="1" /><rect x="147" y="106" width="1" height="1" /><rect x="146" y="107" width="1" height="1" /><rect x="147" y="107" width="1" height="1" /><rect x="148" y="107" width="1" height="1" /><rect x="145" y="108" width="1" height="1" /><rect x="146" y="108" width="1" height="1" /><rect x="147" y="108" width="1" height="1" /><rect x="148" y="108" width="1" height="1" /><rect x="149" y="108" width="1" height="1" /><rect x="159" y="103" width="1" height="8" /><rect x="151" y="103" width="8" height="1" /><rect x="155" y="106" width="1" height="1" /><rect x="154" y="107" width="1" height="1" /><rect x="155" y="107" width="1" height="1" /><rect x="156" y="107" width="1" height="1" /><rect x="153" y="108" width="1" height="1" /><rect x="154" y="108" width="1" height="1" /><rect x="155" y="108" width="1" height="1" /><rect x="156" y="108" width="1" height="1" /><rect x="157" y="108" width="1" height="1" /><rect x="127" y="111" width="1" height="9" /><rect x="127" y="111" width="8" height="1" /><rect x="127" y="119" width="9" height="1" /><rect x="131" y="114" width="1" height="1" /><rect x="130" y="115" width="1" height="1" /><rect x="131" y="115" width="1" height="1" /><rect x="132" y="115" width="1" height="1" /><rect x="129" y="116" width="1" height="1" /><rect x="130" y="116" width="1" height="1" /><rect x="131" y="116" width="1" height="1" /><rect x="132" y="116" width="1" height="1" /><rect x="133" y="116" width="1" height="1" /><rect x="135" y="119" width="9" height="1" /><rect x="139" y="114" width="1" height="1" /><rect x="138" y="115" width="1" height="1" /><rect x="139" y="115" width="1" height="1" /><rect x="140" y="115" width="1" height="1" /><rect x="137" y="116" width="1" height="1" /><rect x="138" y="116" width="1" height="1" /><rect x="139" y="116" width="1" height="1" /><rect x="140" y="116" width="1" height="1" /><rect x="141" y="116" width="1" height="1" /><rect x="143" y="119" width="9" height="1" /><rect x="147" y="114" width="1" height="1" /><rect x="146" y="115" width="1" height="1" /><rect x="147" y="115" width="1" height="1" /><rect x="148" y="115" width="1" height="1" /><rect x="145" y="116" width="1" height="1" /><rect x="146" y="116" width="1" height="1" /><rect x="147" y="116" width="1" height="1" /><rect x="148" y="116" width="1" height="1" /><rect x="149" y="116" width="1" height="1" /><rect x="151" y="119" width="9" height="1" /><rect x="155" y="114" width="1" height="1" /><rect x="154" y="115" width="1" height="1" /><rect x="155" y="115" width="1" height="1" /><rect x="156" y="115" width="1" height="1" /><rect x="153" y="116" width="1" height="1" /><rect x="154" y="116" width="1" height="1" /><rect x="155" y="116" width="1" height="1" /><rect x="156" y="116" width="1" height="1" /><rect x="157" y="116" width="1" height="1" /><rect x="167" y="111" width="1" height="8" /><rect x="159" y="111" width="8" height="1" /><rect x="159" y="119" width="9" height="1" /><rect x="163" y="114" width="1" height="1" /><rect x="162" y="115" width="1" height="1" /><rect x="163" y="115" width="1" height="1" /><rect x="164" y="115" width="1" height="1" /><rect x="161" y="116" width="1" height="1" /><rect x="162" y="116" width="1" height="1" /><rect x="163" y="116" width="1" height="1" /><rect x="164" y="116" width="1" height="1" /><rect x="165" y="116" width="1" height="1" /><rect x="7" y="127" width="1" height="41" /><rect x="7" y="127" width="40" height="1" /><rect x="7" y="167" width="41" height="1" /><rect x="23" y="135" width="1" height="9" /><rect x="31" y="135" width="1" height="8" /><rect x="23" y="135" width="8" height="1" /><rect x="27" y="138" width="1" height="1" /><rect x="26" y="139" width="1" height="1" /><rect x="27" y="139" width="1" height="1" /><rect x="28" y="139" width="1" height="1" /><rect x="25" y="140" width="1" height="1" /><rect x="26" y="140" width="1" height="1" /><rect x="27" y="140" width="1" height="1" /><rect x="28" y="140" width="1" height="1" /><rect x="29" y="140" width="1" height="1" /><rect x="15" y="143" width="1" height="9" /><rect x="15" y="143" width="8" height="1" /><rect x="19" y="146" width="1" height="1" /><rect x="18" y="147" width="1" height="1" /><rect x="19" y="147" width="1" height="1" /><rect x="20" y="147" width="1" height="1" /><rect x="17" y="148" width="1" height="1" /><rect x="18" y="148" width="1" height="1" /><rect x="19" y="148" width="1" height="1" /><rect x="20" y="148" width="1" height="1" /><rect x="21" y="148" width="1" height="1" /><rect x="27" y="146" width="1" height="1" /><rect x="26" y="147" width="1" height="1" /><rect x="27" y="147" width="1" height="1" /><rect x="28" y="147" width="1" height="1" /><rect x="25" y="148" width="1" height="1" /><rect x="26" y="148" width="1" height="1" /><rect x="27" y="148" width="1" height="1" /><rect x="28" y="148" width="1" height="1" /><rect x="29" y="148" width="1" height="1" /><rect x="39" y="143" width="1" height="8" /><rect x="31" y="143" width="8" height="1" /><rect x="35" y="146" width="1" height="1" /><rect x="34" y="147" width="1" height="1" /><rect x="35" y="147" width="1" height="1" /><rect x="36" y="147" width="1" height="1" /><rect x="33" y="148" width="1" height="1" /><rect x="34" y="148" width="1" height="1" /><rect x="35" y="148" width="1" height="1" /><rect x="36" y="148" width="1" height="1" /><rect x="37" y="148" width="1" height="1" /><rect x="7" y="151" width="1" height="9" /><rect x="7" y="151" width="8" height="1" /><rect x="7" y="159" width="9" height="1" /><rect x="11" y="154" width="1" height="1" /><rect x="10" y="155" width="1" height="1" /><rect x="11" y="155" width="1" height="1" /><rect x="12" y="155" width="1" height="1" /><rect x="9" y="156" width="1" height="1" /><rect x="10" y="156" width="1" height="1" /><rect x="11" y="156" width="1" height="1" /><rect x="12" y="156" width="1" height="1" /><rect x="13" y="156" width="1" height="1" /><rect x="15" y="159" width="9" height="1" /><rect x="19" y="154" width="1" height="1" /><rect x="18" y="155" width="1" height="1" /><rect x="19" y="155" width="1" height="1" /><rect x="20" y="155" width="1" height="1" /><rect x="17" y="156" width="1" height="1" /><rect x="18" y="156" width="1" height="1" /><rect x="19" y="156" width="1" height="1" /><rect x="20" y="156" width="1" height="1" /><rect x="21" y="156" width="1" height="1" /><rect x="23" y="159" width="9" height="1" /><rect x="27" y="154" width="1" height="1" /><rect x="26" y="155" width="1" height="1" /><rect x="27" y="155" width="1" height="1" /><rect x="28" y="155" width="1" height="1" /><rect x="25" y="156" width="1" height="1" /><rect x="26" y="156" width="1" height="1" /><rect x="27" y="156" width="1" height="1" /><rect x="28" y="156" width="1" height="1" /><rect x="29" y="156" width="1" height="1" /><rect x="31" y="159" width="9" height="1" /><rect x="35" y="154" width="1" height="1" /><rect x="34" y="155" width="1" height="1" /><rect x="35" y="155" width="1" height="1" /><rect x="36" y="155" width="1" height="1" /><rect x="33" y="156" width="1" height="1" /><rect x="34" y="156" width="1" height="1" /><rect x="35" y="156" width="1" height="1" /><rect x="36" y="156" width="1" height="1" /><rect x="37" y="156" width="1" height="1" /><rect x="47" y="151" width="1" height="8" /><rect x="39" y="151" width="8" height="1" /><rect x="39" y="159" width="9" height="1" /><rect x="43" y="154" width="1" height="1" /><rect x="42" y="155" width="1" height="1" /><rect x="43" y="155" width="1" height="1" /><rect x="44" y="155" width="1" height="1" /><rect x="41" y="156" width="1" height="1" /><rect x="42" y="156" width="1" height="1" /><rect x="43" y="156" width="1" height="1" /><rect x="44" y="156" width="1" height="1" /><rect x="45" y="156" width="1" height="1" /><rect x="47" y="167" width="41" height="1" /><rect x="63" y="135" width="1" height="9" /><rect x="71" y="135" width="1" height="8" /><rect x="63" y="135" width="8" height="1" /><rect x="67" y="138" width="1" height="1" /><rect x="66" y="139" width="1" height="1" /><rect x="67" y="139" width="1" height="1" /><rect x="68" y="139" width="1" height="1" /><rect x="65" y="140" width="1" height="1" /><rect x="66" y="140" width="1" height="1" /><rect x="67" y="140" width="1" height="1" /><rect x="68" y="140" width="1" height="1" /><rect x="69" y="140" width="1" height="1" /><rect x="55" y="143" width="1" height="9" /><rect x="55" y="143" width="8" height="1" /><rect x="59" y="146" width="1" height="1" /><rect x="58" y="147" width="1" height="1" /><rect x="59" y="147" width="1" height="1" /><rect x="60" y="147" width="1" height="1" /><rect x="57" y="148" width="1" height="1" /><rect x="58" y="148" width="1" height="1" /><rect x="59" y="148" width="1" height="1" /><rect x="60" y="148" width="1" height="1" /><rect x="61" y="148" width="1" height="1" /><rect x="67" y="146" width="1" height="1" /><rect x="66" y="147" width="1" height="1" /><rect x="67" y="147" width="1" height="1" /><rect x="68" y="147" width="1" height="1" /><rect x="65" y="148" width="1" height="1" /><rect x="66" y="148" width="1" height="1" /><rect x="67" y="148" width="1" height="1" /><rect x="68" y="148" width="1" height="1" /><rect x="69" y="148" width="1" height="1" /><rect x="79" y="143" width="1" height="8" /><rect x="71" y="143" width="8" height="1" /><rect x="75" y="146" width="1" height="1" /><rect x="74" y="147" width="1" height="1" /><rect x="75" y="147" width="1" height="1" /><rect x="76" y="147" width="1" height="1" /><rect x="73" y="148" width="1" height="1" /><rect x="74" y="148" width="1" height="1" /><rect x="75" y="148" width="1" height="1" /><rect x="76" y="148" width="1" height="1" /><rect x="77" y="148" width="1" height="1" /><rect x="47" y="151" width="1" height="9" /><rect x="47" y="151" width="8" height="1" /><rect x="47" y="159" width="9" height="1" /><rect x="51" y="154" width="1" height="1" /><rect x="50" y="155" width="1" height="1" /><rect x="51" y="155" width="1" height="1" /><rect x="52" y="155" width="1" height="1" /><rect x="49" y="156" width="1" height="1" /><rect x="50" y="156" width="1" height="1" /><rect x="51" y="156" width="1" height="1" /><rect x="52" y="156" width="1" height="1" /><rect x="53" y="156" width="1" height="1" /><rect x="55" y="159" width="9" height="1" /><rect x="59" y="154" width="1" height="1" /><rect x="58" y="155" width="1" height="1" /><rect x="59" y="155" width="1" height="1" /><rect x="60" y="155" width="1" height="1" /><rect x="57" y="156" width="1" height="1" /><rect x="58" y="156" width="1" height="1" /><rect x="59" y="156" width="1" height="1" /><rect x="60" y="156" width="1" height="1" /><rect x="61" y="156" width="1" height="1" /><rect x="63" y="159" width="9" height="1" /><rect x="67" y="154" width="1" height="1" /><rect x="66" y="155" width="1" height="1" /><rect x="67" y="155" width="1" height="1" /><rect x="68" y="155" width="1" height="1" /><rect x="65" y="156" width="1" height="1" /><rect x="66" y="156" width="1" height="1" /><rect x="67" y="156" width="1" height="1" /><rect x="68" y="156" width="1" height="1" /><rect x="69" y="156" width="1" height="1" /><rect x="71" y="159" width="9" height="1" /><rect x="75" y="154" width="1" height="1" /><rect x="74" y="155" width="1" height="1" /><rect x="75" y="155" width="1" height="1" /><rect x="76" y="155" width="1" height="1" /><rect x="73" y="156" width="1" height="1" /><rect x="74" y="156" width="1" height="1" /><rect x="75" y="156" width="1" height="1" /><rect x="76" y="156" width="1" height="1" /><rect x="77" y="156" width="1" height="1" /><rect x="87" y="151" width="1" height="8" /><rect x="79" y="151" width="8" height="1" /><rect x="79" y="159" width="9" height="1" /><rect x="83" y="154" width="1" height="1" /><rect x="82" y="155" width="1" height="1" /><rect x="83" y="155" width="1" height="1" /><rect x="84" y="155" width="1" height="1" /><rect x="81" y="156" width="1" height="1" /><rect x="82" y="156" width="1" height="1" /><rect x="83" y="156" width="1" height="1" /><rect x="84" y="156" width="1" height="1" /><rect x="85" y="156" width="1" height="1" /><rect x="87" y="167" width="41" height="1" /><rect x="103" y="135" width="1" height="9" /><rect x="111" y="135" width="1" height="8" /><rect x="103" y="135" width="8" height="1" /><rect x="107" y="138" width="1" height="1" /><rect x="106" y="139" width="1" height="1" /><rect x="107" y="139" width="1" height="1" /><rect x="108" y="139" width="1" height="1" /><rect x="105" y="140" width="1" height="1" /><rect x="106" y="140" width="1" height="1" /><rect x="107" y="140" width="1" height="1" /><rect x="108" y="140" width="1" height="1" /><rect x="109" y="140" width="1" height="1" /><rect x="95" y="143" width="1" height="9" /><rect x="95" y="143" width="8" height="1" /><rect x="99" y="146" width="1" height="1" /><rect x="98" y="147" width="1" height="1" /><rect x="99" y="147" width="1" height="1" /><rect x="100" y="147" width="1" height="1" /><rect x="97" y="148" width="1" height="1" /><rect x="98" y="148" width="1" height="1" /><rect x="99" y="148" width="1" height="1" /><rect x="100" y="148" width="1" height="1" /><rect x="101" y="148" width="1" height="1" /><rect x="107" y="146" width="1" height="1" /><rect x="106" y="147" width="1" height="1" /><rect x="107" y="147" width="1" height="1" /><rect x="108" y="147" width="1" height="1" /><rect x="105" y="148" width="1" height="1" /><rect x="106" y="148" width="1" height="1" /><rect x="107" y="148" width="1" height="1" /><rect x="108" y="148" width="1" height="1" /><rect x="109" y="148" width="1" height="1" /><rect x="119" y="143" width="1" height="8" /><rect x="111" y="143" width="8" height="1" /><rect x="115" y="146" width="1" height="1" /><rect x="114" y="147" width="1" height="1" /><rect x="115" y="147" width="1" height="1" /><rect x="116" y="147" width="1" height="1" /><rect x="113" y="148" width="1" height="1" /><rect x="114" y="148" width="1" height="1" /><rect x="115" y="148" width="1" height="1" /><rect x="116" y="148" width="1" height="1" /><rect x="117" y="148" width="1" height="1" /><rect x="87" y="151" width="1" height="9" /><rect x="87" y="151" width="8" height="1" /><rect x="87" y="159" width="9" height="1" /><rect x="91" y="154" width="1" height="1" /><rect x="90" y="155" width="1" height="1" /><rect x="91" y="155" width="1" height="1" /><rect x="92" y="155" width="1" height="1" /><rect x="89" y="156" width="1" height="1" /><rect x="90" y="156" width="1" height="1" /><rect x="91" y="156" width="1" height="1" /><rect x="92" y="156" width="1" height="1" /><rect x="93" y="156" width="1" height="1" /><rect x="95" y="159" width="9" height="1" /><rect x="99" y="154" width="1" height="1" /><rect x="98" y="155" width="1" height="1" /><rect x="99" y="155" width="1" height="1" /><rect x="100" y="155" width="1" height="1" /><rect x="97" y="156" width="1" height="1" /><rect x="98" y="156" width="1" height="1" /><rect x="99" y="156" width="1" height="1" /><rect x="100" y="156" width="1" height="1" /><rect x="101" y="156" width="1" height="1" /><rect x="103" y="159" width="9" height="1" /><rect x="107" y="154" width="1" height="1" /><rect x="106" y="155" width="1" height="1" /><rect x="107" y="155" width="1" height="1" /><rect x="108" y="155" width="1" height="1" /><rect x="105" y="156" width="1" height="1" /><rect x="106" y="156" width="1" height="1" /><rect x="107" y="156" width="1" height="1" /><rect x="108" y="156" width="1" height="1" /><rect x="109" y="156" width="1" height="1" /><rect x="111" y="159" width="9" height="1" /><rect x="115" y="154" width="1" height="1" /><rect x="114" y="155" width="1" height="1" /><rect x="115" y="155" width="1" height="1" /><rect x="116" y="155" width="1" height="1" /><rect x="113" y="156" width="1" height="1" /><rect x="114" y="156" width="1" height="1" /><rect x="115" y="156" width="1" height="1" /><rect x="116" y="156" width="1" height="1" /><rect x="117" y="156" width="1" height="1" /><rect x="127" y="151" width="1" height="8" /><rect x="119" y="151" width="8" height="1" /><rect x="119" y="159" width="9" height="1" /><rect x="123" y="154" width="1" height="1" /><rect x="122" y="155" width="1" height="1" /><rect x="123" y="155" width="1" height="1" /><rect x="124" y="155" width="1" height="1" /><rect x="121" y="156" width="1" height="1" /><rect x="122" y="156" width="1" height="1" /><rect x="123" y="156" width="1" height="1" /><rect x="124" y="156" width="1" height="1" /><rect x="125" y="156" width="1" height="1" /><rect x="127" y="167" width="41" height="1" /><rect x="143" y="135" width="1" height="9" /><rect x="151" y="135" width="1" height="8" /><rect x="143" y="135" width="8" height="1" /><rect x="147" y="138" width="1" height="1" /><rect x="146" y="139" width="1" height="1" /><rect x="147" y="139" width="1" height="1" /><rect x="148" y="139" width="1" height="1" /><rect x="145" y="140" width="1" height="1" /><rect x="146" y="140" width="1" height="1" /><rect x="147" y="140" width="1" height="1" /><rect x="148" y="140" width="1" height="1" /><rect x="149" y="140" width="1" height="1" /><rect x="135" y="143" width="1" height="9" /><rect x="135" y="143" width="8" height="1" /><rect x="139" y="146" width="1" height="1" /><rect x="138" y="147" width="1" height="1" /><rect x="139" y="147" width="1" height="1" /><rect x="140" y="147" width="1" height="1" /><rect x="137" y="148" width="1" height="1" /><rect x="138" y="148" width="1" height="1" /><rect x="139" y="148" width="1" height="1" /><rect x="140" y="148" width="1" height="1" /><rect x="141" y="148" width="1" height="1" /><rect x="147" y="146" width="1" height="1" /><rect x="146" y="147" width="1" height="1" /><rect x="147" y="147" width="1" height="1" /><rect x="148" y="147" width="1" height="1" /><rect x="145" y="148" width="1" height="1" /><rect x="146" y="148" width="1" height="1" /><rect x="147" y="148" width="1" height="1" /><rect x="148" y="148" width="1" height="1" /><rect x="149" y="148" width="1" height="1" /><rect x="159" y="143" width="1" height="8" /><rect x="151" y="143" width="8" height="1" /><rect x="155" y="146" width="1" height="1" /><rect x="154" y="147" width="1" height="1" /><rect x="155" y="147" width="1" height="1" /><rect x="156" y="147" width="1" height="1" /><rect x="153" y="148" width="1" height="1" /><rect x="154" y="148" width="1" height="1" /><rect x="155" y="148" width="1" height="1" /><rect x="156" y="148" width="1" height="1" /><rect x="157" y="148" width="1" height="1" /><rect x="127" y="151" width="1" height="9" /><rect x="127" y="151" width="8" height="1" /><rect x="127" y="159" width="9" height="1" /><rect x="131" y="154" width="1" height="1" /><rect x="130" y="155" width="1" height="1" /><rect x="131" y="155" width="1" height="1" /><rect x="132" y="155" width="1" height="1" /><rect x="129" y="156" width="1" height="1" /><rect x="130" y="156" width="1" height="1" /><rect x="131" y="156" width="1" height="1" /><rect x="132" y="156" width="1" height="1" /><rect x="133" y="156" width="1" height="1" /><rect x="135" y="159" width="9" height="1" /><rect x="139" y="154" width="1" height="1" /><rect x="138" y="155" width="1" height="1" /><rect x="139" y="155" width="1" height="1" /><rect x="140" y="155" width="1" height="1" /><rect x="137" y="156" width="1" height="1" /><rect x="138" y="156" width="1" height="1" /><rect x="139" y="156" width="1" height="1" /><rect x="140" y="156" width="1" height="1" /><rect x="141" y="156" width="1" height="1" /><rect x="143" y="159" width="9" height="1" /><rect x="147" y="154" width="1" height="1" /><rect x="146" y="155" width="1" height="1" /><rect x="147" y="155" width="1" height="1" /><rect x="148" y="155" width="1" height="1" /><rect x="145" y="156" width="1" height="1" /><rect x="146" y="156" width="1" height="1" /><rect x="147" y="156" width="1" height="1" /><rect x="148" y="156" width="1" height="1" /><rect x="149" y="156" width="1" height="1" /><rect x="151" y="159" width="9" height="1" /><rect x="155" y="154" width="1" height="1" /><rect x="154" y="155" width="1" height="1" /><rect x="155" y="155" width="1" height="1" /><rect x="156" y="155" width="1" height="1" /><rect x="153" y="156" width="1" height="1" /><rect x="154" y="156" width="1" height="1" /><rect x="155" y="156" width="1" height="1" /><rect x="156" y="156" width="1" height="1" /><rect x="157" y="156" width="1" height="1" /><rect x="167" y="151" width="1" height="8" /><rect x="159" y="151" width="8" height="1" /><rect x="159" y="159" width="9" height="1" /><rect x="163" y="154" width="1" height="1" /><rect x="162" y="155" width="1" height="1" /><rect x="163" y="155" width="1" height="1" /><rect x="164" y="155" width="1" height="1" /><rect x="161" y="156" width="1" height="1" /><rect x="162" y="156" width="1" height="1" /><rect x="163" y="156" width="1" height="1" /><rect x="164" y="156" width="1" height="1" /><rect x="165" y="156" width="1" height="1" /><rect x="207" y="127" width="1" height="40" /><rect x="167" y="127" width="40" height="1" /><rect x="167" y="167" width="41" height="1" /><rect x="183" y="135" width="1" height="9" /><rect x="191" y="135" width="1" height="8" /><rect x="183" y="135" width="8" height="1" /><rect x="187" y="138" width="1" height="1" /><rect x="186" y="139" width="1" height="1" /><rect x="187" y="139" width="1" height="1" /><rect x="188" y="139" width="1" height="1" /><rect x="185" y="140" width="1" height="1" /><rect x="186" y="140" width="1" height="1" /><rect x="187" y="140" width="1" height="1" /><rect x="188" y="140" width="1" height="1" /><rect x="189" y="140" width="1" height="1" /><rect x="175" y="143" width="1" height="9" /><rect x="175" y="143" width="8" height="1" /><rect x="179" y="146" width="1" height="1" /><rect x="178" y="147" width="1" height="1" /><rect x="179" y="147" width="1" height="1" /><rect x="180" y="147" width="1" height="1" /><rect x="177" y="148" width="1" height="1" /><rect x="178" y="148" width="1" height="1" /><rect x="179" y="148" width="1" height="1" /><rect x="180" y="148" width="1" height="1" /><rect x="181" y="148" width="1" height="1" /><rect x="187" y="146" width="1" height="1" /><rect x="186" y="147" width="1" height="1" /><rect x="187" y="147" width="1" height="1" /><rect x="188" y="147" width="1" height="1" /><rect x="185" y="148" width="1" height="1" /><rect x="186" y="148" width="1" height="1" /><rect x="187" y="148" width="1" height="1" /><rect x="188" y="148" width="1" height="1" /><rect x="189" y="148" width="1" height="1" /><rect x="199" y="143" width="1" height="8" /><rect x="191" y="143" width="8" height="1" /><rect x="195" y="146" width="1" height="1" /><rect x="194" y="147" width="1" height="1" /><rect x="195" y="147" width="1" height="1" /><rect x="196" y="147" width="1" height="1" /><rect x="193" y="148" width="1" height="1" /><rect x="194" y="148" width="1" height="1" /><rect x="195" y="148" width="1" height="1" /><rect x="196" y="148" width="1" height="1" /><rect x="197" y="148" width="1" height="1" /><rect x="167" y="151" width="1" height="9" /><rect x="167" y="151" width="8" height="1" /><rect x="167" y="159" width="9" height="1" /><rect x="171" y="154" width="1" height="1" /><rect x="170" y="155" width="1" height="1" /><rect x="171" y="155" width="1" height="1" /><rect x="172" y="155" width="1" height="1" /><rect x="169" y="156" width="1" height="1" /><rect x="170" y="156" width="1" height="1" /><rect x="171" y="156" width="1" height="1" /><rect x="172" y="156" width="1" height="1" /><rect x="173" y="156" width="1" height="1" /><rect x="175" y="159" width="9" height="1" /><rect x="179" y="154" width="1" height="1" /><rect x="178" y="155" width="1" height="1" /><rect x="179" y="155" width="1" height="1" /><rect x="180" y="155" width="1" height="1" /><rect x="177" y="156" width="1" height="1" /><rect x="178" y="156" width="1" height="1" /><rect x="179" y="156" width="1" height="1" /><rect x="180" y="156" width="1" height="1" /><rect x="181" y="156" width="1" height="1" /><rect x="183" y="159" width="9" height="1" /><rect x="187" y="154" width="1" height="1" /><rect x="186" y="155" width="1" height="1" /><rect x="187" y="155" width="1" height="1" /><rect x="188" y="155" width="1" height="1" /><rect x="185" y="156" width="1" height="1" /><rect x="186" y="156" width="1" height="1" /><rect x="187" y="156" width="1" height="1" /><rect x="188" y="156" width="1" height="1" /><rect x="189" y="156" width="1" height="1" /><rect x="191" y="159" width="9" height="1" /><rect x="195" y="154" width="1" height="1" /><rect x="194" y="155" width="1" height="1" /><rect x="195" y="155" width="1" height="1" /><rect x="196" y="155" width="1" height="1" /><rect x="193" y="156" width="1" height="1" /><rect x="194" y="156" width="1" height="1" /><rect x="195" y="156" width="1" height="1" /><rect x="196" y="156" width="1" height="1" /><rect x="197" y="156" width="1" height="1" /><rect x="207" y="151" width="1" height="8" /><rect x="199" y="151" width="8" height="1" /><rect x="199" y="159" width="9" height="1" /><rect x="203" y="154" width="1" height="1" /><rect x="202" y="155" width="1" height="1" /><rect x="203" y="155" width="1" height="1" /><rect x="204" y="155" width="1" height="1" /><rect x="201" y="156" width="1" height="1" /><rect x="202" y="156" width="1" height="1" /><rect x="203" y="156" width="1" height="1" /><rect x="204" y="156" width="1" height="1" /><rect x="205" y="156" width="1" height="1" /></svg>