<?xml version="1.0" encoding="utf-8"?><svg xmlns="http://www.w3.org/2000/svg" xmlns:xlink="http://www.w3.org/1999/xlink" width="208" height="208"><rect x="87" y="7" width="1" height="41" /><rect x="127" y="7" width="1" height="40" /><rect x="87" y="7" width="40" height="1" /><rect x="87" y="47" width="41" height="1" /><rect x="103" y="7" width="1" height="9" /><rect x="111" y="7" width="1" height="8" /><rect x="103" y="7" width="8" height="1" /><rect x="103" y="15" width="9" height="1" /><rect x="107" y="9" width="1" height="1" /><rect x="105" y="13" width="1" height="1" /><rect x="109" y="13" width="1" height="1" /><rect x="87" y="39" width="1" height="9" /><rect x="95" y="39" width="1" height="8" /><rect x="87" y="39" width="8" height="1" /><rect x="87" y="47" width="9" height="1" /><rect x="91" y="41" width="1" height="1" /><rect x="89" y="45" width="1" height="1" /><rect x="93" y="45" width="1" height="1" /><rect x="119" y="39" width="1" height="9" /><rect x="127" y="39" width="1" height="8" /><rect x="119" y="39" width="8" height="1" /><rect x="119" y="47" width="9" height="1" /><rect x="123" y="41" width="1" height="1" /><rect x="121" y="45" width="1" height="1" /><rect x="125" y="45" width="1" height="1" /><rect x="7" y="167" width="1" height="41" /><rect x="47" y="167" width="1" height="40" /><rect x="7" y="167" width="40" height="1" /><rect x="7" y="207" width="41" height="1" /><rect x="23" y="167" width="1" height="9" /><rect x="31" y="167" width="1" height="8" /><rect x="23" y="167" width="8" height="1" /><rect x="23" y="175" width="9" height="1" /><rect x="27" y="169" width="1" height="1" /><rect x="25" y="173" width="1" height="1" /><rect x="29" y="173" width="1" height="1" /><rect x="7" y="199" width="1" height="9" /><rect x="15" y="199" width="1" height="8" /><rect x="7" y="199" width="8" height="1" /><rect x="7" y="207" width="9" height="1" /><rect x="11" y="201" width="1" height="1" /><rect x="9" y="205" width="1" height="1" /><rect x="13" y="205" width="1" height="1" /><rect x="39" y="199" width="1" height="9" /><rect x="47" y="199" width="1" height="8" /><rect x="39" y="199" width="8" height="1" /><rect x="39" y="207" width="9" height="1" /><rect x="43" y="201" width="1" height="1" /><rect x="41" y="205" width="1" height="1" /><rect x="45" y="205" width="1" height="1" /><rect x="167" y="167" width="1" height="41" /><rect x="207" y="167" width="1" height="40" /><rect x="167" y="167" width="40" height="1" /><rect x="167" y="207" width="41" height="1" /><rect x="183" y="167" width="1" height="9" /><rect x="191" y="167" width="1" height="8" /><rect x="183" y="167" width="8" height="1" /><rect x="183" y="175" width="9" height="1" /><rect x="187" y="169" width="1" height="1" /><rect x="185" y="173" width="1" height="1" /><rect x="189" y="173" width="1" height="1" /><rect x="167" y="199" width="1" height="9" /><rect x="175" y="199" width="1" height="8" /><rect x="167" y="199" width="8" height="1" /><rect x="167" y="207" width="9" height="1" /><rect x="171" y="201" width="1" height="1" /><rect x="169" y="205" width="1" height="1" /><rect x="173" y="205" width="1" height="1" /><rect x="199" y="199" width="1" height="9" /><rect x="207" y="199" width="1" height="8" /><rect x="199" y="199" width="8" height="1" /><rect x="199" y="207" width="9" height="1" /><rect x="203" y="201" width="1" height="1" /><rect x="201" y="205" width="1" height="1" /><rect x="205" y="205" width="1" height="1" /></svg>