<?xml version="1.0" encoding="utf-8"?><svg xmlns="http://www.w3.org/2000/svg" xmlns:xlink="http://www.w3.org/1999/xlink" width="208" height="208"><rect x="47" y="47" width="1" height="41" /><rect x="47" y="47" width="40" height="1" /><rect x="47" y="87" width="41" height="1" /><rect x="55" y="55" width="1" height="9" /><rect x="55" y="55" width="8" height="1" /><rect x="55" y="63" width="9" height="1" /><rect x="58" y="58" width="1" height="1" /><rect x="59" y="58" width="1" height="1" /><rect x="60" y="58" width="1" height="1" /><rect x="58" y="60" width="1" height="1" /><rect x="59" y="60" width="1" height="1" /><rect x="60" y="60" width="1" height="1" /><rect x="63" y="55" width="8" height="1" /><rect x="63" y="63" width="9" height="1" /><rect x="66" y="58" width="1" height="1" /><rect x="67" y="58" width="1" height="1" /><rect x="68" y="58" width="1" height="1" /><rect x="66" y="60" width="1" height="1" /><rect x="67" y="60" width="1" height="1" /><rect x="68" y="60" width="1" height="1" /><rect x="79" y="55" width="1" height="8" /><rect x="71" y="55" width="8" height="1" /><rect x="71" y="63" width="9" height="1" /><rect x="74" y="58" width="1" height="1" /><rect x="75" y="58" width="1" height="1" /><rect x="76" y="58" width="1" height="1" /><rect x="74" y="60" width="1" height="1" /><rect x="75" y="60" width="1" height="1" /><rect x="76" y="60" width="1" height="1" /><rect x="55" y="71" width="1" height="9" /><rect x="55" y="71" width="8" height="1" /><rect x="55" y="79" width="9" height="1" /><rect x="58" y="74" width="1" height="1" /><rect x="59" y="74" width="1" height="1" /><rect x="60" y="74" width="1" height="1" /><rect x="58" y="76" width="1" height="1" /><rect x="59" y="76" width="1" height="1" /><rect x="60" y="76" width="1" height="1" /><rect x="63" y="71" width="8" height="1" /><rect x="63" y="79" width="9" height="1" /><rect x="66" y="74" width="1" height="1" /><rect x="67" y="74" width="1" height="1" /><rect x="68" y="74" width="1" height="1" /><rect x="66" y="76" width="1" height="1" /><rect x="67" y="76" width="1" height="1" /><rect x="68" y="76" width="1" height="1" /><rect x="79" y="71" width="1" height="8" /><rect x="71" y="71" width="8" height="1" /><rect x="71" y="79" width="9" height="1" /><rect x="74" y="74" width="1" height="1" /><rect x="75" y="74" width="1" height="1" /><rect x="76" y="74" width="1" height="1" /><rect x="74" y="76" width="1" height="1" /><rect x="75" y="76" width="1" height="1" /><rect x="76" y="76" width="1" height="1" /><rect x="87" y="47" width="40" height="1" /><rect x="87" y="87" width="41" height="1" /><rect x="95" y="55" width="1" height="9" /><rect x="95" y="55" width="8" height="1" /><rect x="95" y="63" width="9" height="1" /><rect x="98" y="58" width="1" height="1" /><rect x="99" y="58" width="1" height="1" /><rect x="100" y="58" width="1" height="1" /><rect x="98" y="60" width="1" height="1" /><rect x="99" y="60" width="1" height="1" /><rect x="100" y="60" width="1" height="1" /><rect x="103" y="55" width="8" height="1" /><rect x="103" y="63" width="9" height="1" /><rect x="106" y="58" width="1" height="1" /><rect x="107" y="58" width="1" height="1" /><rect x="108" y="58" width="1" height="1" /><rect x="106" y="60" width="1" height="1" /><rect x="107" y="60" width="1" height="1" /><rect x="108" y="60" width="1" height="1" /><rect x="119" y="55" width="1" height="8" /><rect x="111" y="55" width="8" height="1" /><rect x="111" y="63" width="9" height="1" /><rect x="114" y="58" width="1" height="1" /><rect x="115" y="58" width="1" height="1" /><rect x="116" y="58" width="1" height="1" /><rect x="114" y="60" width="1" height="1" /><rect x="115" y="60" width="1" height="1" /><rect x="116" y="60" width="1" height="1" /><rect x="95" y="71" width="1" height="9" /><rect x="95" y="71" width="8" height="1" /><rect x="95" y="79" width="9" height="1" /><rect x="98" y="74" width="1" height="1" /><rect x="99" y="74" width="1" height="1" /><rect x="100" y="74" width="1" height="1" /><rect x="98" y="76" width="1" height="1" /><rect x="99" y="76" width="1" height="1" /><rect x="100" y="76" width="1" height="1" /><rect x="103" y="71" width="8" height="1" /><rect x="103" y="79" width="9" height="1" /><rect x="106" y="74" width="1" height="1" /><rect x="107" y="74" width="1" height="1" /><rect x="108" y="74" width="1" height="1" /><rect x="106" y="76" width="1" height="1" /><rect x="107" y="76" width="1" height="1" /><rect x="108" y="76" width="1" height="1" /><rect x="119" y="71" width="1" height="8" /><rect x="111" y="71" width="8" height="1" /><rect x="111" y="79" width="9" height="1" /><rect x="114" y="74" width="1" height="1" /><rect x="115" y="74" width="1" height="1" /><rect x="116" y="74" width="1" height="1" /><rect x="114" y="76" width="1" height="1" /><rect x="115" y="76" width="1" height="1" /><rect x="116" y="76" width="1" height="1" /><rect x="167" y="47" width="1" height="40" /><rect x="127" y="47" width="40" height="1" /><rect x="127" y="87" width="41" height="1" /><rect x="135" y="55" width="1" height="9" /><rect x="135" y="55" width="8" height="1" /><rect x="135" y="63" width="9" height="1" /><rect x="138" y="58" width="1" height="1" /><rect x="139" y="58" width="1" height="1" /><rect x="140" y="58" width="1" height="1" /><rect x="138" y="60" width="1" height="1" /><rect x="139" y="60" width="1" height="1" /><rect x="140" y="60" width="1" height="1" /><rect x="143" y="55" width="8" height="1" /><rect x="143" y="63" width="9" height="1" /><rect x="146" y="58" width="1" height="1" /><rect x="147" y="58" width="1" height="1" /><rect x="148" y="58" width="1" height="1" /><rect x="146" y="60" width="1" height="1" /><rect x="147" y="60" width="1" height="1" /><rect x="148" y="60" width="1" height="1" /><rect x="159" y="55" width="1" height="8" /><rect x="151" y="55" width="8" height="1" /><rect x="151" y="63" width="9" height="1" /><rect x="154" y="58" width="1" height="1" /><rect x="155" y="58" width="1" height="1" /><rect x="156" y="58" width="1" height="1" /><rect x="154" y="60" width="1" height="1" /><rect x="155" y="60" width="1" height="1" /><rect x="156" y="60" width="1" height="1" /><rect x="135" y="71" width="1" height="9" /><rect x="135" y="71" width="8" height="1" /><rect x="135" y="79" width="9" height="1" /><rect x="138" y="74" width="1" height="1" /><rect x="139" y="74" width="1" height="1" /><rect x="140" y="74" width="1" height="1" /><rect x="138" y="76" width="1" height="1" /><rect x="139" y="76" width="1" height="1" /><rect x="140" y="76" width="1" height="1" /><rect x="143" y="71" width="8" height="1" /><rect x="143" y="79" width="9" height="1" /><rect x="146" y="74" width="1" height="1" /><rect x="147" y="74" width="1" height="1" /><rect x="148" y="74" width="1" height="1" /><rect x="146" y="76" width="1" height="1" /><rect x="147" y="76" width="1" height="1" /><rect x="148" y="76" width="1" height="1" /><rect x="159" y="71" width="1" height="8" /><rect x="151" y="71" width="8" height="1" /><rect x="151" y="79" width="9" height="1" /><rect x="154" y="74" width="1" height="1" /><rect x="155" y="74" width="1" height="1" /><rect x="156" y="74" width="1" height="1" /><rect x="154" y="76" width="1" height="1" /><rect x="155" y="76" width="1" height="1" /><rect x="156" y="76" width="1" height="1" /><rect x="47" y="127" width="1" height="41" /><rect x="47" y="127" width="40" height="1" /><rect x="47" y="167" width="41" height="1" /><rect x="55" y="135" width="1" height="9" /><rect x="55" y="135" width="8" height="1" /><rect x="55" y="143" width="9" height="1" /><rect x="58" y="138" width="1" height="1" /><rect x="59" y="138" width="1" height="1" /><rect x="60" y="138" width="1" height="1" /><rect x="58" y="140" width="1" height="1" /><rect x="59" y="140" width="1" height="1" /><rect x="60" y="140" width="1" height="1" /><rect x="63" y="135" width="8" height="1" /><rect x="63" y="143" width="9" height="1" /><rect x="66" y="138" width="1" height="1" /><rect x="67" y="138" width="1" height="1" /><rect x="68" y="138" width="1" height="1" /><rect x="66" y="140" width="1" height="1" /><rect x="67" y="140" width="1" height="1" /><rect x="68" y="140" width="1" height="1" /><rect x="79" y="135" width="1" height="8" /><rect x="71" y="135" width="8" height="1" /><rect x="71" y="143" width="9" height="1" /><rect x="74" y="138" width="1" height="1" /><rect x="75" y="138" width="1" height="1" /><rect x="76" y="138" width="1" height="1" /><rect x="74" y="140" width="1" height="1" /><rect x="75" y="140" width="1" height="1" /><rect x="76" y="140" width="1" height="1" /><rect x="55" y="151" width="1" height="9" /><rect x="55" y="151" width="8" height="1" /><rect x="55" y="159" width="9" height="1" /><rect x="58" y="154" width="1" height="1" /><rect x="59" y="154" width="1" height="1" /><rect x="60" y="154" width="1" height="1" /><rect x="58" y="156" width="1" height="1" /><rect x="59" y="156" width="1" height="1" /><rect x="60" y="156" width="1" height="1" /><rect x="63" y="151" width="8" height="1" /><rect x="63" y="159" width="9" height="1" /><rect x="66" y="154" width="1" height="1" /><rect x="67" y="154" width="1" height="1" /><rect x="68" y="154" width="1" height="1" /><rect x="66" y="156" width="1" height="1" /><rect x="67" y="156" width="1" height="1" /><rect x="68" y="156" width="1" height="1" /><rect x="79" y="151" width="1" height="8" /><rect x="71" y="151" width="8" height="1" /><rect x="71" y="159" width="9" height="1" /><rect x="74" y="154" width="1" height="1" /><rect x="75" y="154" width="1" height="1" /><rect x="76" y="154" width="1" height="1" /><rect x="74" y="156" width="1" height="1" /><rect x="75" y="156" width="1" height="1" /><rect x="76" y="156" width="1" height="1" /><rect x="87" y="127" width="40" height="1" /><rect x="87" y="167" width="41" height="1" /><rect x="95" y="135" width="1" height="9" /><rect x="95" y="135" width="8" height="1" /><rect x="95" y="143" width="9" height="1" /><rect x="98" y="138" width="1" height="1" /><rect x="99" y="138" width="1" height="1" /><rect x="100" y="138" width="1" height="1" /><rect x="98" y="140" width="1" height="1" /><rect x="99" y="140" width="1" height="1" /><rect x="100" y="140" width="1" height="1" /><rect x="103" y="135" width="8" height="1" /><rect x="103" y="143" width="9" height="1" /><rect x="106" y="138" width="1" height="1" /><rect x="107" y="138" width="1" height="1" /><rect x="108" y="138" width="1" height="1" /><rect x="106" y="140" width="1" height="1" /><rect x="107" y="140" width="1" height="1" /><rect x="108" y="140" width="1" height="1" /><rect x="119" y="135" width="1" height="8" /><rect x="111" y="135" width="8" height="1" /><rect x="111" y="143" width="9" height="1" /><rect x="114" y="138" width="1" height="1" /><rect x="115" y="138" width="1" height="1" /><rect x="116" y="138" width="1" height="1" /><rect x="114" y="140" width="1" height="1" /><rect x="115" y="140" width="1" height="1" /><rect x="116" y="140" width="1" height="1" /><rect x="95" y="151" width="1" height="9" /><rect x="95" y="151" width="8" height="1" /><rect x="95" y="159" width="9" height="1" /><rect x="98" y="154" width="1" height="1" /><rect x="99" y="154" width="1" height="1" /><rect x="100" y="154" width="1" height="1" /><rect x="98" y="156" width="1" height="1" /><rect x="99" y="156" width="1" height="1" /><rect x="100" y="156" width="1" height="1" /><rect x="103" y="151" width="8" height="1" /><rect x="103" y="159" width="9" height="1" /><rect x="106" y="154" width="1" height="1" /><rect x="107" y="154" width="1" height="1" /><rect x="108" y="154" width="1" height="1" /><rect x="106" y="156" width="1" height="1" /><rect x="107" y="156" width="1" height="1" /><rect x="108" y="156" width="1" height="1" /><rect x="119" y="151" width="1" height="8" /><rect x="111" y="151" width="8" height="1" /><rect x="111" y="159" width="9" height="1" /><rect x="114" y="154" width="1" height="1" /><rect x="115" y="154" width="1" height="1" /><rect x="116" y="154" width="1" height="1" /><rect x="114" y="156" width="1" height="1" /><rect x="115" y="156" width="1" height="1" /><rect x="116" y="156" width="1" height="1" /><rect x="167" y="127" width="1" height="40" /><rect x="127" y="127" width="40" height="1" /><rect x="127" y="167" width="41" height="1" /><rect x="135" y="135" width="1" height="9" /><rect x="135" y="135" width="8" height="1" /><rect x="135" y="143" width="9" height="1" /><rect x="138" y="138" width="1" height="1" /><rect x="139" y="138" width="1" height="1" /><rect x="140" y="138" width="1" height="1" /><rect x="138" y="140" width="1" height="1" /><rect x="139" y="140" width="1" height="1" /><rect x="140" y="140" width="1" height="1" /><rect x="143" y="135" width="8" height="1" /><rect x="143" y="143" width="9" height="1" /><rect x="146" y="138" width="1" height="1" /><rect x="147" y="138" width="1" height="1" /><rect x="148" y="138" width="1" height="1" /><rect x="146" y="140" width="1" height="1" /><rect x="147" y="140" width="1" height="1" /><rect x="148" y="140" width="1" height="1" /><rect x="159" y="135" width="1" height="8" /><rect x="151" y="135" width="8" height="1" /><rect x="151" y="143" width="9" height="1" /><rect x="154" y="138" width="1" height="1" /><rect x="155" y="138" width="1" height="1" /><rect x="156" y="138" width="1" height="1" /><rect x="154" y="140" width="1" height="1" /><rect x="155" y="140" width="1" height="1" /><rect x="156" y="140" width="1" height="1" /><rect x="135" y="151" width="1" height="9" /><rect x="135" y="151" width="8" height="1" /><rect x="135" y="159" width="9" height="1" /><rect x="138" y="154" width="1" height="1" /><rect x="139" y="154" width="1" height="1" /><rect x="140" y="154" width="1" height="1" /><rect x="138" y="156" width="1" height="1" /><rect x="139" y="156" width="1" height="1" /><rect x="140" y="156" width="1" height="1" /><rect x="143" y="151" width="8" height="1" /><rect x="143" y="159" width="9" height="1" /><rect x="146" y="154" width="1" height="1" /><rect x="147" y="154" width="1" height="1" /><rect x="148" y="154" width="1" height="1" /><rect x="146" y="156" width="1" height="1" /><rect x="147" y="156" width="1" height="1" /><rect x="148" y="156" width="1" height="1" /><rect x="159" y="151" width="1" height="8" /><rect x="151" y="151" width="8" height="1" /><rect x="151" y="159" width="9" height="1" /><rect x="154" y="154" width="1" height="1" /><rect x="155" y="154" width="1" height="1" /><rect x="156" y="154" width="1" height="1" /><rect x="154" y="156" width="1" height="1" /><rect x="155" y="156" width="1" height="1" /><rect x="156" y="156" width="1" height="1" /></svg>