<?xml version="1.0" encoding="utf-8"?><svg xmlns="http://www.w3.org/2000/svg" xmlns:xlink="http://www.w3.org/1999/xlink" width="1008" height="1008" fill="#0000ff"><symbol id="n4-1"><rect x="10" y="11" width="1" height="1" /><rect x="11" y="11" width="1" height="1" /><rect x="12" y="11" width="1" height="1" /></symbol><symbol id="n4-2"><rect x="32" y="24" width="1" height="9" /><rect x="40" y="24" width="1" height="8" /><rect x="32" y="24" width="8" height="1" /><use href="#n4-1" x="25" y="17" /><rect x="32" y="32" width="1" height="9" /><rect x="40" y="32" width="1" height="8" /><use href="#n4-1" x="25" y="25" /><rect x="32" y="40" width="1" height="9" /><rect x="40" y="40" width="1" height="8" /><rect x="32" y="48" width="9" height="1" /><use href="#n4-1" x="25" y="33" /></symbol><symbol id="n4-3"><rect x="65" y="105" width="1" height="41" /><rect x="65" y="105" width="40" height="1" /><rect x="65" y="145" width="41" height="1" /><use href="#n4-2" x="49" y="89" /><rect x="105" y="105" width="40" height="1" /><rect x="105" y="145" width="41" height="1" /><use href="#n4-2" x="89" y="89" /><rect x="185" y="105" width="1" height="40" /><rect x="145" y="105" width="40" height="1" /><rect x="145" y="145" width="41" height="1" /><use href="#n4-2" x="129" y="89" /></symbol><g id="n4-4" transform="translate(-27,-27)"><rect x="434" y="234" width="1" height="201" /><rect x="634" y="234" width="1" height="200" /><rect x="434" y="234" width="200" height="1" /><use href="#n4-3" x="409" y="209" /><rect x="434" y="434" width="1" height="201" /><rect x="634" y="434" width="1" height="200" /><use href="#n4-3" x="409" y="409" /><rect x="434" y="634" width="1" height="201" /><rect x="634" y="634" width="1" height="200" /><rect x="434" y="834" width="201" height="1" /><use href="#n4-3" x="409" y="609" /></g></svg>