<?xml version="1.0" encoding="utf-8"?><svg xmlns="http://www.w3.org/2000/svg" xmlns:xlink="http://www.w3.org/1999/xlink" width="48" height="48"><rect x="0" y="0" width="100%" height="100%" fill="#ffffff" /><rect x="7" y="39" width="1" height="9" /><rect x="7" y="39" width="8" height="1" /><rect x="7" y="47" width="9" height="1" /><rect x="9" y="45" width="1" height="1" /><rect x="10" y="45" width="1" height="1" /><rect x="11" y="45" width="1" height="1" /><rect x="12" y="45" width="1" height="1" /><rect x="13" y="45" width="1" height="1" /><rect x="15" y="39" width="8" height="1" /><rect x="15" y="47" width="9" height="1" /><rect x="17" y="45" width="1" height="1" /><rect x="18" y="45" width="1" height="1" /><rect x="19" y="45" width="1" height="1" /><rect x="20" y="45" width="1" height="1" /><rect x="21" y="45" width="1" height="1" /><rect x="23" y="39" width="8" height="1" /><rect x="23" y="47" width="9" height="1" /><rect x="25" y="45" width="1" height="1" /><rect x="26" y="45" width="1" height="1" /><rect x="27" y="45" width="1" height="1" /><rect x="28" y="45" width="1" height="1" /><rect x="29" y="45" width="1" height="1" /><rect x="31" y="39" width="8" height="1" /><rect x="31" y="47" width="9" height="1" /><rect x="33" y="45" width="1" height="1" /><rect x="34" y="45" width="1" height="1" /><rect x="35" y="45" width="1" height="1" /><rect x="36" y="45" width="1" height="1" /><rect x="37" y="45" width="1" height="1" /><rect x="47" y="39" width="1" height="8" /><rect x="39" y="39" width="8" height="1" /><rect x="39" y="47" width="9" height="1" /><rect x="41" y="45" width="1" height="1" /><rect x="42" y="45" width="1" height="1" /><rect x="43" y="45" width="1" height="1" /><rect x="44" y="45" width="1" height="1" /><rect x="45" y="45" width="1" height="1" /></svg>