<?xml version="1.0" encoding="utf-8"?><svg xmlns="http://www.w3.org/2000/svg" xmlns:xlink="http://www.w3.org/1999/xlink" width="208" height="208"><rect x="0" y="0" width="100%" height="100%" fill="#ffffff" /><rect x="7" y="7" width="1" height="41" /><rect x="7" y="7" width="40" height="1" /><rect x="7" y="47" width="41" height="1" /><rect x="7" y="7" width="1" height="9" /><rect x="7" y="7" width="8" height="1" /><rect x="7" y="15" width="9" height="1" /><rect x="9" y="9" width="1" height="1" /><rect x="10" y="9" width="1" height="1" /><rect x="11" y="9" width="1" height="1" /><rect x="12" y="9" width="1" height="1" /><rect x="13" y="9" width="1" height="1" /><rect x="11" y="10" width="1" height="1" /><rect x="11" y="11" width="1" height="1" /><rect x="11" y="12" width="1" height="1" /><rect x="11" y="13" width="1" height="1" /><rect x="15" y="7" width="8" height="1" /><rect x="15" y="15" width="9" height="1" /><rect x="17" y="9" width="1" height="1" /><rect x="18" y="9" width="1" height="1" /><rect x="19" y="9" width="1" height="1" /><rect x="20" y="9" width="1" height="1" /><rect x="21" y="9" width="1" height="1" /><rect x="19" y="10" width="1" height="1" /><rect x="19" y="11" width="1" height="1" /><rect x="19" y="12" width="1" height="1" /><rect x="19" y="13" width="1" height="1" /><rect x="23" y="7" width="8" height="1" /><rect x="25" y="9" width="1" height="1" /><rect x="26" y="9" width="1" height="1" /><rect x="27" y="9" width="1" height="1" /><rect x="28" y="9" width="1" height="1" /><rect x="29" y="9" width="1" height="1" /><rect x="27" y="10" width="1" height="1" /><rect x="27" y="11" width="1" height="1" /><rect x="27" y="12" width="1" height="1" /><rect x="27" y="13" width="1" height="1" /><rect x="31" y="7" width="8" height="1" /><rect x="31" y="15" width="9" height="1" /><rect x="33" y="9" width="1" height="1" /><rect x="34" y="9" width="1" height="1" /><rect x="35" y="9" width="1" height="1" /><rect x="36" y="9" width="1" height="1" /><rect x="37" y="9" width="1" height="1" /><rect x="35" y="10" width="1" height="1" /><rect x="35" y="11" width="1" height="1" /><rect x="35" y="12" width="1" height="1" /><rect x="35" y="13" width="1" height="1" /><rect x="47" y="7" width="1" height="8" /><rect x="39" y="7" width="8" height="1" /><rect x="39" y="15" width="9" height="1" /><rect x="41" y="9" width="1" height="1" /><rect x="42" y="9" width="1" height="1" /><rect x="43" y="9" width="1" height="1" /><rect x="44" y="9" width="1" height="1" /><rect x="45" y="9" width="1" height="1" /><rect x="43" y="10" width="1" height="1" /><rect x="43" y="11" width="1" height="1" /><rect x="43" y="12" width="1" height="1" /><rect x="43" y="13" width="1" height="1" /><rect x="23" y="15" width="1" height="9" /><rect x="31" y="15" width="1" height="8" /><rect x="25" y="17" width="1" height="1" /><rect x="26" y="17" width="1" height="1" /><rect x="27" y="17" width="1" height="1" /><rect x="28" y="17" width="1" height="1" /><rect x="29" y="17" width="1" height="1" /><rect x="27" y="18" width="1" height="1" /><rect x="27" y="19" width="1" height="1" /><rect x="27" y="20" width="1" height="1" /><rect x="27" y="21" width="1" height="1" /><rect x="23" y="23" width="1" height="9" /><rect x="31" y="23" width="1" height="8" /><rect x="25" y="25" width="1" height="1" /><rect x="26" y="25" width="1" height="1" /><rect x="27" y="25" width="1" height="1" /><rect x="28" y="25" width="1" height="1" /><rect x="29" y="25" width="1" height="1" /><rect x="27" y="26" width="1" height="1" /><rect x="27" y="27" width="1" height="1" /><rect x="27" y="28" width="1" height="1" /><rect x="27" y="29" width="1" height="1" /><rect x="23" y="31" width="1" height="9" /><rect x="31" y="31" width="1" height="8" /><rect x="25" y="33" width="1" height="1" /><rect x="26" y="33" width="1" height="1" /><rect x="27" y="33" width="1" height="1" /><rect x="28" y="33" width="1" height="1" /><rect x="29" y="33" width="1" height="1" /><rect x="27" y="34" width="1" height="1" /><rect x="27" y="35" width="1" height="1" /><rect x="27" y="36" width="1" height="1" /><rect x="27" y="37" width="1" height="1" /><rect x="23" y="39" width="1" height="9" /><rect x="31" y="39" width="1" height="8" /><rect x="23" y="47" width="9" height="1" /><rect x="25" y="41" width="1" height="1" /><rect x="26" y="41" width="1" height="1" /><rect x="27" y="41" width="1" height="1" /><rect x="28" y="41" width="1" height="1" /><rect x="29" y="41" width="1" height="1" /><rect x="27" y="42" width="1" height="1" /><rect x="27" y="43" width="1" height="1" /><rect x="27" y="44" width="1" height="1" /><rect x="27" y="45" width="1" height="1" /><rect x="47" y="7" width="40" height="1" /><rect x="47" y="47" width="41" height="1" /><rect x="47" y="7" width="1" height="9" /><rect x="47" y="7" width="8" height="1" /><rect x="47" y="15" width="9" height="1" /><rect x="49" y="9" width="1" height="1" /><rect x="50" y="9" width="1" height="1" /><rect x="51" y="9" width="1" height="1" /><rect x="52" y="9" width="1" height="1" /><rect x="53" y="9" width="1" height="1" /><rect x="51" y="10" width="1" height="1" /><rect x="51" y="11" width="1" height="1" /><rect x="51" y="12" width="1" height="1" /><rect x="51" y="13" width="1" height="1" /><rect x="55" y="7" width="8" height="1" /><rect x="55" y="15" width="9" height="1" /><rect x="57" y="9" width="1" height="1" /><rect x="58" y="9" width="1" height="1" /><rect x="59" y="9" width="1" height="1" /><rect x="60" y="9" width="1" height="1" /><rect x="61" y="9" width="1" height="1" /><rect x="59" y="10" width="1" height="1" /><rect x="59" y="11" width="1" height="1" /><rect x="59" y="12" width="1" height="1" /><rect x="59" y="13" width="1" height="1" /><rect x="63" y="7" width="8" height="1" /><rect x="65" y="9" width="1" height="1" /><rect x="66" y="9" width="1" height="1" /><rect x="67" y="9" width="1" height="1" /><rect x="68" y="9" width="1" height="1" /><rect x="69" y="9" width="1" height="1" /><rect x="67" y="10" width="1" height="1" /><rect x="67" y="11" width="1" height="1" /><rect x="67" y="12" width="1" height="1" /><rect x="67" y="13" width="1" height="1" /><rect x="71" y="7" width="8" height="1" /><rect x="71" y="15" width="9" height="1" /><rect x="73" y="9" width="1" height="1" /><rect x="74" y="9" width="1" height="1" /><rect x="75" y="9" width="1" height="1" /><rect x="76" y="9" width="1" height="1" /><rect x="77" y="9" width="1" height="1" /><rect x="75" y="10" width="1" height="1" /><rect x="75" y="11" width="1" height="1" /><rect x="75" y="12" width="1" height="1" /><rect x="75" y="13" width="1" height="1" /><rect x="87" y="7" width="1" height="8" /><rect x="79" y="7" width="8" height="1" /><rect x="79" y="15" width="9" height="1" /><rect x="81" y="9" width="1" height="1" /><rect x="82" y="9" width="1" height="1" /><rect x="83" y="9" width="1" height="1" /><rect x="84" y="9" width="1" height="1" /><rect x="85" y="9" width="1" height="1" /><rect x="83" y="10" width="1" height="1" /><rect x="83" y="11" width="1" height="1" /><rect x="83" y="12" width="1" height="1" /><rect x="83" y="13" width="1" height="1" /><rect x="63" y="15" width="1" height="9" /><rect x="71" y="15" width="1" height="8" /><rect x="65" y="17" width="1" height="1" /><rect x="66" y="17" width="1" height="1" /><rect x="67" y="17" width="1" height="1" /><rect x="68" y="17" width="1" height="1" /><rect x="69" y="17" width="1" height="1" /><rect x="67" y="18" width="1" height="1" /><rect x="67" y="19" width="1" height="1" /><rect x="67" y="20" width="1" height="1" /><rect x="67" y="21" width="1" height="1" /><rect x="63" y="23" width="1" height="9" /><rect x="71" y="23" width="1" height="8" /><rect x="65" y="25" width="1" height="1" /><rect x="66" y="25" width="1" height="1" /><rect x="67" y="25" width="1" height="1" /><rect x="68" y="25" width="1" height="1" /><rect x="69" y="25" width="1" height="1" /><rect x="67" y="26" width="1" height="1" /><rect x="67" y="27" width="1" height="1" /><rect x="67" y="28" width="1" height="1" /><rect x="67" y="29" width="1" height="1" /><rect x="63" y="31" width="1" height="9" /><rect x="71" y="31" width="1" height="8" /><rect x="65" y="33" width="1" height="1" /><rect x="66" y="33" width="1" height="1" /><rect x="67" y="33" width="1" height="1" /><rect x="68" y="33" width="1" height="1" /><rect x="69" y="33" width="1" height="1" /><rect x="67" y="34" width="1" height="1" /><rect x="67" y="35" width="1" height="1" /><rect x="67" y="36" width="1" height="1" /><rect x="67" y="37" width="1" height="1" /><rect x="63" y="39" width="1" height="9" /><rect x="71" y="39" width="1" height="8" /><rect x="63" y="47" width="9" height="1" /><rect x="65" y="41" width="1" height="1" /><rect x="66" y="41" width="1" height="1" /><rect x="67" y="41" width="1" height="1" /><rect x="68" y="41" width="1" height="1" /><rect x="69" y="41" width="1" height="1" /><rect x="67" y="42" width="1" height="1" /><rect x="67" y="43" width="1" height="1" /><rect x="67" y="44" width="1" height="1" /><rect x="67" y="45" width="1" height="1" /><rect x="87" y="7" width="40" height="1" /><rect x="87" y="7" width="1" height="9" /><rect x="87" y="7" width="8" height="1" /><rect x="87" y="15" width="9" height="1" /><rect x="89" y="9" width="1" height="1" /><rect x="90" y="9" width="1" height="1" /><rect x="91" y="9" width="1" height="1" /><rect x="92" y="9" width="1" height="1" /><rect x="93" y="9" width="1" height="1" /><rect x="91" y="10" width="1" height="1" /><rect x="91" y="11" width="1" height="1" /><rect x="91" y="12" width="1" height="1" /><rect x="91" y="13" width="1" height="1" /><rect x="95" y="7" width="8" height="1" /><rect x="95" y="15" width="9" height="1" /><rect x="97" y="9" width="1" height="1" /><rect x="98" y="9" width="1" height="1" /><rect x="99" y="9" width="1" height="1" /><rect x="100" y="9" width="1" height="1" /><rect x="101" y="9" width="1" height="1" /><rect x="99" y="10" width="1" height="1" /><rect x="99" y="11" width="1" height="1" /><rect x="99" y="12" width="1" height="1" /><rect x="99" y="13" width="1" height="1" /><rect x="103" y="7" width="8" height="1" /><rect x="105" y="9" width="1" height="1" /><rect x="106" y="9" width="1" height="1" /><rect x="107" y="9" width="1" height="1" /><rect x="108" y="9" width="1" height="1" /><rect x="109" y="9" width="1" height="1" /><rect x="107" y="10" width="1" height="1" /><rect x="107" y="11" width="1" height="1" /><rect x="107" y="12" width="1" height="1" /><rect x="107" y="13" width="1" height="1" /><rect x="111" y="7" width="8" height="1" /><rect x="111" y="15" width="9" height="1" /><rect x="113" y="9" width="1" height="1" /><rect x="114" y="9" width="1" height="1" /><rect x="115" y="9" width="1" height="1" /><rect x="116" y="9" width="1" height="1" /><rect x="117" y="9" width="1" height="1" /><rect x="115" y="10" width="1" height="1" /><rect x="115" y="11" width="1" height="1" /><rect x="115" y="12" width="1" height="1" /><rect x="115" y="13" width="1" height="1" /><rect x="127" y="7" width="1" height="8" /><rect x="119" y="7" width="8" height="1" /><rect x="119" y="15" width="9" height="1" /><rect x="121" y="9" width="1" height="1" /><rect x="122" y="9" width="1" height="1" /><rect x="123" y="9" width="1" height="1" /><rect x="124" y="9" width="1" height="1" /><rect x="125" y="9" width="1" height="1" /><rect x="123" y="10" width="1" height="1" /><rect x="123" y="11" width="1" height="1" /><rect x="123" y="12" width="1" height="1" /><rect x="123" y="13" width="1" height="1" /><rect x="103" y="15" width="1" height="9" /><rect x="111" y="15" width="1" height="8" /><rect x="105" y="17" width="1" height="1" /><rect x="106" y="17" width="1" height="1" /><rect x="107" y="17" width="1" height="1" /><rect x="108" y="17" width="1" height="1" /><rect x="109" y="17" width="1" height="1" /><rect x="107" y="18" width="1" height="1" /><rect x="107" y="19" width="1" height="1" /><rect x="107" y="20" width="1" height="1" /><rect x="107" y="21" width="1" height="1" /><rect x="103" y="23" width="1" height="9" /><rect x="111" y="23" width="1" height="8" /><rect x="105" y="25" width="1" height="1" /><rect x="106" y="25" width="1" height="1" /><rect x="107" y="25" width="1" height="1" /><rect x="108" y="25" width="1" height="1" /><rect x="109" y="25" width="1" height="1" /><rect x="107" y="26" width="1" height="1" /><rect x="107" y="27" width="1" height="1" /><rect x="107" y="28" width="1" height="1" /><rect x="107" y="29" width="1" height="1" /><rect x="103" y="31" width="1" height="9" /><rect x="111" y="31" width="1" height="8" /><rect x="105" y="33" width="1" height="1" /><rect x="106" y="33" width="1" height="1" /><rect x="107" y="33" width="1" height="1" /><rect x="108" y="33" width="1" height="1" /><rect x="109" y="33" width="1" height="1" /><rect x="107" y="34" width="1" height="1" /><rect x="107" y="35" width="1" height="1" /><rect x="107" y="36" width="1" height="1" /><rect x="107" y="37" width="1" height="1" /><rect x="103" y="39" width="1" height="9" /><rect x="111" y="39" width="1" height="8" /><rect x="103" y="47" width="9" height="1" /><rect x="105" y="41" width="1" height="1" /><rect x="106" y="41" width="1" height="1" /><rect x="107" y="41" width="1" height="1" /><rect x="108" y="41" width="1" height="1" /><rect x="109" y="41" width="1" height="1" /><rect x="107" y="42" width="1" height="1" /><rect x="107" y="43" width="1" height="1" /><rect x="107" y="44" width="1" height="1" /><rect x="107" y="45" width="1" height="1" /><rect x="127" y="7" width="40" height="1" /><rect x="127" y="47" width="41" height="1" /><rect x="127" y="7" width="1" height="9" /><rect x="127" y="7" width="8" height="1" /><rect x="127" y="15" width="9" height="1" /><rect x="129" y="9" width="1" height="1" /><rect x="130" y="9" width="1" height="1" /><rect x="131" y="9" width="1" height="1" /><rect x="132" y="9" width="1" height="1" /><rect x="133" y="9" width="1" height="1" /><rect x="131" y="10" width="1" height="1" /><rect x="131" y="11" width="1" height="1" /><rect x="131" y="12" width="1" height="1" /><rect x="131" y="13" width="1" height="1" /><rect x="135" y="7" width="8" height="1" /><rect x="135" y="15" width="9" height="1" /><rect x="137" y="9" width="1" height="1" /><rect x="138" y="9" width="1" height="1" /><rect x="139" y="9" width="1" height="1" /><rect x="140" y="9" width="1" height="1" /><rect x="141" y="9" width="1" height="1" /><rect x="139" y="10" width="1" height="1" /><rect x="139" y="11" width="1" height="1" /><rect x="139" y="12" width="1" height="1" /><rect x="139" y="13" width="1" height="1" /><rect x="143" y="7" width="8" height="1" /><rect x="145" y="9" width="1" height="1" /><rect x="146" y="9" width="1" height="1" /><rect x="147" y="9" width="1" height="1" /><rect x="148" y="9" width="1" height="1" /><rect x="149" y="9" width="1" height="1" /><rect x="147" y="10" width="1" height="1" /><rect x="147" y="11" width="1" height="1" /><rect x="147" y="12" width="1" height="1" /><rect x="147" y="13" width="1" height="1" /><rect x="151" y="7" width="8" height="1" /><rect x="151" y="15" width="9" height="1" /><rect x="153" y="9" width="1" height="1" /><rect x="154" y="9" width="1" height="1" /><rect x="155" y="9" width="1" height="1" /><rect x="156" y="9" width="1" height="1" /><rect x="157" y="9" width="1" height="1" /><rect x="155" y="10" width="1" height="1" /><rect x="155" y="11" width="1" height="1" /><rect x="155" y="12" width="1" height="1" /><rect x="155" y="13" width="1" height="1" /><rect x="167" y="7" width="1" height="8" /><rect x="159" y="7" width="8" height="1" /><rect x="159" y="15" width="9" height="1" /><rect x="161" y="9" width="1" height="1" /><rect x="162" y="9" width="1" height="1" /><rect x="163" y="9" width="1" height="1" /><rect x="164" y="9" width="1" height="1" /><rect x="165" y="9" width="1" height="1" /><rect x="163" y="10" width="1" height="1" /><rect x="163" y="11" width="1" height="1" /><rect x="163" y="12" width="1" height="1" /><rect x="163" y="13" width="1" height="1" /><rect x="143" y="15" width="1" height="9" /><rect x="151" y="15" width="1" height="8" /><rect x="145" y="17" width="1" height="1" /><rect x="146" y="17" width="1" height="1" /><rect x="147" y="17" width="1" height="1" /><rect x="148" y="17" width="1" height="1" /><rect x="149" y="17" width="1" height="1" /><rect x="147" y="18" width="1" height="1" /><rect x="147" y="19" width="1" height="1" /><rect x="147" y="20" width="1" height="1" /><rect x="147" y="21" width="1" height="1" /><rect x="143" y="23" width="1" height="9" /><rect x="151" y="23" width="1" height="8" /><rect x="145" y="25" width="1" height="1" /><rect x="146" y="25" width="1" height="1" /><rect x="147" y="25" width="1" height="1" /><rect x="148" y="25" width="1" height="1" /><rect x="149" y="25" width="1" height="1" /><rect x="147" y="26" width="1" height="1" /><rect x="147" y="27" width="1" height="1" /><rect x="147" y="28" width="1" height="1" /><rect x="147" y="29" width="1" height="1" /><rect x="143" y="31" width="1" height="9" /><rect x="151" y="31" width="1" height="8" /><rect x="145" y="33" width="1" height="1" /><rect x="146" y="33" width="1" height="1" /><rect x="147" y="33" width="1" height="1" /><rect x="148" y="33" width="1" height="1" /><rect x="149" y="33" width="1" height="1" /><rect x="147" y="34" width="1" height="1" /><rect x="147" y="35" width="1" height="1" /><rect x="147" y="36" width="1" height="1" /><rect x="147" y="37" width="1" height="1" /><rect x="143" y="39" width="1" height="9" /><rect x="151" y="39" width="1" height="8" /><rect x="143" y="47" width="9" height="1" /><rect x="145" y="41" width="1" height="1" /><rect x="146" y="41" width="1" height="1" /><rect x="147" y="41" width="1" height="1" /><rect x="148" y="41" width="1" height="1" /><rect x="149" y="41" width="1" height="1" /><rect x="147" y="42" width="1" height="1" /><rect x="147" y="43" width="1" height="1" /><rect x="147" y="44" width="1" height="1" /><rect x="147" y="45" width="1" height="1" /><rect x="207" y="7" width="1" height="40" /><rect x="167" y="7" width="40" height="1" /><rect x="167" y="47" width="41" height="1" /><rect x="167" y="7" width="1" height="9" /><rect x="167" y="7" width="8" height="1" /><rect x="167" y="15" width="9" height="1" /><rect x="169" y="9" width="1" height="1" /><rect x="170" y="9" width="1" height="1" /><rect x="171" y="9" width="1" height="1" /><rect x="172" y="9" width="1" height="1" /><rect x="173" y="9" width="1" height="1" /><rect x="171" y="10" width="1" height="1" /><rect x="171" y="11" width="1" height="1" /><rect x="171" y="12" width="1" height="1" /><rect x="171" y="13" width="1" height="1" /><rect x="175" y="7" width="8" height="1" /><rect x="175" y="15" width="9" height="1" /><rect x="177" y="9" width="1" height="1" /><rect x="178" y="9" width="1" height="1" /><rect x="179" y="9" width="1" height="1" /><rect x="180" y="9" width="1" height="1" /><rect x="181" y="9" width="1" height="1" /><rect x="179" y="10" width="1" height="1" /><rect x="179" y="11" width="1" height="1" /><rect x="179" y="12" width="1" height="1" /><rect x="179" y="13" width="1" height="1" /><rect x="183" y="7" width="8" height="1" /><rect x="185" y="9" width="1" height="1" /><rect x="186" y="9" width="1" height="1" /><rect x="187" y="9" width="1" height="1" /><rect x="188" y="9" width="1" height="1" /><rect x="189" y="9" width="1" height="1" /><rect x="187" y="10" width="1" height="1" /><rect x="187" y="11" width="1" height="1" /><rect x="187" y="12" width="1" height="1" /><rect x="187" y="13" width="1" height="1" /><rect x="191" y="7" width="8" height="1" /><rect x="191" y="15" width="9" height="1" /><rect x="193" y="9" width="1" height="1" /><rect x="194" y="9" width="1" height="1" /><rect x="195" y="9" width="1" height="1" /><rect x="196" y="9" width="1" height="1" /><rect x="197" y="9" width="1" height="1" /><rect x="195" y="10" width="1" height="1" /><rect x="195" y="11" width="1" height="1" /><rect x="195" y="12" width="1" height="1" /><rect x="195" y="13" width="1" height="1" /><rect x="207" y="7" width="1" height="8" /><rect x="199" y="7" width="8" height="1" /><rect x="199" y="15" width="9" height="1" /><rect x="201" y="9" width="1" height="1" /><rect x="202" y="9" width="1" height="1" /><rect x="203" y="9" width="1" height="1" /><rect x="204" y="9" width="1" height="1" /><rect x="205" y="9" width="1" height="1" /><rect x="203" y="10" width="1" height="1" /><rect x="203" y="11" width="1" height="1" /><rect x="203" y="12" width="1" height="1" /><rect x="203" y="13" width="1" height="1" /><rect x="183" y="15" width="1" height="9" /><rect x="191" y="15" width="1" height="8" /><rect x="185" y="17" width="1" height="1" /><rect x="186" y="17" width="1" height="1" /><rect x="187" y="17" width="1" height="1" /><rect x="188" y="17" width="1" height="1" /><rect x="189" y="17" width="1" height="1" /><rect x="187" y="18" width="1" height="1" /><rect x="187" y="19" width="1" height="1" /><rect x="187" y="20" width="1" height="1" /><rect x="187" y="21" width="1" height="1" /><rect x="183" y="23" width="1" height="9" /><rect x="191" y="23" width="1" height="8" /><rect x="185" y="25" width="1" height="1" /><rect x="186" y="25" width="1" height="1" /><rect x="187" y="25" width="1" height="1" /><rect x="188" y="25" width="1" height="1" /><rect x="189" y="25" width="1" height="1" /><rect x="187" y="26" width="1" height="1" /><rect x="187" y="27" width="1" height="1" /><rect x="187" y="28" width="1" height="1" /><rect x="187" y="29" width="1" height="1" /><rect x="183" y="31" width="1" height="9" /><rect x="191" y="31" width="1" height="8" /><rect x="185" y="33" width="1" height="1" /><rect x="186" y="33" width="1" height="1" /><rect x="187" y="33" width="1" height="1" /><rect x="188" y="33" width="1" height="1" /><rect x="189" y="33" width="1" height="1" /><rect x="187" y="34" width="1" height="1" /><rect x="187" y="35" width="1" height="1" /><rect x="187" y="36" width="1" height="1" /><rect x="187" y="37" width="1" height="1" /><rect x="183" y="39" width="1" height="9" /><rect x="191" y="39" width="1" height="8" /><rect x="183" y="47" width="9" height="1" /><rect x="185" y="41" width="1" height="1" /><rect x="186" y="41" width="1" height="1" /><rect x="187" y="41" width="1" height="1" /><rect x="188" y="41" width="1" height="1" /><rect x="189" y="41" width="1" height="1" /><rect x="187" y="42" width="1" height="1" /><rect x="187" y="43" width="1" height="1" /><rect x="187" y="44" width="1" height="1" /><rect x="187" y="45" width="1" height="1" /><rect x="87" y="47" width="1" height="41" /><rect x="127" y="47" width="1" height="40" /><rect x="87" y="47" width="1" height="9" /><rect x="87" y="47" width="8" height="1" /><rect x="87" y="55" width="9" height="1" /><rect x="89" y="49" width="1" height="1" /><rect x="90" y="49" width="1" height="1" /><rect x="91" y="49" width="1" height="1" /><rect x="92" y="49" width="1" height="1" /><rect x="93" y="49" width="1" height="1" /><rect x="91" y="50" width="1" height="1" /><rect x="91" y="51" width="1" height="1" /><rect x="91" y="52" width="1" height="1" /><rect x="91" y="53" width="1" height="1" /><rect x="95" y="47" width="8" height="1" /><rect x="95" y="55" width="9" height="1" /><rect x="97" y="49" width="1" height="1" /><rect x="98" y="49" width="1" height="1" /><rect x="99" y="49" width="1" height="1" /><rect x="100" y="49" width="1" height="1" /><rect x="101" y="49" width="1" height="1" /><rect x="99" y="50" width="1" height="1" /><rect x="99" y="51" width="1" height="1" /><rect x="99" y="52" width="1" height="1" /><rect x="99" y="53" width="1" height="1" /><rect x="103" y="47" width="8" height="1" /><rect x="105" y="49" width="1" height="1" /><rect x="106" y="49" width="1" height="1" /><rect x="107" y="49" width="1" height="1" /><rect x="108" y="49" width="1" height="1" /><rect x="109" y="49" width="1" height="1" /><rect x="107" y="50" width="1" height="1" /><rect x="107" y="51" width="1" height="1" /><rect x="107" y="52" width="1" height="1" /><rect x="107" y="53" width="1" height="1" /><rect x="111" y="47" width="8" height="1" /><rect x="111" y="55" width="9" height="1" /><rect x="113" y="49" width="1" height="1" /><rect x="114" y="49" width="1" height="1" /><rect x="115" y="49" width="1" height="1" /><rect x="116" y="49" width="1" height="1" /><rect x="117" y="49" width="1" height="1" /><rect x="115" y="50" width="1" height="1" /><rect x="115" y="51" width="1" height="1" /><rect x="115" y="52" width="1" height="1" /><rect x="115" y="53" width="1" height="1" /><rect x="127" y="47" width="1" height="8" /><rect x="119" y="47" width="8" height="1" /><rect x="119" y="55" width="9" height="1" /><rect x="121" y="49" width="1" height="1" /><rect x="122" y="49" width="1" height="1" /><rect x="123" y="49" width="1" height="1" /><rect x="124" y="49" width="1" height="1" /><rect x="125" y="49" width="1" height="1" /><rect x="123" y="50" width="1" height="1" /><rect x="123" y="51" width="1" height="1" /><rect x="123" y="52" width="1" height="1" /><rect x="123" y="53" width="1" height="1" /><rect x="103" y="55" width="1" height="9" /><rect x="111" y="55" width="1" height="8" /><rect x="105" y="57" width="1" height="1" /><rect x="106" y="57" width="1" height="1" /><rect x="107" y="57" width="1" height="1" /><rect x="108" y="57" width="1" height="1" /><rect x="109" y="57" width="1" height="1" /><rect x="107" y="58" width="1" height="1" /><rect x="107" y="59" width="1" height="1" /><rect x="107" y="60" width="1" height="1" /><rect x="107" y="61" width="1" height="1" /><rect x="103" y="63" width="1" height="9" /><rect x="111" y="63" width="1" height="8" /><rect x="105" y="65" width="1" height="1" /><rect x="106" y="65" width="1" height="1" /><rect x="107" y="65" width="1" height="1" /><rect x="108" y="65" width="1" height="1" /><rect x="109" y="65" width="1" height="1" /><rect x="107" y="66" width="1" height="1" /><rect x="107" y="67" width="1" height="1" /><rect x="107" y="68" width="1" height="1" /><rect x="107" y="69" width="1" height="1" /><rect x="103" y="71" width="1" height="9" /><rect x="111" y="71" width="1" height="8" /><rect x="105" y="73" width="1" height="1" /><rect x="106" y="73" width="1" height="1" /><rect x="107" y="73" width="1" height="1" /><rect x="108" y="73" width="1" height="1" /><rect x="109" y="73" width="1" height="1" /><rect x="107" y="74" width="1" height="1" /><rect x="107" y="75" width="1" height="1" /><rect x="107" y="76" width="1" height="1" /><rect x="107" y="77" width="1" height="1" /><rect x="103" y="79" width="1" height="9" /><rect x="111" y="79" width="1" height="8" /><rect x="103" y="87" width="9" height="1" /><rect x="105" y="81" width="1" height="1" /><rect x="106" y="81" width="1" height="1" /><rect x="107" y="81" width="1" height="1" /><rect x="108" y="81" width="1" height="1" /><rect x="109" y="81" width="1" height="1" /><rect x="107" y="82" width="1" height="1" /><rect x="107" y="83" width="1" height="1" /><rect x="107" y="84" width="1" height="1" /><rect x="107" y="85" width="1" height="1" /><rect x="87" y="87" width="1" height="41" /><rect x="127" y="87" width="1" height="40" /><rect x="87" y="87" width="1" height="9" /><rect x="87" y="87" width="8" height="1" /><rect x="87" y="95" width="9" height="1" /><rect x="89" y="89" width="1" height="1" /><rect x="90" y="89" width="1" height="1" /><rect x="91" y="89" width="1" height="1" /><rect x="92" y="89" width="1" height="1" /><rect x="93" y="89" width="1" height="1" /><rect x="91" y="90" width="1" height="1" /><rect x="91" y="91" width="1" height="1" /><rect x="91" y="92" width="1" height="1" /><rect x="91" y="93" width="1" height="1" /><rect x="95" y="87" width="8" height="1" /><rect x="95" y="95" width="9" height="1" /><rect x="97" y="89" width="1" height="1" /><rect x="98" y="89" width="1" height="1" /><rect x="99" y="89" width="1" height="1" /><rect x="100" y="89" width="1" height="1" /><rect x="101" y="89" width="1" height="1" /><rect x="99" y="90" width="1" height="1" /><rect x="99" y="91" width="1" height="1" /><rect x="99" y="92" width="1" height="1" /><rect x="99" y="93" width="1" height="1" /><rect x="103" y="87" width="8" height="1" /><rect x="105" y="89" width="1" height="1" /><rect x="106" y="89" width="1" height="1" /><rect x="107" y="89" width="1" height="1" /><rect x="108" y="89" width="1" height="1" /><rect x="109" y="89" width="1" height="1" /><rect x="107" y="90" width="1" height="1" /><rect x="107" y="91" width="1" height="1" /><rect x="107" y="92" width="1" height="1" /><rect x="107" y="93" width="1" height="1" /><rect x="111" y="87" width="8" height="1" /><rect x="111" y="95" width="9" height="1" /><rect x="113" y="89" width="1" height="1" /><rect x="114" y="89" width="1" height="1" /><rect x="115" y="89" width="1" height="1" /><rect x="116" y="89" width="1" height="1" /><rect x="117" y="89" width="1" height="1" /><rect x="115" y="90" width="1" height="1" /><rect x="115" y="91" width="1" height="1" /><rect x="115" y="92" width="1" height="1" /><rect x="115" y="93" width="1" height="1" /><rect x="127" y="87" width="1" height="8" /><rect x="119" y="87" width="8" height="1" /><rect x="119" y="95" width="9" height="1" /><rect x="121" y="89" width="1" height="1" /><rect x="122" y="89" width="1" height="1" /><rect x="123" y="89" width="1" height="1" /><rect x="124" y="89" width="1" height="1" /><rect x="125" y="89" width="1" height="1" /><rect x="123" y="90" width="1" height="1" /><rect x="123" y="91" width="1" height="1" /><rect x="123" y="92" width="1" height="1" /><rect x="123" y="93" width="1" height="1" /><rect x="103" y="95" width="1" height="9" /><rect x="111" y="95" width="1" height="8" /><rect x="105" y="97" width="1" height="1" /><rect x="106" y="97" width="1" height="1" /><rect x="107" y="97" width="1" height="1" /><rect x="108" y="97" width="1" height="1" /><rect x="109" y="97" width="1" height="1" /><rect x="107" y="98" width="1" height="1" /><rect x="107" y="99" width="1" height="1" /><rect x="107" y="100" width="1" height="1" /><rect x="107" y="101" width="1" height="1" /><rect x="103" y="103" width="1" height="9" /><rect x="111" y="103" width="1" height="8" /><rect x="105" y="105" width="1" height="1" /><rect x="106" y="105" width="1" height="1" /><rect x="107" y="105" width="1" height="1" /><rect x="108" y="105" width="1" height="1" /><rect x="109" y="105" width="1" height="1" /><rect x="107" y="106" width="1" height="1" /><rect x="107" y="107" width="1" height="1" /><rect x="107" y="108" width="1" height="1" /><rect x="107" y="109" width="1" height="1" /><rect x="103" y="111" width="1" height="9" /><rect x="111" y="111" width="1" height="8" /><rect x="105" y="113" width="1" height="1" /><rect x="106" y="113" width="1" height="1" /><rect x="107" y="113" width="1" height="1" /><rect x="108" y="113" width="1" height="1" /><rect x="109" y="113" width="1" height="1" /><rect x="107" y="114" width="1" height="1" /><rect x="107" y="115" width="1" height="1" /><rect x="107" y="116" width="1" height="1" /><rect x="107" y="117" width="1" height="1" /><rect x="103" y="119" width="1" height="9" /><rect x="111" y="119" width="1" height="8" /><rect x="103" y="127" width="9" height="1" /><rect x="105" y="121" width="1" height="1" /><rect x="106" y="121" width="1" height="1" /><rect x="107" y="121" width="1" height="1" /><rect x="108" y="121" width="1" height="1" /><rect x="109" y="121" width="1" height="1" /><rect x="107" y="122" width="1" height="1" /><rect x="107" y="123" width="1" height="1" /><rect x="107" y="124" width="1" height="1" /><rect x="107" y="125" width="1" height="1" /><rect x="87" y="127" width="1" height="41" /><rect x="127" y="127" width="1" height="40" /><rect x="87" y="127" width="1" height="9" /><rect x="87" y="127" width="8" height="1" /><rect x="87" y="135" width="9" height="1" /><rect x="89" y="129" width="1" height="1" /><rect x="90" y="129" width="1" height="1" /><rect x="91" y="129" width="1" height="1" /><rect x="92" y="129" width="1" height="1" /><rect x="93" y="129" width="1" height="1" /><rect x="91" y="130" width="1" height="1" /><rect x="91" y="131" width="1" height="1" /><rect x="91" y="132" width="1" height="1" /><rect x="91" y="133" width="1" height="1" /><rect x="95" y="127" width="8" height="1" /><rect x="95" y="135" width="9" height="1" /><rect x="97" y="129" width="1" height="1" /><rect x="98" y="129" width="1" height="1" /><rect x="99" y="129" width="1" height="1" /><rect x="100" y="129" width="1" height="1" /><rect x="101" y="129" width="1" height="1" /><rect x="99" y="130" width="1" height="1" /><rect x="99" y="131" width="1" height="1" /><rect x="99" y="132" width="1" height="1" /><rect x="99" y="133" width="1" height="1" /><rect x="103" y="127" width="8" height="1" /><rect x="105" y="129" width="1" height="1" /><rect x="106" y="129" width="1" height="1" /><rect x="107" y="129" width="1" height="1" /><rect x="108" y="129" width="1" height="1" /><rect x="109" y="129" width="1" height="1" /><rect x="107" y="130" width="1" height="1" /><rect x="107" y="131" width="1" height="1" /><rect x="107" y="132" width="1" height="1" /><rect x="107" y="133" width="1" height="1" /><rect x="111" y="127" width="8" height="1" /><rect x="111" y="135" width="9" height="1" /><rect x="113" y="129" width="1" height="1" /><rect x="114" y="129" width="1" height="1" /><rect x="115" y="129" width="1" height="1" /><rect x="116" y="129" width="1" height="1" /><rect x="117" y="129" width="1" height="1" /><rect x="115" y="130" width="1" height="1" /><rect x="115" y="131" width="1" height="1" /><rect x="115" y="132" width="1" height="1" /><rect x="115" y="133" width="1" height="1" /><rect x="127" y="127" width="1" height="8" /><rect x="119" y="127" width="8" height="1" /><rect x="119" y="135" width="9" height="1" /><rect x="121" y="129" width="1" height="1" /><rect x="122" y="129" width="1" height="1" /><rect x="123" y="129" width="1" height="1" /><rect x="124" y="129" width="1" height="1" /><rect x="125" y="129" width="1" height="1" /><rect x="123" y="130" width="1" height="1" /><rect x="123" y="131" width="1" height="1" /><rect x="123" y="132" width="1" height="1" /><rect x="123" y="133" width="1" height="1" /><rect x="103" y="135" width="1" height="9" /><rect x="111" y="135" width="1" height="8" /><rect x="105" y="137" width="1" height="1" /><rect x="106" y="137" width="1" height="1" /><rect x="107" y="137" width="1" height="1" /><rect x="108" y="137" width="1" height="1" /><rect x="109" y="137" width="1" height="1" /><rect x="107" y="138" width="1" height="1" /><rect x="107" y="139" width="1" height="1" /><rect x="107" y="140" width="1" height="1" /><rect x="107" y="141" width="1" height="1" /><rect x="103" y="143" width="1" height="9" /><rect x="111" y="143" width="1" height="8" /><rect x="105" y="145" width="1" height="1" /><rect x="106" y="145" width="1" height="1" /><rect x="107" y="145" width="1" height="1" /><rect x="108" y="145" width="1" height="1" /><rect x="109" y="145" width="1" height="1" /><rect x="107" y="146" width="1" height="1" /><rect x="107" y="147" width="1" height="1" /><rect x="107" y="148" width="1" height="1" /><rect x="107" y="149" width="1" height="1" /><rect x="103" y="151" width="1" height="9" /><rect x="111" y="151" width="1" height="8" /><rect x="105" y="153" width="1" height="1" /><rect x="106" y="153" width="1" height="1" /><rect x="107" y="153" width="1" height="1" /><rect x="108" y="153" width="1" height="1" /><rect x="109" y="153" width="1" height="1" /><rect x="107" y="154" width="1" height="1" /><rect x="107" y="155" width="1" height="1" /><rect x="107" y="156" width="1" height="1" /><rect x="107" y="157" width="1" height="1" /><rect x="103" y="159" width="1" height="9" /><rect x="111" y="159" width="1" height="8" /><rect x="103" y="167" width="9" height="1" /><rect x="105" y="161" width="1" height="1" /><rect x="106" y="161" width="1" height="1" /><rect x="107" y="161" width="1" height="1" /><rect x="108" y="161" width="1" height="1" /><rect x="109" y="161" width="1" height="1" /><rect x="107" y="162" width="1" height="1" /><rect x="107" y="163" width="1" height="1" /><rect x="107" y="164" width="1" height="1" /><rect x="107" y="165" width="1" height="1" /><rect x="87" y="167" width="1" height="41" /><rect x="127" y="167" width="1" height="40" /><rect x="87" y="207" width="41" height="1" /><rect x="87" y="167" width="1" height="9" /><rect x="87" y="167" width="8" height="1" /><rect x="87" y="175" width="9" height="1" /><rect x="89" y="169" width="1" height="1" /><rect x="90" y="169" width="1" height="1" /><rect x="91" y="169" width="1" height="1" /><rect x="92" y="169" width="1" height="1" /><rect x="93" y="169" width="1" height="1" /><rect x="91" y="170" width="1" height="1" /><rect x="91" y="171" width="1" height="1" /><rect x="91" y="172" width="1" height="1" /><rect x="91" y="173" width="1" height="1" /><rect x="95" y="167" width="8" height="1" /><rect x="95" y="175" width="9" height="1" /><rect x="97" y="169" width="1" height="1" /><rect x="98" y="169" width="1" height="1" /><rect x="99" y="169" width="1" height="1" /><rect x="100" y="169" width="1" height="1" /><rect x="101" y="169" width="1" height="1" /><rect x="99" y="170" width="1" height="1" /><rect x="99" y="171" width="1" height="1" /><rect x="99" y="172" width="1" height="1" /><rect x="99" y="173" width="1" height="1" /><rect x="103" y="167" width="8" height="1" /><rect x="105" y="169" width="1" height="1" /><rect x="106" y="169" width="1" height="1" /><rect x="107" y="169" width="1" height="1" /><rect x="108" y="169" width="1" height="1" /><rect x="109" y="169" width="1" height="1" /><rect x="107" y="170" width="1" height="1" /><rect x="107" y="171" width="1" height="1" /><rect x="107" y="172" width="1" height="1" /><rect x="107" y="173" width="1" height="1" /><rect x="111" y="167" width="8" height="1" /><rect x="111" y="175" width="9" height="1" /><rect x="113" y="169" width="1" height="1" /><rect x="114" y="169" width="1" height="1" /><rect x="115" y="169" width="1" height="1" /><rect x="116" y="169" width="1" height="1" /><rect x="117" y="169" width="1" height="1" /><rect x="115" y="170" width="1" height="1" /><rect x="115" y="171" width="1" height="1" /><rect x="115" y="172" width="1" height="1" /><rect x="115" y="173" width="1" height="1" /><rect x="127" y="167" width="1" height="8" /><rect x="119" y="167" width="8" height="1" /><rect x="119" y="175" width="9" height="1" /><rect x="121" y="169" width="1" height="1" /><rect x="122" y="169" width="1" height="1" /><rect x="123" y="169" width="1" height="1" /><rect x="124" y="169" width="1" height="1" /><rect x="125" y="169" width="1" height="1" /><rect x="123" y="170" width="1" height="1" /><rect x="123" y="171" width="1" height="1" /><rect x="123" y="172" width="1" height="1" /><rect x="123" y="173" width="1" height="1" /><rect x="103" y="175" width="1" height="9" /><rect x="111" y="175" width="1" height="8" /><rect x="105" y="177" width="1" height="1" /><rect x="106" y="177" width="1" height="1" /><rect x="107" y="177" width="1" height="1" /><rect x="108" y="177" width="1" height="1" /><rect x="109" y="177" width="1" height="1" /><rect x="107" y="178" width="1" height="1" /><rect x="107" y="179" width="1" height="1" /><rect x="107" y="180" width="1" height="1" /><rect x="107" y="181" width="1" height="1" /><rect x="103" y="183" width="1" height="9" /><rect x="111" y="183" width="1" height="8" /><rect x="105" y="185" width="1" height="1" /><rect x="106" y="185" width="1" height="1" /><rect x="107" y="185" width="1" height="1" /><rect x="108" y="185" width="1" height="1" /><rect x="109" y="185" width="1" height="1" /><rect x="107" y="186" width="1" height="1" /><rect x="107" y="187" width="1" height="1" /><rect x="107" y="188" width="1" height="1" /><rect x="107" y="189" width="1" height="1" /><rect x="103" y="191" width="1" height="9" /><rect x="111" y="191" width="1" height="8" /><rect x="105" y="193" width="1" height="1" /><rect x="106" y="193" width="1" height="1" /><rect x="107" y="193" width="1" height="1" /><rect x="108" y="193" width="1" height="1" /><rect x="109" y="193" width="1" height="1" /><rect x="107" y="194" width="1" height="1" /><rect x="107" y="195" width="1" height="1" /><rect x="107" y="196" width="1" height="1" /><rect x="107" y="197" width="1" height="1" /><rect x="103" y="199" width="1" height="9" /><rect x="111" y="199" width="1" height="8" /><rect x="103" y="207" width="9" height="1" /><rect x="105" y="201" width="1" height="1" /><rect x="106" y="201" width="1" height="1" /><rect x="107" y="201" width="1" height="1" /><rect x="108" y="201" width="1" height="1" /><rect x="109" y="201" width="1" height="1" /><rect x="107" y="202" width="1" height="1" /><rect x="107" y="203" width="1" height="1" /><rect x="107" y="204" width="1" height="1" /><rect x="107" y="205" width="1" height="1" /></svg>