<?xml version="1.0" encoding="utf-8"?><svg xmlns="http://www.w3.org/2000/svg" xmlns:xlink="http://www.w3.org/1999/xlink" width="48" height="48"><rect x="7" y="7" width="1" height="9" /><rect x="15" y="7" width="1" height="8" /><rect x="7" y="7" width="8" height="1" /><rect x="7" y="15" width="9" height="1" /><rect x="9" y="9" width="1" height="1" /><rect x="13" y="9" width="1" height="1" /><rect x="10" y="10" width="1" height="1" /><rect x="12" y="10" width="1" height="1" /><rect x="10" y="11" width="1" height="1" /><rect x="11" y="11" width="1" height="1" /><rect x="12" y="11" width="1" height="1" /><rect x="11" y="12" width="1" height="1" /><rect x="11" y="13" width="1" height="1" /><rect x="39" y="7" width="1" height="9" /><rect x="47" y="7" width="1" height="8" /><rect x="39" y="7" width="8" height="1" /><rect x="39" y="15" width="9" height="1" /><rect x="41" y="9" width="1" height="1" /><rect x="45" y="9" width="1" height="1" /><rect x="42" y="10" width="1" height="1" /><rect x="44" y="10" width="1" height="1" /><rect x="42" y="11" width="1" height="1" /><rect x="43" y="11" width="1" height="1" /><rect x="44" y="11" width="1" height="1" /><rect x="43" y="12" width="1" height="1" /><rect x="43" y="13" width="1" height="1" /><rect x="15" y="15" width="1" height="9" /><rect x="23" y="15" width="1" height="8" /><rect x="15" y="15" width="8" height="1" /><rect x="17" y="17" width="1" height="1" /><rect x="21" y="17" width="1" height="1" /><rect x="18" y="18" width="1" height="1" /><rect x="20" y="18" width="1" height="1" /><rect x="18" y="19" width="1" height="1" /><rect x="19" y="19" width="1" height="1" /><rect x="20" y="19" width="1" height="1" /><rect x="19" y="20" width="1" height="1" /><rect x="19" y="21" width="1" height="1" /><rect x="31" y="15" width="1" height="9" /><rect x="39" y="15" width="1" height="8" /><rect x="31" y="15" width="8" height="1" /><rect x="33" y="17" width="1" height="1" /><rect x="37" y="17" width="1" height="1" /><rect x="34" y="18" width="1" height="1" /><rect x="36" y="18" width="1" height="1" /><rect x="34" y="19" width="1" height="1" /><rect x="35" y="19" width="1" height="1" /><rect x="36" y="19" width="1" height="1" /><rect x="35" y="20" width="1" height="1" /><rect x="35" y="21" width="1" height="1" /><rect x="15" y="23" width="1" height="9" /><rect x="15" y="31" width="9" height="1" /><rect x="17" y="25" width="1" height="1" /><rect x="21" y="25" width="1" height="1" /><rect x="18" y="26" width="1" height="1" /><rect x="20" y="26" width="1" height="1" /><rect x="18" y="27" width="1" height="1" /><rect x="19" y="27" width="1" height="1" /><rect x="20" y="27" width="1" height="1" /><rect x="19" y="28" width="1" height="1" /><rect x="19" y="29" width="1" height="1" /><rect x="23" y="23" width="8" height="1" /><rect x="25" y="25" width="1" height="1" /><rect x="29" y="25" width="1" height="1" /><rect x="26" y="26" width="1" height="1" /><rect x="28" y="26" width="1" height="1" /><rect x="26" y="27" width="1" height="1" /><rect x="27" y="27" width="1" height="1" /><rect x="28" y="27" width="1" height="1" /><rect x="27" y="28" width="1" height="1" /><rect x="27" y="29" width="1" height="1" /><rect x="39" y="23" width="1" height="8" /><rect x="31" y="31" width="9" height="1" /><rect x="33" y="25" width="1" height="1" /><rect x="37" y="25" width="1" height="1" /><rect x="34" y="26" width="1" height="1" /><rect x="36" y="26" width="1" height="1" /><rect x="34" y="27" width="1" height="1" /><rect x="35" y="27" width="1" height="1" /><rect x="36" y="27" width="1" height="1" /><rect x="35" y="28" width="1" height="1" /><rect x="35" y="29" width="1" height="1" /><rect x="23" y="31" width="1" height="9" /><rect x="31" y="31" width="1" height="8" /><rect x="25" y="33" width="1" height="1" /><rect x="29" y="33" width="1" height="1" /><rect x="26" y="34" width="1" height="1" /><rect x="28" y="34" width="1" height="1" /><rect x="26" y="35" width="1" height="1" /><rect x="27" y="35" width="1" height="1" /><rect x="28" y="35" width="1" height="1" /><rect x="27" y="36" width="1" height="1" /><rect x="27" y="37" width="1" height="1" /><rect x="23" y="39" width="1" height="9" /><rect x="31" y="39" width="1" height="8" /><rect x="23" y="47" width="9" height="1" /><rect x="25" y="41" width="1" height="1" /><rect x="29" y="41" width="1" height="1" /><rect x="26" y="42" width="1" height="1" /><rect x="28" y="42" width="1" height="1" /><rect x="26" y="43" width="1" height="1" /><rect x="27" y="43" width="1" height="1" /><rect x="28" y="43" width="1" height="1" /><rect x="27" y="44" width="1" height="1" /><rect x="27" y="45" width="1" height="1" /></svg>