<?xml version="1.0" encoding="utf-8"?><svg xmlns="http://www.w3.org/2000/svg" xmlns:xlink="http://www.w3.org/1999/xlink" width="208" height="208"><rect x="0" y="0" width="100%" height="100%" fill="#ffffff" /><rect x="87" y="7" width="1" height="41" /><rect x="127" y="7" width="1" height="40" /><rect x="87" y="7" width="40" height="1" /><rect x="87" y="47" width="41" height="1" /><rect x="95" y="15" width="1" height="9" /><rect x="95" y="15" width="8" height="1" /><rect x="99" y="17" width="1" height="1" /><rect x="97" y="18" width="1" height="1" /><rect x="100" y="18" width="1" height="1" /><rect x="97" y="19" width="1" height="1" /><rect x="100" y="19" width="1" height="1" /><rect x="98" y="20" width="1" height="1" /><rect x="103" y="15" width="8" height="1" /><rect x="107" y="17" width="1" height="1" /><rect x="105" y="18" width="1" height="1" /><rect x="108" y="18" width="1" height="1" /><rect x="105" y="19" width="1" height="1" /><rect x="108" y="19" width="1" height="1" /><rect x="106" y="20" width="1" height="1" /><rect x="119" y="15" width="1" height="8" /><rect x="111" y="15" width="8" height="1" /><rect x="111" y="23" width="9" height="1" /><rect x="115" y="17" width="1" height="1" /><rect x="113" y="18" width="1" height="1" /><rect x="116" y="18" width="1" height="1" /><rect x="113" y="19" width="1" height="1" /><rect x="116" y="19" width="1" height="1" /><rect x="114" y="20" width="1" height="1" /><rect x="87" y="23" width="1" height="9" /><rect x="87" y="23" width="8" height="1" /><rect x="87" y="31" width="9" height="1" /><rect x="91" y="25" width="1" height="1" /><rect x="89" y="26" width="1" height="1" /><rect x="92" y="26" width="1" height="1" /><rect x="89" y="27" width="1" height="1" /><rect x="92" y="27" width="1" height="1" /><rect x="90" y="28" width="1" height="1" /><rect x="95" y="31" width="9" height="1" /><rect x="99" y="25" width="1" height="1" /><rect x="97" y="26" width="1" height="1" /><rect x="100" y="26" width="1" height="1" /><rect x="97" y="27" width="1" height="1" /><rect x="100" y="27" width="1" height="1" /><rect x="98" y="28" width="1" height="1" /><rect x="111" y="23" width="1" height="8" /><rect x="103" y="31" width="9" height="1" /><rect x="107" y="25" width="1" height="1" /><rect x="105" y="26" width="1" height="1" /><rect x="108" y="26" width="1" height="1" /><rect x="105" y="27" width="1" height="1" /><rect x="108" y="27" width="1" height="1" /><rect x="106" y="28" width="1" height="1" /><rect x="7" y="47" width="1" height="41" /><rect x="47" y="47" width="1" height="40" /><rect x="7" y="47" width="40" height="1" /><rect x="15" y="55" width="1" height="9" /><rect x="15" y="55" width="8" height="1" /><rect x="19" y="57" width="1" height="1" /><rect x="17" y="58" width="1" height="1" /><rect x="20" y="58" width="1" height="1" /><rect x="17" y="59" width="1" height="1" /><rect x="20" y="59" width="1" height="1" /><rect x="18" y="60" width="1" height="1" /><rect x="23" y="55" width="8" height="1" /><rect x="27" y="57" width="1" height="1" /><rect x="25" y="58" width="1" height="1" /><rect x="28" y="58" width="1" height="1" /><rect x="25" y="59" width="1" height="1" /><rect x="28" y="59" width="1" height="1" /><rect x="26" y="60" width="1" height="1" /><rect x="39" y="55" width="1" height="8" /><rect x="31" y="55" width="8" height="1" /><rect x="31" y="63" width="9" height="1" /><rect x="35" y="57" width="1" height="1" /><rect x="33" y="58" width="1" height="1" /><rect x="36" y="58" width="1" height="1" /><rect x="33" y="59" width="1" height="1" /><rect x="36" y="59" width="1" height="1" /><rect x="34" y="60" width="1" height="1" /><rect x="7" y="63" width="1" height="9" /><rect x="7" y="63" width="8" height="1" /><rect x="7" y="71" width="9" height="1" /><rect x="11" y="65" width="1" height="1" /><rect x="9" y="66" width="1" height="1" /><rect x="12" y="66" width="1" height="1" /><rect x="9" y="67" width="1" height="1" /><rect x="12" y="67" width="1" height="1" /><rect x="10" y="68" width="1" height="1" /><rect x="15" y="71" width="9" height="1" /><rect x="19" y="65" width="1" height="1" /><rect x="17" y="66" width="1" height="1" /><rect x="20" y="66" width="1" height="1" /><rect x="17" y="67" width="1" height="1" /><rect x="20" y="67" width="1" height="1" /><rect x="18" y="68" width="1" height="1" /><rect x="31" y="63" width="1" height="8" /><rect x="23" y="71" width="9" height="1" /><rect x="27" y="65" width="1" height="1" /><rect x="25" y="66" width="1" height="1" /><rect x="28" y="66" width="1" height="1" /><rect x="25" y="67" width="1" height="1" /><rect x="28" y="67" width="1" height="1" /><rect x="26" y="68" width="1" height="1" /><rect x="127" y="47" width="1" height="41" /><rect x="167" y="47" width="1" height="40" /><rect x="127" y="47" width="40" height="1" /><rect x="135" y="55" width="1" height="9" /><rect x="135" y="55" width="8" height="1" /><rect x="139" y="57" width="1" height="1" /><rect x="137" y="58" width="1" height="1" /><rect x="140" y="58" width="1" height="1" /><rect x="137" y="59" width="1" height="1" /><rect x="140" y="59" width="1" height="1" /><rect x="138" y="60" width="1" height="1" /><rect x="143" y="55" width="8" height="1" /><rect x="147" y="57" width="1" height="1" /><rect x="145" y="58" width="1" height="1" /><rect x="148" y="58" width="1" height="1" /><rect x="145" y="59" width="1" height="1" /><rect x="148" y="59" width="1" height="1" /><rect x="146" y="60" width="1" height="1" /><rect x="159" y="55" width="1" height="8" /><rect x="151" y="55" width="8" height="1" /><rect x="151" y="63" width="9" height="1" /><rect x="155" y="57" width="1" height="1" /><rect x="153" y="58" width="1" height="1" /><rect x="156" y="58" width="1" height="1" /><rect x="153" y="59" width="1" height="1" /><rect x="156" y="59" width="1" height="1" /><rect x="154" y="60" width="1" height="1" /><rect x="127" y="63" width="1" height="9" /><rect x="127" y="63" width="8" height="1" /><rect x="127" y="71" width="9" height="1" /><rect x="131" y="65" width="1" height="1" /><rect x="129" y="66" width="1" height="1" /><rect x="132" y="66" width="1" height="1" /><rect x="129" y="67" width="1" height="1" /><rect x="132" y="67" width="1" height="1" /><rect x="130" y="68" width="1" height="1" /><rect x="135" y="71" width="9" height="1" /><rect x="139" y="65" width="1" height="1" /><rect x="137" y="66" width="1" height="1" /><rect x="140" y="66" width="1" height="1" /><rect x="137" y="67" width="1" height="1" /><rect x="140" y="67" width="1" height="1" /><rect x="138" y="68" width="1" height="1" /><rect x="151" y="63" width="1" height="8" /><rect x="143" y="71" width="9" height="1" /><rect x="147" y="65" width="1" height="1" /><rect x="145" y="66" width="1" height="1" /><rect x="148" y="66" width="1" height="1" /><rect x="145" y="67" width="1" height="1" /><rect x="148" y="67" width="1" height="1" /><rect x="146" y="68" width="1" height="1" /><rect x="7" y="87" width="1" height="41" /><rect x="47" y="87" width="1" height="40" /><rect x="7" y="127" width="41" height="1" /><rect x="15" y="95" width="1" height="9" /><rect x="15" y="95" width="8" height="1" /><rect x="19" y="97" width="1" height="1" /><rect x="17" y="98" width="1" height="1" /><rect x="20" y="98" width="1" height="1" /><rect x="17" y="99" width="1" height="1" /><rect x="20" y="99" width="1" height="1" /><rect x="18" y="100" width="1" height="1" /><rect x="23" y="95" width="8" height="1" /><rect x="27" y="97" width="1" height="1" /><rect x="25" y="98" width="1" height="1" /><rect x="28" y="98" width="1" height="1" /><rect x="25" y="99" width="1" height="1" /><rect x="28" y="99" width="1" height="1" /><rect x="26" y="100" width="1" height="1" /><rect x="39" y="95" width="1" height="8" /><rect x="31" y="95" width="8" height="1" /><rect x="31" y="103" width="9" height="1" /><rect x="35" y="97" width="1" height="1" /><rect x="33" y="98" width="1" height="1" /><rect x="36" y="98" width="1" height="1" /><rect x="33" y="99" width="1" height="1" /><rect x="36" y="99" width="1" height="1" /><rect x="34" y="100" width="1" height="1" /><rect x="7" y="103" width="1" height="9" /><rect x="7" y="103" width="8" height="1" /><rect x="7" y="111" width="9" height="1" /><rect x="11" y="105" width="1" height="1" /><rect x="9" y="106" width="1" height="1" /><rect x="12" y="106" width="1" height="1" /><rect x="9" y="107" width="1" height="1" /><rect x="12" y="107" width="1" height="1" /><rect x="10" y="108" width="1" height="1" /><rect x="15" y="111" width="9" height="1" /><rect x="19" y="105" width="1" height="1" /><rect x="17" y="106" width="1" height="1" /><rect x="20" y="106" width="1" height="1" /><rect x="17" y="107" width="1" height="1" /><rect x="20" y="107" width="1" height="1" /><rect x="18" y="108" width="1" height="1" /><rect x="31" y="103" width="1" height="8" /><rect x="23" y="111" width="9" height="1" /><rect x="27" y="105" width="1" height="1" /><rect x="25" y="106" width="1" height="1" /><rect x="28" y="106" width="1" height="1" /><rect x="25" y="107" width="1" height="1" /><rect x="28" y="107" width="1" height="1" /><rect x="26" y="108" width="1" height="1" /><rect x="127" y="87" width="1" height="41" /><rect x="167" y="87" width="1" height="40" /><rect x="127" y="127" width="41" height="1" /><rect x="135" y="95" width="1" height="9" /><rect x="135" y="95" width="8" height="1" /><rect x="139" y="97" width="1" height="1" /><rect x="137" y="98" width="1" height="1" /><rect x="140" y="98" width="1" height="1" /><rect x="137" y="99" width="1" height="1" /><rect x="140" y="99" width="1" height="1" /><rect x="138" y="100" width="1" height="1" /><rect x="143" y="95" width="8" height="1" /><rect x="147" y="97" width="1" height="1" /><rect x="145" y="98" width="1" height="1" /><rect x="148" y="98" width="1" height="1" /><rect x="145" y="99" width="1" height="1" /><rect x="148" y="99" width="1" height="1" /><rect x="146" y="100" width="1" height="1" /><rect x="159" y="95" width="1" height="8" /><rect x="151" y="95" width="8" height="1" /><rect x="151" y="103" width="9" height="1" /><rect x="155" y="97" width="1" height="1" /><rect x="153" y="98" width="1" height="1" /><rect x="156" y="98" width="1" height="1" /><rect x="153" y="99" width="1" height="1" /><rect x="156" y="99" width="1" height="1" /><rect x="154" y="100" width="1" height="1" /><rect x="127" y="103" width="1" height="9" /><rect x="127" y="103" width="8" height="1" /><rect x="127" y="111" width="9" height="1" /><rect x="131" y="105" width="1" height="1" /><rect x="129" y="106" width="1" height="1" /><rect x="132" y="106" width="1" height="1" /><rect x="129" y="107" width="1" height="1" /><rect x="132" y="107" width="1" height="1" /><rect x="130" y="108" width="1" height="1" /><rect x="135" y="111" width="9" height="1" /><rect x="139" y="105" width="1" height="1" /><rect x="137" y="106" width="1" height="1" /><rect x="140" y="106" width="1" height="1" /><rect x="137" y="107" width="1" height="1" /><rect x="140" y="107" width="1" height="1" /><rect x="138" y="108" width="1" height="1" /><rect x="151" y="103" width="1" height="8" /><rect x="143" y="111" width="9" height="1" /><rect x="147" y="105" width="1" height="1" /><rect x="145" y="106" width="1" height="1" /><rect x="148" y="106" width="1" height="1" /><rect x="145" y="107" width="1" height="1" /><rect x="148" y="107" width="1" height="1" /><rect x="146" y="108" width="1" height="1" /><rect x="47" y="127" width="1" height="41" /><rect x="87" y="127" width="1" height="40" /><rect x="47" y="127" width="40" height="1" /><rect x="47" y="167" width="41" height="1" /><rect x="55" y="135" width="1" height="9" /><rect x="55" y="135" width="8" height="1" /><rect x="59" y="137" width="1" height="1" /><rect x="57" y="138" width="1" height="1" /><rect x="60" y="138" width="1" height="1" /><rect x="57" y="139" width="1" height="1" /><rect x="60" y="139" width="1" height="1" /><rect x="58" y="140" width="1" height="1" /><rect x="63" y="135" width="8" height="1" /><rect x="67" y="137" width="1" height="1" /><rect x="65" y="138" width="1" height="1" /><rect x="68" y="138" width="1" height="1" /><rect x="65" y="139" width="1" height="1" /><rect x="68" y="139" width="1" height="1" /><rect x="66" y="140" width="1" height="1" /><rect x="79" y="135" width="1" height="8" /><rect x="71" y="135" width="8" height="1" /><rect x="71" y="143" width="9" height="1" /><rect x="75" y="137" width="1" height="1" /><rect x="73" y="138" width="1" height="1" /><rect x="76" y="138" width="1" height="1" /><rect x="73" y="139" width="1" height="1" /><rect x="76" y="139" width="1" height="1" /><rect x="74" y="140" width="1" height="1" /><rect x="47" y="143" width="1" height="9" /><rect x="47" y="143" width="8" height="1" /><rect x="47" y="151" width="9" height="1" /><rect x="51" y="145" width="1" height="1" /><rect x="49" y="146" width="1" height="1" /><rect x="52" y="146" width="1" height="1" /><rect x="49" y="147" width="1" height="1" /><rect x="52" y="147" width="1" height="1" /><rect x="50" y="148" width="1" height="1" /><rect x="55" y="151" width="9" height="1" /><rect x="59" y="145" width="1" height="1" /><rect x="57" y="146" width="1" height="1" /><rect x="60" y="146" width="1" height="1" /><rect x="57" y="147" width="1" height="1" /><rect x="60" y="147" width="1" height="1" /><rect x="58" y="148" width="1" height="1" /><rect x="71" y="143" width="1" height="8" /><rect x="63" y="151" width="9" height="1" /><rect x="67" y="145" width="1" height="1" /><rect x="65" y="146" width="1" height="1" /><rect x="68" y="146" width="1" height="1" /><rect x="65" y="147" width="1" height="1" /><rect x="68" y="147" width="1" height="1" /><rect x="66" y="148" width="1" height="1" /></svg>