<?xml version="1.0" encoding="utf-8"?><svg xmlns="http://www.w3.org/2000/svg" xmlns:xlink="http://www.w3.org/1999/xlink" width="48" height="48"><rect x="0" y="0" width="100%" height="100%" fill="#ffffff" /><rect x="15" y="7" width="1" height="9" /><rect x="23" y="7" width="1" height="8" /><rect x="15" y="7" width="8" height="1" /><rect x="18" y="9" width="1" height="1" /><rect x="20" y="9" width="1" height="1" /><rect x="18" y="10" width="1" height="1" /><rect x="20" y="10" width="1" height="1" /><rect x="18" y="11" width="1" height="1" /><rect x="20" y="11" width="1" height="1" /><rect x="18" y="12" width="1" height="1" /><rect x="20" y="12" width="1" height="1" /><rect x="18" y="13" width="1" height="1" /><rect x="20" y="13" width="1" height="1" /><rect x="31" y="7" width="1" height="9" /><rect x="39" y="7" width="1" height="8" /><rect x="31" y="7" width="8" height="1" /><rect x="34" y="9" width="1" height="1" /><rect x="36" y="9" width="1" height="1" /><rect x="34" y="10" width="1" height="1" /><rect x="36" y="10" width="1" height="1" /><rect x="34" y="11" width="1" height="1" /><rect x="36" y="11" width="1" height="1" /><rect x="34" y="12" width="1" height="1" /><rect x="36" y="12" width="1" height="1" /><rect x="34" y="13" width="1" height="1" /><rect x="36" y="13" width="1" height="1" /><rect x="15" y="15" width="1" height="9" /><rect x="23" y="15" width="1" height="8" /><rect x="18" y="17" width="1" height="1" /><rect x="20" y="17" width="1" height="1" /><rect x="18" y="18" width="1" height="1" /><rect x="20" y="18" width="1" height="1" /><rect x="18" y="19" width="1" height="1" /><rect x="20" y="19" width="1" height="1" /><rect x="18" y="20" width="1" height="1" /><rect x="20" y="20" width="1" height="1" /><rect x="18" y="21" width="1" height="1" /><rect x="20" y="21" width="1" height="1" /><rect x="31" y="15" width="1" height="9" /><rect x="39" y="15" width="1" height="8" /><rect x="34" y="17" width="1" height="1" /><rect x="36" y="17" width="1" height="1" /><rect x="34" y="18" width="1" height="1" /><rect x="36" y="18" width="1" height="1" /><rect x="34" y="19" width="1" height="1" /><rect x="36" y="19" width="1" height="1" /><rect x="34" y="20" width="1" height="1" /><rect x="36" y="20" width="1" height="1" /><rect x="34" y="21" width="1" height="1" /><rect x="36" y="21" width="1" height="1" /><rect x="15" y="23" width="1" height="9" /><rect x="23" y="23" width="1" height="8" /><rect x="18" y="25" width="1" height="1" /><rect x="20" y="25" width="1" height="1" /><rect x="18" y="26" width="1" height="1" /><rect x="20" y="26" width="1" height="1" /><rect x="18" y="27" width="1" height="1" /><rect x="20" y="27" width="1" height="1" /><rect x="18" y="28" width="1" height="1" /><rect x="20" y="28" width="1" height="1" /><rect x="18" y="29" width="1" height="1" /><rect x="20" y="29" width="1" height="1" /><rect x="31" y="23" width="1" height="9" /><rect x="39" y="23" width="1" height="8" /><rect x="34" y="25" width="1" height="1" /><rect x="36" y="25" width="1" height="1" /><rect x="34" y="26" width="1" height="1" /><rect x="36" y="26" width="1" height="1" /><rect x="34" y="27" width="1" height="1" /><rect x="36" y="27" width="1" height="1" /><rect x="34" y="28" width="1" height="1" /><rect x="36" y="28" width="1" height="1" /><rect x="34" y="29" width="1" height="1" /><rect x="36" y="29" width="1" height="1" /><rect x="15" y="31" width="1" height="9" /><rect x="23" y="31" width="1" height="8" /><rect x="18" y="33" width="1" height="1" /><rect x="20" y="33" width="1" height="1" /><rect x="18" y="34" width="1" height="1" /><rect x="20" y="34" width="1" height="1" /><rect x="18" y="35" width="1" height="1" /><rect x="20" y="35" width="1" height="1" /><rect x="18" y="36" width="1" height="1" /><rect x="20" y="36" width="1" height="1" /><rect x="18" y="37" width="1" height="1" /><rect x="20" y="37" width="1" height="1" /><rect x="31" y="31" width="1" height="9" /><rect x="39" y="31" width="1" height="8" /><rect x="34" y="33" width="1" height="1" /><rect x="36" y="33" width="1" height="1" /><rect x="34" y="34" width="1" height="1" /><rect x="36" y="34" width="1" height="1" /><rect x="34" y="35" width="1" height="1" /><rect x="36" y="35" width="1" height="1" /><rect x="34" y="36" width="1" height="1" /><rect x="36" y="36" width="1" height="1" /><rect x="34" y="37" width="1" height="1" /><rect x="36" y="37" width="1" height="1" /><rect x="15" y="39" width="1" height="9" /><rect x="23" y="39" width="1" height="8" /><rect x="15" y="47" width="9" height="1" /><rect x="18" y="41" width="1" height="1" /><rect x="20" y="41" width="1" height="1" /><rect x="18" y="42" width="1" height="1" /><rect x="20" y="42" width="1" height="1" /><rect x="18" y="43" width="1" height="1" /><rect x="20" y="43" width="1" height="1" /><rect x="18" y="44" width="1" height="1" /><rect x="20" y="44" width="1" height="1" /><rect x="18" y="45" width="1" height="1" /><rect x="20" y="45" width="1" height="1" /><rect x="31" y="39" width="1" height="9" /><rect x="39" y="39" width="1" height="8" /><rect x="31" y="47" width="9" height="1" /><rect x="34" y="41" width="1" height="1" /><rect x="36" y="41" width="1" height="1" /><rect x="34" y="42" width="1" height="1" /><rect x="36" y="42" width="1" height="1" /><rect x="34" y="43" width="1" height="1" /><rect x="36" y="43" width="1" height="1" /><rect x="34" y="44" width="1" height="1" /><rect x="36" y="44" width="1" height="1" /><rect x="34" y="45" width="1" height="1" /><rect x="36" y="45" width="1" height="1" /></svg>