<?xml version="1.0" encoding="utf-8"?><svg xmlns="http://www.w3.org/2000/svg" xmlns:xlink="http://www.w3.org/1999/xlink" width="16" height="16"><g id="n1"><rect x="10" y="9" width="1" height="1" /><rect x="11" y="9" width="1" height="1" /><rect x="12" y="9" width="1" height="1" /><rect x="9" y="10" width="1" height="1" /><rect x="12" y="10" width="1" height="1" /><rect x="13" y="10" width="1" height="1" /><rect x="9" y="11" width="1" height="1" /><rect x="11" y="11" width="1" height="1" /><rect x="13" y="11" width="1" height="1" /><rect x="9" y="12" width="1" height="1" /><rect x="10" y="12" width="1" height="1" /><rect x="13" y="12" width="1" height="1" /><rect x="10" y="13" width="1" height="1" /><rect x="11" y="13" width="1" height="1" /><rect x="12" y="13" width="1" height="1" /></g></svg>