<?xml version="1.0" encoding="utf-8"?><svg xmlns="http://www.w3.org/2000/svg" xmlns:xlink="http://www.w3.org/1999/xlink" width="208" height="208"><rect x="87" y="127" width="1" height="41" /><rect x="127" y="127" width="1" height="40" /><rect x="87" y="127" width="40" height="1" /><rect x="103" y="151" width="1" height="9" /><rect x="111" y="151" width="1" height="8" /><rect x="103" y="151" width="8" height="1" /><rect x="107" y="156" width="1" height="1" /><rect x="107" y="157" width="1" height="1" /><rect x="103" y="159" width="1" height="9" /><rect x="111" y="159" width="1" height="8" /><rect x="103" y="167" width="9" height="1" /><rect x="107" y="164" width="1" height="1" /><rect x="107" y="165" width="1" height="1" /><rect x="87" y="167" width="1" height="41" /><rect x="127" y="167" width="1" height="40" /><rect x="87" y="207" width="41" height="1" /><rect x="103" y="191" width="1" height="9" /><rect x="111" y="191" width="1" height="8" /><rect x="103" y="191" width="8" height="1" /><rect x="107" y="196" width="1" height="1" /><rect x="107" y="197" width="1" height="1" /><rect x="103" y="199" width="1" height="9" /><rect x="111" y="199" width="1" height="8" /><rect x="103" y="207" width="9" height="1" /><rect x="107" y="204" width="1" height="1" /><rect x="107" y="205" width="1" height="1" /></svg>