<?xml version="1.0" encoding="utf-8"?><svg xmlns="http://www.w3.org/2000/svg" xmlns:xlink="http://www.w3.org/1999/xlink" width="208" height="208"><rect x="87" y="7" width="1" height="41" /><rect x="127" y="7" width="1" height="40" /><rect x="87" y="7" width="40" height="1" /><rect x="87" y="47" width="41" height="1" /><rect x="103" y="7" width="1" height="9" /><rect x="111" y="7" width="1" height="8" /><rect x="103" y="7" width="8" height="1" /><rect x="103" y="15" width="9" height="1" /><rect x="107" y="9" width="1" height="1" /><rect x="105" y="11" width="1" height="1" /><rect x="106" y="11" width="1" height="1" /><rect x="107" y="11" width="1" height="1" /><rect x="108" y="11" width="1" height="1" /><rect x="109" y="11" width="1" height="1" /><rect x="107" y="13" width="1" height="1" /><rect x="87" y="23" width="1" height="9" /><rect x="87" y="23" width="8" height="1" /><rect x="87" y="31" width="9" height="1" /><rect x="91" y="25" width="1" height="1" /><rect x="89" y="27" width="1" height="1" /><rect x="90" y="27" width="1" height="1" /><rect x="91" y="27" width="1" height="1" /><rect x="92" y="27" width="1" height="1" /><rect x="93" y="27" width="1" height="1" /><rect x="91" y="29" width="1" height="1" /><rect x="95" y="23" width="8" height="1" /><rect x="95" y="31" width="9" height="1" /><rect x="99" y="25" width="1" height="1" /><rect x="97" y="27" width="1" height="1" /><rect x="98" y="27" width="1" height="1" /><rect x="99" y="27" width="1" height="1" /><rect x="100" y="27" width="1" height="1" /><rect x="101" y="27" width="1" height="1" /><rect x="99" y="29" width="1" height="1" /><rect x="103" y="23" width="8" height="1" /><rect x="103" y="31" width="9" height="1" /><rect x="107" y="25" width="1" height="1" /><rect x="105" y="27" width="1" height="1" /><rect x="106" y="27" width="1" height="1" /><rect x="107" y="27" width="1" height="1" /><rect x="108" y="27" width="1" height="1" /><rect x="109" y="27" width="1" height="1" /><rect x="107" y="29" width="1" height="1" /><rect x="111" y="23" width="8" height="1" /><rect x="111" y="31" width="9" height="1" /><rect x="115" y="25" width="1" height="1" /><rect x="113" y="27" width="1" height="1" /><rect x="114" y="27" width="1" height="1" /><rect x="115" y="27" width="1" height="1" /><rect x="116" y="27" width="1" height="1" /><rect x="117" y="27" width="1" height="1" /><rect x="115" y="29" width="1" height="1" /><rect x="127" y="23" width="1" height="8" /><rect x="119" y="23" width="8" height="1" /><rect x="119" y="31" width="9" height="1" /><rect x="123" y="25" width="1" height="1" /><rect x="121" y="27" width="1" height="1" /><rect x="122" y="27" width="1" height="1" /><rect x="123" y="27" width="1" height="1" /><rect x="124" y="27" width="1" height="1" /><rect x="125" y="27" width="1" height="1" /><rect x="123" y="29" width="1" height="1" /><rect x="103" y="39" width="1" height="9" /><rect x="111" y="39" width="1" height="8" /><rect x="103" y="39" width="8" height="1" /><rect x="103" y="47" width="9" height="1" /><rect x="107" y="41" width="1" height="1" /><rect x="105" y="43" width="1" height="1" /><rect x="106" y="43" width="1" height="1" /><rect x="107" y="43" width="1" height="1" /><rect x="108" y="43" width="1" height="1" /><rect x="109" y="43" width="1" height="1" /><rect x="107" y="45" width="1" height="1" /><rect x="7" y="87" width="1" height="41" /><rect x="7" y="87" width="40" height="1" /><rect x="7" y="127" width="41" height="1" /><rect x="23" y="87" width="1" height="9" /><rect x="31" y="87" width="1" height="8" /><rect x="23" y="87" width="8" height="1" /><rect x="23" y="95" width="9" height="1" /><rect x="27" y="89" width="1" height="1" /><rect x="25" y="91" width="1" height="1" /><rect x="26" y="91" width="1" height="1" /><rect x="27" y="91" width="1" height="1" /><rect x="28" y="91" width="1" height="1" /><rect x="29" y="91" width="1" height="1" /><rect x="27" y="93" width="1" height="1" /><rect x="7" y="103" width="1" height="9" /><rect x="7" y="103" width="8" height="1" /><rect x="7" y="111" width="9" height="1" /><rect x="11" y="105" width="1" height="1" /><rect x="9" y="107" width="1" height="1" /><rect x="10" y="107" width="1" height="1" /><rect x="11" y="107" width="1" height="1" /><rect x="12" y="107" width="1" height="1" /><rect x="13" y="107" width="1" height="1" /><rect x="11" y="109" width="1" height="1" /><rect x="15" y="103" width="8" height="1" /><rect x="15" y="111" width="9" height="1" /><rect x="19" y="105" width="1" height="1" /><rect x="17" y="107" width="1" height="1" /><rect x="18" y="107" width="1" height="1" /><rect x="19" y="107" width="1" height="1" /><rect x="20" y="107" width="1" height="1" /><rect x="21" y="107" width="1" height="1" /><rect x="19" y="109" width="1" height="1" /><rect x="23" y="103" width="8" height="1" /><rect x="23" y="111" width="9" height="1" /><rect x="27" y="105" width="1" height="1" /><rect x="25" y="107" width="1" height="1" /><rect x="26" y="107" width="1" height="1" /><rect x="27" y="107" width="1" height="1" /><rect x="28" y="107" width="1" height="1" /><rect x="29" y="107" width="1" height="1" /><rect x="27" y="109" width="1" height="1" /><rect x="31" y="103" width="8" height="1" /><rect x="31" y="111" width="9" height="1" /><rect x="35" y="105" width="1" height="1" /><rect x="33" y="107" width="1" height="1" /><rect x="34" y="107" width="1" height="1" /><rect x="35" y="107" width="1" height="1" /><rect x="36" y="107" width="1" height="1" /><rect x="37" y="107" width="1" height="1" /><rect x="35" y="109" width="1" height="1" /><rect x="47" y="103" width="1" height="8" /><rect x="39" y="103" width="8" height="1" /><rect x="39" y="111" width="9" height="1" /><rect x="43" y="105" width="1" height="1" /><rect x="41" y="107" width="1" height="1" /><rect x="42" y="107" width="1" height="1" /><rect x="43" y="107" width="1" height="1" /><rect x="44" y="107" width="1" height="1" /><rect x="45" y="107" width="1" height="1" /><rect x="43" y="109" width="1" height="1" /><rect x="23" y="119" width="1" height="9" /><rect x="31" y="119" width="1" height="8" /><rect x="23" y="119" width="8" height="1" /><rect x="23" y="127" width="9" height="1" /><rect x="27" y="121" width="1" height="1" /><rect x="25" y="123" width="1" height="1" /><rect x="26" y="123" width="1" height="1" /><rect x="27" y="123" width="1" height="1" /><rect x="28" y="123" width="1" height="1" /><rect x="29" y="123" width="1" height="1" /><rect x="27" y="125" width="1" height="1" /><rect x="47" y="87" width="40" height="1" /><rect x="47" y="127" width="41" height="1" /><rect x="63" y="87" width="1" height="9" /><rect x="71" y="87" width="1" height="8" /><rect x="63" y="87" width="8" height="1" /><rect x="63" y="95" width="9" height="1" /><rect x="67" y="89" width="1" height="1" /><rect x="65" y="91" width="1" height="1" /><rect x="66" y="91" width="1" height="1" /><rect x="67" y="91" width="1" height="1" /><rect x="68" y="91" width="1" height="1" /><rect x="69" y="91" width="1" height="1" /><rect x="67" y="93" width="1" height="1" /><rect x="47" y="103" width="1" height="9" /><rect x="47" y="103" width="8" height="1" /><rect x="47" y="111" width="9" height="1" /><rect x="51" y="105" width="1" height="1" /><rect x="49" y="107" width="1" height="1" /><rect x="50" y="107" width="1" height="1" /><rect x="51" y="107" width="1" height="1" /><rect x="52" y="107" width="1" height="1" /><rect x="53" y="107" width="1" height="1" /><rect x="51" y="109" width="1" height="1" /><rect x="55" y="103" width="8" height="1" /><rect x="55" y="111" width="9" height="1" /><rect x="59" y="105" width="1" height="1" /><rect x="57" y="107" width="1" height="1" /><rect x="58" y="107" width="1" height="1" /><rect x="59" y="107" width="1" height="1" /><rect x="60" y="107" width="1" height="1" /><rect x="61" y="107" width="1" height="1" /><rect x="59" y="109" width="1" height="1" /><rect x="63" y="103" width="8" height="1" /><rect x="63" y="111" width="9" height="1" /><rect x="67" y="105" width="1" height="1" /><rect x="65" y="107" width="1" height="1" /><rect x="66" y="107" width="1" height="1" /><rect x="67" y="107" width="1" height="1" /><rect x="68" y="107" width="1" height="1" /><rect x="69" y="107" width="1" height="1" /><rect x="67" y="109" width="1" height="1" /><rect x="71" y="103" width="8" height="1" /><rect x="71" y="111" width="9" height="1" /><rect x="75" y="105" width="1" height="1" /><rect x="73" y="107" width="1" height="1" /><rect x="74" y="107" width="1" height="1" /><rect x="75" y="107" width="1" height="1" /><rect x="76" y="107" width="1" height="1" /><rect x="77" y="107" width="1" height="1" /><rect x="75" y="109" width="1" height="1" /><rect x="87" y="103" width="1" height="8" /><rect x="79" y="103" width="8" height="1" /><rect x="79" y="111" width="9" height="1" /><rect x="83" y="105" width="1" height="1" /><rect x="81" y="107" width="1" height="1" /><rect x="82" y="107" width="1" height="1" /><rect x="83" y="107" width="1" height="1" /><rect x="84" y="107" width="1" height="1" /><rect x="85" y="107" width="1" height="1" /><rect x="83" y="109" width="1" height="1" /><rect x="63" y="119" width="1" height="9" /><rect x="71" y="119" width="1" height="8" /><rect x="63" y="119" width="8" height="1" /><rect x="63" y="127" width="9" height="1" /><rect x="67" y="121" width="1" height="1" /><rect x="65" y="123" width="1" height="1" /><rect x="66" y="123" width="1" height="1" /><rect x="67" y="123" width="1" height="1" /><rect x="68" y="123" width="1" height="1" /><rect x="69" y="123" width="1" height="1" /><rect x="67" y="125" width="1" height="1" /><rect x="87" y="87" width="40" height="1" /><rect x="87" y="127" width="41" height="1" /><rect x="103" y="87" width="1" height="9" /><rect x="111" y="87" width="1" height="8" /><rect x="103" y="87" width="8" height="1" /><rect x="103" y="95" width="9" height="1" /><rect x="107" y="89" width="1" height="1" /><rect x="105" y="91" width="1" height="1" /><rect x="106" y="91" width="1" height="1" /><rect x="107" y="91" width="1" height="1" /><rect x="108" y="91" width="1" height="1" /><rect x="109" y="91" width="1" height="1" /><rect x="107" y="93" width="1" height="1" /><rect x="87" y="103" width="1" height="9" /><rect x="87" y="103" width="8" height="1" /><rect x="87" y="111" width="9" height="1" /><rect x="91" y="105" width="1" height="1" /><rect x="89" y="107" width="1" height="1" /><rect x="90" y="107" width="1" height="1" /><rect x="91" y="107" width="1" height="1" /><rect x="92" y="107" width="1" height="1" /><rect x="93" y="107" width="1" height="1" /><rect x="91" y="109" width="1" height="1" /><rect x="95" y="103" width="8" height="1" /><rect x="95" y="111" width="9" height="1" /><rect x="99" y="105" width="1" height="1" /><rect x="97" y="107" width="1" height="1" /><rect x="98" y="107" width="1" height="1" /><rect x="99" y="107" width="1" height="1" /><rect x="100" y="107" width="1" height="1" /><rect x="101" y="107" width="1" height="1" /><rect x="99" y="109" width="1" height="1" /><rect x="103" y="103" width="8" height="1" /><rect x="103" y="111" width="9" height="1" /><rect x="107" y="105" width="1" height="1" /><rect x="105" y="107" width="1" height="1" /><rect x="106" y="107" width="1" height="1" /><rect x="107" y="107" width="1" height="1" /><rect x="108" y="107" width="1" height="1" /><rect x="109" y="107" width="1" height="1" /><rect x="107" y="109" width="1" height="1" /><rect x="111" y="103" width="8" height="1" /><rect x="111" y="111" width="9" height="1" /><rect x="115" y="105" width="1" height="1" /><rect x="113" y="107" width="1" height="1" /><rect x="114" y="107" width="1" height="1" /><rect x="115" y="107" width="1" height="1" /><rect x="116" y="107" width="1" height="1" /><rect x="117" y="107" width="1" height="1" /><rect x="115" y="109" width="1" height="1" /><rect x="127" y="103" width="1" height="8" /><rect x="119" y="103" width="8" height="1" /><rect x="119" y="111" width="9" height="1" /><rect x="123" y="105" width="1" height="1" /><rect x="121" y="107" width="1" height="1" /><rect x="122" y="107" width="1" height="1" /><rect x="123" y="107" width="1" height="1" /><rect x="124" y="107" width="1" height="1" /><rect x="125" y="107" width="1" height="1" /><rect x="123" y="109" width="1" height="1" /><rect x="103" y="119" width="1" height="9" /><rect x="111" y="119" width="1" height="8" /><rect x="103" y="119" width="8" height="1" /><rect x="103" y="127" width="9" height="1" /><rect x="107" y="121" width="1" height="1" /><rect x="105" y="123" width="1" height="1" /><rect x="106" y="123" width="1" height="1" /><rect x="107" y="123" width="1" height="1" /><rect x="108" y="123" width="1" height="1" /><rect x="109" y="123" width="1" height="1" /><rect x="107" y="125" width="1" height="1" /><rect x="127" y="87" width="40" height="1" /><rect x="127" y="127" width="41" height="1" /><rect x="143" y="87" width="1" height="9" /><rect x="151" y="87" width="1" height="8" /><rect x="143" y="87" width="8" height="1" /><rect x="143" y="95" width="9" height="1" /><rect x="147" y="89" width="1" height="1" /><rect x="145" y="91" width="1" height="1" /><rect x="146" y="91" width="1" height="1" /><rect x="147" y="91" width="1" height="1" /><rect x="148" y="91" width="1" height="1" /><rect x="149" y="91" width="1" height="1" /><rect x="147" y="93" width="1" height="1" /><rect x="127" y="103" width="1" height="9" /><rect x="127" y="103" width="8" height="1" /><rect x="127" y="111" width="9" height="1" /><rect x="131" y="105" width="1" height="1" /><rect x="129" y="107" width="1" height="1" /><rect x="130" y="107" width="1" height="1" /><rect x="131" y="107" width="1" height="1" /><rect x="132" y="107" width="1" height="1" /><rect x="133" y="107" width="1" height="1" /><rect x="131" y="109" width="1" height="1" /><rect x="135" y="103" width="8" height="1" /><rect x="135" y="111" width="9" height="1" /><rect x="139" y="105" width="1" height="1" /><rect x="137" y="107" width="1" height="1" /><rect x="138" y="107" width="1" height="1" /><rect x="139" y="107" width="1" height="1" /><rect x="140" y="107" width="1" height="1" /><rect x="141" y="107" width="1" height="1" /><rect x="139" y="109" width="1" height="1" /><rect x="143" y="103" width="8" height="1" /><rect x="143" y="111" width="9" height="1" /><rect x="147" y="105" width="1" height="1" /><rect x="145" y="107" width="1" height="1" /><rect x="146" y="107" width="1" height="1" /><rect x="147" y="107" width="1" height="1" /><rect x="148" y="107" width="1" height="1" /><rect x="149" y="107" width="1" height="1" /><rect x="147" y="109" width="1" height="1" /><rect x="151" y="103" width="8" height="1" /><rect x="151" y="111" width="9" height="1" /><rect x="155" y="105" width="1" height="1" /><rect x="153" y="107" width="1" height="1" /><rect x="154" y="107" width="1" height="1" /><rect x="155" y="107" width="1" height="1" /><rect x="156" y="107" width="1" height="1" /><rect x="157" y="107" width="1" height="1" /><rect x="155" y="109" width="1" height="1" /><rect x="167" y="103" width="1" height="8" /><rect x="159" y="103" width="8" height="1" /><rect x="159" y="111" width="9" height="1" /><rect x="163" y="105" width="1" height="1" /><rect x="161" y="107" width="1" height="1" /><rect x="162" y="107" width="1" height="1" /><rect x="163" y="107" width="1" height="1" /><rect x="164" y="107" width="1" height="1" /><rect x="165" y="107" width="1" height="1" /><rect x="163" y="109" width="1" height="1" /><rect x="143" y="119" width="1" height="9" /><rect x="151" y="119" width="1" height="8" /><rect x="143" y="119" width="8" height="1" /><rect x="143" y="127" width="9" height="1" /><rect x="147" y="121" width="1" height="1" /><rect x="145" y="123" width="1" height="1" /><rect x="146" y="123" width="1" height="1" /><rect x="147" y="123" width="1" height="1" /><rect x="148" y="123" width="1" height="1" /><rect x="149" y="123" width="1" height="1" /><rect x="147" y="125" width="1" height="1" /><rect x="207" y="87" width="1" height="40" /><rect x="167" y="87" width="40" height="1" /><rect x="167" y="127" width="41" height="1" /><rect x="183" y="87" width="1" height="9" /><rect x="191" y="87" width="1" height="8" /><rect x="183" y="87" width="8" height="1" /><rect x="183" y="95" width="9" height="1" /><rect x="187" y="89" width="1" height="1" /><rect x="185" y="91" width="1" height="1" /><rect x="186" y="91" width="1" height="1" /><rect x="187" y="91" width="1" height="1" /><rect x="188" y="91" width="1" height="1" /><rect x="189" y="91" width="1" height="1" /><rect x="187" y="93" width="1" height="1" /><rect x="167" y="103" width="1" height="9" /><rect x="167" y="103" width="8" height="1" /><rect x="167" y="111" width="9" height="1" /><rect x="171" y="105" width="1" height="1" /><rect x="169" y="107" width="1" height="1" /><rect x="170" y="107" width="1" height="1" /><rect x="171" y="107" width="1" height="1" /><rect x="172" y="107" width="1" height="1" /><rect x="173" y="107" width="1" height="1" /><rect x="171" y="109" width="1" height="1" /><rect x="175" y="103" width="8" height="1" /><rect x="175" y="111" width="9" height="1" /><rect x="179" y="105" width="1" height="1" /><rect x="177" y="107" width="1" height="1" /><rect x="178" y="107" width="1" height="1" /><rect x="179" y="107" width="1" height="1" /><rect x="180" y="107" width="1" height="1" /><rect x="181" y="107" width="1" height="1" /><rect x="179" y="109" width="1" height="1" /><rect x="183" y="103" width="8" height="1" /><rect x="183" y="111" width="9" height="1" /><rect x="187" y="105" width="1" height="1" /><rect x="185" y="107" width="1" height="1" /><rect x="186" y="107" width="1" height="1" /><rect x="187" y="107" width="1" height="1" /><rect x="188" y="107" width="1" height="1" /><rect x="189" y="107" width="1" height="1" /><rect x="187" y="109" width="1" height="1" /><rect x="191" y="103" width="8" height="1" /><rect x="191" y="111" width="9" height="1" /><rect x="195" y="105" width="1" height="1" /><rect x="193" y="107" width="1" height="1" /><rect x="194" y="107" width="1" height="1" /><rect x="195" y="107" width="1" height="1" /><rect x="196" y="107" width="1" height="1" /><rect x="197" y="107" width="1" height="1" /><rect x="195" y="109" width="1" height="1" /><rect x="207" y="103" width="1" height="8" /><rect x="199" y="103" width="8" height="1" /><rect x="199" y="111" width="9" height="1" /><rect x="203" y="105" width="1" height="1" /><rect x="201" y="107" width="1" height="1" /><rect x="202" y="107" width="1" height="1" /><rect x="203" y="107" width="1" height="1" /><rect x="204" y="107" width="1" height="1" /><rect x="205" y="107" width="1" height="1" /><rect x="203" y="109" width="1" height="1" /><rect x="183" y="119" width="1" height="9" /><rect x="191" y="119" width="1" height="8" /><rect x="183" y="119" width="8" height="1" /><rect x="183" y="127" width="9" height="1" /><rect x="187" y="121" width="1" height="1" /><rect x="185" y="123" width="1" height="1" /><rect x="186" y="123" width="1" height="1" /><rect x="187" y="123" width="1" height="1" /><rect x="188" y="123" width="1" height="1" /><rect x="189" y="123" width="1" height="1" /><rect x="187" y="125" width="1" height="1" /><rect x="87" y="167" width="1" height="41" /><rect x="127" y="167" width="1" height="40" /><rect x="87" y="167" width="40" height="1" /><rect x="87" y="207" width="41" height="1" /><rect x="103" y="167" width="1" height="9" /><rect x="111" y="167" width="1" height="8" /><rect x="103" y="167" width="8" height="1" /><rect x="103" y="175" width="9" height="1" /><rect x="107" y="169" width="1" height="1" /><rect x="105" y="171" width="1" height="1" /><rect x="106" y="171" width="1" height="1" /><rect x="107" y="171" width="1" height="1" /><rect x="108" y="171" width="1" height="1" /><rect x="109" y="171" width="1" height="1" /><rect x="107" y="173" width="1" height="1" /><rect x="87" y="183" width="1" height="9" /><rect x="87" y="183" width="8" height="1" /><rect x="87" y="191" width="9" height="1" /><rect x="91" y="185" width="1" height="1" /><rect x="89" y="187" width="1" height="1" /><rect x="90" y="187" width="1" height="1" /><rect x="91" y="187" width="1" height="1" /><rect x="92" y="187" width="1" height="1" /><rect x="93" y="187" width="1" height="1" /><rect x="91" y="189" width="1" height="1" /><rect x="95" y="183" width="8" height="1" /><rect x="95" y="191" width="9" height="1" /><rect x="99" y="185" width="1" height="1" /><rect x="97" y="187" width="1" height="1" /><rect x="98" y="187" width="1" height="1" /><rect x="99" y="187" width="1" height="1" /><rect x="100" y="187" width="1" height="1" /><rect x="101" y="187" width="1" height="1" /><rect x="99" y="189" width="1" height="1" /><rect x="103" y="183" width="8" height="1" /><rect x="103" y="191" width="9" height="1" /><rect x="107" y="185" width="1" height="1" /><rect x="105" y="187" width="1" height="1" /><rect x="106" y="187" width="1" height="1" /><rect x="107" y="187" width="1" height="1" /><rect x="108" y="187" width="1" height="1" /><rect x="109" y="187" width="1" height="1" /><rect x="107" y="189" width="1" height="1" /><rect x="111" y="183" width="8" height="1" /><rect x="111" y="191" width="9" height="1" /><rect x="115" y="185" width="1" height="1" /><rect x="113" y="187" width="1" height="1" /><rect x="114" y="187" width="1" height="1" /><rect x="115" y="187" width="1" height="1" /><rect x="116" y="187" width="1" height="1" /><rect x="117" y="187" width="1" height="1" /><rect x="115" y="189" width="1" height="1" /><rect x="127" y="183" width="1" height="8" /><rect x="119" y="183" width="8" height="1" /><rect x="119" y="191" width="9" height="1" /><rect x="123" y="185" width="1" height="1" /><rect x="121" y="187" width="1" height="1" /><rect x="122" y="187" width="1" height="1" /><rect x="123" y="187" width="1" height="1" /><rect x="124" y="187" width="1" height="1" /><rect x="125" y="187" width="1" height="1" /><rect x="123" y="189" width="1" height="1" /><rect x="103" y="199" width="1" height="9" /><rect x="111" y="199" width="1" height="8" /><rect x="103" y="199" width="8" height="1" /><rect x="103" y="207" width="9" height="1" /><rect x="107" y="201" width="1" height="1" /><rect x="105" y="203" width="1" height="1" /><rect x="106" y="203" width="1" height="1" /><rect x="107" y="203" width="1" height="1" /><rect x="108" y="203" width="1" height="1" /><rect x="109" y="203" width="1" height="1" /><rect x="107" y="205" width="1" height="1" /></svg>