<?xml version="1.0" encoding="utf-8"?><svg xmlns="http://www.w3.org/2000/svg" xmlns:xlink="http://www.w3.org/1999/xlink" width="208" height="208"><rect x="0" y="0" width="100%" height="100%" fill="#ffffff" /><rect x="87" y="7" width="1" height="41" /><rect x="127" y="7" width="1" height="40" /><rect x="87" y="7" width="40" height="1" /><rect x="103" y="7" width="1" height="9" /><rect x="111" y="7" width="1" height="8" /><rect x="103" y="7" width="8" height="1" /><rect x="107" y="9" width="1" height="1" /><rect x="107" y="10" width="1" height="1" /><rect x="107" y="11" width="1" height="1" /><rect x="107" y="13" width="1" height="1" /><rect x="103" y="15" width="1" height="9" /><rect x="111" y="15" width="1" height="8" /><rect x="107" y="17" width="1" height="1" /><rect x="107" y="18" width="1" height="1" /><rect x="107" y="19" width="1" height="1" /><rect x="107" y="21" width="1" height="1" /><rect x="103" y="23" width="1" height="9" /><rect x="111" y="23" width="1" height="8" /><rect x="103" y="31" width="9" height="1" /><rect x="107" y="25" width="1" height="1" /><rect x="107" y="26" width="1" height="1" /><rect x="107" y="27" width="1" height="1" /><rect x="107" y="29" width="1" height="1" /><rect x="103" y="39" width="1" height="9" /><rect x="111" y="39" width="1" height="8" /><rect x="103" y="39" width="8" height="1" /><rect x="103" y="47" width="9" height="1" /><rect x="107" y="41" width="1" height="1" /><rect x="107" y="42" width="1" height="1" /><rect x="107" y="43" width="1" height="1" /><rect x="107" y="45" width="1" height="1" /><rect x="87" y="47" width="1" height="41" /><rect x="127" y="47" width="1" height="40" /><rect x="103" y="47" width="1" height="9" /><rect x="111" y="47" width="1" height="8" /><rect x="103" y="47" width="8" height="1" /><rect x="107" y="49" width="1" height="1" /><rect x="107" y="50" width="1" height="1" /><rect x="107" y="51" width="1" height="1" /><rect x="107" y="53" width="1" height="1" /><rect x="103" y="55" width="1" height="9" /><rect x="111" y="55" width="1" height="8" /><rect x="107" y="57" width="1" height="1" /><rect x="107" y="58" width="1" height="1" /><rect x="107" y="59" width="1" height="1" /><rect x="107" y="61" width="1" height="1" /><rect x="103" y="63" width="1" height="9" /><rect x="111" y="63" width="1" height="8" /><rect x="103" y="71" width="9" height="1" /><rect x="107" y="65" width="1" height="1" /><rect x="107" y="66" width="1" height="1" /><rect x="107" y="67" width="1" height="1" /><rect x="107" y="69" width="1" height="1" /><rect x="103" y="79" width="1" height="9" /><rect x="111" y="79" width="1" height="8" /><rect x="103" y="79" width="8" height="1" /><rect x="103" y="87" width="9" height="1" /><rect x="107" y="81" width="1" height="1" /><rect x="107" y="82" width="1" height="1" /><rect x="107" y="83" width="1" height="1" /><rect x="107" y="85" width="1" height="1" /><rect x="87" y="87" width="1" height="41" /><rect x="127" y="87" width="1" height="40" /><rect x="87" y="127" width="41" height="1" /><rect x="103" y="87" width="1" height="9" /><rect x="111" y="87" width="1" height="8" /><rect x="103" y="87" width="8" height="1" /><rect x="107" y="89" width="1" height="1" /><rect x="107" y="90" width="1" height="1" /><rect x="107" y="91" width="1" height="1" /><rect x="107" y="93" width="1" height="1" /><rect x="103" y="95" width="1" height="9" /><rect x="111" y="95" width="1" height="8" /><rect x="107" y="97" width="1" height="1" /><rect x="107" y="98" width="1" height="1" /><rect x="107" y="99" width="1" height="1" /><rect x="107" y="101" width="1" height="1" /><rect x="103" y="103" width="1" height="9" /><rect x="111" y="103" width="1" height="8" /><rect x="103" y="111" width="9" height="1" /><rect x="107" y="105" width="1" height="1" /><rect x="107" y="106" width="1" height="1" /><rect x="107" y="107" width="1" height="1" /><rect x="107" y="109" width="1" height="1" /><rect x="103" y="119" width="1" height="9" /><rect x="111" y="119" width="1" height="8" /><rect x="103" y="119" width="8" height="1" /><rect x="103" y="127" width="9" height="1" /><rect x="107" y="121" width="1" height="1" /><rect x="107" y="122" width="1" height="1" /><rect x="107" y="123" width="1" height="1" /><rect x="107" y="125" width="1" height="1" /><rect x="87" y="167" width="1" height="41" /><rect x="127" y="167" width="1" height="40" /><rect x="87" y="167" width="40" height="1" /><rect x="87" y="207" width="41" height="1" /><rect x="103" y="167" width="1" height="9" /><rect x="111" y="167" width="1" height="8" /><rect x="103" y="167" width="8" height="1" /><rect x="107" y="169" width="1" height="1" /><rect x="107" y="170" width="1" height="1" /><rect x="107" y="171" width="1" height="1" /><rect x="107" y="173" width="1" height="1" /><rect x="103" y="175" width="1" height="9" /><rect x="111" y="175" width="1" height="8" /><rect x="107" y="177" width="1" height="1" /><rect x="107" y="178" width="1" height="1" /><rect x="107" y="179" width="1" height="1" /><rect x="107" y="181" width="1" height="1" /><rect x="103" y="183" width="1" height="9" /><rect x="111" y="183" width="1" height="8" /><rect x="103" y="191" width="9" height="1" /><rect x="107" y="185" width="1" height="1" /><rect x="107" y="186" width="1" height="1" /><rect x="107" y="187" width="1" height="1" /><rect x="107" y="189" width="1" height="1" /><rect x="103" y="199" width="1" height="9" /><rect x="111" y="199" width="1" height="8" /><rect x="103" y="199" width="8" height="1" /><rect x="103" y="207" width="9" height="1" /><rect x="107" y="201" width="1" height="1" /><rect x="107" y="202" width="1" height="1" /><rect x="107" y="203" width="1" height="1" /><rect x="107" y="205" width="1" height="1" /></svg>