<?xml version="1.0" encoding="utf-8"?><svg xmlns="http://www.w3.org/2000/svg" xmlns:xlink="http://www.w3.org/1999/xlink" width="48" height="48"><rect x="0" y="0" width="100%" height="100%" fill="#ffffff" /><g id="n2" transform="translate(-9,-9)"><rect x="16" y="48" width="1" height="9" /><rect x="24" y="48" width="1" height="8" /><rect x="16" y="48" width="8" height="1" /><rect x="16" y="56" width="9" height="1" /><use href="#n1" x="9" y="41" /><rect x="32" y="48" width="1" height="9" /><rect x="40" y="48" width="1" height="8" /><rect x="32" y="48" width="8" height="1" /><rect x="32" y="56" width="9" height="1" /><use href="#n1" x="25" y="41" /><rect x="48" y="48" width="1" height="9" /><rect x="56" y="48" width="1" height="8" /><rect x="48" y="48" width="8" height="1" /><rect x="48" y="56" width="9" height="1" /><use href="#n1" x="41" y="41" /></g></svg>