<?xml version="1.0" encoding="utf-8"?><svg xmlns="http://www.w3.org/2000/svg" xmlns:xlink="http://www.w3.org/1999/xlink" width="5008" height="5008"><rect x="0" y="0" width="100%" height="100%" fill="#ffffff" /><symbol id="n1"><rect x="11" y="9" width="1" height="1" /><rect x="11" y="13" width="1" height="1" /></symbol><symbol id="n2"><rect x="32" y="16" width="1" height="9" /><rect x="40" y="16" width="1" height="8" /><rect x="32" y="16" width="8" height="1" /><rect x="32" y="24" width="9" height="1" /><use href="#n1" x="25" y="9" /><rect x="32" y="48" width="1" height="9" /><rect x="40" y="48" width="1" height="8" /><rect x="32" y="48" width="8" height="1" /><rect x="32" y="56" width="9" height="1" /><use href="#n1" x="25" y="41" /></symbol><symbol id="n3"><rect x="105" y="25" width="1" height="41" /><rect x="145" y="25" width="1" height="40" /><rect x="105" y="25" width="40" height="1" /><rect x="105" y="65" width="41" height="1" /><use href="#n2" x="89" y="9" /><rect x="105" y="185" width="1" height="41" /><rect x="145" y="185" width="1" height="40" /><rect x="105" y="185" width="40" height="1" /><rect x="105" y="225" width="41" height="1" /><use href="#n2" x="89" y="169" /></symbol><symbol id="n4"><rect x="434" y="34" width="1" height="201" /><rect x="634" y="34" width="1" height="200" /><rect x="434" y="34" width="200" height="1" /><rect x="434" y="234" width="201" height="1" /><use href="#n3" x="409" y="9" /><rect x="434" y="834" width="1" height="201" /><rect x="634" y="834" width="1" height="200" /><rect x="434" y="834" width="200" height="1" /><rect x="434" y="1034" width="201" height="1" /><use href="#n3" x="409" y="809" /></symbol><g id="n5" transform="translate(-36,-36)"><rect x="2043" y="43" width="1" height="1001" /><rect x="3043" y="43" width="1" height="1000" /><rect x="2043" y="43" width="1000" height="1" /><rect x="2043" y="1043" width="1001" height="1" /><use href="#n4" x="2009" y="9" /><rect x="2043" y="4043" width="1" height="1001" /><rect x="3043" y="4043" width="1" height="1000" /><rect x="2043" y="4043" width="1000" height="1" /><rect x="2043" y="5043" width="1001" height="1" /><use href="#n4" x="2009" y="4009" /></g></svg>