<?xml version="1.0" encoding="utf-8"?><svg xmlns="http://www.w3.org/2000/svg" xmlns:xlink="http://www.w3.org/1999/xlink" width="208" height="208"><rect x="0" y="0" width="100%" height="100%" fill="#ffffff" /><g id="n3" transform="translate(-18,-18)"><rect x="65" y="25" width="1" height="41" /><rect x="65" y="25" width="40" height="1" /><rect x="65" y="65" width="41" height="1" /><use href="#n2" x="49" y="9" /><rect x="105" y="25" width="40" height="1" /><rect x="105" y="65" width="41" height="1" /><use href="#n2" x="89" y="9" /><rect x="145" y="25" width="40" height="1" /><rect x="145" y="65" width="41" height="1" /><use href="#n2" x="129" y="9" /><rect x="225" y="25" width="1" height="40" /><rect x="185" y="25" width="40" height="1" /><rect x="185" y="65" width="41" height="1" /><use href="#n2" x="169" y="9" /><rect x="25" y="65" width="1" height="41" /><rect x="65" y="65" width="1" height="40" /><rect x="25" y="65" width="40" height="1" /><use href="#n2" x="9" y="49" /><rect x="25" y="105" width="1" height="41" /><rect x="65" y="105" width="1" height="40" /><use href="#n2" x="9" y="89" /><rect x="25" y="145" width="1" height="41" /><rect x="65" y="145" width="1" height="40" /><rect x="25" y="185" width="41" height="1" /><use href="#n2" x="9" y="129" /><rect x="65" y="185" width="1" height="41" /><rect x="65" y="185" width="40" height="1" /><rect x="65" y="225" width="41" height="1" /><use href="#n2" x="49" y="169" /><rect x="105" y="185" width="40" height="1" /><rect x="105" y="225" width="41" height="1" /><use href="#n2" x="89" y="169" /><rect x="145" y="185" width="40" height="1" /><rect x="145" y="225" width="41" height="1" /><use href="#n2" x="129" y="169" /><rect x="225" y="185" width="1" height="40" /><rect x="185" y="185" width="40" height="1" /><rect x="185" y="225" width="41" height="1" /><use href="#n2" x="169" y="169" /></g></svg>