<?xml version="1.0" encoding="utf-8"?><svg xmlns="http://www.w3.org/2000/svg" xmlns:xlink="http://www.w3.org/1999/xlink" width="48" height="48"><rect x="15" y="15" width="1" height="9" /><rect x="23" y="15" width="1" height="8" /><rect x="15" y="15" width="8" height="1" /><rect x="15" y="23" width="9" height="1" /><rect x="18" y="18" width="1" height="1" /><rect x="20" y="18" width="1" height="1" /><rect x="17" y="19" width="1" height="1" /><rect x="21" y="19" width="1" height="1" /><rect x="18" y="20" width="1" height="1" /><rect x="20" y="20" width="1" height="1" /><rect x="31" y="15" width="1" height="9" /><rect x="39" y="15" width="1" height="8" /><rect x="31" y="15" width="8" height="1" /><rect x="31" y="23" width="9" height="1" /><rect x="34" y="18" width="1" height="1" /><rect x="36" y="18" width="1" height="1" /><rect x="33" y="19" width="1" height="1" /><rect x="37" y="19" width="1" height="1" /><rect x="34" y="20" width="1" height="1" /><rect x="36" y="20" width="1" height="1" /><rect x="7" y="23" width="1" height="9" /><rect x="15" y="23" width="1" height="8" /><rect x="7" y="23" width="8" height="1" /><rect x="7" y="31" width="9" height="1" /><rect x="10" y="26" width="1" height="1" /><rect x="12" y="26" width="1" height="1" /><rect x="9" y="27" width="1" height="1" /><rect x="13" y="27" width="1" height="1" /><rect x="10" y="28" width="1" height="1" /><rect x="12" y="28" width="1" height="1" /><rect x="39" y="23" width="1" height="9" /><rect x="47" y="23" width="1" height="8" /><rect x="39" y="23" width="8" height="1" /><rect x="39" y="31" width="9" height="1" /><rect x="42" y="26" width="1" height="1" /><rect x="44" y="26" width="1" height="1" /><rect x="41" y="27" width="1" height="1" /><rect x="45" y="27" width="1" height="1" /><rect x="42" y="28" width="1" height="1" /><rect x="44" y="28" width="1" height="1" /><rect x="15" y="31" width="1" height="9" /><rect x="23" y="31" width="1" height="8" /><rect x="15" y="31" width="8" height="1" /><rect x="15" y="39" width="9" height="1" /><rect x="18" y="34" width="1" height="1" /><rect x="20" y="34" width="1" height="1" /><rect x="17" y="35" width="1" height="1" /><rect x="21" y="35" width="1" height="1" /><rect x="18" y="36" width="1" height="1" /><rect x="20" y="36" width="1" height="1" /><rect x="31" y="31" width="1" height="9" /><rect x="39" y="31" width="1" height="8" /><rect x="31" y="31" width="8" height="1" /><rect x="31" y="39" width="9" height="1" /><rect x="34" y="34" width="1" height="1" /><rect x="36" y="34" width="1" height="1" /><rect x="33" y="35" width="1" height="1" /><rect x="37" y="35" width="1" height="1" /><rect x="34" y="36" width="1" height="1" /><rect x="36" y="36" width="1" height="1" /></svg>