<?xml version="1.0" encoding="utf-8"?><svg xmlns="http://www.w3.org/2000/svg" xmlns:xlink="http://www.w3.org/1999/xlink" width="208" height="208"><rect x="0" y="0" width="100%" height="100%" fill="#ffffff" /><rect x="87" y="7" width="1" height="41" /><rect x="127" y="7" width="1" height="40" /><rect x="87" y="7" width="40" height="1" /><rect x="87" y="47" width="41" height="1" /><rect x="103" y="7" width="1" height="9" /><rect x="111" y="7" width="1" height="8" /><rect x="103" y="7" width="8" height="1" /><rect x="103" y="15" width="9" height="1" /><rect x="107" y="9" width="1" height="1" /><rect x="107" y="13" width="1" height="1" /><rect x="103" y="39" width="1" height="9" /><rect x="111" y="39" width="1" height="8" /><rect x="103" y="39" width="8" height="1" /><rect x="103" y="47" width="9" height="1" /><rect x="107" y="41" width="1" height="1" /><rect x="107" y="45" width="1" height="1" /><rect x="87" y="167" width="1" height="41" /><rect x="127" y="167" width="1" height="40" /><rect x="87" y="167" width="40" height="1" /><rect x="87" y="207" width="41" height="1" /><rect x="103" y="167" width="1" height="9" /><rect x="111" y="167" width="1" height="8" /><rect x="103" y="167" width="8" height="1" /><rect x="103" y="175" width="9" height="1" /><rect x="107" y="169" width="1" height="1" /><rect x="107" y="173" width="1" height="1" /><rect x="103" y="199" width="1" height="9" /><rect x="111" y="199" width="1" height="8" /><rect x="103" y="199" width="8" height="1" /><rect x="103" y="207" width="9" height="1" /><rect x="107" y="201" width="1" height="1" /><rect x="107" y="205" width="1" height="1" /></svg>