<?xml version="1.0" encoding="utf-8"?><svg xmlns="http://www.w3.org/2000/svg" xmlns:xlink="http://www.w3.org/1999/xlink" width="208" height="208"><rect x="7" y="167" width="1" height="41" /><rect x="7" y="167" width="40" height="1" /><rect x="7" y="207" width="41" height="1" /><rect x="7" y="199" width="1" height="9" /><rect x="7" y="199" width="8" height="1" /><rect x="7" y="207" width="9" height="1" /><rect x="9" y="205" width="1" height="1" /><rect x="10" y="205" width="1" height="1" /><rect x="11" y="205" width="1" height="1" /><rect x="12" y="205" width="1" height="1" /><rect x="13" y="205" width="1" height="1" /><rect x="15" y="199" width="8" height="1" /><rect x="15" y="207" width="9" height="1" /><rect x="17" y="205" width="1" height="1" /><rect x="18" y="205" width="1" height="1" /><rect x="19" y="205" width="1" height="1" /><rect x="20" y="205" width="1" height="1" /><rect x="21" y="205" width="1" height="1" /><rect x="23" y="199" width="8" height="1" /><rect x="23" y="207" width="9" height="1" /><rect x="25" y="205" width="1" height="1" /><rect x="26" y="205" width="1" height="1" /><rect x="27" y="205" width="1" height="1" /><rect x="28" y="205" width="1" height="1" /><rect x="29" y="205" width="1" height="1" /><rect x="31" y="199" width="8" height="1" /><rect x="31" y="207" width="9" height="1" /><rect x="33" y="205" width="1" height="1" /><rect x="34" y="205" width="1" height="1" /><rect x="35" y="205" width="1" height="1" /><rect x="36" y="205" width="1" height="1" /><rect x="37" y="205" width="1" height="1" /><rect x="47" y="199" width="1" height="8" /><rect x="39" y="199" width="8" height="1" /><rect x="39" y="207" width="9" height="1" /><rect x="41" y="205" width="1" height="1" /><rect x="42" y="205" width="1" height="1" /><rect x="43" y="205" width="1" height="1" /><rect x="44" y="205" width="1" height="1" /><rect x="45" y="205" width="1" height="1" /><rect x="47" y="167" width="40" height="1" /><rect x="47" y="207" width="41" height="1" /><rect x="47" y="199" width="1" height="9" /><rect x="47" y="199" width="8" height="1" /><rect x="47" y="207" width="9" height="1" /><rect x="49" y="205" width="1" height="1" /><rect x="50" y="205" width="1" height="1" /><rect x="51" y="205" width="1" height="1" /><rect x="52" y="205" width="1" height="1" /><rect x="53" y="205" width="1" height="1" /><rect x="55" y="199" width="8" height="1" /><rect x="55" y="207" width="9" height="1" /><rect x="57" y="205" width="1" height="1" /><rect x="58" y="205" width="1" height="1" /><rect x="59" y="205" width="1" height="1" /><rect x="60" y="205" width="1" height="1" /><rect x="61" y="205" width="1" height="1" /><rect x="63" y="199" width="8" height="1" /><rect x="63" y="207" width="9" height="1" /><rect x="65" y="205" width="1" height="1" /><rect x="66" y="205" width="1" height="1" /><rect x="67" y="205" width="1" height="1" /><rect x="68" y="205" width="1" height="1" /><rect x="69" y="205" width="1" height="1" /><rect x="71" y="199" width="8" height="1" /><rect x="71" y="207" width="9" height="1" /><rect x="73" y="205" width="1" height="1" /><rect x="74" y="205" width="1" height="1" /><rect x="75" y="205" width="1" height="1" /><rect x="76" y="205" width="1" height="1" /><rect x="77" y="205" width="1" height="1" /><rect x="87" y="199" width="1" height="8" /><rect x="79" y="199" width="8" height="1" /><rect x="79" y="207" width="9" height="1" /><rect x="81" y="205" width="1" height="1" /><rect x="82" y="205" width="1" height="1" /><rect x="83" y="205" width="1" height="1" /><rect x="84" y="205" width="1" height="1" /><rect x="85" y="205" width="1" height="1" /><rect x="87" y="167" width="40" height="1" /><rect x="87" y="207" width="41" height="1" /><rect x="87" y="199" width="1" height="9" /><rect x="87" y="199" width="8" height="1" /><rect x="87" y="207" width="9" height="1" /><rect x="89" y="205" width="1" height="1" /><rect x="90" y="205" width="1" height="1" /><rect x="91" y="205" width="1" height="1" /><rect x="92" y="205" width="1" height="1" /><rect x="93" y="205" width="1" height="1" /><rect x="95" y="199" width="8" height="1" /><rect x="95" y="207" width="9" height="1" /><rect x="97" y="205" width="1" height="1" /><rect x="98" y="205" width="1" height="1" /><rect x="99" y="205" width="1" height="1" /><rect x="100" y="205" width="1" height="1" /><rect x="101" y="205" width="1" height="1" /><rect x="103" y="199" width="8" height="1" /><rect x="103" y="207" width="9" height="1" /><rect x="105" y="205" width="1" height="1" /><rect x="106" y="205" width="1" height="1" /><rect x="107" y="205" width="1" height="1" /><rect x="108" y="205" width="1" height="1" /><rect x="109" y="205" width="1" height="1" /><rect x="111" y="199" width="8" height="1" /><rect x="111" y="207" width="9" height="1" /><rect x="113" y="205" width="1" height="1" /><rect x="114" y="205" width="1" height="1" /><rect x="115" y="205" width="1" height="1" /><rect x="116" y="205" width="1" height="1" /><rect x="117" y="205" width="1" height="1" /><rect x="127" y="199" width="1" height="8" /><rect x="119" y="199" width="8" height="1" /><rect x="119" y="207" width="9" height="1" /><rect x="121" y="205" width="1" height="1" /><rect x="122" y="205" width="1" height="1" /><rect x="123" y="205" width="1" height="1" /><rect x="124" y="205" width="1" height="1" /><rect x="125" y="205" width="1" height="1" /><rect x="127" y="167" width="40" height="1" /><rect x="127" y="207" width="41" height="1" /><rect x="127" y="199" width="1" height="9" /><rect x="127" y="199" width="8" height="1" /><rect x="127" y="207" width="9" height="1" /><rect x="129" y="205" width="1" height="1" /><rect x="130" y="205" width="1" height="1" /><rect x="131" y="205" width="1" height="1" /><rect x="132" y="205" width="1" height="1" /><rect x="133" y="205" width="1" height="1" /><rect x="135" y="199" width="8" height="1" /><rect x="135" y="207" width="9" height="1" /><rect x="137" y="205" width="1" height="1" /><rect x="138" y="205" width="1" height="1" /><rect x="139" y="205" width="1" height="1" /><rect x="140" y="205" width="1" height="1" /><rect x="141" y="205" width="1" height="1" /><rect x="143" y="199" width="8" height="1" /><rect x="143" y="207" width="9" height="1" /><rect x="145" y="205" width="1" height="1" /><rect x="146" y="205" width="1" height="1" /><rect x="147" y="205" width="1" height="1" /><rect x="148" y="205" width="1" height="1" /><rect x="149" y="205" width="1" height="1" /><rect x="151" y="199" width="8" height="1" /><rect x="151" y="207" width="9" height="1" /><rect x="153" y="205" width="1" height="1" /><rect x="154" y="205" width="1" height="1" /><rect x="155" y="205" width="1" height="1" /><rect x="156" y="205" width="1" height="1" /><rect x="157" y="205" width="1" height="1" /><rect x="167" y="199" width="1" height="8" /><rect x="159" y="199" width="8" height="1" /><rect x="159" y="207" width="9" height="1" /><rect x="161" y="205" width="1" height="1" /><rect x="162" y="205" width="1" height="1" /><rect x="163" y="205" width="1" height="1" /><rect x="164" y="205" width="1" height="1" /><rect x="165" y="205" width="1" height="1" /><rect x="207" y="167" width="1" height="40" /><rect x="167" y="167" width="40" height="1" /><rect x="167" y="207" width="41" height="1" /><rect x="167" y="199" width="1" height="9" /><rect x="167" y="199" width="8" height="1" /><rect x="167" y="207" width="9" height="1" /><rect x="169" y="205" width="1" height="1" /><rect x="170" y="205" width="1" height="1" /><rect x="171" y="205" width="1" height="1" /><rect x="172" y="205" width="1" height="1" /><rect x="173" y="205" width="1" height="1" /><rect x="175" y="199" width="8" height="1" /><rect x="175" y="207" width="9" height="1" /><rect x="177" y="205" width="1" height="1" /><rect x="178" y="205" width="1" height="1" /><rect x="179" y="205" width="1" height="1" /><rect x="180" y="205" width="1" height="1" /><rect x="181" y="205" width="1" height="1" /><rect x="183" y="199" width="8" height="1" /><rect x="183" y="207" width="9" height="1" /><rect x="185" y="205" width="1" height="1" /><rect x="186" y="205" width="1" height="1" /><rect x="187" y="205" width="1" height="1" /><rect x="188" y="205" width="1" height="1" /><rect x="189" y="205" width="1" height="1" /><rect x="191" y="199" width="8" height="1" /><rect x="191" y="207" width="9" height="1" /><rect x="193" y="205" width="1" height="1" /><rect x="194" y="205" width="1" height="1" /><rect x="195" y="205" width="1" height="1" /><rect x="196" y="205" width="1" height="1" /><rect x="197" y="205" width="1" height="1" /><rect x="207" y="199" width="1" height="8" /><rect x="199" y="199" width="8" height="1" /><rect x="199" y="207" width="9" height="1" /><rect x="201" y="205" width="1" height="1" /><rect x="202" y="205" width="1" height="1" /><rect x="203" y="205" width="1" height="1" /><rect x="204" y="205" width="1" height="1" /><rect x="205" y="205" width="1" height="1" /></svg>