<?xml version="1.0" encoding="utf-8"?><svg xmlns="http://www.w3.org/2000/svg" xmlns:xlink="http://www.w3.org/1999/xlink" width="208" height="208"><rect x="87" y="47" width="1" height="41" /><rect x="127" y="47" width="1" height="40" /><rect x="87" y="47" width="40" height="1" /><rect x="103" y="55" width="1" height="9" /><rect x="111" y="55" width="1" height="8" /><rect x="103" y="55" width="8" height="1" /><rect x="107" y="58" width="1" height="1" /><rect x="106" y="59" width="1" height="1" /><rect x="107" y="59" width="1" height="1" /><rect x="108" y="59" width="1" height="1" /><rect x="107" y="60" width="1" height="1" /><rect x="95" y="63" width="1" height="9" /><rect x="95" y="63" width="8" height="1" /><rect x="95" y="71" width="9" height="1" /><rect x="99" y="66" width="1" height="1" /><rect x="98" y="67" width="1" height="1" /><rect x="99" y="67" width="1" height="1" /><rect x="100" y="67" width="1" height="1" /><rect x="99" y="68" width="1" height="1" /><rect x="107" y="66" width="1" height="1" /><rect x="106" y="67" width="1" height="1" /><rect x="107" y="67" width="1" height="1" /><rect x="108" y="67" width="1" height="1" /><rect x="107" y="68" width="1" height="1" /><rect x="119" y="63" width="1" height="8" /><rect x="111" y="63" width="8" height="1" /><rect x="111" y="71" width="9" height="1" /><rect x="115" y="66" width="1" height="1" /><rect x="114" y="67" width="1" height="1" /><rect x="115" y="67" width="1" height="1" /><rect x="116" y="67" width="1" height="1" /><rect x="115" y="68" width="1" height="1" /><rect x="103" y="71" width="1" height="9" /><rect x="111" y="71" width="1" height="8" /><rect x="103" y="79" width="9" height="1" /><rect x="107" y="74" width="1" height="1" /><rect x="106" y="75" width="1" height="1" /><rect x="107" y="75" width="1" height="1" /><rect x="108" y="75" width="1" height="1" /><rect x="107" y="76" width="1" height="1" /><rect x="47" y="87" width="1" height="41" /><rect x="47" y="87" width="40" height="1" /><rect x="47" y="127" width="41" height="1" /><rect x="63" y="95" width="1" height="9" /><rect x="71" y="95" width="1" height="8" /><rect x="63" y="95" width="8" height="1" /><rect x="67" y="98" width="1" height="1" /><rect x="66" y="99" width="1" height="1" /><rect x="67" y="99" width="1" height="1" /><rect x="68" y="99" width="1" height="1" /><rect x="67" y="100" width="1" height="1" /><rect x="55" y="103" width="1" height="9" /><rect x="55" y="103" width="8" height="1" /><rect x="55" y="111" width="9" height="1" /><rect x="59" y="106" width="1" height="1" /><rect x="58" y="107" width="1" height="1" /><rect x="59" y="107" width="1" height="1" /><rect x="60" y="107" width="1" height="1" /><rect x="59" y="108" width="1" height="1" /><rect x="67" y="106" width="1" height="1" /><rect x="66" y="107" width="1" height="1" /><rect x="67" y="107" width="1" height="1" /><rect x="68" y="107" width="1" height="1" /><rect x="67" y="108" width="1" height="1" /><rect x="79" y="103" width="1" height="8" /><rect x="71" y="103" width="8" height="1" /><rect x="71" y="111" width="9" height="1" /><rect x="75" y="106" width="1" height="1" /><rect x="74" y="107" width="1" height="1" /><rect x="75" y="107" width="1" height="1" /><rect x="76" y="107" width="1" height="1" /><rect x="75" y="108" width="1" height="1" /><rect x="63" y="111" width="1" height="9" /><rect x="71" y="111" width="1" height="8" /><rect x="63" y="119" width="9" height="1" /><rect x="67" y="114" width="1" height="1" /><rect x="66" y="115" width="1" height="1" /><rect x="67" y="115" width="1" height="1" /><rect x="68" y="115" width="1" height="1" /><rect x="67" y="116" width="1" height="1" /><rect x="103" y="95" width="1" height="9" /><rect x="111" y="95" width="1" height="8" /><rect x="103" y="95" width="8" height="1" /><rect x="107" y="98" width="1" height="1" /><rect x="106" y="99" width="1" height="1" /><rect x="107" y="99" width="1" height="1" /><rect x="108" y="99" width="1" height="1" /><rect x="107" y="100" width="1" height="1" /><rect x="95" y="103" width="1" height="9" /><rect x="95" y="103" width="8" height="1" /><rect x="95" y="111" width="9" height="1" /><rect x="99" y="106" width="1" height="1" /><rect x="98" y="107" width="1" height="1" /><rect x="99" y="107" width="1" height="1" /><rect x="100" y="107" width="1" height="1" /><rect x="99" y="108" width="1" height="1" /><rect x="107" y="106" width="1" height="1" /><rect x="106" y="107" width="1" height="1" /><rect x="107" y="107" width="1" height="1" /><rect x="108" y="107" width="1" height="1" /><rect x="107" y="108" width="1" height="1" /><rect x="119" y="103" width="1" height="8" /><rect x="111" y="103" width="8" height="1" /><rect x="111" y="111" width="9" height="1" /><rect x="115" y="106" width="1" height="1" /><rect x="114" y="107" width="1" height="1" /><rect x="115" y="107" width="1" height="1" /><rect x="116" y="107" width="1" height="1" /><rect x="115" y="108" width="1" height="1" /><rect x="103" y="111" width="1" height="9" /><rect x="111" y="111" width="1" height="8" /><rect x="103" y="119" width="9" height="1" /><rect x="107" y="114" width="1" height="1" /><rect x="106" y="115" width="1" height="1" /><rect x="107" y="115" width="1" height="1" /><rect x="108" y="115" width="1" height="1" /><rect x="107" y="116" width="1" height="1" /><rect x="167" y="87" width="1" height="40" /><rect x="127" y="87" width="40" height="1" /><rect x="127" y="127" width="41" height="1" /><rect x="143" y="95" width="1" height="9" /><rect x="151" y="95" width="1" height="8" /><rect x="143" y="95" width="8" height="1" /><rect x="147" y="98" width="1" height="1" /><rect x="146" y="99" width="1" height="1" /><rect x="147" y="99" width="1" height="1" /><rect x="148" y="99" width="1" height="1" /><rect x="147" y="100" width="1" height="1" /><rect x="135" y="103" width="1" height="9" /><rect x="135" y="103" width="8" height="1" /><rect x="135" y="111" width="9" height="1" /><rect x="139" y="106" width="1" height="1" /><rect x="138" y="107" width="1" height="1" /><rect x="139" y="107" width="1" height="1" /><rect x="140" y="107" width="1" height="1" /><rect x="139" y="108" width="1" height="1" /><rect x="147" y="106" width="1" height="1" /><rect x="146" y="107" width="1" height="1" /><rect x="147" y="107" width="1" height="1" /><rect x="148" y="107" width="1" height="1" /><rect x="147" y="108" width="1" height="1" /><rect x="159" y="103" width="1" height="8" /><rect x="151" y="103" width="8" height="1" /><rect x="151" y="111" width="9" height="1" /><rect x="155" y="106" width="1" height="1" /><rect x="154" y="107" width="1" height="1" /><rect x="155" y="107" width="1" height="1" /><rect x="156" y="107" width="1" height="1" /><rect x="155" y="108" width="1" height="1" /><rect x="143" y="111" width="1" height="9" /><rect x="151" y="111" width="1" height="8" /><rect x="143" y="119" width="9" height="1" /><rect x="147" y="114" width="1" height="1" /><rect x="146" y="115" width="1" height="1" /><rect x="147" y="115" width="1" height="1" /><rect x="148" y="115" width="1" height="1" /><rect x="147" y="116" width="1" height="1" /><rect x="87" y="127" width="1" height="41" /><rect x="127" y="127" width="1" height="40" /><rect x="87" y="167" width="41" height="1" /><rect x="103" y="135" width="1" height="9" /><rect x="111" y="135" width="1" height="8" /><rect x="103" y="135" width="8" height="1" /><rect x="107" y="138" width="1" height="1" /><rect x="106" y="139" width="1" height="1" /><rect x="107" y="139" width="1" height="1" /><rect x="108" y="139" width="1" height="1" /><rect x="107" y="140" width="1" height="1" /><rect x="95" y="143" width="1" height="9" /><rect x="95" y="143" width="8" height="1" /><rect x="95" y="151" width="9" height="1" /><rect x="99" y="146" width="1" height="1" /><rect x="98" y="147" width="1" height="1" /><rect x="99" y="147" width="1" height="1" /><rect x="100" y="147" width="1" height="1" /><rect x="99" y="148" width="1" height="1" /><rect x="107" y="146" width="1" height="1" /><rect x="106" y="147" width="1" height="1" /><rect x="107" y="147" width="1" height="1" /><rect x="108" y="147" width="1" height="1" /><rect x="107" y="148" width="1" height="1" /><rect x="119" y="143" width="1" height="8" /><rect x="111" y="143" width="8" height="1" /><rect x="111" y="151" width="9" height="1" /><rect x="115" y="146" width="1" height="1" /><rect x="114" y="147" width="1" height="1" /><rect x="115" y="147" width="1" height="1" /><rect x="116" y="147" width="1" height="1" /><rect x="115" y="148" width="1" height="1" /><rect x="103" y="151" width="1" height="9" /><rect x="111" y="151" width="1" height="8" /><rect x="103" y="159" width="9" height="1" /><rect x="107" y="154" width="1" height="1" /><rect x="106" y="155" width="1" height="1" /><rect x="107" y="155" width="1" height="1" /><rect x="108" y="155" width="1" height="1" /><rect x="107" y="156" width="1" height="1" /></svg>