<?xml version="1.0" encoding="utf-8"?><svg xmlns="http://www.w3.org/2000/svg" xmlns:xlink="http://www.w3.org/1999/xlink" width="48" height="48"><rect x="15" y="7" width="1" height="9" /><rect x="23" y="7" width="1" height="8" /><rect x="15" y="7" width="8" height="1" /><rect x="15" y="15" width="9" height="1" /><rect x="18" y="9" width="1" height="1" /><rect x="20" y="9" width="1" height="1" /><rect x="17" y="10" width="1" height="1" /><rect x="19" y="10" width="1" height="1" /><rect x="21" y="10" width="1" height="1" /><rect x="17" y="11" width="1" height="1" /><rect x="21" y="11" width="1" height="1" /><rect x="18" y="12" width="1" height="1" /><rect x="20" y="12" width="1" height="1" /><rect x="19" y="13" width="1" height="1" /><rect x="31" y="7" width="1" height="9" /><rect x="39" y="7" width="1" height="8" /><rect x="31" y="7" width="8" height="1" /><rect x="31" y="15" width="9" height="1" /><rect x="34" y="9" width="1" height="1" /><rect x="36" y="9" width="1" height="1" /><rect x="33" y="10" width="1" height="1" /><rect x="35" y="10" width="1" height="1" /><rect x="37" y="10" width="1" height="1" /><rect x="33" y="11" width="1" height="1" /><rect x="37" y="11" width="1" height="1" /><rect x="34" y="12" width="1" height="1" /><rect x="36" y="12" width="1" height="1" /><rect x="35" y="13" width="1" height="1" /><rect x="7" y="15" width="1" height="9" /><rect x="15" y="15" width="1" height="8" /><rect x="7" y="15" width="8" height="1" /><rect x="10" y="17" width="1" height="1" /><rect x="12" y="17" width="1" height="1" /><rect x="9" y="18" width="1" height="1" /><rect x="11" y="18" width="1" height="1" /><rect x="13" y="18" width="1" height="1" /><rect x="9" y="19" width="1" height="1" /><rect x="13" y="19" width="1" height="1" /><rect x="10" y="20" width="1" height="1" /><rect x="12" y="20" width="1" height="1" /><rect x="11" y="21" width="1" height="1" /><rect x="23" y="15" width="1" height="9" /><rect x="31" y="15" width="1" height="8" /><rect x="23" y="15" width="8" height="1" /><rect x="23" y="23" width="9" height="1" /><rect x="26" y="17" width="1" height="1" /><rect x="28" y="17" width="1" height="1" /><rect x="25" y="18" width="1" height="1" /><rect x="27" y="18" width="1" height="1" /><rect x="29" y="18" width="1" height="1" /><rect x="25" y="19" width="1" height="1" /><rect x="29" y="19" width="1" height="1" /><rect x="26" y="20" width="1" height="1" /><rect x="28" y="20" width="1" height="1" /><rect x="27" y="21" width="1" height="1" /><rect x="39" y="15" width="1" height="9" /><rect x="47" y="15" width="1" height="8" /><rect x="39" y="15" width="8" height="1" /><rect x="42" y="17" width="1" height="1" /><rect x="44" y="17" width="1" height="1" /><rect x="41" y="18" width="1" height="1" /><rect x="43" y="18" width="1" height="1" /><rect x="45" y="18" width="1" height="1" /><rect x="41" y="19" width="1" height="1" /><rect x="45" y="19" width="1" height="1" /><rect x="42" y="20" width="1" height="1" /><rect x="44" y="20" width="1" height="1" /><rect x="43" y="21" width="1" height="1" /><rect x="7" y="23" width="1" height="9" /><rect x="15" y="23" width="1" height="8" /><rect x="7" y="31" width="9" height="1" /><rect x="10" y="25" width="1" height="1" /><rect x="12" y="25" width="1" height="1" /><rect x="9" y="26" width="1" height="1" /><rect x="11" y="26" width="1" height="1" /><rect x="13" y="26" width="1" height="1" /><rect x="9" y="27" width="1" height="1" /><rect x="13" y="27" width="1" height="1" /><rect x="10" y="28" width="1" height="1" /><rect x="12" y="28" width="1" height="1" /><rect x="11" y="29" width="1" height="1" /><rect x="39" y="23" width="1" height="9" /><rect x="47" y="23" width="1" height="8" /><rect x="39" y="31" width="9" height="1" /><rect x="42" y="25" width="1" height="1" /><rect x="44" y="25" width="1" height="1" /><rect x="41" y="26" width="1" height="1" /><rect x="43" y="26" width="1" height="1" /><rect x="45" y="26" width="1" height="1" /><rect x="41" y="27" width="1" height="1" /><rect x="45" y="27" width="1" height="1" /><rect x="42" y="28" width="1" height="1" /><rect x="44" y="28" width="1" height="1" /><rect x="43" y="29" width="1" height="1" /><rect x="15" y="31" width="1" height="9" /><rect x="23" y="31" width="1" height="8" /><rect x="15" y="31" width="8" height="1" /><rect x="15" y="39" width="9" height="1" /><rect x="18" y="33" width="1" height="1" /><rect x="20" y="33" width="1" height="1" /><rect x="17" y="34" width="1" height="1" /><rect x="19" y="34" width="1" height="1" /><rect x="21" y="34" width="1" height="1" /><rect x="17" y="35" width="1" height="1" /><rect x="21" y="35" width="1" height="1" /><rect x="18" y="36" width="1" height="1" /><rect x="20" y="36" width="1" height="1" /><rect x="19" y="37" width="1" height="1" /><rect x="31" y="31" width="1" height="9" /><rect x="39" y="31" width="1" height="8" /><rect x="31" y="31" width="8" height="1" /><rect x="31" y="39" width="9" height="1" /><rect x="34" y="33" width="1" height="1" /><rect x="36" y="33" width="1" height="1" /><rect x="33" y="34" width="1" height="1" /><rect x="35" y="34" width="1" height="1" /><rect x="37" y="34" width="1" height="1" /><rect x="33" y="35" width="1" height="1" /><rect x="37" y="35" width="1" height="1" /><rect x="34" y="36" width="1" height="1" /><rect x="36" y="36" width="1" height="1" /><rect x="35" y="37" width="1" height="1" /><rect x="23" y="39" width="1" height="9" /><rect x="31" y="39" width="1" height="8" /><rect x="23" y="39" width="8" height="1" /><rect x="23" y="47" width="9" height="1" /><rect x="26" y="41" width="1" height="1" /><rect x="28" y="41" width="1" height="1" /><rect x="25" y="42" width="1" height="1" /><rect x="27" y="42" width="1" height="1" /><rect x="29" y="42" width="1" height="1" /><rect x="25" y="43" width="1" height="1" /><rect x="29" y="43" width="1" height="1" /><rect x="26" y="44" width="1" height="1" /><rect x="28" y="44" width="1" height="1" /><rect x="27" y="45" width="1" height="1" /></svg>