<?xml version="1.0" encoding="utf-8"?><svg xmlns="http://www.w3.org/2000/svg" xmlns:xlink="http://www.w3.org/1999/xlink" width="208" height="208"><rect x="87" y="7" width="1" height="41" /><rect x="127" y="7" width="1" height="40" /><rect x="87" y="7" width="40" height="1" /><rect x="103" y="7" width="1" height="9" /><rect x="111" y="7" width="1" height="8" /><rect x="103" y="7" width="8" height="1" /><rect x="107" y="9" width="1" height="1" /><rect x="106" y="10" width="1" height="1" /><rect x="107" y="10" width="1" height="1" /><rect x="107" y="11" width="1" height="1" /><rect x="107" y="12" width="1" height="1" /><rect x="106" y="13" width="1" height="1" /><rect x="107" y="13" width="1" height="1" /><rect x="108" y="13" width="1" height="1" /><rect x="95" y="15" width="1" height="9" /><rect x="95" y="15" width="8" height="1" /><rect x="95" y="23" width="9" height="1" /><rect x="99" y="17" width="1" height="1" /><rect x="98" y="18" width="1" height="1" /><rect x="99" y="18" width="1" height="1" /><rect x="99" y="19" width="1" height="1" /><rect x="99" y="20" width="1" height="1" /><rect x="98" y="21" width="1" height="1" /><rect x="99" y="21" width="1" height="1" /><rect x="100" y="21" width="1" height="1" /><rect x="111" y="15" width="1" height="8" /><rect x="107" y="17" width="1" height="1" /><rect x="106" y="18" width="1" height="1" /><rect x="107" y="18" width="1" height="1" /><rect x="107" y="19" width="1" height="1" /><rect x="107" y="20" width="1" height="1" /><rect x="106" y="21" width="1" height="1" /><rect x="107" y="21" width="1" height="1" /><rect x="108" y="21" width="1" height="1" /><rect x="103" y="23" width="1" height="9" /><rect x="111" y="23" width="1" height="8" /><rect x="107" y="25" width="1" height="1" /><rect x="106" y="26" width="1" height="1" /><rect x="107" y="26" width="1" height="1" /><rect x="107" y="27" width="1" height="1" /><rect x="107" y="28" width="1" height="1" /><rect x="106" y="29" width="1" height="1" /><rect x="107" y="29" width="1" height="1" /><rect x="108" y="29" width="1" height="1" /><rect x="103" y="31" width="1" height="9" /><rect x="111" y="31" width="1" height="8" /><rect x="107" y="33" width="1" height="1" /><rect x="106" y="34" width="1" height="1" /><rect x="107" y="34" width="1" height="1" /><rect x="107" y="35" width="1" height="1" /><rect x="107" y="36" width="1" height="1" /><rect x="106" y="37" width="1" height="1" /><rect x="107" y="37" width="1" height="1" /><rect x="108" y="37" width="1" height="1" /><rect x="95" y="39" width="1" height="9" /><rect x="95" y="39" width="8" height="1" /><rect x="95" y="47" width="9" height="1" /><rect x="99" y="41" width="1" height="1" /><rect x="98" y="42" width="1" height="1" /><rect x="99" y="42" width="1" height="1" /><rect x="99" y="43" width="1" height="1" /><rect x="99" y="44" width="1" height="1" /><rect x="98" y="45" width="1" height="1" /><rect x="99" y="45" width="1" height="1" /><rect x="100" y="45" width="1" height="1" /><rect x="103" y="47" width="9" height="1" /><rect x="107" y="41" width="1" height="1" /><rect x="106" y="42" width="1" height="1" /><rect x="107" y="42" width="1" height="1" /><rect x="107" y="43" width="1" height="1" /><rect x="107" y="44" width="1" height="1" /><rect x="106" y="45" width="1" height="1" /><rect x="107" y="45" width="1" height="1" /><rect x="108" y="45" width="1" height="1" /><rect x="119" y="39" width="1" height="8" /><rect x="111" y="39" width="8" height="1" /><rect x="111" y="47" width="9" height="1" /><rect x="115" y="41" width="1" height="1" /><rect x="114" y="42" width="1" height="1" /><rect x="115" y="42" width="1" height="1" /><rect x="115" y="43" width="1" height="1" /><rect x="115" y="44" width="1" height="1" /><rect x="114" y="45" width="1" height="1" /><rect x="115" y="45" width="1" height="1" /><rect x="116" y="45" width="1" height="1" /><rect x="47" y="47" width="1" height="41" /><rect x="47" y="47" width="40" height="1" /><rect x="47" y="87" width="41" height="1" /><rect x="63" y="47" width="1" height="9" /><rect x="71" y="47" width="1" height="8" /><rect x="63" y="47" width="8" height="1" /><rect x="67" y="49" width="1" height="1" /><rect x="66" y="50" width="1" height="1" /><rect x="67" y="50" width="1" height="1" /><rect x="67" y="51" width="1" height="1" /><rect x="67" y="52" width="1" height="1" /><rect x="66" y="53" width="1" height="1" /><rect x="67" y="53" width="1" height="1" /><rect x="68" y="53" width="1" height="1" /><rect x="55" y="55" width="1" height="9" /><rect x="55" y="55" width="8" height="1" /><rect x="55" y="63" width="9" height="1" /><rect x="59" y="57" width="1" height="1" /><rect x="58" y="58" width="1" height="1" /><rect x="59" y="58" width="1" height="1" /><rect x="59" y="59" width="1" height="1" /><rect x="59" y="60" width="1" height="1" /><rect x="58" y="61" width="1" height="1" /><rect x="59" y="61" width="1" height="1" /><rect x="60" y="61" width="1" height="1" /><rect x="71" y="55" width="1" height="8" /><rect x="67" y="57" width="1" height="1" /><rect x="66" y="58" width="1" height="1" /><rect x="67" y="58" width="1" height="1" /><rect x="67" y="59" width="1" height="1" /><rect x="67" y="60" width="1" height="1" /><rect x="66" y="61" width="1" height="1" /><rect x="67" y="61" width="1" height="1" /><rect x="68" y="61" width="1" height="1" /><rect x="63" y="63" width="1" height="9" /><rect x="71" y="63" width="1" height="8" /><rect x="67" y="65" width="1" height="1" /><rect x="66" y="66" width="1" height="1" /><rect x="67" y="66" width="1" height="1" /><rect x="67" y="67" width="1" height="1" /><rect x="67" y="68" width="1" height="1" /><rect x="66" y="69" width="1" height="1" /><rect x="67" y="69" width="1" height="1" /><rect x="68" y="69" width="1" height="1" /><rect x="63" y="71" width="1" height="9" /><rect x="71" y="71" width="1" height="8" /><rect x="67" y="73" width="1" height="1" /><rect x="66" y="74" width="1" height="1" /><rect x="67" y="74" width="1" height="1" /><rect x="67" y="75" width="1" height="1" /><rect x="67" y="76" width="1" height="1" /><rect x="66" y="77" width="1" height="1" /><rect x="67" y="77" width="1" height="1" /><rect x="68" y="77" width="1" height="1" /><rect x="55" y="79" width="1" height="9" /><rect x="55" y="79" width="8" height="1" /><rect x="55" y="87" width="9" height="1" /><rect x="59" y="81" width="1" height="1" /><rect x="58" y="82" width="1" height="1" /><rect x="59" y="82" width="1" height="1" /><rect x="59" y="83" width="1" height="1" /><rect x="59" y="84" width="1" height="1" /><rect x="58" y="85" width="1" height="1" /><rect x="59" y="85" width="1" height="1" /><rect x="60" y="85" width="1" height="1" /><rect x="63" y="87" width="9" height="1" /><rect x="67" y="81" width="1" height="1" /><rect x="66" y="82" width="1" height="1" /><rect x="67" y="82" width="1" height="1" /><rect x="67" y="83" width="1" height="1" /><rect x="67" y="84" width="1" height="1" /><rect x="66" y="85" width="1" height="1" /><rect x="67" y="85" width="1" height="1" /><rect x="68" y="85" width="1" height="1" /><rect x="79" y="79" width="1" height="8" /><rect x="71" y="79" width="8" height="1" /><rect x="71" y="87" width="9" height="1" /><rect x="75" y="81" width="1" height="1" /><rect x="74" y="82" width="1" height="1" /><rect x="75" y="82" width="1" height="1" /><rect x="75" y="83" width="1" height="1" /><rect x="75" y="84" width="1" height="1" /><rect x="74" y="85" width="1" height="1" /><rect x="75" y="85" width="1" height="1" /><rect x="76" y="85" width="1" height="1" /><rect x="127" y="47" width="1" height="40" /><rect x="103" y="47" width="1" height="9" /><rect x="111" y="47" width="1" height="8" /><rect x="103" y="47" width="8" height="1" /><rect x="107" y="49" width="1" height="1" /><rect x="106" y="50" width="1" height="1" /><rect x="107" y="50" width="1" height="1" /><rect x="107" y="51" width="1" height="1" /><rect x="107" y="52" width="1" height="1" /><rect x="106" y="53" width="1" height="1" /><rect x="107" y="53" width="1" height="1" /><rect x="108" y="53" width="1" height="1" /><rect x="95" y="55" width="1" height="9" /><rect x="95" y="55" width="8" height="1" /><rect x="95" y="63" width="9" height="1" /><rect x="99" y="57" width="1" height="1" /><rect x="98" y="58" width="1" height="1" /><rect x="99" y="58" width="1" height="1" /><rect x="99" y="59" width="1" height="1" /><rect x="99" y="60" width="1" height="1" /><rect x="98" y="61" width="1" height="1" /><rect x="99" y="61" width="1" height="1" /><rect x="100" y="61" width="1" height="1" /><rect x="111" y="55" width="1" height="8" /><rect x="107" y="57" width="1" height="1" /><rect x="106" y="58" width="1" height="1" /><rect x="107" y="58" width="1" height="1" /><rect x="107" y="59" width="1" height="1" /><rect x="107" y="60" width="1" height="1" /><rect x="106" y="61" width="1" height="1" /><rect x="107" y="61" width="1" height="1" /><rect x="108" y="61" width="1" height="1" /><rect x="103" y="63" width="1" height="9" /><rect x="111" y="63" width="1" height="8" /><rect x="107" y="65" width="1" height="1" /><rect x="106" y="66" width="1" height="1" /><rect x="107" y="66" width="1" height="1" /><rect x="107" y="67" width="1" height="1" /><rect x="107" y="68" width="1" height="1" /><rect x="106" y="69" width="1" height="1" /><rect x="107" y="69" width="1" height="1" /><rect x="108" y="69" width="1" height="1" /><rect x="103" y="71" width="1" height="9" /><rect x="111" y="71" width="1" height="8" /><rect x="107" y="73" width="1" height="1" /><rect x="106" y="74" width="1" height="1" /><rect x="107" y="74" width="1" height="1" /><rect x="107" y="75" width="1" height="1" /><rect x="107" y="76" width="1" height="1" /><rect x="106" y="77" width="1" height="1" /><rect x="107" y="77" width="1" height="1" /><rect x="108" y="77" width="1" height="1" /><rect x="95" y="79" width="1" height="9" /><rect x="95" y="79" width="8" height="1" /><rect x="95" y="87" width="9" height="1" /><rect x="99" y="81" width="1" height="1" /><rect x="98" y="82" width="1" height="1" /><rect x="99" y="82" width="1" height="1" /><rect x="99" y="83" width="1" height="1" /><rect x="99" y="84" width="1" height="1" /><rect x="98" y="85" width="1" height="1" /><rect x="99" y="85" width="1" height="1" /><rect x="100" y="85" width="1" height="1" /><rect x="103" y="87" width="9" height="1" /><rect x="107" y="81" width="1" height="1" /><rect x="106" y="82" width="1" height="1" /><rect x="107" y="82" width="1" height="1" /><rect x="107" y="83" width="1" height="1" /><rect x="107" y="84" width="1" height="1" /><rect x="106" y="85" width="1" height="1" /><rect x="107" y="85" width="1" height="1" /><rect x="108" y="85" width="1" height="1" /><rect x="119" y="79" width="1" height="8" /><rect x="111" y="79" width="8" height="1" /><rect x="111" y="87" width="9" height="1" /><rect x="115" y="81" width="1" height="1" /><rect x="114" y="82" width="1" height="1" /><rect x="115" y="82" width="1" height="1" /><rect x="115" y="83" width="1" height="1" /><rect x="115" y="84" width="1" height="1" /><rect x="114" y="85" width="1" height="1" /><rect x="115" y="85" width="1" height="1" /><rect x="116" y="85" width="1" height="1" /><rect x="87" y="87" width="1" height="41" /><rect x="127" y="87" width="1" height="40" /><rect x="103" y="87" width="1" height="9" /><rect x="111" y="87" width="1" height="8" /><rect x="103" y="87" width="8" height="1" /><rect x="107" y="89" width="1" height="1" /><rect x="106" y="90" width="1" height="1" /><rect x="107" y="90" width="1" height="1" /><rect x="107" y="91" width="1" height="1" /><rect x="107" y="92" width="1" height="1" /><rect x="106" y="93" width="1" height="1" /><rect x="107" y="93" width="1" height="1" /><rect x="108" y="93" width="1" height="1" /><rect x="95" y="95" width="1" height="9" /><rect x="95" y="95" width="8" height="1" /><rect x="95" y="103" width="9" height="1" /><rect x="99" y="97" width="1" height="1" /><rect x="98" y="98" width="1" height="1" /><rect x="99" y="98" width="1" height="1" /><rect x="99" y="99" width="1" height="1" /><rect x="99" y="100" width="1" height="1" /><rect x="98" y="101" width="1" height="1" /><rect x="99" y="101" width="1" height="1" /><rect x="100" y="101" width="1" height="1" /><rect x="111" y="95" width="1" height="8" /><rect x="107" y="97" width="1" height="1" /><rect x="106" y="98" width="1" height="1" /><rect x="107" y="98" width="1" height="1" /><rect x="107" y="99" width="1" height="1" /><rect x="107" y="100" width="1" height="1" /><rect x="106" y="101" width="1" height="1" /><rect x="107" y="101" width="1" height="1" /><rect x="108" y="101" width="1" height="1" /><rect x="103" y="103" width="1" height="9" /><rect x="111" y="103" width="1" height="8" /><rect x="107" y="105" width="1" height="1" /><rect x="106" y="106" width="1" height="1" /><rect x="107" y="106" width="1" height="1" /><rect x="107" y="107" width="1" height="1" /><rect x="107" y="108" width="1" height="1" /><rect x="106" y="109" width="1" height="1" /><rect x="107" y="109" width="1" height="1" /><rect x="108" y="109" width="1" height="1" /><rect x="103" y="111" width="1" height="9" /><rect x="111" y="111" width="1" height="8" /><rect x="107" y="113" width="1" height="1" /><rect x="106" y="114" width="1" height="1" /><rect x="107" y="114" width="1" height="1" /><rect x="107" y="115" width="1" height="1" /><rect x="107" y="116" width="1" height="1" /><rect x="106" y="117" width="1" height="1" /><rect x="107" y="117" width="1" height="1" /><rect x="108" y="117" width="1" height="1" /><rect x="95" y="119" width="1" height="9" /><rect x="95" y="119" width="8" height="1" /><rect x="95" y="127" width="9" height="1" /><rect x="99" y="121" width="1" height="1" /><rect x="98" y="122" width="1" height="1" /><rect x="99" y="122" width="1" height="1" /><rect x="99" y="123" width="1" height="1" /><rect x="99" y="124" width="1" height="1" /><rect x="98" y="125" width="1" height="1" /><rect x="99" y="125" width="1" height="1" /><rect x="100" y="125" width="1" height="1" /><rect x="103" y="127" width="9" height="1" /><rect x="107" y="121" width="1" height="1" /><rect x="106" y="122" width="1" height="1" /><rect x="107" y="122" width="1" height="1" /><rect x="107" y="123" width="1" height="1" /><rect x="107" y="124" width="1" height="1" /><rect x="106" y="125" width="1" height="1" /><rect x="107" y="125" width="1" height="1" /><rect x="108" y="125" width="1" height="1" /><rect x="119" y="119" width="1" height="8" /><rect x="111" y="119" width="8" height="1" /><rect x="111" y="127" width="9" height="1" /><rect x="115" y="121" width="1" height="1" /><rect x="114" y="122" width="1" height="1" /><rect x="115" y="122" width="1" height="1" /><rect x="115" y="123" width="1" height="1" /><rect x="115" y="124" width="1" height="1" /><rect x="114" y="125" width="1" height="1" /><rect x="115" y="125" width="1" height="1" /><rect x="116" y="125" width="1" height="1" /><rect x="87" y="127" width="1" height="41" /><rect x="127" y="127" width="1" height="40" /><rect x="103" y="127" width="1" height="9" /><rect x="111" y="127" width="1" height="8" /><rect x="103" y="127" width="8" height="1" /><rect x="107" y="129" width="1" height="1" /><rect x="106" y="130" width="1" height="1" /><rect x="107" y="130" width="1" height="1" /><rect x="107" y="131" width="1" height="1" /><rect x="107" y="132" width="1" height="1" /><rect x="106" y="133" width="1" height="1" /><rect x="107" y="133" width="1" height="1" /><rect x="108" y="133" width="1" height="1" /><rect x="95" y="135" width="1" height="9" /><rect x="95" y="135" width="8" height="1" /><rect x="95" y="143" width="9" height="1" /><rect x="99" y="137" width="1" height="1" /><rect x="98" y="138" width="1" height="1" /><rect x="99" y="138" width="1" height="1" /><rect x="99" y="139" width="1" height="1" /><rect x="99" y="140" width="1" height="1" /><rect x="98" y="141" width="1" height="1" /><rect x="99" y="141" width="1" height="1" /><rect x="100" y="141" width="1" height="1" /><rect x="111" y="135" width="1" height="8" /><rect x="107" y="137" width="1" height="1" /><rect x="106" y="138" width="1" height="1" /><rect x="107" y="138" width="1" height="1" /><rect x="107" y="139" width="1" height="1" /><rect x="107" y="140" width="1" height="1" /><rect x="106" y="141" width="1" height="1" /><rect x="107" y="141" width="1" height="1" /><rect x="108" y="141" width="1" height="1" /><rect x="103" y="143" width="1" height="9" /><rect x="111" y="143" width="1" height="8" /><rect x="107" y="145" width="1" height="1" /><rect x="106" y="146" width="1" height="1" /><rect x="107" y="146" width="1" height="1" /><rect x="107" y="147" width="1" height="1" /><rect x="107" y="148" width="1" height="1" /><rect x="106" y="149" width="1" height="1" /><rect x="107" y="149" width="1" height="1" /><rect x="108" y="149" width="1" height="1" /><rect x="103" y="151" width="1" height="9" /><rect x="111" y="151" width="1" height="8" /><rect x="107" y="153" width="1" height="1" /><rect x="106" y="154" width="1" height="1" /><rect x="107" y="154" width="1" height="1" /><rect x="107" y="155" width="1" height="1" /><rect x="107" y="156" width="1" height="1" /><rect x="106" y="157" width="1" height="1" /><rect x="107" y="157" width="1" height="1" /><rect x="108" y="157" width="1" height="1" /><rect x="95" y="159" width="1" height="9" /><rect x="95" y="159" width="8" height="1" /><rect x="95" y="167" width="9" height="1" /><rect x="99" y="161" width="1" height="1" /><rect x="98" y="162" width="1" height="1" /><rect x="99" y="162" width="1" height="1" /><rect x="99" y="163" width="1" height="1" /><rect x="99" y="164" width="1" height="1" /><rect x="98" y="165" width="1" height="1" /><rect x="99" y="165" width="1" height="1" /><rect x="100" y="165" width="1" height="1" /><rect x="103" y="167" width="9" height="1" /><rect x="107" y="161" width="1" height="1" /><rect x="106" y="162" width="1" height="1" /><rect x="107" y="162" width="1" height="1" /><rect x="107" y="163" width="1" height="1" /><rect x="107" y="164" width="1" height="1" /><rect x="106" y="165" width="1" height="1" /><rect x="107" y="165" width="1" height="1" /><rect x="108" y="165" width="1" height="1" /><rect x="119" y="159" width="1" height="8" /><rect x="111" y="159" width="8" height="1" /><rect x="111" y="167" width="9" height="1" /><rect x="115" y="161" width="1" height="1" /><rect x="114" y="162" width="1" height="1" /><rect x="115" y="162" width="1" height="1" /><rect x="115" y="163" width="1" height="1" /><rect x="115" y="164" width="1" height="1" /><rect x="114" y="165" width="1" height="1" /><rect x="115" y="165" width="1" height="1" /><rect x="116" y="165" width="1" height="1" /><rect x="47" y="167" width="1" height="41" /><rect x="47" y="167" width="40" height="1" /><rect x="47" y="207" width="41" height="1" /><rect x="63" y="167" width="1" height="9" /><rect x="71" y="167" width="1" height="8" /><rect x="63" y="167" width="8" height="1" /><rect x="67" y="169" width="1" height="1" /><rect x="66" y="170" width="1" height="1" /><rect x="67" y="170" width="1" height="1" /><rect x="67" y="171" width="1" height="1" /><rect x="67" y="172" width="1" height="1" /><rect x="66" y="173" width="1" height="1" /><rect x="67" y="173" width="1" height="1" /><rect x="68" y="173" width="1" height="1" /><rect x="55" y="175" width="1" height="9" /><rect x="55" y="175" width="8" height="1" /><rect x="55" y="183" width="9" height="1" /><rect x="59" y="177" width="1" height="1" /><rect x="58" y="178" width="1" height="1" /><rect x="59" y="178" width="1" height="1" /><rect x="59" y="179" width="1" height="1" /><rect x="59" y="180" width="1" height="1" /><rect x="58" y="181" width="1" height="1" /><rect x="59" y="181" width="1" height="1" /><rect x="60" y="181" width="1" height="1" /><rect x="71" y="175" width="1" height="8" /><rect x="67" y="177" width="1" height="1" /><rect x="66" y="178" width="1" height="1" /><rect x="67" y="178" width="1" height="1" /><rect x="67" y="179" width="1" height="1" /><rect x="67" y="180" width="1" height="1" /><rect x="66" y="181" width="1" height="1" /><rect x="67" y="181" width="1" height="1" /><rect x="68" y="181" width="1" height="1" /><rect x="63" y="183" width="1" height="9" /><rect x="71" y="183" width="1" height="8" /><rect x="67" y="185" width="1" height="1" /><rect x="66" y="186" width="1" height="1" /><rect x="67" y="186" width="1" height="1" /><rect x="67" y="187" width="1" height="1" /><rect x="67" y="188" width="1" height="1" /><rect x="66" y="189" width="1" height="1" /><rect x="67" y="189" width="1" height="1" /><rect x="68" y="189" width="1" height="1" /><rect x="63" y="191" width="1" height="9" /><rect x="71" y="191" width="1" height="8" /><rect x="67" y="193" width="1" height="1" /><rect x="66" y="194" width="1" height="1" /><rect x="67" y="194" width="1" height="1" /><rect x="67" y="195" width="1" height="1" /><rect x="67" y="196" width="1" height="1" /><rect x="66" y="197" width="1" height="1" /><rect x="67" y="197" width="1" height="1" /><rect x="68" y="197" width="1" height="1" /><rect x="55" y="199" width="1" height="9" /><rect x="55" y="199" width="8" height="1" /><rect x="55" y="207" width="9" height="1" /><rect x="59" y="201" width="1" height="1" /><rect x="58" y="202" width="1" height="1" /><rect x="59" y="202" width="1" height="1" /><rect x="59" y="203" width="1" height="1" /><rect x="59" y="204" width="1" height="1" /><rect x="58" y="205" width="1" height="1" /><rect x="59" y="205" width="1" height="1" /><rect x="60" y="205" width="1" height="1" /><rect x="63" y="207" width="9" height="1" /><rect x="67" y="201" width="1" height="1" /><rect x="66" y="202" width="1" height="1" /><rect x="67" y="202" width="1" height="1" /><rect x="67" y="203" width="1" height="1" /><rect x="67" y="204" width="1" height="1" /><rect x="66" y="205" width="1" height="1" /><rect x="67" y="205" width="1" height="1" /><rect x="68" y="205" width="1" height="1" /><rect x="79" y="199" width="1" height="8" /><rect x="71" y="199" width="8" height="1" /><rect x="71" y="207" width="9" height="1" /><rect x="75" y="201" width="1" height="1" /><rect x="74" y="202" width="1" height="1" /><rect x="75" y="202" width="1" height="1" /><rect x="75" y="203" width="1" height="1" /><rect x="75" y="204" width="1" height="1" /><rect x="74" y="205" width="1" height="1" /><rect x="75" y="205" width="1" height="1" /><rect x="76" y="205" width="1" height="1" /><rect x="87" y="207" width="41" height="1" /><rect x="103" y="167" width="1" height="9" /><rect x="111" y="167" width="1" height="8" /><rect x="103" y="167" width="8" height="1" /><rect x="107" y="169" width="1" height="1" /><rect x="106" y="170" width="1" height="1" /><rect x="107" y="170" width="1" height="1" /><rect x="107" y="171" width="1" height="1" /><rect x="107" y="172" width="1" height="1" /><rect x="106" y="173" width="1" height="1" /><rect x="107" y="173" width="1" height="1" /><rect x="108" y="173" width="1" height="1" /><rect x="95" y="175" width="1" height="9" /><rect x="95" y="175" width="8" height="1" /><rect x="95" y="183" width="9" height="1" /><rect x="99" y="177" width="1" height="1" /><rect x="98" y="178" width="1" height="1" /><rect x="99" y="178" width="1" height="1" /><rect x="99" y="179" width="1" height="1" /><rect x="99" y="180" width="1" height="1" /><rect x="98" y="181" width="1" height="1" /><rect x="99" y="181" width="1" height="1" /><rect x="100" y="181" width="1" height="1" /><rect x="111" y="175" width="1" height="8" /><rect x="107" y="177" width="1" height="1" /><rect x="106" y="178" width="1" height="1" /><rect x="107" y="178" width="1" height="1" /><rect x="107" y="179" width="1" height="1" /><rect x="107" y="180" width="1" height="1" /><rect x="106" y="181" width="1" height="1" /><rect x="107" y="181" width="1" height="1" /><rect x="108" y="181" width="1" height="1" /><rect x="103" y="183" width="1" height="9" /><rect x="111" y="183" width="1" height="8" /><rect x="107" y="185" width="1" height="1" /><rect x="106" y="186" width="1" height="1" /><rect x="107" y="186" width="1" height="1" /><rect x="107" y="187" width="1" height="1" /><rect x="107" y="188" width="1" height="1" /><rect x="106" y="189" width="1" height="1" /><rect x="107" y="189" width="1" height="1" /><rect x="108" y="189" width="1" height="1" /><rect x="103" y="191" width="1" height="9" /><rect x="111" y="191" width="1" height="8" /><rect x="107" y="193" width="1" height="1" /><rect x="106" y="194" width="1" height="1" /><rect x="107" y="194" width="1" height="1" /><rect x="107" y="195" width="1" height="1" /><rect x="107" y="196" width="1" height="1" /><rect x="106" y="197" width="1" height="1" /><rect x="107" y="197" width="1" height="1" /><rect x="108" y="197" width="1" height="1" /><rect x="95" y="199" width="1" height="9" /><rect x="95" y="199" width="8" height="1" /><rect x="95" y="207" width="9" height="1" /><rect x="99" y="201" width="1" height="1" /><rect x="98" y="202" width="1" height="1" /><rect x="99" y="202" width="1" height="1" /><rect x="99" y="203" width="1" height="1" /><rect x="99" y="204" width="1" height="1" /><rect x="98" y="205" width="1" height="1" /><rect x="99" y="205" width="1" height="1" /><rect x="100" y="205" width="1" height="1" /><rect x="103" y="207" width="9" height="1" /><rect x="107" y="201" width="1" height="1" /><rect x="106" y="202" width="1" height="1" /><rect x="107" y="202" width="1" height="1" /><rect x="107" y="203" width="1" height="1" /><rect x="107" y="204" width="1" height="1" /><rect x="106" y="205" width="1" height="1" /><rect x="107" y="205" width="1" height="1" /><rect x="108" y="205" width="1" height="1" /><rect x="119" y="199" width="1" height="8" /><rect x="111" y="199" width="8" height="1" /><rect x="111" y="207" width="9" height="1" /><rect x="115" y="201" width="1" height="1" /><rect x="114" y="202" width="1" height="1" /><rect x="115" y="202" width="1" height="1" /><rect x="115" y="203" width="1" height="1" /><rect x="115" y="204" width="1" height="1" /><rect x="114" y="205" width="1" height="1" /><rect x="115" y="205" width="1" height="1" /><rect x="116" y="205" width="1" height="1" /><rect x="167" y="167" width="1" height="40" /><rect x="127" y="167" width="40" height="1" /><rect x="127" y="207" width="41" height="1" /><rect x="143" y="167" width="1" height="9" /><rect x="151" y="167" width="1" height="8" /><rect x="143" y="167" width="8" height="1" /><rect x="147" y="169" width="1" height="1" /><rect x="146" y="170" width="1" height="1" /><rect x="147" y="170" width="1" height="1" /><rect x="147" y="171" width="1" height="1" /><rect x="147" y="172" width="1" height="1" /><rect x="146" y="173" width="1" height="1" /><rect x="147" y="173" width="1" height="1" /><rect x="148" y="173" width="1" height="1" /><rect x="135" y="175" width="1" height="9" /><rect x="135" y="175" width="8" height="1" /><rect x="135" y="183" width="9" height="1" /><rect x="139" y="177" width="1" height="1" /><rect x="138" y="178" width="1" height="1" /><rect x="139" y="178" width="1" height="1" /><rect x="139" y="179" width="1" height="1" /><rect x="139" y="180" width="1" height="1" /><rect x="138" y="181" width="1" height="1" /><rect x="139" y="181" width="1" height="1" /><rect x="140" y="181" width="1" height="1" /><rect x="151" y="175" width="1" height="8" /><rect x="147" y="177" width="1" height="1" /><rect x="146" y="178" width="1" height="1" /><rect x="147" y="178" width="1" height="1" /><rect x="147" y="179" width="1" height="1" /><rect x="147" y="180" width="1" height="1" /><rect x="146" y="181" width="1" height="1" /><rect x="147" y="181" width="1" height="1" /><rect x="148" y="181" width="1" height="1" /><rect x="143" y="183" width="1" height="9" /><rect x="151" y="183" width="1" height="8" /><rect x="147" y="185" width="1" height="1" /><rect x="146" y="186" width="1" height="1" /><rect x="147" y="186" width="1" height="1" /><rect x="147" y="187" width="1" height="1" /><rect x="147" y="188" width="1" height="1" /><rect x="146" y="189" width="1" height="1" /><rect x="147" y="189" width="1" height="1" /><rect x="148" y="189" width="1" height="1" /><rect x="143" y="191" width="1" height="9" /><rect x="151" y="191" width="1" height="8" /><rect x="147" y="193" width="1" height="1" /><rect x="146" y="194" width="1" height="1" /><rect x="147" y="194" width="1" height="1" /><rect x="147" y="195" width="1" height="1" /><rect x="147" y="196" width="1" height="1" /><rect x="146" y="197" width="1" height="1" /><rect x="147" y="197" width="1" height="1" /><rect x="148" y="197" width="1" height="1" /><rect x="135" y="199" width="1" height="9" /><rect x="135" y="199" width="8" height="1" /><rect x="135" y="207" width="9" height="1" /><rect x="139" y="201" width="1" height="1" /><rect x="138" y="202" width="1" height="1" /><rect x="139" y="202" width="1" height="1" /><rect x="139" y="203" width="1" height="1" /><rect x="139" y="204" width="1" height="1" /><rect x="138" y="205" width="1" height="1" /><rect x="139" y="205" width="1" height="1" /><rect x="140" y="205" width="1" height="1" /><rect x="143" y="207" width="9" height="1" /><rect x="147" y="201" width="1" height="1" /><rect x="146" y="202" width="1" height="1" /><rect x="147" y="202" width="1" height="1" /><rect x="147" y="203" width="1" height="1" /><rect x="147" y="204" width="1" height="1" /><rect x="146" y="205" width="1" height="1" /><rect x="147" y="205" width="1" height="1" /><rect x="148" y="205" width="1" height="1" /><rect x="159" y="199" width="1" height="8" /><rect x="151" y="199" width="8" height="1" /><rect x="151" y="207" width="9" height="1" /><rect x="155" y="201" width="1" height="1" /><rect x="154" y="202" width="1" height="1" /><rect x="155" y="202" width="1" height="1" /><rect x="155" y="203" width="1" height="1" /><rect x="155" y="204" width="1" height="1" /><rect x="154" y="205" width="1" height="1" /><rect x="155" y="205" width="1" height="1" /><rect x="156" y="205" width="1" height="1" /></svg>